<?xml version="1.0" encoding="UTF-8"?>
<svg version="1.1" xmlns="http://www.w3.org/2000/svg" width="1274" height="1008">
<path d="M0 0 C3.93388029 2.69947596 7.78281301 5.50491402 11.60107422 8.36499023 C16.51012657 12.03828407 21.53556482 15.5129346 26.61083984 18.95214844 C33.71742684 23.77524181 40.71885382 28.72085728 47.66650391 33.76977539 C52.70526144 37.4307649 57.76896591 41.05289752 62.86083984 44.63964844 C63.55910889 45.13158691 64.25737793 45.62352539 64.97680664 46.13037109 C67.08343267 47.61341632 69.19074753 49.09547681 71.29833984 50.57714844 C74.11175189 52.5550228 76.92440679 54.5339619 79.73583984 56.51464844 C80.43604248 57.00787598 81.13624512 57.50110352 81.85766602 58.00927734 C86.99384805 61.6357171 92.08714447 65.31856543 97.17333984 69.01464844 C103.31335622 73.47316103 109.52074421 77.81469435 115.79833984 82.07714844 C122.84181887 86.85963328 129.78018605 91.76551894 136.66723633 96.77026367 C143.79274604 101.94755647 150.98487066 107.02683496 158.18945312 112.09326172 C161.72875151 114.5836363 165.26329168 117.08074635 168.79833984 119.57714844 C170.21498396 120.57718038 171.63165062 121.57718039 173.04833984 122.57714844 C185.79833984 131.57714844 185.79833984 131.57714844 198.54833984 140.57714844 C199.24950928 141.07206787 199.95067871 141.5669873 200.6730957 142.0769043 C202.09066638 143.07759032 203.50814677 144.07840426 204.92553711 145.0793457 C208.45264557 147.56990294 211.98126201 150.05826435 215.51318359 152.54199219 C223.63797545 158.25933386 231.72630035 164.02330858 239.76757812 169.85766602 C243.19112674 172.34050312 246.61956145 174.81269512 250.08740234 177.23339844 C274.39352093 194.22211703 292.95601467 213.43130052 298.62426758 243.67056274 C301.63859812 261.14011483 301.53773413 278.49386574 301.43526459 296.15505266 C301.41502259 300.12063086 301.40822596 304.08623059 301.40039062 308.05184937 C301.37837073 318.10200058 301.33929358 328.15205921 301.29833984 338.20214844 C301.25409188 349.06609426 301.21298574 359.93000165 301.19150352 370.79402006 C301.18164947 375.48459116 301.16210289 380.17498298 301.13464355 384.86548257 C301.11954042 387.7998172 301.11305724 390.73412872 301.10871124 393.66849709 C301.1032894 395.64052513 301.08775946 397.61251767 301.07171631 399.58448792 C301.06954459 418.31536895 303.04993615 437.21320057 316.18896484 451.65527344 C339.95998466 473.97462792 373.01382901 488.33074919 401.25244141 503.99291992 C416.3625177 512.37843061 431.3892278 520.90745317 446.38684082 529.4921875 C459.06871892 536.75036385 471.76958998 543.97245619 484.55224609 551.05224609 C486.30525442 552.02568937 488.05555251 553.00404037 489.80224609 553.98876953 C503.19829843 561.53942424 517.43123067 568.65143761 533.20849609 564.88183594 C539.47954314 562.82886593 544.29106322 559.8106737 549.29833984 555.57714844 C550.32958984 554.79339844 551.36083984 554.00964844 552.42333984 553.20214844 C562.64518212 543.86916202 569.63189342 529.90673764 570.44628906 516.06201172 C570.83176207 505.09041443 570.31514257 494.4851631 568.75927734 483.62792969 C568.14242271 478.78696178 567.99486815 473.95314395 567.92333984 469.07714844 C567.89755859 468.25190674 567.87177734 467.42666504 567.84521484 466.57641602 C567.81913876 458.54742609 571.00503539 452.19058555 576.32958984 446.24121094 C580.43701687 442.76945714 585.43610409 440.78034902 590.29833984 438.57714844 C594.94152982 436.42892968 594.94152982 436.42892968 598.54833984 432.88964844 C602.20476057 429.81493101 604.65938279 430.16493895 609.28662109 430.40136719 C609.95048828 430.459375 610.61435547 430.51738281 611.29833984 430.57714844 C614.15173674 436.96332245 614.15173674 436.96332245 614.77880859 439.58886719 C616.11217365 445.01255512 618.74184196 448.53309866 622.42333984 452.63964844 C639.47083429 471.79721935 644.77419228 496.28381344 650.7833252 520.53436279 C660.09797437 558.12191552 672.57152594 599.93070208 707.62646484 622.04589844 C710.12972776 624.33860653 709.95572186 626.29741875 710.23583984 629.63964844 C710.84256339 635.80231479 711.92542297 641.75595326 713.22045898 647.81103516 C716.62232258 663.9211457 719.58777812 681.78989446 713.29833984 697.57714844 C712.96962891 698.52074219 712.64091797 699.46433594 712.30224609 700.43652344 C703.62451426 723.61717733 684.21913924 739.43408553 662.29833984 749.57714844 C643.81916798 756.92657907 619.99776684 757.83797732 601.29833984 750.57714844 C592.14287522 746.38424431 592.14287522 746.38424431 590.04052734 741.88574219 C589.79560547 741.12390625 589.55068359 740.36207031 589.29833984 739.57714844 C589.81517334 739.30153076 590.33200684 739.02591309 590.86450195 738.74194336 C602.39325086 732.56705533 613.57106184 726.08191121 624.4453125 718.81445312 C626.13369967 717.68708209 627.83080714 716.57279865 629.52880859 715.45996094 C632.47034311 713.52484312 635.38712228 711.55754249 638.29833984 709.57714844 C638.86681641 709.1973584 639.43529297 708.81756836 640.02099609 708.42626953 C652.48194916 700.07299025 661.21793414 691.6209242 667.29833984 677.57714844 C667.61544922 676.90167969 667.93255859 676.22621094 668.25927734 675.53027344 C674.25782664 661.63264438 673.91860743 643.46852058 668.48388672 629.48095703 C663.093063 617.11124846 656.93049765 606.50177857 644.29833984 600.57714844 C633.23601759 596.80485026 620.30029255 599.81621338 610.10829163 604.60647583 C597.17483152 610.99256159 585.0987543 618.33120407 573.19552612 626.4574585 C568.62568166 629.57721513 564.03201819 632.66167284 559.44287109 635.75292969 C558.55003922 636.35592896 557.65720734 636.95892822 556.73731995 637.5802002 C549.04163407 642.77202892 541.24789123 647.78841226 533.39770508 652.74365234 C527.5204626 656.47068416 521.71578547 660.29109549 515.94677734 664.18261719 C515.2165889 664.67413269 514.48640045 665.16564819 513.73408508 665.67205811 C510.1445465 668.08930464 506.56110575 670.51475657 502.98754883 672.95556641 C477.46869415 690.2557349 477.46869415 690.2557349 464.29833984 688.57714844 C455.06975467 685.76162058 446.54538413 681.31051838 438.04714966 676.82211304 C434.25707303 674.82346343 430.45202829 672.85379745 426.64599609 670.88574219 C425.42078499 670.25219566 425.42078499 670.25219566 424.17082214 669.60585022 C413.63936989 664.1807136 403.00366597 658.96697141 392.36083984 653.76464844 C391.35396118 653.2722467 390.34708252 652.77984497 389.30969238 652.27252197 C376.27975489 645.90769069 363.21885735 639.6210515 350.00561523 633.64428711 C324.14075111 621.88210971 315.93049375 607.76055538 303.25683594 583.15405273 C298.26906534 573.47100876 293.06915151 563.91508626 287.82519531 554.36914062 C286.24416902 551.47809223 284.67738491 548.57973636 283.11474609 545.67871094 C277.79184925 535.79699629 272.41264229 525.95736225 266.86083984 516.20214844 C239.47951712 467.95688879 239.47951712 467.95688879 232.84350586 445.88134766 C232.54473573 444.89114561 232.2459656 443.90094357 231.93814182 442.8807354 C228.73081294 432.00580349 226.3369187 420.9882751 224.01318359 409.89746094 C223.54527747 407.70315386 223.0763874 405.50905639 222.60658264 403.31515503 C221.3855206 397.60247949 220.17570152 391.88748853 218.96905518 386.17175293 C217.03872929 377.03737304 215.09087357 367.90671694 213.1430378 358.7760582 C212.47608258 355.64181902 211.81399282 352.5065869 211.15281677 349.37112427 C208.93487317 338.8938618 206.61873179 328.44252349 204.16381836 318.01806641 C203.92272559 316.97676134 203.68163282 315.93545628 203.43323421 314.86259651 C200.49040546 302.54177736 196.1474322 295.1232066 185.61083984 288.01464844 C184.08536756 286.96232437 182.56065255 285.90890186 181.03662109 284.85449219 C180.25367676 284.31550293 179.47073242 283.77651367 178.6640625 283.22119141 C174.83601935 280.56091869 171.06880748 277.81811162 167.29833984 275.07714844 C159.37591513 269.33650858 151.39698817 263.67989639 143.39404297 258.05224609 C141.31347741 256.58780328 139.23517843 255.12020652 137.15771484 253.65136719 C127.07129908 246.52004858 116.95691653 239.42925244 106.83349609 232.35058594 C104.35218065 230.61481211 101.87193411 228.8775233 99.39208984 227.13964844 C90.53868387 220.93599527 81.67489727 214.74763705 72.79833984 208.57714844 C63.10580676 201.83943897 53.43001626 195.07822727 43.76318359 188.30371094 C41.24451897 186.53944824 38.72472057 184.77681618 36.20458984 183.01464844 C21.74968034 172.90658116 7.31185697 162.78171553 -6.97167969 152.43237305 C-12.02271474 148.77688957 -17.10155446 145.16378889 -22.20166016 141.57714844 C-49.03098049 122.68915697 -49.03098049 122.68915697 -61.70166016 112.57714844 C-62.52021484 111.92617188 -63.33876953 111.27519531 -64.18212891 110.60449219 C-78.79151354 98.35876014 -85.84948039 82.33859218 -87.70166016 63.57714844 C-89.10091717 40.88855472 -85.13480744 19.34107722 -70.38916016 1.26464844 C-48.82921158 -21.93520674 -23.53855769 -15.81208874 0 0 Z " fill="#010101" transform="translate(173.70166015625,172.4228515625)"/>
<path d="M0 0 C7.89666854 2.4381419 13.92428053 6.5447758 20.45703125 11.421875 C24.56695942 14.47760041 28.94504442 17.06676627 33.37890625 19.625 C40.21290797 25.81735923 42.14815876 35.34210565 44.04272461 44.02954102 C44.43901314 45.77102921 44.43901314 45.77102921 44.8433075 47.54769897 C45.55936095 50.70577625 46.26391505 53.86614788 46.96339488 57.02792859 C47.70631619 60.37227236 48.46452759 63.71314783 49.22108459 67.0544281 C50.65486806 73.39690384 52.07570712 79.74220259 53.4915567 86.0887031 C55.55072873 95.31602369 57.63028236 104.53875227 59.70861912 113.7617712 C60.02016045 115.14447679 60.33168874 116.52718532 60.64320374 117.90989685 C60.79589283 118.58756526 60.94858193 119.26523368 61.10589796 119.9634375 C62.13467453 124.53160585 63.15811134 129.10094841 64.1794281 133.67079163 C66.80855811 145.42125314 69.47037295 157.16352652 72.24072266 168.8815918 C72.47925933 169.90478547 72.717796 170.92797915 72.96356106 171.98217869 C74.69396724 179.22672945 76.92200944 185.65593802 80.4375 192.25 C80.94482666 193.25337402 81.45215332 194.25674805 81.97485352 195.29052734 C83.0596654 197.42546854 84.15674772 199.55421643 85.265625 201.67675781 C86.77292419 204.56489922 88.25560759 207.46407848 89.72583008 210.37123108 C96.18656269 223.14594816 102.88506743 235.75697703 110.00878906 248.17700195 C114.56126142 256.1396622 118.89098725 264.21004591 123.1875 272.3125 C128.56606199 282.44961321 134.00985382 292.5407589 139.62744141 302.54785156 C142.51726823 307.71067986 145.37996412 312.88865301 148.25 318.0625 C152.65504617 326.00082992 157.07964843 333.92743957 161.53417969 341.83813477 C179.91254212 374.51498428 198.04287635 407.70841246 188.9765625 446.515625 C183.54767439 465.88589778 174.97803457 484.83867789 157.18359375 495.72265625 C133.93922575 508.05702101 105.24727407 505.14778802 79.73330319 505.06084073 C75.67270939 505.04815328 71.61210455 505.04155452 67.55149841 505.03408813 C59.62448996 505.01849999 51.69750735 504.99717119 43.77051926 504.97351011 C37.3256178 504.95430752 30.88071389 504.93684163 24.43580437 504.92057228 C6.12609699 504.87418017 -12.18359122 504.82356846 -30.49327075 504.76722922 C-31.47703193 504.76420227 -32.46079311 504.76117532 -33.47436523 504.75805664 C-34.45933831 504.75502515 -35.44431139 504.75199365 -36.45913214 504.74887029 C-52.4479892 504.69991618 -68.43685292 504.66099999 -84.42574739 504.62663569 C-100.87941149 504.59116273 -117.33304231 504.54835918 -133.78666741 504.49788028 C-143.00995438 504.4697288 -152.2332268 504.44454483 -161.45654106 504.4272213 C-169.30087551 504.41242605 -177.1451545 504.3907783 -184.98944449 504.36034616 C-188.9869234 504.34502994 -192.98434536 504.33282273 -196.98185349 504.32924461 C-200.64747741 504.32588217 -204.3129546 504.31329896 -207.97852636 504.29365287 C-209.91826259 504.28556321 -211.85803167 504.2870566 -213.79778379 504.28899783 C-231.94315325 504.16425244 -245.78254927 499.90781791 -259 487 C-266.13166853 479.27123761 -271.29473485 470.85529046 -275 461 C-275.45898682 459.85337891 -275.45898682 459.85337891 -275.92724609 458.68359375 C-286.04493169 432.87327307 -284.40741662 408.73523109 -274.08984375 383.64453125 C-267.2035422 368.1433006 -257.96012502 354.42455848 -242.14453125 347.02734375 C-205.00159642 334.89244703 -157.19603338 340.83190566 -118.73282623 340.87142944 C-114.78402127 340.87502594 -110.83521997 340.87662369 -106.88641357 340.87768555 C-68.91620292 340.89039028 -30.96007889 341.06504719 7 342 C0.66471149 329.26038685 0.66471149 329.26038685 -5.875 316.625 C-6.29225342 315.83375732 -6.70950684 315.04251465 -7.1394043 314.22729492 C-10.36225844 308.14357608 -13.68223486 302.11778052 -17.04516602 296.1105957 C-20.5298387 289.87765679 -23.92560237 283.59900082 -27.3125 277.3125 C-31.56450247 269.43159039 -35.88837004 261.5980678 -40.3125 253.8125 C-94.16104643 159.02091636 -94.16104643 159.02091636 -83.203125 117.0625 C-81.61554351 111.48254144 -79.49616765 106.23264958 -77 101 C-76.66742188 100.22269531 -76.33484375 99.44539062 -75.9921875 98.64453125 C-70.61526073 86.75554872 -62.01982676 75.75153468 -53.125 66.30078125 C-50.89712829 63.88861868 -48.85799444 61.38064835 -46.8125 58.8125 C-43.06754158 54.1755725 -39.09128954 49.8278903 -35 45.5 C-29.38032879 39.53886347 -24.04518822 33.46152844 -19 27 C-18.49049805 26.35240723 -17.98099609 25.70481445 -17.45605469 25.03759766 C-8.00103758 13.01489696 -8.00103758 13.01489696 0 0 Z " fill="#010101" transform="translate(326,454)"/>
<path d="M0 0 C1.11980759 -0.00410889 1.11980759 -0.00410889 2.26223755 -0.00830078 C13.45386484 0.01339105 21.88760495 1.23477544 31.28222656 7.55859375 C34.78910191 9.70694982 38.64557533 11.12076265 42.4375 12.6875 C49.74995119 15.85201566 56.00121321 19.52861565 62.125 24.6875 C63.02347656 25.42484375 63.92195312 26.1621875 64.84765625 26.921875 C91.42118241 49.79528992 105.3791353 84.6470172 110.125 118.6875 C110.30804687 119.99460937 110.49109375 121.30171875 110.6796875 122.6484375 C115.60005369 169.14168623 105.49484358 218.78342396 75.7109375 255.62890625 C59.84601329 274.65840846 38.15304158 288.98227351 13.125 291.6875 C-15.82759891 293.82895027 -39.49129736 286.7990372 -61.9375 268 C-88.35606529 245.14810315 -102.58814117 212.45579049 -108.875 178.6875 C-109.2153125 176.90666016 -109.2153125 176.90666016 -109.5625 175.08984375 C-116.4402807 131.19622942 -107.39366076 83.40514787 -81.36328125 47.11328125 C-78.96834986 43.88306172 -76.44570317 40.77961938 -73.875 37.6875 C-73.09640625 36.73230469 -72.3178125 35.77710938 -71.515625 34.79296875 C-62.81181848 24.62430591 -52.10849977 17.08076334 -39.875 11.6875 C-38.40609716 11.03159217 -36.93736305 10.37530642 -35.46875 9.71875 C-33.07985235 8.65298622 -30.68967353 7.59085394 -28.29394531 6.54052734 C-27.18164551 6.05253662 -27.18164551 6.05253662 -26.046875 5.5546875 C-25.3878418 5.26706543 -24.72880859 4.97944336 -24.04980469 4.68310547 C-21.73404016 3.65949878 -21.73404016 3.65949878 -19.06689453 2.10668945 C-13.10118616 -0.5458012 -6.43787716 0.00563051 0 0 Z " fill="#010101" transform="translate(707.875,14.3125)"/>
<path d="M0 0 C30.20116812 24.06728746 45.66438457 58.8482354 51.57470703 96.25488281 C51.76935547 97.455 51.96400391 98.65511719 52.16455078 99.89160156 C52.94346532 106.53435733 52.81919156 113.26230941 52.82470703 119.94238281 C52.82538177 120.67620178 52.82605652 121.41002075 52.82675171 122.16607666 C52.80892253 134.40555886 52.11436457 146.24650207 49.57470703 158.25488281 C49.40841797 159.04958984 49.24212891 159.84429688 49.07080078 160.66308594 C41.71587594 194.41401883 23.03776671 227.194657 -6.42529297 246.25488281 C-27.01944697 258.28417837 -51.46416499 263.64989626 -75.05029297 257.75488281 C-91.34751966 252.90185438 -105.16807381 243.85269461 -117.42529297 232.25488281 C-118.17810547 231.56652344 -118.93091797 230.87816406 -119.70654297 230.16894531 C-143.22982811 207.8880872 -156.11124818 173.97502575 -159.42529297 142.25488281 C-159.53486328 141.25328125 -159.64443359 140.25167969 -159.75732422 139.21972656 C-163.67958459 97.01620493 -154.5539895 52.32017633 -127.06103516 19.15136719 C-119.53099983 10.42102175 -111.39990634 2.15494695 -101.42529297 -3.74511719 C-99.74886719 -4.74285156 -99.74886719 -4.74285156 -98.03857422 -5.76074219 C-66.81311909 -23.66007777 -28.86799332 -22.24444696 0 0 Z " fill="#010101" transform="translate(1052.42529296875,660.7451171875)"/>
<path d="M0 0 C11.37145658 8.86377729 15.01713286 22.90760561 16.9140625 36.58203125 C17.18241123 40.85941816 17.19458398 45.12142086 17.1796875 49.40625 C17.18237137 50.63696732 17.18505524 51.86768463 17.18782043 53.13569641 C17.19109246 56.48211893 17.18444367 59.82818331 17.17140579 63.17456055 C17.16399887 65.28768295 17.16035766 67.40078267 17.15768433 69.51391602 C17.115278 97.49318877 16.27192328 125.42754134 15.28979492 153.38690186 C13.18147822 208.00047118 13.18147822 208.00047118 14.9140625 262.58203125 C15.52064697 262.87746826 16.12723145 263.17290527 16.75219727 263.47729492 C30.17295461 270.0385261 43.31101365 276.93642916 56.26953125 284.3671875 C61.75003114 287.50685092 67.29294747 290.52102759 72.8515625 293.51953125 C82.5910719 298.79314049 92.15931179 304.33347579 101.70703125 309.9453125 C107.01414155 313.06352415 112.34708562 316.1345756 117.6875 319.1953125 C170.53555484 349.51076439 170.53555484 349.51076439 176.9140625 360.58203125 C177.275 361.14664062 177.6359375 361.71125 178.0078125 362.29296875 C185.98324882 376.12914236 186.92234747 393.7614554 183.2265625 408.95703125 C179.95035841 421.11328072 174.21017904 431.53859568 163.7890625 439.08203125 C154.28256866 444.04194108 143.62908495 443.80088216 133.3515625 441.20703125 C116.87882651 435.89854158 102.13427354 427.09772152 87.50268555 418.04321289 C78.08889268 412.22634528 68.47455594 406.89495568 58.70703125 401.69140625 C52.88530634 398.58726918 47.14567606 395.34887036 41.4140625 392.08203125 C33.63094352 387.65201908 25.80003472 383.32621326 17.9140625 379.08203125 C6.98549577 373.1976238 -3.83176895 367.13163342 -14.61376953 360.98339844 C-16.78285594 359.75383534 -18.95991874 358.54151907 -21.14453125 357.33984375 C-40.01480958 346.9108597 -59.01306683 334.30065301 -65.55857849 312.67126465 C-66.5172007 308.87349975 -66.88984953 305.03853021 -67.24609375 301.14453125 C-67.33018997 300.23471497 -67.41428619 299.32489868 -67.50093079 298.38751221 C-68.40946518 287.36055131 -68.09625136 276.37866966 -67.7734375 265.33203125 C-67.72348671 263.29820435 -67.67465782 261.26434958 -67.62695312 259.23046875 C-67.40879982 250.25943524 -67.14820191 241.29029674 -66.83642578 232.32202148 C-65.99528877 207.59986903 -65.78815104 182.87898824 -65.5859375 158.14453125 C-65.19421382 110.2588338 -65.19421382 110.2588338 -64.609375 90.56640625 C-64.55179016 88.61892235 -64.55179016 88.61892235 -64.49304199 86.63209534 C-62.32870556 19.68431225 -62.32870556 19.68431225 -47.0859375 2.58203125 C-43.94456609 -0.15544955 -40.70710083 -2.36461119 -37.0859375 -4.41796875 C-36.15201172 -4.95744141 -36.15201172 -4.95744141 -35.19921875 -5.5078125 C-22.9886688 -11.25551172 -10.42801833 -7.08870909 0 0 Z " fill="#010101" transform="translate(551.0859375,281.41796875)"/>
<path d="M0 0 C9.99515177 5.55859408 14.58271889 14.06937568 18.5078125 24.6484375 C21.72826182 36.48699062 20.73679055 51.38281365 15.24609375 62.3046875 C4.31955062 80.60854862 -15.10192013 90.06390636 -32.9621582 100.49560547 C-41.33320861 105.39991646 -49.5032325 110.58986422 -57.66796875 115.828125 C-63.58214694 119.62099204 -69.53774295 123.34581145 -75.5 127.0625 C-84.98135727 132.97737099 -94.44618032 138.91700627 -103.88476562 144.89990234 C-106.46836205 146.53621472 -109.0545334 148.16841565 -111.640625 149.80078125 C-120.98891288 155.71240531 -130.28620349 161.69304882 -139.5 167.8125 C-140.38510254 168.39515625 -141.27020508 168.9778125 -142.18212891 169.578125 C-145.74680053 171.94597391 -149.24339714 174.27910914 -152.47265625 177.09375 C-158.89353318 182.59459178 -164.43174846 183.38457906 -172.61328125 183.06152344 C-180.85599877 182.2847206 -187.8111722 178.05253396 -194.9375 174.125 C-196.39798375 173.34760378 -197.86022742 172.5735048 -199.32421875 171.80273438 C-201.57850862 170.61556131 -203.8315107 169.42654778 -206.07885742 168.22627258 C-212.99713314 164.5455996 -220.04235805 161.16342206 -227.12228394 157.80682373 C-238.30480713 152.50485147 -249.41652382 147.06043283 -260.52685547 141.60913086 C-263.52593104 140.13817148 -266.52607244 138.6694311 -269.5267601 137.20176601 C-272.43023624 135.78095447 -275.33221719 134.3570957 -278.234375 132.93359375 C-279.30604919 132.40970566 -280.37772339 131.88581757 -281.48187256 131.34605408 C-282.46850891 130.8611702 -283.45514526 130.37628632 -284.47167969 129.87670898 C-285.33718445 129.45244125 -286.20268921 129.02817352 -287.09442139 128.59104919 C-289.3125 127.4375 -289.3125 127.4375 -292.3125 125.4375 C-292.640625 123.109375 -292.640625 123.109375 -292.5625 120.1875 C-292.53671875 119.08921875 -292.5109375 117.9909375 -292.484375 116.859375 C-292.32612119 113.70868556 -292.08369299 110.58014815 -291.8125 107.4375 C-289.60677786 78.34142997 -292.83419264 55.34537034 -306.3125 29.4375 C-290.02447822 32.25228985 -274.83688765 41.4122903 -260.28900146 48.78277588 C-257.32829364 50.28004899 -254.36198236 51.76614901 -251.39648438 53.25390625 C-240.4122138 58.77519977 -229.47204752 64.36823923 -218.60879517 70.12399292 C-212.25793091 73.48384176 -205.85148742 76.70003402 -199.375 79.8125 C-197.86583008 80.55306641 -197.86583008 80.55306641 -196.32617188 81.30859375 C-181.92367018 88.79246157 -181.92367018 88.79246157 -166.3125 89.4375 C-160.86278503 86.85670481 -155.80062391 83.74674938 -150.6875 80.5625 C-149.31485876 79.73002602 -147.94116576 78.89928367 -146.56640625 78.0703125 C-138.44197988 73.14147573 -130.50583856 67.95546759 -122.62207031 62.65234375 C-118.62880444 59.97995455 -114.57993506 57.41202528 -110.5 54.875 C-102.66883113 49.96638599 -94.9171604 44.94169643 -87.1875 39.875 C-86.62567017 39.50681152 -86.06384033 39.13862305 -85.48498535 38.75927734 C-82.74095183 36.96088303 -79.9971564 35.16212573 -77.25341797 33.36328125 C-71.41663947 29.5412234 -65.56050025 25.74984487 -59.69335938 21.97460938 C-56.83770088 20.13096439 -53.98966162 18.2757357 -51.140625 16.421875 C-48.92726665 14.98930007 -46.71372516 13.55700804 -44.5 12.125 C-43.47382568 11.45460693 -42.44765137 10.78421387 -41.39038086 10.09350586 C-14.90078244 -6.98590299 -14.90078244 -6.98590299 0 0 Z " fill="#010101" transform="translate(816.3125,785.5625)"/>
<path d="M0 0 C26.30377346 17.93955197 38.7634155 49.83542751 44.78515625 79.96875 C52.06915016 119.44319574 51.75398205 173.27527692 28.5625 208.0625 C27.9025 208.0625 27.2425 208.0625 26.5625 208.0625 C26.56916183 207.14002975 26.57582367 206.21755951 26.58268738 205.26713562 C26.64330375 196.48754434 26.68872752 187.70802536 26.71793652 178.92827129 C26.73345892 174.41668817 26.75444497 169.90528083 26.78881836 165.39379883 C26.82189943 161.02357622 26.8394533 156.65352049 26.84713173 152.28318214 C26.85258931 150.63258049 26.86324003 148.98198585 26.87969017 147.33145714 C27.10050851 124.21340402 24.21894037 101.27064234 7.6875 83.6875 C3.71754805 79.93980405 -0.50410247 77.35893106 -5.4375 75.0625 C-6.07300781 74.75441406 -6.70851563 74.44632812 -7.36328125 74.12890625 C-17.47599754 69.75301038 -28.20337039 70.5139827 -38.4375 74.0625 C-42.02072395 75.76403093 -45.21547034 77.75614485 -48.4375 80.0625 C-49.04980469 80.46855469 -49.66210938 80.87460937 -50.29296875 81.29296875 C-62.79183976 90.58846779 -68.87192795 108.14013444 -71.078125 122.85546875 C-72.17148869 132.61255124 -72.69125469 142.323668 -72.97265625 152.13671875 C-73.01577855 153.55590175 -73.0591951 154.97507584 -73.10289001 156.39424133 C-73.21594389 160.0913373 -73.32505661 163.78853896 -73.43328857 167.48577881 C-73.54489605 171.27379576 -73.66031388 175.06169651 -73.77539062 178.84960938 C-73.99977805 186.253799 -74.2199931 193.65810472 -74.4375 201.0625 C-77.22888824 198.34499169 -79.24701752 195.96500813 -81.05859375 192.5078125 C-81.51943359 191.64542969 -81.98027344 190.78304687 -82.45507812 189.89453125 C-82.92365234 189.00121094 -83.39222656 188.10789062 -83.875 187.1875 C-86.98143822 181.26760248 -90.06857469 176.12125562 -94.4375 171.0625 C-94.4375 170.4025 -94.4375 169.7425 -94.4375 169.0625 C-95.01242187 168.80082031 -95.58734375 168.53914062 -96.1796875 168.26953125 C-98.59248483 166.97964479 -100.46462011 165.50575252 -102.5625 163.75 C-116.07632623 152.7874566 -130.4905004 142.95886575 -145.4375 134.0625 C-144.73524016 129.22884134 -142.91143724 125.00736005 -141.01171875 120.546875 C-140.65889328 119.71508728 -140.30606781 118.88329956 -139.94255066 118.02630615 C-135.74669475 108.27349002 -131.02994244 98.78911551 -126.25 89.3125 C-125.79139587 88.39894745 -125.33279175 87.4853949 -124.86029053 86.54415894 C-105.17098193 47.34917393 -85.33976481 9.04113202 -41.19140625 -6.046875 C-26.95636794 -9.42417858 -12.58016184 -7.24530811 0 0 Z " fill="#010101" transform="translate(551.4375,189.9375)"/>
<path d="M0 0 C1.62048447 1.20757256 3.22502943 2.43684474 4.8125 3.6875 C5.59625 4.29464844 6.38 4.90179687 7.1875 5.52734375 C19.66417588 15.83324663 27.76996126 33.55988377 32.8125 48.6875 C32.89271999 50.09574893 32.92015977 51.50747231 32.91015625 52.91796875 C32.90693359 53.72041016 32.90371094 54.52285156 32.90039062 55.34960938 C32.89201172 56.18298828 32.88363281 57.01636719 32.875 57.875 C32.86823242 59.1424707 32.86823242 59.1424707 32.86132812 60.43554688 C32.84955403 62.51956155 32.8316189 64.60353977 32.8125 66.6875 C26.56313164 64.35187748 22.68633986 60.80647979 18.5 55.75 C12.68183244 48.95571602 5.77385834 44.55260084 -3.19921875 43.4375 C-22.31495347 42.33928903 -40.79821343 57.75501794 -54.1875 69.6875 C-56.95454429 72.27201063 -59.5942063 74.93099201 -62.1875 77.6875 C-63.85332399 79.35500891 -65.52018565 81.02148127 -67.1875 82.6875 C-68.86776201 84.38197242 -70.54577774 86.07865385 -72.22392273 87.77522278 C-74.89885406 90.47718348 -77.5793263 93.17362051 -80.26000977 95.86987305 C-81.66287495 97.28277836 -83.06393761 98.69747583 -84.46313477 100.11401367 C-103.54862802 119.42910007 -126.21778364 138.81536669 -154.92675781 139.15600586 C-155.92030273 139.14577393 -156.91384766 139.13554199 -157.9375 139.125 C-158.98518555 139.11670166 -160.03287109 139.10840332 -161.11230469 139.09985352 C-175.96190728 138.77837907 -190.06038953 134.97498305 -200.9375 124.25 C-201.68 123.404375 -202.4225 122.55875 -203.1875 121.6875 C-201.66717133 117.3365594 -198.33673823 115.35761548 -194.6875 112.875 C-194.05602051 112.43341553 -193.42454102 111.99183105 -192.77392578 111.53686523 C-190.02243285 109.61669078 -187.25147803 107.73021313 -184.4609375 105.8671875 C-169.75156363 95.94914062 -160.14475245 83.95678907 -151.0625 68.9375 C-147.53338422 63.10278954 -143.62614908 57.85742076 -139.1875 52.6875 C-138.53523438 51.924375 -137.88296875 51.16125 -137.2109375 50.375 C-127.94387106 39.82373334 -118.03167461 29.6061313 -106.98046875 20.921875 C-104.90768724 19.26364979 -102.91081457 17.58565231 -100.92578125 15.828125 C-89.15967901 5.41619053 -76.93286027 -3.54753979 -62.1875 -9.3125 C-61.32253906 -9.65152344 -60.45757813 -9.99054687 -59.56640625 -10.33984375 C-40.32196473 -16.69607481 -16.39272081 -11.07956552 0 0 Z " fill="#010101" transform="translate(1241.1875,806.3125)"/>
</svg>
