<?xml version="1.0" standalone="no"?>
<!DOCTYPE svg PUBLIC "-//W3C//DTD SVG 20010904//EN"
 "http://www.w3.org/TR/2001/REC-SVG-20010904/DTD/svg10.dtd">
<svg version="1.0" xmlns="http://www.w3.org/2000/svg"
 viewBox="0 0 1600 1633"
 preserveAspectRatio="xMidYMid meet">

<g transform="translate(0.000000,302.000000) scale(0.100000,-0.100000)"
fill="#000000" stroke="none">
<path d="M3 2912 c0 -22 3 -30 10 -23 7 7 7 18 0 33 -10 22 -11 21 -10 -10z"/>
<path d="M3 2340 c0 -32 11 -40 21 -15 6 17 -2 45 -13 45 -4 0 -8 -13 -8 -30z"/>
<path d="M2246 2239 c-43 -12 -76 -48 -76 -82 0 -28 36 -150 82 -280 31 -87
75 -138 156 -181 45 -23 78 -48 91 -69 11 -17 33 -45 50 -61 l31 -30 0 50 c0
60 -54 219 -140 412 -106 240 -122 260 -194 241z"/>
<path d="M1 1784 c1 -22 3 -30 6 -19 3 11 10 23 15 26 5 3 2 12 -7 19 -13 11
-15 8 -14 -26z"/>
<path d="M986 1760 c-165 -19 -222 -52 -247 -142 -19 -73 -4 -136 72 -290 38
-77 67 -143 64 -146 -3 -4 -121 -8 -261 -10 -241 -4 -256 -6 -287 -26 -39 -27
-57 -60 -57 -109 0 -69 44 -118 120 -130 19 -3 200 -11 401 -18 277 -9 374 -9
401 0 100 33 108 112 30 291 -76 174 -75 164 -9 157 31 -3 109 -24 174 -46 65
-22 119 -39 120 -38 1 2 7 63 14 137 6 74 18 148 26 163 17 34 49 47 114 47
63 0 57 11 -29 54 -182 91 -426 131 -646 106z"/>
<path d="M2322 1657 c-12 -13 -22 -33 -22 -46 0 -64 137 -261 303 -436 79 -84
110 -109 188 -152 159 -87 205 -93 235 -29 25 51 3 82 -119 165 -169 115 -304
246 -400 385 -92 135 -138 163 -185 113z"/>
<path d="M2005 1651 c-156 -71 -218 -327 -106 -435 34 -32 87 -38 125 -12 25
16 109 145 171 262 37 70 46 134 21 166 -31 41 -142 51 -211 19z"/>
<path d="M1566 1548 c-8 -15 -16 -66 -20 -138 -10 -189 21 -290 120 -386 82
-80 173 -121 316 -141 141 -20 188 -11 208 36 15 38 5 82 -24 110 -14 13 -68
35 -126 52 -124 36 -153 50 -196 97 -37 41 -59 98 -69 182 -3 30 -13 81 -22
113 -21 75 -48 97 -119 97 -45 0 -56 -4 -68 -22z"/>
<path d="M2189 1338 c-57 -95 -103 -184 -104 -198 0 -20 11 -30 59 -55 72 -38
86 -56 86 -115 0 -26 7 -56 16 -69 18 -25 14 -25 159 3 83 16 215 13 369 -9
60 -8 141 -15 179 -15 69 0 71 1 108 40 44 46 57 94 41 148 -14 47 -181 278
-218 303 -16 10 -41 19 -55 19 -27 0 -79 -46 -79 -71 0 -8 59 -57 131 -109
142 -103 189 -148 189 -183 0 -33 -36 -86 -67 -98 -40 -15 -73 -3 -191 68 -59
36 -143 83 -187 105 -112 57 -217 162 -273 277 -23 46 -42 92 -42 102 0 47
-26 16 -121 -143z"/>
<path d="M3 1220 c0 -16 4 -30 8 -30 11 0 19 28 13 45 -10 25 -21 17 -21 -15z"/>
<path d="M3287 1230 c-84 -25 -147 -122 -147 -224 1 -140 89 -236 218 -238
155 -2 264 149 218 304 -37 128 -161 196 -289 158z"/>
<path d="M2864 821 c-18 -11 -42 -41 -58 -72 -37 -74 -35 -81 15 -64 67 24
151 19 227 -12 112 -46 213 -32 280 40 21 22 22 25 5 30 -203 59 -356 97 -392
97 -28 0 -59 -8 -77 -19z"/>
<path d="M13 676 c3 -8 1 -16 -5 -18 -6 -2 -8 -10 -4 -16 13 -22 26 -13 26 18
0 17 -5 30 -11 30 -6 0 -9 -6 -6 -14z"/>
<path d="M0 132 c0 -6 5 -14 11 -18 8 -4 8 -9 0 -17 -17 -17 -13 -31 4 -17 8
7 15 18 15 25 0 7 -7 18 -15 25 -9 8 -15 9 -15 2z"/>
</g>
</svg>
