<?xml version="1.0" encoding="UTF-8"?>
<svg version="1.1" xmlns="http://www.w3.org/2000/svg" width="3433" height="2526">
<path d="M0 0 C0.92986725 0.45322632 1.8597345 0.90645264 2.81777954 1.37341309 C14.68623653 7.16709944 26.43905746 13.14562981 38.09606934 19.35369873 C40.1209148 20.43130209 42.14818533 21.50413968 44.17675781 22.57470703 C59.83653483 30.84089957 75.3635099 39.29768324 90.7421875 48.07861328 C93.76859364 49.79393031 96.81539695 51.46977136 99.8659668 53.14160156 C111.0424068 59.27387547 121.98176591 65.80361988 132.92938232 72.3324585 C137.02830291 74.77596171 141.13490075 77.2061159 145.24609375 79.62890625 C158.16942982 87.24859094 171.00626451 94.98444846 183.73046875 102.93212891 C186.28311464 104.5206068 188.84334151 106.09610953 191.40625 107.66796875 C201.50052548 113.86541081 211.48388467 120.20787763 221.38671875 126.70703125 C227.3932294 130.64704493 233.42949094 134.53483646 239.49365234 138.38549805 C260.22600715 151.55780113 280.40287863 165.53060153 300.53173828 179.60205078 C303.17300355 181.44623941 305.81834276 183.28442908 308.46484375 185.12109375 C319.06786213 192.49155926 329.51686713 200.0451218 339.88232422 207.74560547 C342.27172814 209.51610006 344.66783267 211.27710808 347.06640625 213.03515625 C356.85017227 220.20859565 366.53924415 227.49137292 376.15283203 234.89111328 C378.27207234 236.51693326 380.39850491 238.13286714 382.52734375 239.74609375 C390.27516448 245.62420703 397.91612876 251.60512977 405.44165039 257.765625 C409.67283068 261.22792744 413.94023627 264.6361176 418.25 268 C429.13805472 276.51507689 439.85146238 285.22627875 450.3125 294.26147461 C453.75032661 297.22778009 457.22407879 300.13808439 460.75 303 C470.92312854 311.27871897 480.75769825 319.88328487 490.35546875 328.8203125 C493.29106538 331.53801734 496.2768502 334.1825768 499.30078125 336.80078125 C502.45905328 339.55398432 505.56287944 342.36719477 508.671875 345.17578125 C510.38545417 346.72059883 512.10419243 348.25971357 513.828125 349.79296875 C518.47995565 353.93823502 522.96559259 358.17719566 527.3359375 362.6171875 C529.1641646 364.41556599 531.04833695 366.08747222 533 367.75 C537.11361544 371.28058333 540.90503712 375.09446024 544.68652344 378.97363281 C547.40122345 381.73625013 550.18807162 384.34794286 553.12109375 386.87890625 C557.36922356 390.55550255 561.3526457 394.45460096 565.3125 398.4375 C565.98087891 399.10201172 566.64925781 399.76652344 567.33789062 400.45117188 C571.2383877 404.35925009 574.92648466 408.38531281 578.53295898 412.56469727 C581.30025427 415.68375737 584.27184369 418.58410336 587.25 421.5 C591.44329366 425.65006383 595.53241664 429.80799319 599.34765625 434.3125 C602.07258498 437.44588827 604.91566057 440.46570157 607.75 443.5 C612.3411693 448.42610309 616.86938737 453.38469342 621.25 458.5 C622.17298655 459.56917493 623.09618382 460.63816796 624.01953125 461.70703125 C629.47280212 468.0314678 634.86213598 474.39821219 640.125 480.8828125 C641.51301453 482.59231568 642.90854962 484.29574746 644.3125 485.9921875 C709.52497811 564.8705158 762.35027232 655.99336908 781.5 820.5 C781.50101212 821.72056595 781.50101212 821.72056595 781.50204468 822.96578979 C781.38529729 912.93438008 747.41466167 995.99157331 704.25 1073.5 C703.70230957 1074.48822754 703.15461914 1075.47645508 702.59033203 1076.49462891 C695.16185247 1089.89556365 687.56189254 1103.18632384 679.81640625 1116.40625 C669.93608473 1133.27070163 660.22285277 1150.22588343 650.7109375 1167.30078125 C648.42048885 1171.41209136 646.11286788 1175.51292373 643.7890625 1179.60546875 C635.48214192 1194.26460298 627.61088398 1209.11111017 619.96923828 1224.12451172 C618.40157785 1227.20239771 616.8244711 1230.27525852 615.24609375 1233.34765625 C574.83553964 1312.50766946 552.92052044 1398.07424335 553.203125 1487.0546875 C553.20689762 1489.14575134 553.21031777 1491.23681585 553.21337891 1493.32788086 C553.22153421 1498.38527077 553.23441857 1503.44262774 553.25 1508.5 C554.62766534 1508.49886084 554.62766534 1508.49886084 556.0331623 1508.49769866 C610.75747897 1508.45270935 665.48179364 1508.41851021 720.20612518 1508.39786934 C726.81197737 1508.39536864 733.41782951 1508.39277993 740.02368164 1508.39013672 C741.9959156 1508.38934979 741.9959156 1508.38934979 744.00799266 1508.38854696 C765.15436301 1508.37990074 786.30072221 1508.36416356 807.447086 1508.34569441 C829.22836889 1508.32683278 851.00964605 1508.31584939 872.79093677 1508.31182301 C884.99006199 1508.30935138 897.18916399 1508.30347222 909.38828087 1508.28853989 C1118.80158273 1508.04000567 1118.80158273 1508.04000567 1275.51953125 1569.703125 C1286.34294818 1581.23102469 1293.3533665 1595.95944084 1300.77441406 1609.76220703 C1308.70310742 1624.47305537 1317.02469196 1638.58658786 1326.8203125 1652.140625 C1327.19238799 1652.66857477 1327.56446348 1653.19652454 1327.94781399 1653.74047279 C1329.1614641 1655.38036938 1330.50570247 1656.92134607 1331.85646057 1658.45028687 C1335.39048985 1663.44645527 1334.98816993 1668.73089439 1334.97631836 1674.65478516 C1334.99311142 1675.86387543 1335.00990448 1677.0729657 1335.02720642 1678.31869507 C1335.06645635 1681.62118374 1335.0830873 1684.92210014 1335.08628535 1688.22471285 C1335.08985255 1690.29416702 1335.10055172 1692.36345907 1335.11377144 1694.43287277 C1335.15997533 1701.67101148 1335.18045537 1708.90869138 1335.17651367 1716.14697266 C1335.173516 1722.86360611 1335.22615871 1729.57822353 1335.30523199 1736.29434741 C1335.37093611 1742.08412278 1335.39741957 1747.87324492 1335.39423662 1753.66338956 C1335.39297032 1757.11124185 1335.40672443 1760.55730339 1335.46012688 1764.00477982 C1335.77796405 1788.83547541 1335.77796405 1788.83547541 1329.43359375 1796.44873047 C1327.74288063 1798.16978862 1326.0171533 1799.85752589 1324.25 1801.5 C1322.85321548 1803.27624129 1321.4840485 1805.07503471 1320.16015625 1806.90625 C1313.52038746 1815.70326819 1306.82985681 1824.38843511 1299.625 1832.73046875 C1297.43987118 1835.27858772 1295.33233947 1837.8676878 1293.25 1840.5 C1278.25492297 1859.34229882 1261.87160864 1878.14033981 1243.25 1893.5 C1242.73630859 1893.92748535 1242.22261719 1894.3549707 1241.69335938 1894.79541016 C1187.4566048 1939.76443646 1123.40976281 1948.69668301 1054.8125 1948.75 C1053.62608917 1948.75167175 1052.43967834 1948.75334351 1051.21731567 1948.75506592 C1028.82110695 1948.75686589 1006.44704944 1948.18940127 984.06150818 1947.54032898 C981.68780339 1947.47182358 979.31409848 1947.40332255 976.94039345 1947.33482552 C972.26507137 1947.19971827 967.58976978 1947.06392888 962.91448021 1946.92770195 C925.39016635 1945.83764936 887.86793788 1944.99149595 850.33203125 1944.41015625 C848.95683743 1944.3886474 847.58164384 1944.36712399 846.20645046 1944.34558654 C784.848985 1943.38763501 723.49675436 1943.22157869 662.13277203 1943.29689825 C651.31092782 1943.31009653 640.48908675 1943.31866494 629.66723633 1943.32476807 C585.63066749 1943.35018214 541.59416651 1943.40370259 497.55763876 1943.468041 C482.01328313 1943.49073579 466.46892592 1943.51180844 450.9245666 1943.53181603 C393.87920687 1943.60524241 336.83387596 1943.68848398 279.78856277 1943.79234791 C278.51678322 1943.79466277 277.24500366 1943.79697764 275.93468533 1943.79936266 C268.24006736 1943.8133761 268.24006736 1943.8133761 260.54544947 1943.82743668 C242.74653982 1943.85995748 224.94762777 1943.88898741 207.14870813 1943.9154451 C183.99031251 1943.94988418 160.83194272 1943.99090449 137.6735785 1944.04248911 C126.3841969 1944.06748216 115.09482901 1944.08968414 103.80542755 1944.10339546 C39.97206209 1944.18336761 -23.67616575 1945.35005522 -87.4432373 1948.43328857 C-95.65710492 1948.82904527 -103.87155412 1949.21277878 -112.0859375 1949.59765625 C-112.9559395 1949.63847572 -113.82594151 1949.6792952 -114.72230721 1949.72135162 C-205.19500324 1953.95621181 -300.11159582 1958.30340736 -425.75 1923.5 C-426.56082031 1923.16387695 -427.37164063 1922.82775391 -428.20703125 1922.48144531 C-444.52506675 1915.63213164 -459.73720581 1907.36434992 -473.75 1896.5 C-474.5646875 1895.88898438 -475.379375 1895.27796875 -476.21875 1894.6484375 C-502.46165704 1874.46797417 -519.95471685 1845.51202519 -527.75 1813.5 C-527.91371094 1812.84805664 -528.07742188 1812.19611328 -528.24609375 1811.52441406 C-533.30834391 1790.59556577 -531.28723531 1768.50720807 -527.75 1747.5 C-527.5943457 1746.54883301 -527.43869141 1745.59766602 -527.27832031 1744.61767578 C-521.42425588 1709.60429438 -511.38769302 1675.31407793 -500.75 1641.5 C-500.4829425 1640.65004456 -500.21588501 1639.80008911 -499.94073486 1638.92437744 C-490.90285005 1610.21249856 -481.01357691 1581.81961365 -470.82745361 1553.49737549 C-469.76452066 1550.54039513 -468.70393205 1547.58258432 -467.64404297 1544.62451172 C-458.93653753 1520.3318584 -450.03133334 1496.1173041 -440.99462891 1471.9453125 C-434.34883214 1454.15992519 -427.80928151 1436.33683351 -421.31298828 1418.49633789 C-420.53158146 1416.35042101 -419.75016884 1414.20450625 -418.96875 1412.05859375 C-418.59483124 1411.0315181 -418.22091248 1410.00444244 -417.83566284 1408.94624329 C-415.83902587 1403.46761304 -413.82528064 1397.99627919 -411.78125 1392.53515625 C-396.18860781 1350.82447099 -382.1350067 1308.55332784 -370.75 1265.5 C-371.61160736 1265.72498672 -372.47321472 1265.94997345 -373.3609314 1266.18177795 C-386.18043887 1269.46269543 -399.10077764 1272.22781741 -412.0390625 1274.99609375 C-414.56294678 1275.5382515 -417.08677435 1276.08067327 -419.61054993 1276.62333679 C-425.02558017 1277.78736221 -430.44098847 1278.94961376 -435.85665894 1280.11065674 C-444.50347075 1281.96449993 -453.14941866 1283.8223519 -461.79516602 1285.68115234 C-462.52774978 1285.83865211 -463.26033354 1285.99615189 -464.01511681 1286.15842438 C-467.00399849 1286.80102086 -469.99287601 1287.44363667 -472.9817422 1288.08630514 C-477.55087489 1289.06876265 -482.12006013 1290.05097531 -486.68928248 1291.03301573 C-517.90113278 1297.74146135 -549.10477037 1304.4876763 -580.30638713 1311.24353719 C-585.96413724 1312.46851495 -591.62204259 1313.69277437 -597.27998787 1314.91685033 C-622.96517729 1320.4737714 -648.64944967 1326.03464392 -674.32356834 1331.64254761 C-677.38351127 1332.31072369 -680.44359354 1332.97825723 -683.5037384 1333.64550781 C-684.47445628 1333.85717213 -685.44517416 1334.06883644 -686.44530773 1334.28691483 C-688.34702413 1334.70155835 -690.24874783 1335.11616836 -692.15047932 1335.53074265 C-697.479151 1336.69285272 -702.80676638 1337.8596509 -708.13355255 1339.03037167 C-711.29925342 1339.72511338 -714.46584217 1340.41573505 -717.63270187 1341.10517311 C-719.06441838 1341.41781876 -720.49574241 1341.73226831 -721.9266243 1342.04871178 C-723.84660797 1342.47316332 -725.76811477 1342.89070773 -727.68969727 1343.30786133 C-729.27851463 1343.65630852 -729.27851463 1343.65630852 -730.89942932 1344.01179504 C-733.5840968 1344.47158647 -736.03352913 1344.59541658 -738.75 1344.5 C-738.92221069 1345.89847168 -738.92221069 1345.89847168 -739.09790039 1347.32519531 C-746.54162985 1407.21371081 -756.12526724 1473.19495656 -805.1875 1514.25 C-807.02881698 1515.68332838 -808.88386598 1517.09913517 -810.75 1518.5 C-811.56259277 1519.12503418 -811.56259277 1519.12503418 -812.39160156 1519.76269531 C-819.82542862 1525.47877882 -827.4913101 1530.76966984 -835.4375 1535.75 C-836.58714233 1536.48549072 -836.58714233 1536.48549072 -837.76000977 1537.23583984 C-838.84366821 1537.900271 -838.84366821 1537.900271 -839.94921875 1538.578125 C-840.58690186 1538.97418945 -841.22458496 1539.37025391 -841.8815918 1539.77832031 C-844.27008927 1540.70088643 -845.39577231 1540.44053555 -847.75 1539.5 C-879.08556294 1506.36698603 -888.01674009 1450.67329731 -898.37808228 1407.87692261 C-899.53155106 1403.11369147 -900.69759757 1398.35358933 -901.8659668 1393.59399414 C-902.26353756 1391.97395399 -902.66110531 1390.35391309 -903.05867004 1388.73387146 C-903.35312484 1387.53410581 -903.35312484 1387.53410581 -903.65352821 1386.31010246 C-904.62694948 1382.34198714 -905.59836973 1378.37338234 -906.56982422 1374.40478516 C-906.94244129 1372.88299498 -907.31506086 1371.36120542 -907.68768311 1369.8394165 C-908.36504625 1367.07287239 -909.04198107 1364.30622406 -909.71856689 1361.53948975 C-920.20668362 1318.68531046 -931.10729095 1275.59236019 -951.79541016 1236.32373047 C-952.76226436 1234.4765691 -953.70104361 1232.61702763 -954.63671875 1230.75390625 C-962.17313761 1215.93709501 -971.78609778 1202.94142657 -982.75 1190.5 C-983.43707031 1189.67886719 -984.12414063 1188.85773438 -984.83203125 1188.01171875 C-989.88440502 1182.05382789 -995.55279253 1177.23763351 -1001.75 1172.5 C-1002.54301514 1171.88656738 -1002.54301514 1171.88656738 -1003.35205078 1171.26074219 C-1015.99055267 1161.55491071 -1029.6960023 1154.71821865 -1044.75 1149.5 C-1045.78382813 1149.14164063 -1046.81765625 1148.78328125 -1047.8828125 1148.4140625 C-1082.98922418 1136.94194271 -1125.14538039 1137.60463305 -1158.75 1153.5 C-1159.719375 1153.93957031 -1160.68875 1154.37914062 -1161.6875 1154.83203125 C-1173.80289062 1160.55844635 -1184.09321213 1168.25486916 -1193.75 1177.5 C-1194.66845703 1178.34111328 -1194.66845703 1178.34111328 -1195.60546875 1179.19921875 C-1216.18308894 1198.64671792 -1227.65688451 1227.80582639 -1230.75 1255.5 C-1230.86085938 1256.49257812 -1230.97171875 1257.48515625 -1231.0859375 1258.5078125 C-1231.37548371 1261.5050071 -1231.58536469 1264.49344572 -1231.75 1267.5 C-1231.83121094 1268.93666016 -1231.83121094 1268.93666016 -1231.9140625 1270.40234375 C-1233.01636831 1309.33378089 -1213.44368966 1345.55679905 -1197.7565918 1380.04541016 C-1148.89976799 1487.4777614 -1148.89976799 1487.4777614 -1149.75 1524.5 C-1156.53428481 1522.60596041 -1162.98422368 1520.31703576 -1169.4375 1517.5 C-1170.3346875 1517.11046143 -1171.231875 1516.72092285 -1172.15625 1516.31958008 C-1210.40584314 1499.55893108 -1248.29098801 1478.44389819 -1278.75 1449.5 C-1280.11868963 1448.30523226 -1281.49329976 1447.11719728 -1282.875 1445.9375 C-1286.65761052 1442.6587208 -1290.14522375 1439.12372828 -1293.65625 1435.55859375 C-1295.34301628 1433.90015004 -1297.02279121 1432.4005479 -1298.875 1430.9375 C-1301.79764998 1428.4596011 -1304.18241993 1425.87810416 -1306.65625 1422.96484375 C-1308.22032014 1421.12355969 -1309.8013281 1419.30887668 -1311.40625 1417.50390625 C-1323.70284632 1403.57532878 -1334.25150795 1388.45090216 -1343.75 1372.5 C-1344.1310791 1371.8694873 -1344.5121582 1371.23897461 -1344.90478516 1370.58935547 C-1372.64864665 1324.45203489 -1383.25524113 1267.62835837 -1370.28125 1215.14453125 C-1364.58674102 1193.46418687 -1355.08946404 1172.57119846 -1341.75 1154.5 C-1341.3590918 1153.96922852 -1340.96818359 1153.43845703 -1340.56542969 1152.89160156 C-1321.79161714 1127.63202574 -1298.31930672 1107.21483395 -1271.75 1090.5 C-1271.12786621 1090.10780273 -1270.50573242 1089.71560547 -1269.86474609 1089.31152344 C-1213.01224443 1053.86385098 -1146.19614817 1036.89365029 -1080.46875 1027.65234375 C-1079.13569384 1027.4632802 -1079.13569384 1027.4632802 -1077.77570724 1027.27039719 C-1057.68085276 1024.42365633 -1037.54896274 1021.88117819 -1017.40908813 1019.37661743 C-1008.04810477 1018.21198819 -998.68924069 1017.03048377 -989.33015633 1015.85070992 C-986.2289494 1015.45979409 -983.12771459 1015.06910014 -980.026474 1014.67845154 C-974.26756971 1013.95293166 -968.50876653 1013.22661236 -962.75 1012.5 C-961.51581959 1012.34437214 -961.51581959 1012.34437214 -960.25670624 1012.18560028 C-901.31047622 1004.75061466 -842.52189294 996.59243027 -785.75 978.5 C-784.15913574 977.99847412 -784.15913574 977.99847412 -782.53613281 977.48681641 C-701.50886666 951.78959771 -625.31941037 912.84900615 -542.67578125 860.36962891 C-539.59850149 858.40318962 -536.5181565 856.44161317 -533.4375 854.48046875 C-523.24703679 847.9857881 -513.09399793 841.44828132 -503.05786133 834.71728516 C-495.3496327 829.54925828 -487.55780955 824.51588872 -479.75 819.5 C-478.81236816 818.89639648 -477.87473633 818.29279297 -476.90869141 817.67089844 C-382.05856708 756.62738408 -382.05856708 756.62738408 -329.75 738.5 C-323.1971944 768.6655591 -327.51462686 804.27500025 -328.17273712 834.92320824 C-328.77003581 863.29966934 -328.96945267 891.6717135 -328.99023438 920.05395508 C-328.99465219 925.16275033 -329.0087288 930.27137984 -329.03125 935.38012695 C-330.02178246 1065.58296479 -330.02178246 1065.58296479 -270.48828125 1176.8046875 C-243.88898425 1202.21690843 -207.7587581 1206.43603793 -172.6796875 1205.78515625 C-163.79129748 1205.56671309 -155.36559091 1204.69145287 -146.75 1202.5 C-146.09016113 1202.33371094 -145.43032227 1202.16742187 -144.75048828 1201.99609375 C-115.22064957 1194.31677138 -90.90928374 1175.96347945 -75.07666016 1149.80810547 C-45.04207055 1097.55433106 -41.49773848 1033.33566342 -41.5625 974.375 C-41.56343658 973.24521729 -41.56437317 972.11543457 -41.56533813 970.95141602 C-41.62452941 937.39608752 -43.32127768 903.94220688 -44.99609375 870.4375 C-45.05191557 869.32060287 -45.10773739 868.20370575 -45.16525078 867.05296326 C-45.73682651 855.62634639 -46.31165784 844.19991708 -46.90098286 832.77420044 C-47.1246011 828.43398 -47.34622405 824.09365871 -47.56765938 819.75332642 C-47.67238668 817.71215543 -47.77812999 815.67103628 -47.88496208 813.62997437 C-48.94290863 793.41339322 -48.94290863 793.41339322 -48.75 784.5 C-33.07104463 790.60461823 -19.80547168 803.03390694 -7.75 814.5 C-7.11707031 815.08007812 -6.48414062 815.66015625 -5.83203125 816.2578125 C29.47767007 849.63848025 43.95600269 899.97123478 50.25 946.5 C50.38277344 947.48033203 50.51554687 948.46066406 50.65234375 949.47070312 C55.07130511 984.59896338 53.23171519 1021.40600783 49.25 1056.5 C49.17503296 1057.1721051 49.10006592 1057.84421021 49.02282715 1058.53668213 C46.84733475 1077.98095 43.87340644 1097.2748529 40.25 1116.5 C40.12320862 1117.17838928 39.99641724 1117.85677856 39.86578369 1118.5557251 C21.29409138 1217.71678416 -11.88866666 1313.79378054 -46.12190247 1408.45167542 C-52.95006834 1427.33766547 -59.68186589 1446.25840986 -66.4239502 1465.17526245 C-68.40817899 1470.74190664 -70.39673113 1476.30693948 -72.39367676 1481.86903381 C-85.90443544 1519.51975587 -98.78253011 1557.01767063 -105.75 1596.5 C-34.47 1596.5 36.81 1596.5 110.25 1596.5 C110.58 1590.89 110.91 1585.28 111.25 1579.5 C112.16119084 1570.04704199 112.16119084 1570.04704199 112.5342865 1566.59030151 C114.44132322 1548.72469546 116.01332707 1530.84009964 117.43359375 1512.9296875 C117.5255666 1511.77362251 117.61753944 1510.61755753 117.71229935 1509.42646027 C118.56613424 1498.68408668 119.40961065 1487.94090833 120.24731445 1477.19726562 C123.36581305 1437.26521901 126.75864463 1397.33520547 132.5625 1357.6875 C132.70551544 1356.69700653 132.84853088 1355.70651306 132.99588013 1354.68600464 C145.34132221 1269.62352085 172.07119633 1190.47589244 204.05186462 1110.96664429 C230.26822369 1046.02057027 230.26822369 1046.02057027 249.875 978.875 C250.13547119 977.78324463 250.39594238 976.69148926 250.66430664 975.56665039 C251.00449829 974.06026001 251.00449829 974.06026001 251.3515625 972.5234375 C251.55088379 971.64606934 251.75020508 970.76870117 251.95556641 969.86474609 C252.27236645 967.32036363 252.20600999 965.87264852 251.25 963.5 C249.78315622 961.7119305 249.78315622 961.7119305 247.8984375 960.07421875 C247.21136719 959.44193359 246.52429687 958.80964844 245.81640625 958.15820312 C245.09324219 957.50787109 244.37007812 956.85753906 243.625 956.1875 C242.21507555 954.90091149 240.8062141 953.61315707 239.3984375 952.32421875 C238.70484131 951.69136963 238.01124512 951.05852051 237.29663086 950.40649414 C234.71373751 948.00045643 232.23299401 945.50313834 229.75097656 942.99389648 C228.04988317 941.30082711 226.27723373 939.72822509 224.4375 938.1875 C221.22666245 935.42381971 218.22732835 932.51380404 215.25 929.5 C212.33373397 926.54816975 209.40394165 923.69611141 206.25 921 C202.1751665 917.51667458 198.45707008 913.72181292 194.69140625 909.91015625 C191.97797273 907.23145468 189.14222977 904.75391882 186.24609375 902.27734375 C183.18196187 899.54900715 180.34518168 896.60332092 177.46484375 893.68359375 C175.47340539 891.72025329 173.43697422 889.87920331 171.3125 888.0625 C168.1396408 885.34380752 165.18661618 882.47248325 162.25 879.5 C159.33373397 876.54816975 156.40394165 873.69611141 153.25 871 C149.17376781 867.51547893 145.45449127 863.71918019 141.6875 859.90625 C139.59999365 857.84550655 137.47830777 855.90484374 135.25 854 C131.17376781 850.51547893 127.45449127 846.71918019 123.6875 842.90625 C121.59999365 840.84550655 119.47830777 838.90484374 117.25 837 C113.17376781 833.51547893 109.45449127 829.71918019 105.6875 825.90625 C103.59999365 823.84550655 101.47830777 821.90484374 99.25 820 C95.1751665 816.51667458 91.45707008 812.72181292 87.69140625 808.91015625 C84.97797273 806.23145468 82.14222977 803.75391882 79.24609375 801.27734375 C76.18196187 798.54900715 73.34518168 795.60332092 70.46484375 792.68359375 C68.47340539 790.72025329 66.43697422 788.87920331 64.3125 787.0625 C61.1396408 784.34380752 58.18661618 781.47248325 55.25 778.5 C52.33373397 775.54816975 49.40394165 772.69611141 46.25 770 C42.17376781 766.51547893 38.45449127 762.71918019 34.6875 758.90625 C32.59999365 756.84550655 30.47830777 754.90484374 28.25 753 C24.17376781 749.51547893 20.45449127 745.71918019 16.6875 741.90625 C14.59999365 739.84550655 12.47830777 737.90484374 10.25 736 C6.1751665 732.51667458 2.45707008 728.72181292 -1.30859375 724.91015625 C-4.02202727 722.23145468 -6.85777023 719.75391882 -9.75390625 717.27734375 C-12.81803813 714.54900715 -15.65481832 711.60332092 -18.53515625 708.68359375 C-20.52659461 706.72025329 -22.56302578 704.87920331 -24.6875 703.0625 C-28.78058303 699.5553056 -32.52224704 695.74274842 -36.30859375 691.91015625 C-38.41763793 689.82810784 -40.56327402 687.86476918 -42.8125 685.9375 C-43.41074081 685.41296234 -44.00898163 684.88842468 -44.62535095 684.34799194 C-46.04070718 683.11693361 -47.48007012 681.91294127 -48.94190979 680.73745728 C-56.26052505 674.3174707 -58.24623295 667.2328874 -60.33984375 658.0859375 C-60.71001611 656.57449797 -61.08253891 655.0636324 -61.45726013 653.55331421 C-62.60346584 648.87971859 -63.68239072 644.19207531 -64.75 639.5 C-65.08093078 638.05927104 -65.41192277 636.61855613 -65.74298096 635.17785645 C-67.68677648 626.67653772 -69.53352639 618.15553641 -71.35110474 609.62646484 C-73.04183703 601.69597575 -74.77170104 593.77393319 -76.5 585.8515625 C-76.6760634 585.04383644 -76.85212681 584.23611038 -77.03352547 583.40390778 C-90.97126613 519.51140307 -106.83684061 456.11298461 -125.75 393.5 C-126.04521545 392.51960754 -126.34043091 391.53921509 -126.64459229 390.52911377 C-156.00561357 293.08808228 -192.59478249 192.52638007 -277.75 78.5 C-278.90090413 77.1710412 -280.04684834 75.83776889 -281.1875 74.5 C-285.46035241 69.58970574 -290.11656502 65.06639171 -294.75 60.5 C-295.5440625 59.70335937 -296.338125 58.90671875 -297.15625 58.0859375 C-306.97591857 48.29584625 -316.81140166 39.63218988 -328.75 32.5 C-329.35956543 32.13535645 -329.96913086 31.77071289 -330.59716797 31.39501953 C-361.61516291 13.17679277 -398.36053569 9.26932278 -433.09570312 17.62939453 C-454.71130767 23.25989499 -474.69201691 33.06801949 -491.75 47.5 C-492.26256348 47.92893555 -492.77512695 48.35787109 -493.30322266 48.79980469 C-505.60869143 59.19108943 -514.23327169 71.34532582 -521.75 85.5 C-522.35714844 86.62148438 -522.96429687 87.74296875 -523.58984375 88.8984375 C-537.44446277 115.39501743 -544.3755534 147.18633769 -535.75 176.5 C-535.57259277 177.12503418 -535.39518555 177.75006836 -535.21240234 178.39404297 C-530.00119536 196.29071564 -520.64590432 213.44502285 -509.75 228.5 C-509.02941406 229.52996094 -508.30882812 230.55992187 -507.56640625 231.62109375 C-502.64906115 238.62882488 -497.52833016 245.4771937 -492.375 252.3125 C-481.57038009 266.66219525 -471.30852593 281.28918414 -461.75 296.5 C-461.1926416 297.38292725 -461.1926416 297.38292725 -460.62402344 298.28369141 C-424.53447734 355.81273497 -399.62252861 422.00547299 -382.53564453 487.49365234 C-381.8190272 490.23586049 -381.08286204 492.97188582 -380.33984375 495.70703125 C-379.95443976 497.15851241 -379.5701967 498.61030269 -379.1875 500.0625 C-378.87683594 501.23941406 -378.56617188 502.41632812 -378.24609375 503.62890625 C-377.75588021 506.46596886 -377.96559259 507.81065469 -378.75 510.5 C-419.51313918 499.67741298 -458.78789507 484.76401363 -494.75 462.5 C-495.34683594 462.13197266 -495.94367187 461.76394531 -496.55859375 461.38476562 C-516.30799057 449.13486136 -534.72250763 435.13133074 -552.20703125 419.84765625 C-553.53912295 418.68418376 -554.87828624 417.5288169 -556.21875 416.375 C-562.01626292 411.29224895 -567.4761671 405.87568231 -572.9375 400.4375 C-573.69836914 399.68130371 -574.45923828 398.92510742 -575.24316406 398.14599609 C-579.95060457 393.42519969 -584.41592117 388.56395998 -588.75 383.5 C-589.74659929 382.35867897 -590.7439649 381.21802652 -591.7421875 380.078125 C-598.08187772 372.78164319 -604.08936481 365.34293394 -609.75 357.5 C-610.3982373 356.61465576 -610.3982373 356.61465576 -611.05957031 355.71142578 C-633.38225523 325.18487886 -651.685908 292.01202571 -664.75 256.5 C-665.15154297 255.41090332 -665.55308594 254.32180664 -665.96679688 253.19970703 C-675.07257331 228.10716833 -681.2780019 201.97075229 -684.75 175.5 C-684.83613556 174.84386719 -684.92227112 174.18773437 -685.01101685 173.51171875 C-686.67706603 160.45268982 -687.11323671 147.53095956 -687.0625 134.375 C-687.05976578 132.89598206 -687.05976578 132.89598206 -687.05697632 131.38708496 C-687.00986993 116.21790874 -686.41004948 101.4663467 -683.75 86.5 C-683.57839355 85.48180176 -683.40678711 84.46360352 -683.22998047 83.41455078 C-675.40795509 37.71966255 -655.10317609 -9.38184983 -620.75 -41.5 C-619.945625 -42.304375 -619.14125 -43.10875 -618.3125 -43.9375 C-617.466875 -44.783125 -616.62125 -45.62875 -615.75 -46.5 C-615.17507813 -47.12132812 -614.60015625 -47.74265625 -614.0078125 -48.3828125 C-550.55426388 -115.18862407 -442.9380335 -122.38925722 0 0 Z " fill="#000000" transform="translate(2098.75,456.5)"/>
<path d="M0 0 C0.95213379 0.36818848 1.90426758 0.73637695 2.88525391 1.11572266 C60.12893062 23.52944396 113.87330425 60.06680359 154 107 C154.84949219 107.96035156 155.69898438 108.92070312 156.57421875 109.91015625 C170.06508291 125.24099812 182.02641246 141.7908616 193 159 C193.39348633 159.61584961 193.78697266 160.23169922 194.19238281 160.86621094 C201.5497452 172.4914805 207.78610987 184.73732311 214 197 C214.41282227 197.80421387 214.82564453 198.60842773 215.25097656 199.43701172 C258.05416893 283.26442247 263.70945379 392.29988423 235.125 484.8125 C221.94181943 525.03618162 203.19471713 561.9785964 178 596 C177.39937744 596.81114258 177.39937744 596.81114258 176.78662109 597.63867188 C161.33822399 618.36926356 143.65704799 638.1937212 124 655 C122.55947266 656.27423828 122.55947266 656.27423828 121.08984375 657.57421875 C101.4167842 674.8861561 79.75365088 690.0167071 57 703 C56.1632373 703.48049805 55.32647461 703.96099609 54.46435547 704.45605469 C-31.97622719 753.73225258 -140.99576368 769.74011141 -240.98828125 744.0078125 C-277.75734432 733.68029867 -313.52323497 718.87592413 -345 697 C-345.7027002 696.51821289 -346.40540039 696.03642578 -347.12939453 695.54003906 C-357.05088828 688.7307799 -366.68404779 681.61676554 -376 674 C-376.53641113 673.56800293 -377.07282227 673.13600586 -377.62548828 672.69091797 C-387.28408772 664.8626738 -396.07295639 656.13622951 -404.875 647.375 C-405.45704193 646.7982251 -406.03908386 646.2214502 -406.63876343 645.62719727 C-413.91011865 638.40673192 -420.6382129 631.04394978 -427 623 C-427.86305589 621.97217079 -428.73146061 620.94876107 -429.609375 619.93359375 C-466.7222016 576.65787076 -491.20489075 524.02666934 -508 470 C-508.33257813 468.93023926 -508.66515625 467.86047852 -509.0078125 466.75830078 C-525.45050959 412.75478045 -529.36680898 352.75035488 -521 297 C-520.83516113 295.8955957 -520.67032227 294.79119141 -520.50048828 293.65332031 C-515.0316767 258.14904678 -504.84805929 223.29427736 -489 191 C-488.33943604 189.65010986 -488.33943604 189.65010986 -487.66552734 188.27294922 C-478.19512 169.11802098 -467.27207906 150.77835527 -454 134 C-453.11850392 132.85385384 -452.23836843 131.70666035 -451.359375 130.55859375 C-446.25035296 123.92198399 -440.9630803 117.58524032 -435.26171875 111.4453125 C-433.3095112 109.3346356 -431.42693722 107.18772443 -429.5625 105 C-422.6496396 97.05999289 -415.01241344 89.81403508 -407 83 C-406.04222656 82.15308594 -405.08445312 81.30617188 -404.09765625 80.43359375 C-369.88138672 50.31135917 -329.3890761 26.61672017 -287 10 C-286.11763672 9.65018066 -285.23527344 9.30036133 -284.32617188 8.93994141 C-243.80704512 -7.03259136 -201.45320436 -18.19452589 -158 -22 C-156.87851562 -22.11085938 -155.75703125 -22.22171875 -154.6015625 -22.3359375 C-102.81187139 -26.72087702 -48.46510127 -18.80901387 0 0 Z " fill="#000000" transform="translate(1122,23)"/>
<path d="M0 0 C1.11894653 -0.00701431 2.23789307 -0.01402863 3.39074707 -0.02125549 C6.99621635 -0.03870524 10.60152125 -0.04511083 14.20703125 -0.046875 C16.05574326 -0.04788712 16.05574326 -0.04788712 17.94180298 -0.04891968 C113.50520648 0.03418907 199.67224427 31.60767014 267.58056641 99.57885742 C273.13045999 105.19890581 278.20490499 110.93676028 283.01953125 117.203125 C284.24929688 118.70746094 284.24929688 118.70746094 285.50390625 120.2421875 C345.6793397 194.04370461 368.19017566 293.73980472 359.01953125 387.203125 C351.5689695 455.19881415 326.72184366 522.72321432 282.01953125 575.203125 C281.14359831 576.26355298 280.2686482 577.32479334 279.39453125 578.38671875 C268.92691208 590.98699981 257.50949283 603.10042502 244.57421875 613.1953125 C242.85291675 614.54814007 241.17016355 615.95131411 239.52734375 617.3984375 C224.72383297 630.39978175 207.46319957 641.10127958 190.01953125 650.203125 C189.08681396 650.69619141 189.08681396 650.69619141 188.13525391 651.19921875 C103.94263063 695.48165248 1.30466236 701.16430179 -88.98046875 673.203125 C-132.40360488 659.24544769 -170.52999939 637.92239657 -204.98046875 608.203125 C-205.72039062 607.56503906 -206.4603125 606.92695313 -207.22265625 606.26953125 C-209.15211241 604.59191173 -211.06780075 602.89984662 -212.98046875 601.203125 C-214.09421875 600.22859375 -214.09421875 600.22859375 -215.23046875 599.234375 C-226.06584295 589.64923628 -236.04156733 579.59080593 -244.98046875 568.203125 C-245.95886719 567.02556641 -245.95886719 567.02556641 -246.95703125 565.82421875 C-255.33239206 555.69703944 -262.25728974 544.79963275 -268.53125 533.27734375 C-269.04824966 532.32826645 -269.56524933 531.37918915 -270.09791565 530.40135193 C-276.79921618 517.97725459 -282.86560637 505.2401535 -288.9777832 492.51928711 C-294.52486205 480.9934873 -300.17225656 469.56485738 -306.453125 458.41796875 C-306.91561142 457.59559219 -307.37809784 456.77321564 -307.854599 455.92591858 C-308.33449783 455.08790207 -308.81439667 454.24988556 -309.30883789 453.38647461 C-309.83312378 452.44530289 -310.35740967 451.50413116 -310.89758301 450.53443909 C-312.56627448 447.8655767 -314.25933438 445.57668469 -316.22741699 443.14219666 C-328.51473927 427.11082037 -327.85334429 410.75062482 -327.59497404 391.48438621 C-327.54646965 386.9942974 -327.56602229 382.50438572 -327.5753479 378.01411438 C-327.58066514 370.48517557 -327.53447792 362.95794316 -327.45556641 355.42944336 C-327.36531965 346.76771496 -327.3532304 338.10857948 -327.38364065 329.44649285 C-327.41164636 321.05108947 -327.38823789 312.65659254 -327.34056473 304.26130104 C-327.32104958 300.71570104 -327.31822726 297.17069866 -327.32938766 293.62506676 C-327.33992871 289.44181288 -327.30468613 285.26120666 -327.23625183 281.07852364 C-327.21820025 279.55823956 -327.21475182 278.03768797 -327.2282753 276.51735687 C-327.31510185 265.12817965 -324.32968692 257.52267672 -318.14006352 248.00122893 C-316.29410539 245.1388285 -314.58462846 242.19977762 -312.85546875 239.265625 C-312.10741651 238.02486528 -311.35778135 236.78505616 -310.60546875 235.546875 C-308.59143475 232.22181886 -306.59578437 228.88618232 -304.60546875 225.546875 C-297.08770252 212.94584716 -289.43587334 200.44092535 -281.625 188.01953125 C-279.20336197 184.16619245 -276.80544664 180.29976006 -274.4296875 176.41796875 C-264.50420825 160.2060701 -264.50420825 160.2060701 -258.84765625 152.70703125 C-256.76024272 149.90780097 -254.81215451 147.03264955 -252.85546875 144.140625 C-246.93387991 135.54510071 -240.46578141 127.37725958 -233.98046875 119.203125 C-233.5417041 118.64818359 -233.10293945 118.09324219 -232.65087891 117.52148438 C-227.58683936 111.13757331 -222.22101369 105.08792851 -216.6796875 99.12109375 C-214.18571135 96.42500086 -211.73421256 93.69689816 -209.29296875 90.953125 C-202.92150044 83.86741736 -196.17676049 77.43735012 -188.98046875 71.203125 C-188.36937256 70.66937256 -187.75827637 70.13562012 -187.12866211 69.58569336 C-140.76542895 29.34484087 -83.70882516 7.29325122 -22.98046875 1.203125 C-22.19774094 1.12020203 -21.41501312 1.03727905 -20.60856628 0.95184326 C-13.72732902 0.26434783 -6.91306734 0.02908766 0 0 Z " fill="#000000" transform="translate(325.98046875,1561.796875)"/>
<path d="M0 0 C1.50626953 0.86625 1.50626953 0.86625 3.04296875 1.75 C22.22045909 13.43501527 39.14045067 30.4368064 53 48 C53.90810392 49.10845539 54.8183701 50.21514187 55.73046875 51.3203125 C70.31160834 69.07923607 82.42964755 88.18041479 94 108 C95.0050031 109.69934014 96.01019875 111.39856643 97.015625 113.09765625 C141.46463665 188.87177453 171.95390791 273.86421402 211 408 C211.24985657 408.92317017 211.49971313 409.84634033 211.75714111 410.79748535 C237.44657205 505.87420352 256.42919188 603.15231503 275.125 787.375 C275.20065186 788.52411865 275.27630371 789.6732373 275.35424805 790.85717773 C276.83919289 815.19517209 277.20601408 839.56016089 277.1875 863.9375 C277.18738041 864.6414024 277.18726082 865.34530479 277.1871376 866.07053757 C277.18235676 888.41917949 276.88870293 910.70153848 275.15496826 932.99279785 C274.99972335 935.00358323 274.8528566 937.01484358 274.70751953 939.02636719 C270.88837186 991.00758182 262.31310356 1045.75356149 237 1092 C236.57114502 1092.83684326 236.14229004 1093.67368652 235.70043945 1094.53588867 C233.17965353 1098.95982572 231.24468369 1101.39268036 226.26171875 1102.83203125 C224.4110467 1103.1984479 222.55178797 1103.52322758 220.6875 1103.8125 C219.69000732 1103.9971582 218.69251465 1104.18181641 217.66479492 1104.37207031 C214.44879118 1104.95493506 211.22667752 1105.47976884 208 1106 C205.78359966 1106.38264331 203.56745306 1106.76675927 201.3515625 1107.15234375 C163.77993472 1113.52093273 132.80076753 1109.66532941 97.0657959 1096.84420776 C95.61402028 1096.32619316 94.15933707 1095.81625093 92.70178223 1095.31472778 C90.6423212 1094.60161236 88.59836472 1093.85464654 86.5546875 1093.09765625 C85.36343262 1092.66976807 84.17217773 1092.24187988 82.94482422 1091.80102539 C74.90565066 1086.88434629 73.53030381 1070.70204533 71.42385864 1062.06604004 C59.52302433 1012.36125292 55.01392663 961.36457116 52.5078125 910.4296875 C52.44402405 909.14909769 52.3802356 907.86850788 52.31451416 906.54911232 C50.94138218 878.78272042 50.04629263 851.00541151 49.23580933 823.21722412 C48.83393927 809.46324136 48.40483341 795.71009065 47.97265625 781.95703125 C47.95167287 781.28798578 47.93068949 780.61894032 47.90907025 779.92962074 C46.95714571 749.59888832 45.7624768 719.29554715 44 689 C43.88718654 687.01367304 43.77439339 685.02734492 43.66162109 683.04101562 C40.26039283 623.96429232 33.34190536 565.09076702 22 507 C21.76490723 505.79005371 21.52981445 504.58010742 21.28759766 503.33349609 C19.67908265 495.18609389 17.89801194 487.08457878 16 479 C15.8184436 478.22652222 15.63688721 477.45304443 15.4498291 476.65612793 C3.40002159 425.53490065 -12.01380319 375.20386085 -33 327 C-33.48194824 325.87819336 -33.96389648 324.75638672 -34.46044922 323.60058594 C-47.51380092 293.2884275 -62.12975325 263.37656867 -79 235 C-79.58120605 234.00967773 -80.16241211 233.01935547 -80.76123047 231.99902344 C-91.10637074 214.40495185 -102.22404329 197.35718974 -113.55908203 180.38720703 C-139.02457308 142.17945687 -153.4901062 97.93450084 -144.5390625 51.61474609 C-139.81510514 29.14415276 -129.60884659 8.44858356 -110.296875 -4.86328125 C-77.52763443 -25.32215203 -32.18625432 -18.51331959 0 0 Z " fill="#000000" transform="translate(1750,516)"/>
<path d="M0 0 C1.09942429 -0.00960754 2.19884857 -0.01921509 3.33158875 -0.02911377 C5.09874992 -0.03548859 5.09874992 -0.03548859 6.90161133 -0.04199219 C8.13543045 -0.04769226 9.36924957 -0.05339233 10.64045715 -0.05926514 C13.25541328 -0.06870337 15.87038124 -0.07524444 18.48535156 -0.07910156 C22.42445682 -0.08872263 26.36302091 -0.11972283 30.30200195 -0.15136719 C59.16984974 -0.27378399 87.0593168 2.65052888 108.98364258 23.47363281 C124.08801331 39.43701989 133.70355619 60.2617212 143.52563477 79.67138672 C145.0729433 82.72119756 146.63708867 85.76130697 148.21020508 88.79785156 C183.69866796 157.79207339 209.01835376 234.27141096 221.29614258 315.16113281 C221.39691101 315.84071045 221.49767944 316.52028809 221.60150146 317.22045898 C234.18277955 402.89309372 227.12313257 490.19871731 129.92114258 699.47363281 C121.10525985 711.32090119 111.73368588 722.75690468 101.67504883 733.57128906 C100.41173923 734.94661626 99.15419818 736.32838135 97.94580078 737.75219727 C92.38934965 744.28547338 86.31511645 750.29309455 80.24462891 756.34301758 C78.36285984 758.21942756 76.4864952 760.1011225 74.6105957 761.98339844 C68.67648619 767.92109649 62.73449381 773.76462905 56.29614258 779.16113281 C55.28603744 780.03759669 54.27687479 780.91514831 53.26879883 781.79394531 C45.22085382 788.68601097 36.90636121 795.16565934 28.44262695 801.53808594 C26.35834523 803.11409878 24.28686524 804.70556073 22.21801758 806.30175781 C13.8211487 812.74527033 5.19532422 818.51867118 -3.84692383 824.01269531 C-6.61446812 825.7243083 -9.30796047 827.54527782 -12.01635742 829.34863281 C-79.79896267 873.43984186 -172.94121396 907.85657929 -254.70385742 891.16113281 C-280.11932476 885.63250924 -280.11932476 885.63250924 -285.70385742 881.16113281 C-287.27585916 878.61915733 -287.98723785 876.0464524 -288.70385742 873.16113281 C-288.90865723 872.4829248 -289.11345703 871.8047168 -289.32446289 871.10595703 C-289.97566929 868.94696127 -290.56650876 866.779166 -291.14135742 864.59863281 C-291.35308594 863.79578857 -291.56481445 862.99294434 -291.78295898 862.16577148 C-294.38171066 851.95485926 -296.107939 841.56983713 -297.70385742 831.16113281 C-297.99776367 829.30681641 -297.99776367 829.30681641 -298.29760742 827.41503906 C-301.85247538 797.29401735 -298.07118308 765.232548 -279.32885742 740.47363281 C-278.13739516 739.02211865 -276.9282869 737.58494746 -275.70385742 736.16113281 C-275.01420898 735.3503125 -274.32456055 734.53949219 -273.61401367 733.70410156 C-251.01208027 707.84494753 -218.24892497 692.13685489 -187.51635742 678.03613281 C-149.01228668 660.36460917 -110.48231121 641.37658665 -77.70385742 614.16113281 C-77.14714355 613.70593262 -76.59042969 613.25073242 -76.0168457 612.78173828 C-61.29817281 600.71938153 -48.00101831 587.49163667 -36.70385742 572.16113281 C-36.0000293 571.22914063 -35.29620117 570.29714844 -34.57104492 569.33691406 C-10.57729896 537.11001998 4.8862631 500.11267289 14.29614258 461.16113281 C14.52140625 460.23526367 14.74666992 459.30939453 14.97875977 458.35546875 C18.39956134 444.07203623 20.73481617 429.76230116 22.29614258 415.16113281 C22.39258057 414.28682617 22.48901855 413.41251953 22.58837891 412.51171875 C29.56973913 343.90415734 4.03659303 282.21351949 -26.14379883 222.41210938 C-49.96539006 175.19435956 -73.99464912 126.36959471 -56.67724609 72.83422852 C-49.43936797 51.3451903 -37.59286669 32.89483593 -23.70385742 15.16113281 C-23.16970215 14.47889648 -22.63554688 13.79666016 -22.08520508 13.09375 C-20.52052002 11.11905204 -18.93100945 9.16800188 -17.32885742 7.22363281 C-16.85359619 6.62639404 -16.37833496 6.02915527 -15.88867188 5.41381836 C-11.31719714 -0.00686158 -6.74099261 0.04795871 0 0 Z " fill="#000000" transform="translate(967.703857421875,1631.8388671875)"/>
</svg>
