<?xml version="1.0" encoding="UTF-8"?>
<svg version="1.1" xmlns="http://www.w3.org/2000/svg" width="3084" height="3767">
<path d="M0 0 C1.41286789 0.00040787 1.41286789 0.00040787 2.85427856 0.00082397 C17.98433394 0.02075397 32.95461243 0.45334647 48 2.1875 C48.91104492 2.28933594 49.82208984 2.39117188 50.76074219 2.49609375 C81.44807159 6.05086484 112.93932717 14.4094471 138 33.1875 C138.53077148 33.57454102 139.06154297 33.96158203 139.60839844 34.36035156 C148.3980759 40.7919463 156.05756913 48.02594535 163.66015625 55.80859375 C166.67521927 58.888965 169.81939006 61.74008728 173.11328125 64.51953125 C176.42238728 67.44497281 179.46341385 70.64438007 182.56640625 73.78515625 C184.63242365 75.82464373 186.73005549 77.742578 188.9375 79.625 C192.80617798 82.93096118 196.36064305 86.51894678 199.93115234 90.13818359 C203.15350409 93.38734173 206.49331816 96.41186334 209.97265625 99.37890625 C213.31743054 102.36278004 216.41335157 105.59369732 219.5625 108.78125 C221.65000635 110.84199345 223.77169223 112.78265626 226 114.6875 C230.07623219 118.17202107 233.79550873 121.96831981 237.5625 125.78125 C239.65000635 127.84199345 241.77169223 129.78265626 244 131.6875 C247.15394165 134.38361141 250.08373397 137.23566975 253 140.1875 C255.89591958 143.11868191 258.80242571 145.95153174 261.9375 148.625 C265.80617798 151.93096118 269.36064305 155.51894678 272.93115234 159.13818359 C276.15350409 162.38734173 279.49331816 165.41186334 282.97265625 168.37890625 C286.31743054 171.36278004 289.41335157 174.59369732 292.5625 177.78125 C294.65000635 179.84199345 296.77169223 181.78265626 299 183.6875 C302.15394165 186.38361141 305.08373397 189.23566975 308 192.1875 C310.85523683 195.07739828 313.71500196 197.87201745 316.8125 200.5 C325.50098346 207.95231711 333.77068361 216.31367696 341 225.1875 C341.77859375 226.12722656 342.5571875 227.06695313 343.359375 228.03515625 C355.29378014 242.75912586 361.92611604 257.28624005 362.9375 276.375 C363.82392656 289.61073783 365.66522487 302.32865014 372 314.1875 C372.30035156 314.75936035 372.60070313 315.3312207 372.91015625 315.92041016 C377.86797641 325.29643983 383.34493069 333.90475106 390 342.1875 C390.49016602 342.80625 390.98033203 343.425 391.48535156 344.0625 C397.84249017 352.08432371 404.36308559 359.87856301 411.3671875 367.34375 C413.35656662 369.49251558 415.26951003 371.66356392 417.171875 373.88671875 C422.468148 379.96932543 428.31846122 385.51613109 434.0859375 391.14648438 C439.43287534 396.42736266 444.3329225 401.86944157 449.02587891 407.73901367 C451.4018123 410.68586453 453.90505305 413.43237114 456.5 416.1875 C460.77305997 420.77132797 464.75785983 425.52226865 468.6875 430.40625 C471.64176364 433.95935086 474.76913424 437.3277368 477.91625977 440.70922852 C480.88715628 443.9204905 483.69961077 447.21377815 486.4375 450.625 C489.80346265 454.80987307 493.33176017 458.77064398 497 462.6875 C501.45872195 467.44841334 505.63797624 472.35217563 509.72265625 477.44140625 C512.21826469 480.45069052 514.83765143 483.32688654 517.5 486.1875 C521.76920779 490.77507439 525.75758739 495.52193004 529.6875 500.40625 C532.64176364 503.95935086 535.76913424 507.3277368 538.91625977 510.70922852 C541.88715628 513.9204905 544.69961077 517.21377815 547.4375 520.625 C550.80346265 524.80987307 554.33176017 528.77064398 558 532.6875 C562.45872195 537.44841334 566.63797624 542.35217563 570.72265625 547.44140625 C573.21826469 550.45069052 575.83765143 553.32688654 578.5 556.1875 C582.76920779 560.77507439 586.75758739 565.52193004 590.6875 570.40625 C593.64176364 573.95935086 596.76913424 577.3277368 599.91625977 580.70922852 C602.88715628 583.9204905 605.69961077 587.21377815 608.4375 590.625 C611.80346265 594.80987307 615.33176017 598.77064398 619 602.6875 C623.45872195 607.44841334 627.63797624 612.35217563 631.72265625 617.44140625 C634.21826469 620.45069052 636.83765143 623.32688654 639.5 626.1875 C643.76920779 630.77507439 647.75758739 635.52193004 651.6875 640.40625 C654.64176364 643.95935086 657.76913424 647.3277368 660.91625977 650.70922852 C663.88715628 653.9204905 666.69961077 657.21377815 669.4375 660.625 C672.80346265 664.80987307 676.33176017 668.77064398 680 672.6875 C684.45872195 677.44841334 688.63797624 682.35217563 692.72265625 687.44140625 C695.21826469 690.45069052 697.83765143 693.32688654 700.5 696.1875 C704.76920779 700.77507439 708.75758739 705.52193004 712.6875 710.40625 C715.19971256 713.42769484 717.82404088 716.31188383 720.5 719.1875 C724.80823989 723.81807443 728.8494424 728.60256492 732.8125 733.53515625 C735.00311889 736.19128165 737.28937729 738.72105717 739.625 741.25 C743.8941264 745.95565753 747.52891908 750.87192093 751 756.1875 C751.63679688 757.14011719 752.27359375 758.09273437 752.9296875 759.07421875 C773.15903576 790.44151557 780.53519921 828.58794223 784 865.1875 C784.08918701 866.08339844 784.17837402 866.97929687 784.27026367 867.90234375 C792.56631059 957.55242229 776.19834998 1049.62593731 725.7265625 1290.18261719 C725.45327244 1291.38394822 725.45327244 1291.38394822 725.17446136 1292.60954857 C724.34735136 1296.24494521 723.51958139 1299.88018656 722.6895752 1303.5149231 C721.64086505 1308.11268483 720.60027411 1312.71225823 719.5625 1317.3125 C719.29636461 1318.49201736 719.03022923 1319.67153473 718.75602913 1320.88679504 C714.12613497 1341.42785164 709.60691648 1361.98946194 705.33984375 1382.609375 C705.11978605 1383.67186281 705.11978605 1383.67186281 704.89528275 1384.75581503 C697.88210133 1418.66429635 691.99357302 1452.74345652 686.25155818 1486.88626719 C683.65067547 1502.34128709 681.00328317 1517.78846141 678.36331582 1533.23684263 C677.91857664 1535.84019164 677.47424031 1538.44360911 677.03001976 1541.04704666 C661.92964046 1629.533065 646.23493858 1717.98321299 609.5 1887.375 C609.22621521 1888.48652435 608.95243042 1889.59804871 608.67034912 1890.74325562 C605.79090172 1902.3656868 602.60432006 1913.82995133 598.83984375 1925.19921875 C598.35475342 1926.66478462 598.35475342 1926.66478462 597.85986328 1928.15995789 C594.99587303 1936.5897892 591.45296235 1944.48206704 587 1952.1875 C586.65356445 1952.7870752 586.30712891 1953.38665039 585.95019531 1954.00439453 C574.43957712 1973.5450643 558.2206274 1989.84933691 540 2003.1875 C539.08436279 2003.86022949 538.16872559 2004.53295898 537.2253418 2005.22607422 C526.30096848 2013.17555466 514.98406576 2020.53227461 503.6875 2027.9375 C500.7353053 2029.8765942 497.78362072 2031.81646304 494.83198547 2033.75640869 C493.01146051 2034.95252656 491.19051692 2036.14800761 489.36906433 2037.3427124 C488.53401871 2037.89058411 487.69897308 2038.43845581 486.83862305 2039.00292969 C486.11918015 2039.47462585 485.39973724 2039.94632202 484.65849304 2040.43231201 C482.07883218 2042.08487172 482.07883218 2042.08487172 480.07586002 2043.69045734 C474.08078754 2048.15881414 469.55377246 2049.08371344 462.16625977 2049.07495117 C461.12096603 2049.09670914 460.0756723 2049.1184671 458.998703 2049.1408844 C455.56252601 2049.20267628 452.12809767 2049.21954333 448.69140625 2049.23046875 C446.28115693 2049.25231944 443.87091411 2049.27489937 441.4606781 2049.298172 C436.4112149 2049.33854627 431.36236025 2049.353722 426.31274414 2049.35424805 C419.88616953 2049.35921018 413.46413648 2049.45129023 407.0387125 2049.56608105 C402.05807677 2049.6408526 397.07850796 2049.6556427 392.09736443 2049.65453529 C389.73126742 2049.66338049 387.36514158 2049.69312521 384.99960518 2049.74538231 C368.8511425 2050.07059397 358.98323263 2047.69648386 346.82139397 2036.79584694 C344.08582161 2034.38025234 341.17663009 2032.24144209 338.25 2030.0625 C336.16456198 2028.44020192 334.08124513 2026.81517365 332 2025.1875 C330.86097352 2024.3069081 329.72164244 2023.42671007 328.58203125 2022.546875 C317.44943928 2013.91849637 306.77466231 2004.79277129 296.3515625 1995.3203125 C294.77238962 1993.88803942 293.18364553 1992.46625479 291.5859375 1991.0546875 C286.8631264 1986.87162624 282.28418851 1982.57353731 277.8125 1978.125 C277.3376416 1977.65473389 276.8627832 1977.18446777 276.37353516 1976.69995117 C238.17230228 1938.33411457 221.1931137 1891.7006864 221 1838.1875 C221.83054169 1785.32638529 234.63723344 1732.62362067 245.52187008 1681.13010973 C252.59149361 1647.67797075 259.46848829 1614.19144711 266.11328125 1580.65234375 C266.3002891 1579.70865519 266.48729694 1578.76496664 266.67997169 1577.79268146 C268.78142255 1567.18639762 270.87795611 1556.5791452 272.97235107 1545.97146606 C276.98634901 1525.64211713 281.01983436 1505.31663005 285.05859375 1484.9921875 C285.25600694 1483.99855643 285.45342012 1483.00492535 285.65681553 1481.98118424 C292.23607054 1448.87001468 298.94297332 1415.78935975 305.875 1382.75 C306.29099699 1380.76613398 306.70699228 1378.78226761 307.12298584 1376.79840088 C307.92514607 1372.97392913 308.72751096 1369.14950038 309.5300293 1365.32510376 C309.72183777 1364.41101368 309.91364624 1363.4969236 310.11126709 1362.55513382 C310.48922172 1360.75426433 310.86729157 1358.95341902 311.2454834 1357.15259933 C327.17554299 1281.28075081 342.13605281 1205.11637719 369.7857666 1014.42700195 C369.98247632 1012.37068491 370.18760464 1010.31517776 370.39355469 1008.25976562 C376.61461907 959.02946372 376.61461907 959.02946372 363.05859375 913.76171875 C361.54028787 912.0638567 359.99220241 910.39223368 358.41796875 908.74609375 C356.00758504 906.19552618 353.81524114 903.55325058 351.625 900.8125 C347.94428153 896.25969493 344.07351352 891.95332589 340.08862305 887.6706543 C336.28614986 883.55989043 332.75736701 879.26483477 329.24609375 874.90234375 C326.9116941 872.08076505 324.48009402 869.38159288 322 866.6875 C317.90648909 862.24022888 314.07557501 857.64032537 310.28125 852.9375 C307.13805742 849.14844593 303.79841405 845.55480648 300.46484375 841.93359375 C298.07292703 839.26874834 295.80745116 836.53918175 293.5625 833.75 C290.34056899 829.75526014 286.99344505 825.94195651 283.5 822.1875 C279.21044887 817.57745664 275.19589328 812.80967044 271.24609375 807.90234375 C268.9116941 805.08076505 266.48009402 802.38159288 264 799.6875 C259.90648909 795.24022888 256.07557501 790.64032537 252.28125 785.9375 C249.13805742 782.14844593 245.79841405 778.55480648 242.46484375 774.93359375 C240.07292703 772.26874834 237.80745116 769.53918175 235.5625 766.75 C232.34056899 762.75526014 228.99344505 758.94195651 225.5 755.1875 C221.21044887 750.57745664 217.19589328 745.80967044 213.24609375 740.90234375 C210.9116941 738.08076505 208.48009402 735.38159288 206 732.6875 C201.90648909 728.24022888 198.07557501 723.64032537 194.28125 718.9375 C191.93281032 716.10650422 189.49090098 713.39366402 187 710.6875 C182.90648909 706.24022888 179.07557501 701.64032537 175.28125 696.9375 C172.13805742 693.14844593 168.79841405 689.55480648 165.46484375 685.93359375 C163.07292703 683.26874834 160.80745116 680.53918175 158.5625 677.75 C155.34056899 673.75526014 151.99344505 669.94195651 148.5 666.1875 C144.21044887 661.57745664 140.19589328 656.80967044 136.24609375 651.90234375 C133.9116941 649.08076505 131.48009402 646.38159288 129 643.6875 C124.90648909 639.24022888 121.07557501 634.64032537 117.28125 629.9375 C114.13805742 626.14844593 110.79841405 622.55480648 107.46484375 618.93359375 C105.07292703 616.26874834 102.80745116 613.53918175 100.5625 610.75 C97.34056899 606.75526014 93.99344505 602.94195651 90.5 599.1875 C86.21044887 594.57745664 82.19589328 589.80967044 78.24609375 584.90234375 C75.9116941 582.08076505 73.48009402 579.38159288 71 576.6875 C66.90648909 572.24022888 63.07557501 567.64032537 59.28125 562.9375 C56.13805742 559.14844593 52.79841405 555.55480648 49.46484375 551.93359375 C47.07292703 549.26874834 44.80745116 546.53918175 42.5625 543.75 C39.34054494 539.75523032 35.99317778 535.94222818 32.5 532.1875 C28.24794207 527.61163659 24.23335091 522.90121229 20.3125 518.03515625 C17.75133659 514.88129118 15.13290917 511.7814297 12.5 508.6875 C9.09466776 504.68507163 5.73975693 500.65100858 2.4375 496.5625 C-1.39369932 491.85032971 -5.44112195 487.37985996 -9.5546875 482.9140625 C-11.8440938 480.3613379 -13.99237872 477.74652146 -16.125 475.0625 C-21.46170285 468.44384896 -27.35066315 462.35992218 -33.203125 456.19921875 C-36.80815405 452.40301392 -40.32442189 448.53620334 -43.80859375 444.62890625 C-47.97078095 439.99188843 -52.21891387 435.43337385 -56.45166016 430.86083984 C-59.46867539 427.60025606 -62.48018509 424.33458761 -65.49267578 421.06982422 C-68.02840753 418.3221606 -70.56555949 415.57583413 -73.10546875 412.83203125 C-82.79934047 402.35634633 -92.32181651 391.76206713 -101.55957031 380.88085938 C-102.85449289 379.35855717 -104.15722922 377.84290986 -105.4609375 376.328125 C-169.9895901 300.4372844 -190.47553315 206.98036056 -200 100.1875 C-200.07047546 99.37390015 -200.14095093 98.56030029 -200.21356201 97.7220459 C-201.79492471 79.45591639 -203.13460079 61.17934082 -204.1875 42.875 C-204.2518222 41.78776138 -204.2518222 41.78776138 -204.31744385 40.67855835 C-204.93102412 30.17231278 -205.09597175 19.71076083 -205 9.1875 C-196.98542242 8.51067146 -188.98662999 8.0802675 -180.94921875 7.828125 C-180.00529266 7.79818954 -179.06136658 7.76825409 -178.08883667 7.7374115 C-177.09820221 7.70603592 -176.10756775 7.67466034 -175.08691406 7.64233398 C-143.09239886 6.62877393 -111.15224064 4.81605702 -79.19799805 2.95214844 C-52.80244106 1.41482429 -26.45025244 -0.0293928 0 0 Z " fill="#010101" transform="translate(843,1718.8125)"/>
<path d="M0 0 C1.15424847 -0.00210102 2.30849693 -0.00420204 3.49772263 -0.00636673 C27.51966132 -0.04750655 51.50430698 0.12506895 75.50390625 1.234375 C76.38267363 1.27495718 77.261441 1.31553936 78.16683769 1.3573513 C128.66414641 3.75330798 128.66414641 3.75330798 135.5625 6.3125 C137.47372772 8.6284941 139.14422198 10.89187674 140.8125 13.375 C141.32772217 14.12523437 141.84294434 14.87546875 142.3737793 15.6484375 C144.11538146 18.19514173 145.83853399 20.7538304 147.5625 23.3125 C148.83441742 25.17593007 150.10655927 27.03920696 151.37890625 28.90234375 C165.67983794 49.97471018 178.73856905 71.75715073 190.5625 94.3125 C191.33110352 95.77381348 191.33110352 95.77381348 192.11523438 97.26464844 C198.89286789 110.24052366 205.0687303 123.41602327 210.8125 136.875 C211.0869696 137.51345856 211.36143921 138.15191711 211.64422607 138.8097229 C220.0965125 158.55071678 226.85262994 178.9914573 233.84890747 199.28088379 C234.98016617 202.56122005 236.11377234 205.84073815 237.24780273 209.12011719 C240.96340126 219.86845066 244.66974169 230.61994122 248.36627197 241.37484741 C250.04550259 246.25937956 251.72706893 251.14310633 253.40875244 256.02679443 C254.58476932 259.44554696 255.75706078 262.86556074 256.92919922 266.28564453 C267.41029194 296.79803287 267.41029194 296.79803287 280.5 326.25 C281.19868974 327.6715295 281.89733822 329.09307928 282.59594727 330.51464844 C289.85584516 345.20016788 297.94039368 359.04591447 307.5625 372.3125 C308.28050781 373.30636719 308.99851562 374.30023437 309.73828125 375.32421875 C317.29284738 385.58930417 325.3442636 395.49122115 334.5625 404.3125 C337.15907525 406.89176475 339.73425382 409.488683 342.2890625 412.109375 C348.70467305 418.67074469 355.32826682 424.64778873 362.5625 430.3125 C363.85746728 431.35851338 365.15168472 432.40545548 366.4453125 433.453125 C378.27090412 442.94147735 390.70633373 451.2889022 403.5625 459.3125 C404.43293945 459.85729004 405.30337891 460.40208008 406.20019531 460.96337891 C417.91690139 468.2354315 430.00002706 474.7461896 442.25 481.0625 C443.25688873 481.58224396 443.25688873 481.58224396 444.28411865 482.11248779 C461.67717071 491.06498986 479.3733736 499.22622492 497.375 506.875 C499.22177503 507.6629439 501.06845258 508.45111629 502.91503906 509.23950195 C515.29211188 514.51856795 527.690157 519.74760936 540.09576416 524.959198 C578.98891526 541.29870309 617.75361794 557.93955812 656.47509766 574.68115234 C662.475862 577.27549075 668.47799056 579.86666104 674.48046875 582.45703125 C693.11614589 590.49965775 711.75125036 598.54365274 730.37007141 606.62524414 C734.15444069 608.26786586 737.93928609 609.90938244 741.72460938 611.54980469 C782.31763887 629.14299702 822.76351685 647.01497966 862.89453125 665.640625 C902.58992432 684.05114907 942.21882829 701.5761362 985.5625 709.3125 C986.89731392 709.57722651 988.23197996 709.84270139 989.56640625 710.109375 C1030.95537337 717.20736704 1075.00109406 706.17447428 1109.77734375 683.1875 C1111.46023131 681.98992148 1113.13004085 680.77341679 1114.77734375 679.52734375 C1116.5625 678.3125 1116.5625 678.3125 1118.5625 678.3125 C1122.32353726 697.6693051 1123.91981695 716.71765503 1123.87817383 736.43798828 C1123.8750165 739.54625697 1123.8985845 742.65356667 1123.92382812 745.76171875 C1123.9833452 764.35421151 1122.46416673 782.94322082 1117.8125 801 C1117.42408936 802.54494141 1117.42408936 802.54494141 1117.02783203 804.12109375 C1103.29434161 857.44611096 1072.5560419 902.05423396 1025.375 930.9375 C993.65986906 949.63413664 958.93818558 959.2394586 922.5625 963.3125 C921.39460938 963.44527344 920.22671875 963.57804687 919.0234375 963.71484375 C852.08956781 969.77709249 783.37286066 952.45209536 722.5625 925.3125 C720.79543701 924.52552734 720.79543701 924.52552734 718.99267578 923.72265625 C702.8278596 916.48865804 687.19566139 908.67374514 671.91601562 899.68896484 C669.85672469 898.48457871 667.78696159 897.30573199 665.703125 896.14453125 C650.80834075 887.82198475 636.51725652 878.49810071 622.55273438 868.70556641 C620.51448931 867.27889487 618.46862334 865.86365779 616.421875 864.44921875 C606.57096934 857.6079637 597.06385404 850.38893688 587.65234375 842.95703125 C585.72419666 841.43974167 583.78676354 839.93567675 581.84375 838.4375 C573.8106903 832.22718938 566.11212725 825.69159214 558.484375 818.99169922 C556.52029978 817.27562842 554.54360627 815.57527667 552.5625 813.87890625 C546.66671821 808.82455001 540.84420663 803.79763985 535.45066833 798.19972229 C533.64893865 796.39889534 531.78945239 794.74200145 529.85180664 793.08959961 C525.51064166 789.31713641 521.43075066 785.32526372 517.37109375 781.25390625 C516.24768333 780.13193092 516.24768333 780.13193092 515.10157776 778.98728943 C513.52978775 777.41617536 511.95924151 775.84381608 510.38989258 774.27026367 C508.00648696 771.88150154 505.61778932 769.49812554 503.22851562 767.11523438 C501.69238763 765.5784455 500.15656991 764.0413464 498.62109375 762.50390625 C497.91673691 761.80157364 497.21238007 761.09924103 496.48667908 760.37562561 C492.59435164 756.4651047 488.90099273 752.44854013 485.29600525 748.27284241 C482.38198829 744.97751289 479.27465291 741.88197019 476.16015625 738.77734375 C475.47876083 738.09499161 474.79736542 737.41263947 474.09532166 736.70960999 C472.66544259 735.27905563 471.23432089 733.84974233 469.80200195 732.42163086 C467.63052289 730.25550926 465.46443675 728.08409826 463.29882812 725.91210938 C461.89875798 724.51270013 460.49837762 723.11360116 459.09765625 721.71484375 C458.46094498 721.07610825 457.8242337 720.43737274 457.16822815 719.77928162 C453.351399 715.98193736 449.42233103 712.36793411 445.34246826 708.85435486 C442.75211138 706.61052028 440.25771821 704.2733606 437.75 701.9375 C433.1555286 697.69209522 428.42136741 693.6852625 423.546875 689.76171875 C419.96973764 686.82603141 416.48507626 683.79384483 413 680.75 C408.06901032 676.45011284 403.088044 672.25082147 397.94921875 668.19921875 C393.43697337 664.63225555 389.00872408 660.96116694 384.5625 657.3125 C379.64049016 653.27794345 374.71771388 649.24462977 369.76953125 645.2421875 C362.8351173 639.6302905 355.9382544 633.98549479 349.14941406 628.19799805 C345.78398629 625.33214234 342.37625075 622.52726545 338.9375 619.75 C334.17299192 615.87320231 329.6260611 611.79778468 325.10546875 607.640625 C322.99182946 605.70555738 320.85590152 603.81041703 318.6875 601.9375 C306.5899531 591.37607294 295.21403316 580.12139352 283.87646484 568.75683594 C281.17529114 566.05026675 278.46876571 563.34913104 275.76171875 560.6484375 C274.02051235 558.9065708 272.27961591 557.1643942 270.5390625 555.421875 C269.74102203 554.62585876 268.94298157 553.82984253 268.12075806 553.00970459 C264.67767569 549.55231053 261.30965311 546.07888297 258.12817383 542.37817383 C253.83717349 537.3990174 249.18616797 532.79290884 244.53515625 528.15234375 C243.57768975 527.1942014 242.62037155 526.23591084 241.66319275 525.27748108 C239.66876253 523.28158713 237.67256259 521.28748548 235.67504883 519.29467773 C233.13575601 516.76108137 230.60098097 514.22302017 228.06752872 511.68358517 C226.09517816 509.70759297 224.12041737 507.73402321 222.14495659 505.76114082 C220.76123372 504.37839401 219.37949686 502.9936607 217.99781799 501.60887146 C213.52450088 497.15199409 208.99928848 492.82748947 204.19639587 488.72621155 C201.30524961 486.22467707 198.69096877 483.46030627 196.03125 480.71875 C193.33770304 478.09339411 190.52571798 475.64594566 187.68554688 473.18164062 C183.54422564 469.5356016 179.56771543 465.71197165 175.5625 461.91796875 C171.59316275 458.17345724 167.55806604 454.52849923 163.4375 450.95117188 C160.7679458 448.61809274 158.1666206 446.21848099 155.5625 443.8125 C151.60480863 440.16735586 147.61070826 436.57334188 143.546875 433.046875 C139.50875309 429.51749286 135.54335319 425.90615774 131.5625 422.3125 C129.89609149 420.81221321 128.22942647 419.31221128 126.5625 417.8125 C125.73492188 417.06742188 124.90734375 416.32234375 124.0546875 415.5546875 C122.41510121 414.07957382 120.77450345 412.60558348 119.1328125 411.1328125 C113.08321013 405.70169983 107.08143633 400.21989738 101.09472656 394.71972656 C99.58214569 393.33054298 98.06863051 391.9423864 96.5546875 390.5546875 C96.06073486 390.1019043 95.56678223 389.64912109 95.05786133 389.18261719 C94.0605998 388.2688814 93.06304089 387.35547008 92.06518555 386.44238281 C89.54419199 384.13451772 87.02982972 381.82011884 84.52734375 379.4921875 C78.07447888 373.50298909 71.45792175 367.7907937 64.5625 362.3125 C63.55574219 361.4875 62.54898438 360.6625 61.51171875 359.8125 C38.07682566 340.87028791 12.00183599 336.71480068 -17.46875 336.859375 C-19.3034359 336.86270969 -19.3034359 336.86270969 -21.17518616 336.86611176 C-62.86738025 336.98958442 -104.53998538 339.24216021 -146.1821422 341.08825552 C-159.53057958 341.67908652 -172.8798688 342.24975695 -186.22924805 342.81884766 C-187.43626904 342.87032243 -188.64329004 342.9217972 -189.88688743 342.97483182 C-194.7347283 343.18153932 -199.58257262 343.38816501 -204.43042725 343.5945493 C-211.60330892 343.89992277 -218.77614421 344.20635628 -225.94894212 344.51369059 C-261.37842484 346.03132378 -296.80837169 347.48061916 -332.25 348.6875 C-333.88168499 348.74317579 -333.88168499 348.74317579 -335.54633331 348.79997635 C-371.79670511 350.03191121 -408.05402229 351.04035129 -444.3125 352 C-445.47952579 352.03101555 -446.64655159 352.0620311 -447.8489418 352.09398651 C-503.35151999 353.56556746 -558.84568019 354.5022285 -614.36889648 354.49780273 C-619.63195203 354.49772117 -624.89492107 354.50474769 -630.15795898 354.51831055 C-658.42962174 354.58984483 -686.66261276 354.42056261 -714.91796875 353.38671875 C-716.05677805 353.34510305 -717.19558735 353.30348736 -718.36890602 353.26061058 C-803.27706657 350.07922331 -803.27706657 350.07922331 -836.4375 332.3125 C-837.48808594 331.76851562 -838.53867187 331.22453125 -839.62109375 330.6640625 C-858.45916225 320.40694685 -871.05193675 304.34027199 -882.75244141 286.828125 C-885.43346672 282.82562068 -888.1533996 278.84997991 -890.875 274.875 C-891.40109863 274.10542969 -891.92719727 273.33585937 -892.46923828 272.54296875 C-896.63238554 266.46273188 -900.83829512 260.41295056 -905.0625 254.375 C-905.65474365 253.5281665 -906.2469873 252.68133301 -906.85717773 251.80883789 C-909.69452031 247.59783671 -909.69452031 247.59783671 -912.98905945 243.76376343 C-915.20445124 240.01455269 -914.96197361 236.38866749 -915.03198242 232.10375977 C-915.05812119 231.17130432 -915.08425995 230.23884888 -915.1111908 229.27813721 C-915.19080416 226.18680746 -915.24529422 223.09588727 -915.29296875 220.00390625 C-915.31018793 218.94156202 -915.32740711 217.8792178 -915.34514809 216.78468132 C-915.43124385 211.14551927 -915.49438881 205.50654696 -915.54272461 199.86694336 C-915.58694713 195.23400825 -915.67693225 190.605605 -915.80932617 185.97436523 C-917.05586689 141.39647855 -917.05586689 141.39647855 -906.69140625 129.0859375 C-904.65430841 126.94317965 -902.58232603 124.95587525 -900.34254456 123.0272522 C-897.47496683 120.44611299 -895.41933754 117.51485116 -893.1875 114.375 C-888.33139928 108.0694392 -883.1813758 102.03223667 -877.94555664 96.04125977 C-876.89801705 94.84041343 -875.85591185 93.63481346 -874.81811523 92.42553711 C-863.58687209 79.40987585 -851.34753749 67.4288909 -837.4375 57.3125 C-836.5815625 56.673125 -835.725625 56.03375 -834.84375 55.375 C-828.05133155 50.43505931 -820.79620443 46.33306588 -813.4375 42.3125 C-812.45910156 41.77496094 -811.48070312 41.23742188 -810.47265625 40.68359375 C-802.11534733 36.29285395 -793.40725298 33.18416119 -784.4375 30.3125 C-783.73383301 30.08675293 -783.03016602 29.86100586 -782.30517578 29.62841797 C-747.96715414 18.84870639 -710.55987691 17.54891954 -674.81738281 16.76318359 C-673.89927653 16.74229007 -672.98117024 16.72139654 -672.03524256 16.69986987 C-651.57732251 16.24151082 -631.1214855 16.14712129 -610.65914154 16.11326981 C-604.12082042 16.10217279 -597.58254397 16.081835 -591.04425049 16.06015015 C-572.48297235 15.99958923 -553.92169915 15.94505611 -535.36035156 15.91113281 C-474.99166076 15.79678616 -414.75102386 14.94709674 -354.4375 12.3125 C-353.49404535 12.27142152 -352.55059071 12.23034304 -351.57854652 12.18801975 C-326.24140847 11.08382356 -300.90773939 9.90828897 -275.5751009 8.70573521 C-183.71532504 4.34666085 -91.98111261 0.11884506 0 0 Z " fill="#010101" transform="translate(914.4375,1348.6875)"/>
<path d="M0 0 C1.05740891 -0.03124969 2.11481781 -0.06249939 3.20426941 -0.09469604 C6.6809954 -0.18756662 10.15662451 -0.24161059 13.63427734 -0.28710938 C14.84176006 -0.30623886 16.04924278 -0.32536835 17.29331589 -0.34507751 C23.71423764 -0.44333849 30.13462716 -0.50979142 36.55615234 -0.55175781 C41.78126308 -0.59117804 47.00009782 -0.68746496 52.22314453 -0.83886719 C84.40504547 -1.75187107 110.06549612 -0.09739664 138.31880093 16.21399975 C145.68248962 20.4584803 153.37404734 23.81376206 161.18814468 27.13379478 C208.63839854 47.43414023 254.12316237 71.64575167 293.84521484 104.86914062 C294.75762939 105.62493408 294.75762939 105.62493408 295.68847656 106.39599609 C307.29082413 116.01921177 318.12370274 126.33152186 327.84521484 137.86914062 C329.01890625 139.19171875 329.01890625 139.19171875 330.21630859 140.54101562 C346.89813523 159.49102608 360.04972032 181.11816939 370.84521484 203.86914062 C371.32788818 204.8663916 371.32788818 204.8663916 371.8203125 205.88378906 C384.45758173 232.13864278 391.67289916 260.38729483 396.59521484 288.99414062 C396.89347168 290.70597534 396.89347168 290.70597534 397.19775391 292.45239258 C400.55647212 313.0238215 401.22196862 333.62204306 401.15771484 354.43164062 C401.15498062 356.27524673 401.15498062 356.27524673 401.15219116 358.15609741 C401.1062893 376.56184695 400.69252779 394.65189351 397.84521484 412.86914062 C397.6736084 413.98772461 397.50200195 415.10630859 397.32519531 416.25878906 C390.31566285 460.47083564 375.78747306 503.34729925 352.84521484 541.86914062 C352.37792969 542.65401855 351.91064453 543.43889648 351.42919922 544.24755859 C340.52307674 562.37400641 328.04370793 579.19605279 313.84521484 594.86914062 C313.33216797 595.43858398 312.81912109 596.00802734 312.29052734 596.59472656 C302.99476403 606.88730713 293.44202329 616.89969919 282.84521484 625.86914062 C281.48396484 627.06410156 281.48396484 627.06410156 280.09521484 628.28320312 C219.37521983 681.24280108 138.79426993 708.86999776 58.84521484 710.86914062 C58.08354004 710.89105469 57.32186523 710.91296875 56.53710938 710.93554688 C3.98497793 712.26682316 -47.71425136 701.92424599 -96.15478516 681.86914062 C-96.98220215 681.53060059 -97.80961914 681.19206055 -98.66210938 680.84326172 C-124.56231982 670.15678176 -149.25434157 655.32385384 -171.15478516 637.86914062 C-171.74743164 637.40362793 -172.34007812 636.93811523 -172.95068359 636.45849609 C-183.17005093 628.42093548 -192.81530216 619.91087177 -202.15478516 610.86914062 C-202.77160156 610.27423828 -203.38841797 609.67933594 -204.02392578 609.06640625 C-210.77067354 602.53159822 -217.20802459 595.93122604 -223.03369141 588.54492188 C-225.23140729 585.77248102 -227.53109463 583.10992462 -229.84228516 580.43164062 C-240.10207513 568.12628505 -249.13950602 554.67894824 -257.07177734 540.76611328 C-257.81597071 539.46260055 -258.56701272 538.16298138 -259.32373047 536.86669922 C-306.73825465 455.63642629 -317.58800812 352.32202634 -293.78369141 247.54882812 C-280.36361348 197.86961942 -254.7476853 154.47959901 -218.59228516 118.05664062 C-217.72998291 117.18499268 -216.86768066 116.31334473 -215.97924805 115.4152832 C-210.01262813 109.47804159 -203.73705844 104.1091104 -197.15478516 98.86914062 C-196.09006043 97.98770651 -195.02709945 97.10412912 -193.96728516 96.21679688 C-178.05761662 83.29019119 -160.41074679 71.60759927 -142.29492188 62.01660156 C-139.81566677 60.68731808 -137.36289093 59.31443583 -134.90869141 57.93945312 C-113.62587896 46.09341048 -91.56710523 36.05956487 -69.15405273 26.56396484 C-59.08479248 22.29438891 -49.08341147 17.88049355 -39.09228516 13.43164062 C-37.94152496 12.91963104 -37.94152496 12.91963104 -36.76751709 12.39727783 C-34.55118627 11.41085773 -32.33527703 10.42349937 -30.11962891 9.43554688 C-29.47788223 9.14949081 -28.83613556 8.86343475 -28.17494202 8.56871033 C-27.54430344 8.28701492 -26.91366486 8.00531952 -26.26391602 7.71508789 C-25.65084972 7.44572229 -25.03778343 7.1763567 -24.40613937 6.89882851 C-22.83260416 6.17915049 -21.27782142 5.41766912 -19.73941326 4.62567806 C-13.0013138 1.26822131 -7.48320311 0.09147003 0 0 Z " fill="#010101" transform="translate(1299.15478515625,-0.869140625)"/>
<path d="M0 0 C12.24415208 11.27203437 24.36847468 22.89279345 34.5 36.125 C35.29535156 37.09179688 36.09070312 38.05859375 36.91015625 39.0546875 C97.30449497 112.72785646 122.66020505 211.20454826 113.5 305.125 C105.43206452 377.47344876 71.85648391 455.87452917 14.5234375 503.41015625 C12.44260095 505.17364514 10.46947331 507.03176816 8.4909668 508.90844727 C-52.04635717 565.91682292 -143.29720314 597.82883249 -225.5 600.125 C-226.18449219 600.14691406 -226.86898437 600.16882812 -227.57421875 600.19140625 C-276.42725373 601.56625714 -324.76514097 590.6637684 -368.5 569.125 C-369.3652832 568.69928711 -370.23056641 568.27357422 -371.12207031 567.83496094 C-395.21855607 555.84763877 -417.31561865 540.34946296 -437.18359375 522.22265625 C-439.17524817 520.41908387 -441.20021857 518.67393904 -443.25 516.9375 C-452.33165696 508.99795811 -460.83580854 500.34328034 -468.30859375 490.875 C-470.27268918 488.4102528 -472.30585936 486.02464411 -474.37573242 483.64868164 C-530.47856926 418.89470564 -559.67185833 329.03626761 -559.75 244.125 C-559.75100708 243.35241852 -559.75201416 242.57983704 -559.75305176 241.78384399 C-559.71148517 193.98899528 -550.18955068 146.34743952 -529.5 103.125 C-529.1385791 102.3505957 -528.7771582 101.57619141 -528.40478516 100.77832031 C-519.58255999 81.91962824 -508.66742477 64.263536 -495.5 48.125 C-494.41525391 46.75408203 -494.41525391 46.75408203 -493.30859375 45.35546875 C-480.65459991 29.53231724 -466.42742443 14.65457389 -450.5 2.125 C-449.33413181 1.17147438 -448.1701746 0.21560897 -447.0078125 -0.7421875 C-438.51814627 -7.70411584 -429.77674972 -14.00618808 -420.5 -19.875 C-419.40171875 -20.57753906 -418.3034375 -21.28007812 -417.171875 -22.00390625 C-341.8336522 -69.19534119 -243.34660643 -90.92382143 0 0 Z " fill="#010101" transform="translate(2846.5,498.875)"/>
<path d="M0 0 C1.19625 0.32871094 2.3925 0.65742187 3.625 0.99609375 C24.41141743 7.2536715 41.99143161 19.49460974 57.4296875 34.4765625 C58.97400608 35.97478202 60.53322769 37.45619202 62.09375 38.9375 C69.50847002 46.06571248 75.86497394 53.75845604 82 62 C82.50644043 62.67272949 83.01288086 63.34545898 83.53466797 64.03857422 C126.88533418 121.79943418 153.33467931 191.68280943 178 259 C178.37189453 260.01447205 178.74378906 261.02894409 179.12695312 262.07415771 C187.47055082 284.84537151 195.74206153 307.64234714 203.89002991 330.48431396 C242.44862433 442.60357647 242.44862433 442.60357647 296 548 C296.44263184 548.71897461 296.88526367 549.43794922 297.34130859 550.17871094 C307.56506334 566.65583024 318.90108051 581.91749903 332.640625 595.63671875 C333.94197497 596.94022327 335.23068161 598.25851183 336.45703125 599.6328125 C348.12185459 612.47420303 365.02177844 619.91283871 380.21679688 627.57958984 C383.62314092 629.31802052 386.96497671 631.15107725 390.3125 633 C448.30507824 664.25969517 512.17041145 686.11542482 573.51446533 709.66149902 C579.12405369 711.81567054 584.73195002 713.9742341 590.33984375 716.1328125 C614.71950435 725.51795757 614.71950435 725.51795757 639.11216736 734.86923218 C827.46369991 806.90827441 827.46369991 806.90827441 879 854 C880.25683594 855.13308594 880.25683594 855.13308594 881.5390625 856.2890625 C902.85937412 876.43712331 910.6357774 906.44399314 912.21484375 934.8671875 C913.06624723 968.7189898 901.11264632 998.96378056 878.22290039 1023.70288086 C861.87571806 1040.86501706 838.07500439 1054.7592872 813.9934082 1056.17700195 C786.7456455 1056.69999564 761.37699682 1052.96703174 735 1046 C734.01418945 1045.74379883 733.02837891 1045.48759766 732.01269531 1045.22363281 C688.82795944 1033.92043594 647.21147172 1017.36965316 606.19482422 999.93170166 C604.03089308 999.01311409 601.86537383 998.09838812 599.69921875 997.18505859 C576.11326594 987.2374507 552.77710559 976.76451218 529.49078369 966.13665771 C527.10275993 965.04689402 524.71430386 963.95808441 522.32568359 962.86962891 C509.03166883 956.81085864 495.74767419 950.73054742 482.48046875 944.61328125 C473.9767733 940.69252964 465.46809318 936.78283062 456.95092773 932.89141846 C455.20196023 932.09227972 453.45348676 931.29205996 451.70507812 930.49169922 C429.1413438 920.2105824 406.01834672 911.20094151 383 902 C381.34683727 901.33822908 379.6936794 900.67644601 378.04052734 900.01464844 C357.93703169 891.97435867 337.73386703 884.2057037 317.5 876.5 C233.45102645 844.48331979 233.45102645 844.48331979 207.83056641 830.96240234 C205.81555193 829.90302823 203.78915325 828.86742375 201.76171875 827.83203125 C192.48723366 823.05887042 183.59434575 817.91384805 175 812 C174.08371826 811.36989014 174.08371826 811.36989014 173.14892578 810.72705078 C164.332796 804.60051071 156.24741705 797.96628159 148.54541016 790.48974609 C147.04233794 789.04081297 145.51485945 787.6226626 143.98046875 786.20703125 C116.69456536 760.58022497 102.30355913 723.47987757 87.97554016 689.68838501 C83.46301094 679.04675376 78.84413562 668.45428896 74.1875 657.875 C73.42618774 656.14436867 72.66487589 654.41373716 71.90356445 652.68310547 C70.36907639 649.19570493 68.83386776 645.70862247 67.29833984 642.22167969 C63.90001566 634.50311006 60.51161243 626.78018599 57.12252808 619.05755615 C55.99742519 616.49413357 54.87194642 613.93087637 53.74633789 611.36767578 C50.3871116 603.71796154 47.02896806 596.06778102 43.67633057 588.41517639 C23.06611885 541.37115401 2.22848652 494.42575481 -19.1706543 447.73461914 C-22.39521148 440.69879874 -25.61270206 433.66004365 -28.8046875 426.609375 C-35.61251067 411.57498726 -42.49255911 396.57961641 -49.52685547 381.6496582 C-50.15207483 380.32245505 -50.77723805 378.99522544 -51.40234375 377.66796875 C-51.70825439 377.01844742 -52.01416504 376.36892609 -52.3293457 375.69972229 C-54.28699822 371.53607644 -56.21674431 367.36057967 -58.12890625 363.17578125 C-65.33737664 347.42223151 -72.97925596 331.92161823 -80.76074219 316.44458008 C-86.54099331 304.94527375 -92.18702542 293.39754206 -97.68408203 281.75976562 C-99.13317416 278.72070488 -100.60928392 275.69572639 -102.08984375 272.671875 C-114.0040569 248.2938639 -124.93730726 223.59030774 -134 198 C-134.51554443 196.55995605 -134.51554443 196.55995605 -135.04150391 195.09082031 C-140.76487425 178.99233046 -145.30303818 162.68015548 -149 146 C-149.1949707 145.13020508 -149.38994141 144.26041016 -149.59082031 143.36425781 C-156.09855011 112.9409321 -154.65685581 76.74156995 -137.875 49.875 C-130.18929625 38.18872152 -120.58967103 28.79003951 -109 21 C-108.21496094 20.47148438 -107.42992187 19.94296875 -106.62109375 19.3984375 C-93.51318616 11.10341646 -78.8928479 5.18232426 -64 1 C-63.24976563 0.78827148 -62.49953125 0.57654297 -61.7265625 0.35839844 C-42.25572033 -4.8831124 -19.42931818 -5.76807883 0 0 Z " fill="#010101" transform="translate(1142,965)"/>
<path d="M0 0 C1.21816406 1.051875 1.21816406 1.051875 2.4609375 2.125 C3.64816406 3.1459375 3.64816406 3.1459375 4.859375 4.1875 C16.96468308 14.84330517 27.87663483 26.15757338 37.4609375 39.125 C37.8832666 39.68654785 38.3055957 40.2480957 38.74072266 40.82666016 C62.21738155 72.09580207 77.20463721 108.81510239 84.4609375 147.125 C84.61111328 147.88119629 84.76128906 148.63739258 84.91601562 149.41650391 C92.24299974 186.89747758 91.15055635 227.61853697 84.4609375 265.125 C73.77361843 259.24505922 66.04084174 248.53235184 58.82275391 238.93554688 C57.4972038 237.17321636 56.157254 235.42257802 54.81640625 233.671875 C47.31237127 223.75937585 40.72906647 213.29110736 34.12158203 202.76855469 C26.0196111 189.87115079 17.53599886 177.36103779 8.4609375 165.125 C7.7803125 164.2071875 7.0996875 163.289375 6.3984375 162.34375 C-13.17796683 136.60440357 -39.03579147 118.02065287 -71.6640625 113.46484375 C-72.6128125 113.35269531 -73.5615625 113.24054688 -74.5390625 113.125 C-75.4465625 113.00253906 -76.3540625 112.88007812 -77.2890625 112.75390625 C-113.82938267 108.8180473 -155.9955137 116.79229234 -185.47265625 139.640625 C-213.2429294 162.13985267 -228.51435785 193.50207887 -232.26171875 228.94140625 C-235.86791121 276.60536216 -219.05699401 318.47175999 -193.828125 357.9609375 C-190.27094216 363.5299168 -186.78128488 369.14014857 -183.2890625 374.75 C-176.13656748 386.2169314 -168.86260456 397.60363383 -161.55957031 408.97509766 C-159.53554054 412.13049061 -157.51687693 415.28924974 -155.5 418.44921875 C-149.01846661 428.60160484 -142.50730457 438.73224152 -135.9140625 448.8125 C-85.72752317 525.62769626 -85.72752317 525.62769626 -83.5390625 551.125 C-83.46816406 551.86492188 -83.39726562 552.60484375 -83.32421875 553.3671875 C-82.24665168 576.21160934 -95.00882407 598.7711146 -103.87905884 619.0300293 C-113.29973438 640.56784385 -122.44061215 662.21928208 -130.80328369 684.19238281 C-131.30584264 685.5124182 -131.80942885 686.83206284 -132.31390381 688.15136719 C-149.48204298 733.05728415 -163.54557233 778.85651418 -176.5390625 825.125 C-179.61651662 823.66056177 -181.50052535 822.28450143 -183.7890625 819.75 C-206.85224084 796.17619778 -239.94677824 779.96193916 -268.671875 764.66601562 C-271.43347562 763.18174935 -274.17638353 761.66849143 -276.9140625 760.140625 C-290.05881031 752.8180906 -303.48821952 746.18753332 -317.07290649 739.73265076 C-321.10253397 737.81641022 -325.11766241 735.87274893 -329.125 733.91015625 C-384.22517933 706.97201327 -441.43549134 683.72787581 -499.5390625 664.125 C-500.58480438 663.77211914 -500.58480438 663.77211914 -501.65167236 663.41210938 C-517.19395895 658.18080094 -532.79083947 653.2974829 -548.69799805 649.27978516 C-550.20680542 648.8937915 -550.20680542 648.8937915 -551.74609375 648.5 C-553.06830933 648.17128906 -553.06830933 648.17128906 -554.41723633 647.8359375 C-556.5390625 647.125 -556.5390625 647.125 -558.5390625 645.125 C-558.21096781 642.47706914 -557.7601259 640.00469736 -557.18077087 637.40852356 C-557.0104148 636.6022487 -556.84005873 635.79597384 -556.66454035 634.96526641 C-556.08679049 632.2449493 -555.49243602 629.52852583 -554.89819336 626.81176758 C-554.48196511 624.86873317 -554.06675672 622.92548006 -553.65249634 620.98202515 C-552.51992304 615.68303596 -551.37298379 610.38724585 -550.22355723 605.09189057 C-549.02047215 599.53769689 -547.83046231 593.98070364 -546.63905334 588.42399597 C-544.37346993 577.86715131 -542.09600506 567.31290623 -539.81435829 556.75952309 C-537.23876967 544.84375372 -534.67645608 532.9251433 -532.11526287 521.00627291 C-528.11399843 502.38749954 -524.10526589 483.77034712 -520.08569336 465.15551758 C-519.88883375 464.24364496 -519.69197414 463.33177235 -519.48914909 462.39226723 C-519.1076243 460.62521307 -518.72598205 458.85818427 -518.34421647 457.09118211 C-517.97624974 455.38774916 -517.60861563 453.68424432 -517.2413367 451.98066294 C-516.22114899 447.25472898 -515.18875816 442.5317118 -514.14502144 437.81091881 C-513.91333875 436.75845677 -513.68165607 435.70599473 -513.44295269 434.62163991 C-512.99303979 432.57917964 -512.54063182 430.53726697 -512.08542055 428.49598104 C-511.88331187 427.57656262 -511.68120319 426.6571442 -511.47297001 425.70986462 C-511.2924355 424.89585475 -511.111901 424.08184489 -510.92589575 423.24316806 C-510.44923503 420.99200204 -510.44923503 420.99200204 -510.5390625 418.125 C-515.06678688 416.17729787 -519.59520925 414.23122984 -524.12432861 412.28677368 C-525.73571258 411.59492084 -527.34699986 410.90284276 -528.95819092 410.21054077 C-537.71995946 406.44696142 -546.48876288 402.71072821 -555.31616211 399.10302734 C-578.85104062 389.47117908 -602.38684624 378.86114418 -622.5390625 363.125 C-623.415625 362.45210937 -624.2921875 361.77921875 -625.1953125 361.0859375 C-648.73747274 342.48221892 -663.71952535 319.63245435 -669.1171875 289.9453125 C-674.00776063 245.6584558 -658.3195706 199.8893803 -633.5390625 163.5625 C-627.79501358 155.03835836 -622.1354799 146.4600255 -616.49194336 137.86917114 C-615.02070654 135.62969485 -613.54846863 133.39087915 -612.07617188 131.15209961 C-606.7576356 123.0591901 -601.46777906 114.94857213 -596.21983337 106.80967712 C-594.99589575 104.91282722 -593.76872904 103.01814021 -592.5390625 101.125 C-592.1657077 100.54861786 -591.79235291 99.97223572 -591.40768433 99.37838745 C-589.9065542 97.08771283 -588.4820196 95.0679571 -586.5390625 93.125 C-583.90087094 93.20784176 -581.40311202 93.4304666 -578.7890625 93.75 C-576.97005709 93.95056625 -575.15104618 94.15108258 -573.33203125 94.3515625 C-572.27935059 94.47176758 -571.22666992 94.59197266 -570.14208984 94.71582031 C-562.79862579 95.54978465 -555.45048678 96.34077947 -548.1015625 97.125 C-547.27998657 97.21272675 -546.45841064 97.30045349 -545.61193848 97.39083862 C-530.27670601 99.01890952 -514.94086363 100.30004398 -499.5390625 101.125 C-498.77094238 101.16736786 -498.00282227 101.20973572 -497.21142578 101.25338745 C-482.31766305 102.06054049 -467.45343512 102.32758379 -452.5390625 102.3125 C-451.42487946 102.31189575 -450.31069641 102.3112915 -449.16275024 102.31066895 C-378.44794058 102.20698618 -308.63316252 92.06452954 -255.59375 41.26171875 C-254.487659 40.14322763 -253.3883273 39.01797909 -252.29833984 37.88378906 C-250.64363556 36.22954404 -248.93711909 34.72936728 -247.1484375 33.22265625 C-241.58267537 28.38430698 -236.4141485 23.14961365 -231.21166992 17.92797852 C-229.4801155 16.191064 -227.74327891 14.45956111 -226.00585938 12.72851562 C-220.96428078 7.68987457 -216.02502512 2.6415095 -211.39331055 -2.78051758 C-207.46578092 -7.2168937 -203.27200074 -11.40644604 -199.09887695 -15.61035156 C-198.02531452 -16.69538472 -196.95621684 -17.78485537 -195.8918457 -18.87890625 C-141.34697772 -74.93492287 -52.81922878 -44.41256474 0 0 Z " fill="#010101" transform="translate(2241.5390625,979.875)"/>
<path d="M0 0 C27.30199567 21.6140799 44.30682653 52.02839403 62.03302002 81.39317322 C67.30937627 90.1262546 72.69860487 98.78922093 78.09375 107.44921875 C78.68365723 108.39716309 79.27356445 109.34510742 79.88134766 110.32177734 C88.86534108 124.75333553 97.93746913 139.12640751 107.09375 153.44921875 C107.72394043 154.4350293 108.35413086 155.42083984 109.00341797 156.43652344 C113.02010164 162.71802874 117.04023881 168.99731832 121.06152344 175.27587891 C125.07218407 181.53856113 129.0802896 187.80287889 133.08886719 194.06689453 C136.44641497 199.31337079 139.80459365 204.5594411 143.1640625 209.8046875 C156.36245112 230.41408866 169.49795725 251.06204805 182.55273438 271.76269531 C188.38119612 281.00341403 194.22459011 290.23428435 200.09375 299.44921875 C206.94246863 310.20211935 213.75221334 320.97927206 220.55273438 331.76269531 C226.97322515 341.94204484 233.41650022 352.10646012 239.88232422 362.25708008 C244.12268327 368.91641632 248.34317824 375.58801806 252.5546875 382.265625 C256.38577369 388.33657904 260.23699496 394.39454503 264.09375 400.44921875 C270.94252801 411.2020813 277.75221353 421.97927237 284.55273438 432.76269531 C290.97322515 442.94204484 297.41650022 453.10646012 303.88232422 463.25708008 C308.12268327 469.91641632 312.34317824 476.58801806 316.5546875 483.265625 C320.38577369 489.33657904 324.23699496 495.39454503 328.09375 501.44921875 C334.94252801 512.2020813 341.75221353 522.97927237 348.55273438 533.76269531 C354.97322515 543.94204484 361.41650022 554.10646012 367.88232422 564.25708008 C372.12268327 570.91641632 376.34317824 577.58801806 380.5546875 584.265625 C384.38577369 590.33657904 388.23699496 596.39454503 392.09375 602.44921875 C398.94252801 613.2020813 405.75221353 623.97927237 412.55273438 634.76269531 C418.97322515 644.94204484 425.41650022 655.10646012 431.88232422 665.25708008 C436.12268327 671.91641632 440.34317824 678.58801806 444.5546875 685.265625 C448.38577369 691.33657904 452.23699496 697.39454503 456.09375 703.44921875 C462.94252801 714.2020813 469.75221353 724.97927237 476.55273438 735.76269531 C482.97322515 745.94204484 489.41650022 756.10646012 495.88232422 766.25708008 C500.12268327 772.91641632 504.34317824 779.58801806 508.5546875 786.265625 C512.38577369 792.33657904 516.23699496 798.39454503 520.09375 804.44921875 C526.96974375 815.24481113 533.80806178 826.06386751 540.63330078 836.89160156 C543.66312166 841.69791723 546.69645482 846.50197201 549.73583984 851.30224609 C550.59189868 852.65574868 551.44658334 854.01012231 552.29931641 855.36572266 C558.05403717 864.51290993 564.19008442 873.34604802 570.45947266 882.14697266 C573.91755335 887.01845472 577.33284309 891.92004317 580.75415039 896.81738281 C583.62258386 900.92217635 586.49623998 905.02282841 589.390625 909.109375 C672.5414046 1026.71482965 672.5414046 1026.71482965 680.09375 1091.44921875 C680.20332031 1092.34125 680.31289062 1093.23328125 680.42578125 1094.15234375 C682.76860622 1116.01871012 680.25406159 1139.70776107 666.09375 1157.44921875 C651.54944557 1175.27229702 632.06813295 1185.52438512 610.09375 1191.44921875 C609.33578125 1191.65804687 608.5778125 1191.866875 607.796875 1192.08203125 C581.68299141 1199.00483931 554.94044336 1197.35409139 531.15625 1184.32421875 C506.06092249 1169.15563306 490.59253718 1144.00290734 475.90722656 1119.45654297 C472.85748704 1114.39909931 469.72842044 1109.39182489 466.59375 1104.38671875 C465.65728638 1102.89108398 465.65728638 1102.89108398 464.7019043 1101.36523438 C458.7909766 1091.9420385 452.8210907 1082.55665757 446.83642578 1073.18017578 C443.87722562 1068.54279655 440.92268373 1063.90245387 437.96875 1059.26171875 C437.38746338 1058.34849854 436.80617676 1057.43527832 436.20727539 1056.49438477 C430.96835589 1048.25969498 425.75477737 1040.00915855 420.54833984 1031.75390625 C419.10293211 1029.46376711 417.65534316 1027.17502218 416.20703125 1024.88671875 C409.99355108 1015.06658725 403.82156647 1005.22122694 397.66748047 995.36376953 C392.31934647 986.80100002 386.93582436 978.26110035 381.53662109 969.73046875 C380.08126567 967.42948042 378.62815882 965.1270877 377.17578125 962.82421875 C370.10468826 951.61357786 362.99683469 940.42664472 355.87597656 929.24755859 C352.94720187 924.64898113 350.02057309 920.04903848 347.09375 915.44921875 C345.92709387 913.61587871 344.7604272 911.78254538 343.59375 909.94921875 C285.84375 819.19921875 228.09375 728.44921875 -15.15332031 346.20336914 C-16.32920589 344.35585309 -17.505645 342.50868924 -18.68261719 340.66186523 C-21.46270988 336.29813176 -24.23553604 331.93037333 -26.984375 327.546875 C-44.42368002 299.8124379 -62.80872546 272.64339336 -81.71435547 245.890625 C-90.40458592 233.58902218 -98.82874846 221.16280303 -106.90625 208.44921875 C-107.43573242 207.61841797 -107.96521484 206.78761719 -108.51074219 205.93164062 C-129.71945887 172.53919308 -149.64254324 137.48749978 -157.90625 98.44921875 C-158.15246094 97.30324219 -158.39867187 96.15726563 -158.65234375 94.9765625 C-162.48797551 74.05252991 -160.31965791 50.74844279 -149.01953125 32.3828125 C-147.07839025 29.64080783 -145.04984205 27.03533264 -142.90625 24.44921875 C-142.266875 23.65902344 -141.6275 22.86882812 -140.96875 22.0546875 C-132.53796753 12.07712841 -122.28700829 5.56208544 -110.90625 -0.55078125 C-109.64167969 -1.24494141 -109.64167969 -1.24494141 -108.3515625 -1.953125 C-73.94450357 -20.08344393 -32.49863854 -23.69022042 0 0 Z " fill="#010101" transform="translate(2201.90625,1143.55078125)"/>
<path d="M0 0 C50.91673116 50.88690646 82.31041048 126.00701718 82.66210938 198.12182617 C82.67256287 199.56882652 82.67256287 199.56882652 82.68322754 201.0450592 C82.70052759 204.14100555 82.70694716 207.236771 82.70898438 210.33276367 C82.70999146 211.38855621 82.71099854 212.44434875 82.71203613 213.53213501 C82.70215276 228.82040251 82.26884434 243.64187628 79.45898438 258.70776367 C79.31444824 259.55081055 79.16991211 260.39385742 79.02099609 261.26245117 C74.02151253 290.40672748 64.43976561 319.14236726 49.45898438 344.70776367 C48.79898438 344.70776367 48.13898437 344.70776367 47.45898438 344.70776367 C39.44286557 326.90535978 31.68703406 308.99955472 24.04345703 291.03442383 C4.01492883 244.02877957 -17.63693595 197.15003552 -52.41992188 159.05151367 C-54.35933065 156.90852055 -56.23430861 154.72431729 -58.10351562 152.52026367 C-61.61494947 148.51290978 -65.41568103 145.07298636 -69.54101562 141.70776367 C-70.46527344 140.94592773 -71.38953125 140.1840918 -72.34179688 139.39916992 C-98.58699424 118.23072042 -131.07043694 106.65497395 -165.00244141 109.9465332 C-211.11687079 115.52808029 -264.40785409 141.65300091 -293.54101562 178.70776367 C-294.42162305 179.77881924 -295.30322781 180.84905519 -296.18554688 181.91870117 C-301.81571247 188.82019448 -306.65992364 195.64879031 -310.54101562 203.70776367 C-311.04117187 204.7003418 -311.54132813 205.69291992 -312.05664062 206.71557617 C-320.36681766 223.79760675 -323.93701081 240.72848386 -323.85351562 259.70776367 C-323.84978439 260.72838394 -323.84978439 260.72838394 -323.84597778 261.7696228 C-323.57708666 309.53935335 -302.27998313 353.66871358 -282.54101562 396.20776367 C-247.14577167 472.49075963 -247.14577167 472.49075963 -246.54101562 504.70776367 C-253.17845296 505.86501483 -259.7987696 506.00989185 -266.52400208 506.20765686 C-267.83627028 506.24934681 -269.14853848 506.29103676 -270.50057238 506.33399004 C-274.13261109 506.44926353 -277.76478377 506.55966932 -281.39699781 506.66925919 C-285.31895245 506.78844234 -289.24076506 506.91214072 -293.16259766 507.03526306 C-300.84449367 507.2757045 -308.52651337 507.51194585 -316.20858417 507.74672944 C-325.16698927 508.02065569 -334.12527022 508.29854257 -343.08354982 508.57653766 C-359.08253626 509.07286639 -375.08164045 509.56529456 -391.08081055 510.05566406 C-406.5763551 510.53059853 -422.07179715 511.00872092 -437.56713867 511.49023438 C-454.45618195 512.0150524 -471.34527821 512.53810339 -488.23447055 513.05810446 C-490.03998262 513.1136963 -491.84549467 513.16928885 -493.6510067 513.22488213 C-494.53921658 513.25222824 -495.42742647 513.27957436 -496.3425518 513.30774914 C-502.57291353 513.49967591 -508.80323743 513.69280153 -515.03354836 513.88636971 C-522.64477357 514.12279056 -530.25605929 514.35714525 -537.86742578 514.58897478 C-541.74408366 514.70709588 -545.62071041 514.82605652 -549.49726677 514.9474678 C-564.51267981 515.41716348 -579.51640698 515.87630582 -594.54101562 515.70776367 C-578.91089838 424.9513221 -556.10303963 336.02855762 -478.07373047 166.29956055 C-476.45708751 163.56584253 -474.86690879 160.81780693 -473.27929688 158.06713867 C-466.46064951 146.31119777 -459.26274481 134.89025466 -451.54101562 123.70776367 C-451.0527832 122.99813477 -450.56455078 122.28850586 -450.06152344 121.55737305 C-436.56089507 101.99614618 -422.16495308 82.74549154 -405.95507812 65.33276367 C-404.07766427 63.29130394 -402.2691375 61.22393188 -400.46679688 59.11791992 C-396.07445987 54.08173578 -391.35819724 49.37474436 -386.62573242 44.66210938 C-385.10609894 43.14783787 -383.59189045 41.62828937 -382.078125 40.1081543 C-376.73825192 34.76435472 -371.30506011 29.59627766 -365.54101562 24.70776367 C-364.56519531 23.85053711 -363.589375 22.99331055 -362.58398438 22.11010742 C-344.08070679 6.13805796 -323.79502177 -7.53459793 -302.37255859 -19.28393555 C-301.10988004 -19.97906517 -299.85130412 -20.68168176 -298.59619141 -21.39038086 C-260.39389897 -42.91497648 -217.13822229 -56.86669548 -173.54101562 -61.29223633 C-172.7969043 -61.36812988 -172.05279297 -61.44402344 -171.28613281 -61.5222168 C-107.51698666 -67.53572515 -45.43535308 -44.72092841 0 0 Z " fill="#010101" transform="translate(1275.541015625,808.292236328125)"/>
<path d="M0 0 C436.92 0 873.84 0 1324 0 C1324 38.94 1324 77.88 1324 118 C887.08 118 450.16 118 0 118 C0 79.06 0 40.12 0 0 Z " fill="#010101" transform="translate(1760,2395)"/>
<path d="M0 0 C18.12148222 8.60517312 35.12903089 18.71583033 51 31 C51.886875 31.67417969 52.77375 32.34835937 53.6875 33.04296875 C60.84267675 38.60428401 67.4313911 44.76877684 74 51 C74.87914063 51.825 75.75828125 52.65 76.6640625 53.5 C83.52351775 60.11991872 89.29347931 67.39406153 95 75 C95.42812988 75.56203125 95.85625977 76.1240625 96.29736328 76.703125 C117.7761523 104.99992131 130.49455071 139.86386366 135 175 C135.10151367 175.77569336 135.20302734 176.55138672 135.30761719 177.35058594 C147.24094418 273.15600293 111.21953926 370.05605348 71.17063904 479.72808838 C40.91697782 560.57786196 40.91697782 560.57786196 30.8125 645.8125 C30.81310425 646.60403473 30.8137085 647.39556946 30.81433105 648.21109009 C30.83787477 659.58141014 30.98386637 670.77877628 33 682 C33.1853833 683.03398926 33.1853833 683.03398926 33.37451172 684.08886719 C36.31616178 699.81332389 41.58025845 714.65571663 52 727 C52.7115625 727.84949219 53.423125 728.69898438 54.15625 729.57421875 C61.29103809 737.7767128 69.3013862 744.73608293 77.875 751.375 C84.59415219 756.57886188 90.85324275 762.13536095 97 768 C97.87527344 768.82242188 98.75054688 769.64484375 99.65234375 770.4921875 C107.83202065 778.38198371 114.48908058 787.07787378 120 797 C63.28567865 798.64125046 1.54619513 782.31919513 -43 746 C-43.96164063 745.22785156 -44.92328125 744.45570313 -45.9140625 743.66015625 C-48.62818822 741.46178757 -51.31718525 739.23638757 -54 737 C-54.65871094 736.46632813 -55.31742188 735.93265625 -55.99609375 735.3828125 C-59.81450303 732.23623915 -63.01148658 728.80914388 -66.20703125 725.03515625 C-67.92542088 723.08465299 -69.72936603 721.33891171 -71.625 719.5625 C-82.06371091 709.24540514 -90.44418602 696.52637499 -98 684 C-98.53222168 683.13882568 -98.53222168 683.13882568 -99.07519531 682.26025391 C-141.56414096 613.11568719 -139.87624757 525.42547258 -122 449 C-120.20127991 441.60687362 -118.15324965 434.29677259 -116 427 C-115.70367676 425.98373535 -115.40735352 424.9674707 -115.10205078 423.92041016 C-107.51089549 398.0223319 -97.56037815 373.27301829 -87.11730957 348.42834473 C-83.43944529 339.67531819 -79.79515605 330.90843023 -76.1574707 322.13864136 C-75.10174133 319.59456308 -74.04414045 317.05126938 -72.98632812 314.50805664 C-62.54870492 289.40018898 -62.54870492 289.40018898 -53.375 263.8125 C-53.14321045 263.11509705 -52.9114209 262.41769409 -52.67260742 261.69915771 C-44.27325363 236.3150347 -37.99944171 209.9081048 -37.76171875 183.05078125 C-37.7519249 182.12785782 -37.74213104 181.20493439 -37.73204041 180.25404358 C-37.43044012 144.40414879 -40.89012457 109.75660097 -51.61499023 75.32495117 C-52.69054608 71.77259638 -53.22398413 69.51446557 -52 66 C-50.30267469 63.69690514 -48.5788444 61.5061382 -46.75 59.3125 C-45.64802545 57.9649416 -44.54782771 56.61592864 -43.44921875 55.265625 C-42.59336182 54.2147168 -42.59336182 54.2147168 -41.72021484 53.14257812 C-38.93121698 49.66879935 -36.24977391 46.11516028 -33.5625 42.5625 C-28.72688234 36.19022245 -23.75385112 29.94978982 -18.68408203 23.76269531 C-14.38889391 18.51083376 -10.23036531 13.1677143 -6.12109375 7.76953125 C-4.11521797 5.15044114 -2.07049996 2.56817115 0 0 Z " fill="#010101" transform="translate(2925,966)"/>
</svg>
