<?xml version="1.0" encoding="UTF-8"?>
<svg version="1.1" xmlns="http://www.w3.org/2000/svg" width="3174" height="3638">
<path d="M0 0 C1.08490723 0.47808105 2.16981445 0.95616211 3.28759766 1.44873047 C19.72875111 8.75514125 35.56394557 16.75899105 51 26 C51.98452148 26.58507324 52.96904297 27.17014648 53.98339844 27.77294922 C68.74655952 36.59622618 82.54733556 46.29353655 96 57 C96.86069092 57.67885254 97.72138184 58.35770508 98.6081543 59.05712891 C103.24513313 62.73155251 107.73878937 66.46210428 112.0625 70.5 C115.59647438 73.78931024 119.16193504 77.0274021 122.8125 80.1875 C126.2351301 83.2168656 129.26161507 86.40707461 132.20703125 89.8984375 C134.13819529 92.16198054 136.15961373 94.32284382 138.1875 96.5 C181.61492296 144.93261747 206.49975412 214.54897293 217 278 C217.15162598 278.87527344 217.30325195 279.75054688 217.45947266 280.65234375 C232.81730548 370.14490044 211.95880423 466.64450103 159.5546875 540.9453125 C147.52324853 557.65939427 134.30922212 573.20311326 120 588 C118.79150391 589.25296875 118.79150391 589.25296875 117.55859375 590.53125 C113.96817518 594.18490491 110.24954648 597.64428383 106.359375 600.9765625 C104.56338525 602.51683186 102.78528118 604.07798346 101.015625 605.6484375 C29.53800448 668.70202299 -66.66752749 695.83266069 -160.73510742 690.15039062 C-193.07638422 688.00290475 -225.06004282 681.57443899 -256 672 C-256.97517578 671.70013184 -257.95035156 671.40026367 -258.95507812 671.09130859 C-291.51160285 660.9589208 -323.00812684 647.07545575 -352.68017578 630.31054688 C-354.71723757 629.15974202 -356.76087337 628.02230349 -358.80859375 626.890625 C-378.8233823 615.6915988 -397.77200132 602.69493372 -416.375 589.3125 C-417.05119385 588.826604 -417.7273877 588.34070801 -418.42407227 587.84008789 C-425.05517358 583.03228113 -431.52253457 578.01153894 -438 573 C-437.99333817 573.66809692 -437.98667633 574.33619385 -437.97981262 575.02453613 C-437.5474468 620.49488805 -440.1083087 663.76360074 -448.60877991 708.51846313 C-449.35408731 712.44550732 -450.09011109 716.37428163 -450.82730103 720.30285645 C-451.35864636 723.10136799 -451.90838907 725.89579768 -452.4597168 728.69042969 C-457.00932158 752.35478454 -455.93896325 773.81833087 -442.12451172 794.25488281 C-437.51204947 800.87935877 -432.38101674 806.99210513 -427 813 C-426.53416504 813.52223145 -426.06833008 814.04446289 -425.58837891 814.58251953 C-417.90617538 823.1622636 -410.01905074 831.49513758 -401.27734375 839.0078125 C-396.7987461 842.9256252 -392.46237582 847.00399453 -388.10449219 851.05517578 C-386.47587544 852.56022926 -384.83959517 854.0569924 -383.20019531 855.55029297 C-375.26965048 862.7885804 -367.59278026 870.25121691 -360.01367188 877.85595703 C-358.10921495 879.76582994 -356.19939181 881.67022149 -354.2890625 883.57421875 C-348.81364248 889.0469726 -343.39248587 894.50539574 -338.37451172 900.40722656 C-336.37019207 902.72981651 -334.19697957 904.86083568 -332 907 C-329.14102064 909.78374306 -326.43648153 912.62618693 -323.83984375 915.65234375 C-319.32210859 920.86173109 -314.44666962 925.6991584 -309.5625 930.5625 C-308.65951172 931.46935547 -307.75652344 932.37621094 -306.82617188 933.31054688 C-302.26578638 937.8643279 -297.6622099 942.29969716 -292.75708008 946.48168945 C-290.83033327 948.14661072 -288.97928529 949.88001995 -287.125 951.625 C-256.7183624 978.57752731 -218.84471655 993.84724849 -178 992 C-177.2879541 991.9695459 -176.5759082 991.9390918 -175.84228516 991.90771484 C-154.9964918 990.84943845 -136.62763591 982.85699087 -118 974 C-116.61748047 973.3488623 -116.61748047 973.3488623 -115.20703125 972.68457031 C-90.3559622 960.9717014 -65.69271914 948.81891122 -41.67480469 935.47412109 C-38.84860644 933.91656496 -36.00875248 932.38678743 -33.1640625 930.86328125 C-21.93005186 924.84395348 -10.84399678 918.63476221 0.13574219 912.1628418 C6.73081299 908.28734895 13.39067255 904.56496815 20.125 900.9375 C30.16270328 895.51749681 39.98275121 889.77996602 49.77197266 883.92529297 C53.42950397 881.74383087 57.095029 879.5761739 60.76171875 877.41015625 C73.38000147 869.95154383 85.97559941 862.47077593 98.40917969 854.70654297 C104.99641085 850.59895054 111.64635428 846.60301057 118.3125 842.625 C138.08304449 830.80758222 157.50242088 818.44536274 176.88085938 805.99853516 C179.9419647 804.03718511 183.00893443 802.08538762 186.078125 800.13671875 C223.18200535 776.55354236 260.27001556 752.28478516 294 724 C280.87119457 718.11945489 267.73008765 712.27466007 254.5 706.625 C241.44299677 701.04866305 228.39495787 695.45177247 215.35449219 689.83685303 C212.99404866 688.82099838 210.63320876 687.80606426 208.27197266 686.79205322 C204.93685371 685.35970901 201.60304643 683.92435321 198.26953125 682.48828125 C197.2479744 682.05029709 196.22641754 681.61231293 195.17390442 681.16105652 C194.24228989 680.75897476 193.31067535 680.35689301 192.35083008 679.94262695 C191.5314949 679.59021439 190.71215973 679.23780182 189.86799622 678.87471008 C188 678 188 678 187 677 C184.61934035 607.38247057 215.130983 545.08577727 252.16015625 488.359375 C265.45197172 467.99463394 278.39102858 447.37880542 290 426 C290.45874512 425.15630859 290.91749023 424.31261719 291.39013672 423.44335938 C310.37576756 388.31399562 324.2899147 351.07510204 333.33203125 312.1796875 C333.47993103 311.54526796 333.62783081 310.91084843 333.7802124 310.25720406 C337.54864837 294.04237775 340.72518116 277.71318495 343.90106201 261.37414551 C365.70170623 149.24991329 365.70170623 149.24991329 398 110 C398.42337646 109.47801025 398.84675293 108.95602051 399.28295898 108.41821289 C402.84216767 104.06762031 406.66285184 100.54791753 411 97 C411.86496094 96.28585937 412.72992187 95.57171875 413.62109375 94.8359375 C458.56638633 59.34318271 523.90894082 63.35586161 577.30145264 69.50418091 C639.27806283 76.8515096 705.32149991 93.61683465 746.25 144.40234375 C779.47721465 187.09739946 793.88967737 240.69524191 809.48318481 291.55249023 C828.19696992 352.57516526 847.72518661 413.36020717 873.58496094 471.80078125 C875.04969085 475.11234452 876.49813486 478.43073278 877.9453125 481.75 C884.46043955 496.62391684 891.38088403 511.27498351 898.48779297 525.87402344 C900.33756047 529.6977921 902.14792564 533.53926121 903.95507812 537.38330078 C908.99904131 548.09272975 914.35841312 558.59375685 920 569 C920.57492188 570.0621875 921.14984375 571.124375 921.7421875 572.21875 C931.42617948 590.05979746 941.49677647 607.62683068 952 625 C952.55220215 625.91652344 953.1044043 626.83304688 953.67333984 627.77734375 C962.29185954 642.04174892 971.47552779 655.91736496 980.79394531 669.72998047 C982.21192731 671.83184533 983.62809619 673.93493515 985.04199219 676.03955078 C993.1978231 688.17528015 1001.58614569 700.09479905 1010.35205078 711.79785156 C1011.94822156 713.93080867 1013.53571716 716.06995002 1015.12109375 718.2109375 C1020.94484555 726.0548678 1026.93021839 733.74603534 1033.06640625 741.34765625 C1035.45746863 744.31263667 1037.80604259 747.30794144 1040.14233398 750.31616211 C1045.72030124 757.49098674 1051.55828117 764.40416353 1057.50927734 771.27099609 C1059.96587283 774.12026062 1062.38804469 776.99839278 1064.8125 779.875 C1071.26034733 787.50772266 1077.86393906 794.96588206 1084.59765625 802.34765625 C1086.56941844 804.52460996 1088.51365337 806.71838674 1090.4375 808.9375 C1095.18543381 814.38883142 1100.08968882 819.69547675 1105 825 C1105.82105225 825.88739868 1105.82105225 825.88739868 1106.65869141 826.79272461 C1117.99773204 839.01707144 1129.72801169 850.81959133 1141.5625 862.5625 C1145.08761298 866.06082301 1148.60923894 869.56260537 1152.12890625 873.06640625 C1152.91753555 873.84673721 1153.70616486 874.62706818 1154.51869202 875.43104553 C1158.69980674 879.59371238 1162.71016177 883.8383247 1166.54907227 888.31954956 C1168.4246792 890.49185934 1170.40466751 892.53735308 1172.4375 894.5625 C1173.11683594 895.24441406 1173.79617187 895.92632813 1174.49609375 896.62890625 C1176.4975728 898.52422261 1178.52714188 900.32333544 1180.6171875 902.1171875 C1185.13860066 906.06557784 1189.39136941 910.24705982 1193.62890625 914.49609375 C1194.42223862 915.28846939 1195.21557098 916.08084503 1196.03294373 916.89723206 C1197.69889081 918.56250283 1199.36359256 920.22902029 1201.02709961 921.89672852 C1203.55536134 924.43034622 1206.08891661 926.95858167 1208.62304688 929.48632812 C1210.2503207 931.11426283 1211.87728425 932.74250775 1213.50390625 934.37109375 C1214.25201065 935.11717392 1215.00011505 935.86325409 1215.77088928 936.63194275 C1219.83160272 940.71057291 1223.72689081 944.87403105 1227.46836853 949.2481842 C1229.84635725 951.96802791 1232.41466769 954.47933312 1235 957 C1238.92973665 960.88168694 1242.71730678 964.81133484 1246.30078125 969.01953125 C1248.28030432 971.32669952 1250.3264212 973.56646782 1252.375 975.8125 C1265.85842864 990.79408738 1278.24221859 1006.95305407 1289 1024 C1289.4134668 1024.6487207 1289.82693359 1025.29744141 1290.25292969 1025.96582031 C1317.23188346 1068.66348812 1323.94590683 1117.33797458 1312.99975586 1166.28564453 C1304.38909705 1203.20128564 1288.38161013 1237.71753424 1269.47949219 1270.41992188 C1268.18382256 1272.67943288 1266.91457837 1274.94967257 1265.6640625 1277.234375 C1255.48170522 1295.82600737 1243.49091201 1313.38472918 1231.89111328 1331.10888672 C1228.75553314 1335.90252731 1225.62816693 1340.70151997 1222.5 1345.5 C1221.25003972 1347.41669257 1220.00003971 1349.33335923 1218.75 1351.25 C1217.821875 1352.673125 1217.821875 1352.673125 1216.875 1354.125 C1196.2500001 1385.74999985 1196.2500001 1385.74999985 1194.37451172 1388.62573242 C1193.12611946 1390.53994473 1191.87774702 1392.45416996 1190.62939453 1394.3684082 C1187.4799596 1399.19773349 1184.33016671 1404.02682463 1181.1796875 1408.85546875 C1175.27952888 1417.8991545 1169.38264751 1426.94491183 1163.5 1436 C1156.98158397 1446.03371897 1150.44539629 1456.05580533 1143.90722656 1466.07666016 C1140.77083992 1470.88401981 1137.63546604 1475.69203988 1134.5 1480.5 C1133.25000497 1482.41666991 1132.00000496 1484.33333657 1130.75 1486.25 C1129.821875 1487.673125 1129.821875 1487.673125 1128.875 1489.125 C1078.24999991 1566.75000013 1078.24999991 1566.75000013 1076.37451172 1569.62573242 C1075.12611946 1571.53994473 1073.87774702 1573.45416996 1072.62939453 1575.3684082 C1069.4799596 1580.19773349 1066.33016671 1585.02682463 1063.1796875 1589.85546875 C1057.27952888 1598.8991545 1051.38264751 1607.94491183 1045.5 1617 C1038.98158397 1627.03371897 1032.44539629 1637.05580533 1025.90722656 1647.07666016 C1022.77083992 1651.88401981 1019.63546604 1656.69203988 1016.5 1661.5 C1015.25000497 1663.41666991 1014.00000496 1665.33333657 1012.75 1667.25 C1011.821875 1668.673125 1011.821875 1668.673125 1010.875 1670.125 C975.24999993 1724.75000011 975.24999993 1724.75000011 973.37451172 1727.62573242 C972.12611946 1729.53994473 970.87774702 1731.45416996 969.62939453 1733.3684082 C966.4799596 1738.19773349 963.33016671 1743.02682463 960.1796875 1747.85546875 C954.27952888 1756.8991545 948.38264751 1765.94491183 942.5 1775 C935.98158397 1785.03371897 929.44539629 1795.05580533 922.90722656 1805.07666016 C919.77083992 1809.88401981 916.63546604 1814.69203988 913.5 1819.5 C912.25000497 1821.41666991 911.00000496 1823.33333657 909.75 1825.25 C908.821875 1826.673125 908.821875 1826.673125 907.875 1828.125 C887.25 1859.75000001 887.25 1859.75000001 885.3737793 1862.62670898 C884.12764958 1864.53754946 882.8817176 1866.44851889 881.63598633 1868.35961914 C878.45340528 1873.24151946 875.26709701 1878.12092077 872.07421875 1882.99609375 C868.92677547 1887.80335536 865.79111217 1892.61809758 862.66455078 1897.43896484 C861.62002347 1899.04604779 860.57204215 1900.65089665 859.51904297 1902.25244141 C819.89235801 1962.54899419 816.6964878 2041.03971937 820 2111 C820.05526855 2112.17675293 820.11053711 2113.35350586 820.16748047 2114.56591797 C825.0191366 2210.23837777 846.53761605 2304.81266054 887.66814423 2476.73358917 C938.13758009 2683.22185796 938.13758009 2683.22185796 945 2763 C945.0935376 2763.95745117 945.1870752 2764.91490234 945.28344727 2765.90136719 C950.54491507 2822.01746571 938.07630319 2880.93507862 901.87109375 2925.17944336 C892.68132662 2936.12501891 882.64940335 2945.73322817 871 2954 C870.46036621 2954.38397949 869.92073242 2954.76795898 869.36474609 2955.16357422 C836.81196822 2977.97094324 796.09022384 2986.22728617 757 2980 C724.23287284 2974.01430112 693.35409006 2961.03765276 669 2938 C668.19949219 2937.26394531 667.39898438 2936.52789063 666.57421875 2935.76953125 C641.93840811 2912.31246753 627.10105839 2878.5670698 616 2847 C615.48107178 2845.55343018 615.48107178 2845.55343018 614.95166016 2844.07763672 C595.35611465 2789.15912043 585.73443127 2730.96661015 575.42965126 2673.7700634 C575.04780264 2671.65144244 574.66536145 2669.53292921 574.28276062 2667.41444397 C574.02613189 2665.99301539 573.76952483 2664.57158289 573.51293945 2663.15014648 C573.32224963 2662.09384773 573.32224963 2662.09384773 573.12770748 2661.0162096 C572.29031316 2656.37284904 571.46257001 2651.72783615 570.63745117 2647.08227539 C563.03173237 2604.55287388 553.78136477 2562.34520217 544.51654434 2520.15272141 C543.67159368 2516.3025194 542.82806038 2512.45200864 541.98519897 2508.60134888 C541.84303961 2507.95189637 541.70088024 2507.30244386 541.55441302 2506.63331097 C541.41179248 2505.98174914 541.26917195 2505.33018731 541.12222958 2504.65888119 C534.38267965 2473.86939 527.59730415 2443.09010164 520.77963734 2412.31781292 C480.38249259 2229.97806122 480.38249259 2229.97806122 463 2107 C462.86984497 2105.77367859 462.86984497 2105.77367859 462.73706055 2104.52258301 C461.41782869 2091.95146776 460.53582879 2079.39850514 459.99462891 2066.77050781 C459.87501108 2064.00025657 459.74468394 2061.23065209 459.61328125 2058.4609375 C458.77030022 2040.01278634 458.72125176 2021.62785608 459.75 2003.1875 C459.81485092 2002.01202606 459.81485092 2002.01202606 459.88101196 2000.81280518 C463.68198157 1933.7389508 482.25204296 1869.58387896 511 1809 C511.47018555 1807.99936523 511.94037109 1806.99873047 512.42480469 1805.96777344 C523.95168762 1781.4390036 536.41861302 1757.45336922 550 1734 C550.65371582 1732.86804199 551.30743164 1731.73608398 551.98095703 1730.56982422 C561.07197593 1714.84339953 570.42426329 1699.31253355 580.13525391 1683.95898438 C582.07493038 1680.88110026 583.99851177 1677.79365518 585.91796875 1674.703125 C586.89612549 1673.12978394 586.89612549 1673.12978394 587.89404297 1671.5246582 C589.11459138 1669.56056623 590.33381579 1667.5956504 591.55126953 1665.62963867 C595.19357675 1659.78217785 598.95664365 1654.02401714 602.7910614 1648.30143738 C606.572793 1642.65439134 610.30962463 1636.97856624 614.0390625 1631.296875 C615.29162798 1629.39059958 616.54423259 1627.48434987 617.796875 1625.578125 C619.71777805 1622.65449875 621.63787551 1619.73035785 623.55566406 1616.8046875 C636.05701966 1597.73805466 636.05701966 1597.73805466 642.17480469 1589.50634766 C645.48859645 1584.95586795 648.56468922 1580.24282229 651.66662598 1575.54666138 C653.6377098 1572.56363063 655.61791561 1569.58666469 657.59765625 1566.609375 C657.98400238 1566.02809341 658.37034851 1565.44681183 658.7684021 1564.84791565 C667.35843599 1551.93490382 676.29570092 1539.26043824 685.20166016 1526.56445312 C688.13724982 1522.37826879 691.06846351 1518.18902323 694 1514 C697.47541954 1509.03435462 700.95131434 1504.06904574 704.4296875 1499.10546875 C707.3406033 1494.95121151 710.24877848 1490.79504665 713.15527344 1486.63769531 C714.41822608 1484.83185355 715.68193492 1483.02654047 716.94628906 1481.22167969 C765.7743044 1412.88595494 765.7743044 1412.88595494 792 1334 C792.17917969 1332.85273437 792.35835937 1331.70546875 792.54296875 1330.5234375 C797.54165214 1288.80365693 782.27405451 1252.42453964 765.94921875 1214.98828125 C751.19052864 1181.10582273 738.77206897 1146.44106051 732 1110 C731.71974976 1108.66183228 731.71974976 1108.66183228 731.43383789 1107.29663086 C730.66406006 1102.68105183 730.67797109 1099.80160976 733.17578125 1095.76171875 C734.19374073 1094.38282671 735.24085923 1093.0250989 736.3125 1091.6875 C736.86139893 1090.95966309 737.41029785 1090.23182617 737.97583008 1089.48193359 C739.62739712 1087.302295 741.31190048 1085.15139018 743 1083 C743.90681101 1081.80317286 744.81070022 1080.60412337 745.7109375 1079.40234375 C748.09606975 1076.23253688 750.53827716 1073.11083384 753 1070 C753.72574219 1069.07960938 754.45148437 1068.15921875 755.19921875 1067.2109375 C760.6093944 1060.47007232 766.37986805 1054.12275827 772.29199219 1047.82568359 C774.14372157 1045.84637652 775.98244157 1043.85545964 777.8203125 1041.86328125 C779.12998592 1040.45031465 780.43987871 1039.03755134 781.75 1037.625 C782.35150879 1036.97120361 782.95301758 1036.31740723 783.57275391 1035.64379883 C787.24127078 1031.7070862 791.06019517 1028.08776344 795.16308594 1024.60498047 C797.02761901 1022.97586824 798.76810681 1021.26863111 800.5 1019.5 C803.48408869 1016.46875867 806.60785043 1013.66389353 809.828125 1010.88671875 C813.13461606 1008.01435332 816.37015809 1005.06420705 819.6171875 1002.125 C821.60846253 1000.3491744 823.63008264 998.63509998 825.6875 996.9375 C829.54927527 993.64283858 832.75433162 989.89077017 836 986 C836.73605469 985.14019531 837.47210937 984.28039063 838.23046875 983.39453125 C852.76420914 966.134193 860.05661876 945.9144475 860.203125 923.2421875 C860.21018463 922.51013092 860.21724426 921.77807434 860.22451782 921.02383423 C860.36425344 902.16548202 859.64696075 883.70375075 857 865 C856.90525391 864.32894226 856.81050781 863.65788452 856.71289062 862.9664917 C854.07083765 844.4014287 850.70906582 825.98378246 846.9375 807.6171875 C846.7456953 806.68013788 846.55389061 805.74308826 846.35627365 804.7776432 C842.22666797 784.65332503 837.65915876 764.63742755 833.00543213 744.62893677 C830.57970134 734.19680796 828.17906045 723.75888878 825.78125 713.3203125 C825.53751774 712.25956324 825.29378548 711.19881397 825.04266739 710.10592079 C819.91931857 687.79082641 814.98655103 665.43591263 810.125 643.0625 C809.93076069 642.16905632 809.73652138 641.27561264 809.53639603 640.35509491 C807.42534713 630.64450297 805.31898247 620.93290024 803.21533203 611.22070312 C776.87678319 487.10085429 776.87678319 487.10085429 739.875 352.9375 C739.59058044 352.0242395 739.30616089 351.110979 739.01312256 350.17004395 C726.34375804 309.64387861 706.17703299 267.70446253 671 242 C670.4529541 241.59974609 669.9059082 241.19949219 669.34228516 240.78710938 C646.96325695 224.62206376 621.01418349 215.55378618 593.3125 215.6875 C591.46712646 215.69595947 591.46712646 215.69595947 589.58447266 215.70458984 C555.37643203 216.15889781 523.99448438 230.87784294 500 255 C499.10410156 255.89589844 498.20820313 256.79179688 497.28515625 257.71484375 C490.77925123 264.54153299 485.76726322 271.91609608 481 280 C480.65195313 280.5770166 480.30390625 281.1540332 479.9453125 281.74853516 C468.77568061 300.45032014 462.00603688 322.58109423 463.29296875 344.44921875 C463.34116257 345.31621399 463.38935638 346.18320923 463.43901062 347.07647705 C463.97623717 355.86462175 465.03354143 364.54241742 466.3125 373.25 C466.5003154 374.5488916 466.5003154 374.5488916 466.69192505 375.87402344 C476.5076862 443.17012122 491.70325444 509.87920112 505.66625977 576.40616226 C524.26346713 665.01597809 524.26346713 665.01597809 530.625 702.25 C530.87881439 703.73123856 530.87881439 703.73123856 531.13775635 705.24240112 C532.76693763 714.80683798 534.35600254 724.30875208 535 734 C522.84286511 743.08217863 510.14664174 744.17119441 495.421875 745.80859375 C492.95768787 746.1058401 490.49384371 746.40594229 488.03033447 746.70875549 C481.58984617 747.49322062 475.14566665 748.2413152 468.69989014 748.980896 C460.83476105 749.89009836 452.97469702 750.84177764 445.11391068 751.78768253 C439.00754681 752.5217563 432.9006376 753.24931036 426.79119873 753.9573822 C425.11642708 754.15320389 425.11642708 754.15320389 423.40782166 754.35298157 C421.31807757 754.59703427 419.22799297 754.83819468 417.13752747 755.07598877 C415.76279518 755.23740608 415.76279518 755.23740608 414.36029053 755.40208435 C413.5617654 755.49401282 412.76324028 755.5859413 411.94051743 755.68065548 C409.92543443 755.9139333 409.92543443 755.9139333 408 757 C408.27674561 757.88445801 408.55349121 758.76891602 408.83862305 759.68017578 C429.8209342 827.02444272 429.8209342 827.02444272 419.5 847.8125 C399.20179941 880.69948845 344.76542433 888.90278222 310.53436279 899.22677612 C170.17507119 940.06680377 170.17507119 940.06680377 25.2734375 1043.59765625 C21.73804251 1050.26718975 19.65693129 1056.76142264 18.25 1064.1875 C18.12214111 1064.83340088 17.99428223 1065.47930176 17.86254883 1066.14477539 C15.6917074 1078.80470708 17.1743644 1091.28004301 19.3125 1103.8125 C19.54372709 1105.22264171 19.77385958 1106.63296332 20.00292969 1108.04345703 C20.65389948 1112.03153266 21.32471384 1116.01596908 22 1120 C22.32163401 1121.90754881 22.64325142 1123.81510042 22.96484375 1125.72265625 C23.10003418 1126.52292236 23.23522461 1127.32318848 23.37451172 1128.14770508 C28.26988994 1157.18576458 26.44025376 1186.13539046 9.49609375 1211.22705078 C3.65399695 1219.43238132 -2.58024538 1227.16601548 -10 1234 C-10.77730469 1234.77730469 -11.55460937 1235.55460937 -12.35546875 1236.35546875 C-57.07189188 1281.07189188 -130.23709119 1325.32007622 -194 1332 C-195.49853516 1332.16435547 -195.49853516 1332.16435547 -197.02734375 1332.33203125 C-239.67744442 1336.44883633 -275.51058348 1319.33611794 -308 1293 C-312.3813055 1289.38872673 -316.70096493 1285.70863425 -321 1282 C-321.73992187 1281.36191406 -322.47984375 1280.72382812 -323.2421875 1280.06640625 C-329.42959278 1274.68659403 -335.49316469 1269.16677856 -341.578125 1263.671875 C-347.8203967 1258.04234163 -354.11996193 1252.48758413 -360.48046875 1246.9921875 C-361.77873685 1245.86989694 -363.07691125 1244.74749799 -364.375 1243.625 C-365.03040771 1243.05845703 -365.68581543 1242.49191406 -366.36108398 1241.90820312 C-370.02979711 1238.73002323 -373.66076654 1235.51815187 -377.25 1232.25 C-380.56439286 1229.24239392 -383.95659083 1226.37570304 -387.4375 1223.5625 C-392.20996203 1219.70291397 -396.73109109 1215.62800009 -401.24609375 1211.47265625 C-404.83207284 1208.25290481 -408.56701492 1205.24094824 -412.31640625 1202.21484375 C-414.94708557 1200.04367173 -417.47942424 1197.79758643 -420 1195.5 C-424.19729034 1191.67829137 -428.53710231 1188.08525811 -432.94921875 1184.515625 C-437.1841589 1181.02356167 -441.31005952 1177.41125076 -445.4453125 1173.80224609 C-449.13836528 1170.58774827 -452.87330567 1167.44616946 -456.6875 1164.375 C-461.72447406 1160.29744957 -466.47699825 1155.96204531 -471.2265625 1151.55859375 C-474.08683657 1148.91989021 -477.00144346 1146.35737646 -479.94140625 1143.80859375 C-482.4895665 1141.5698875 -484.99410593 1139.28589788 -487.5 1137 C-491.28934126 1133.54424587 -495.11083698 1130.1347711 -498.98046875 1126.76953125 C-503.02666383 1123.22421912 -507.00683622 1119.60477095 -511 1116 C-512.66640851 1114.49971321 -514.33307353 1112.99971128 -516 1111.5 C-517.25103516 1110.37271484 -517.25103516 1110.37271484 -518.52734375 1109.22265625 C-520.09920456 1107.80971975 -521.67436284 1106.4004365 -523.25390625 1104.99609375 C-530.16926086 1098.82961003 -536.89946258 1092.47259558 -543.63671875 1086.11328125 C-547.57763092 1082.39424581 -551.53522187 1078.6935597 -555.5 1075 C-579.07592329 1053.01158533 -579.07592329 1053.01158533 -587.87890625 1044.08984375 C-590.46215133 1041.54465753 -593.18222635 1039.19906457 -595.9375 1036.84375 C-599.28899052 1033.8477206 -602.39635028 1030.61103382 -605.5546875 1027.4140625 C-608.29463751 1024.70912782 -611.15622465 1022.20261646 -614.08203125 1019.703125 C-616.08713907 1017.92262192 -617.94523879 1016.04907444 -619.8125 1014.125 C-623.6981381 1010.17852999 -627.89921497 1006.74434433 -632.21875 1003.28515625 C-634.86706125 1001.10922636 -637.37006438 998.83821101 -639.875 996.5 C-653.00740209 984.61041199 -669.78151072 973.28434322 -688.09765625 973.76171875 C-713.00290655 975.80642974 -736.36927167 995.37934842 -756.15478516 1009.03857422 C-760.90450908 1012.31292483 -765.67077646 1015.56296706 -770.4375 1018.8125 C-771.82642456 1019.75947754 -771.82642456 1019.75947754 -773.2434082 1020.72558594 C-809.37556082 1045.33804571 -846.20044096 1069.08151906 -884.32910156 1090.49902344 C-887.17845462 1092.10028693 -890.0228225 1093.71020703 -892.8671875 1095.3203125 C-915.27218729 1107.9700509 -937.9875283 1120.01396766 -960.84765625 1131.81640625 C-965.91353377 1134.43301798 -970.96102513 1137.08207234 -976 1139.75 C-1000.33583048 1152.58378161 -1024.8834677 1165.00140949 -1049.47822952 1177.32972717 C-1051.39979024 1178.29358473 -1053.32059759 1179.25892703 -1055.24118042 1180.22473145 C-1072.02787436 1188.66322123 -1088.92261088 1196.79216514 -1106.00222778 1204.62350464 C-1109.36312341 1206.16673638 -1112.71702738 1207.72453532 -1116.06958008 1209.28578186 C-1143.65634085 1222.1221533 -1171.68484524 1233.86602583 -1200 1245 C-1198.63470281 1249.31227675 -1197.00516899 1253.3897302 -1195.13671875 1257.5078125 C-1194.86285843 1258.11454803 -1194.58899811 1258.72128357 -1194.30683899 1259.34640503 C-1193.43648828 1261.2738673 -1192.56232382 1263.19956434 -1191.6875 1265.125 C-1180 1290.89219763 -1180 1290.89219763 -1180 1294 C-1179.21625 1294.061875 -1178.4325 1294.12375 -1177.625 1294.1875 C-1168.9273622 1296.13697054 -1161.84681471 1301.25169804 -1155 1306.75 C-1154.2174585 1307.36834717 -1153.43491699 1307.98669434 -1152.62866211 1308.6237793 C-1147.68305663 1312.56188006 -1142.90738469 1316.6393871 -1138.26953125 1320.9375 C-1134.9546557 1323.94998587 -1131.46528548 1326.7336037 -1127.984375 1329.55078125 C-1124.61238637 1332.318107 -1121.30334554 1335.1514694 -1118 1338 C-1113.87544389 1341.55467214 -1109.72791688 1345.0679263 -1105.5 1348.5 C-1100.65403211 1352.4337857 -1095.91901472 1356.48447759 -1091.19140625 1360.55859375 C-1087.66682097 1363.58958284 -1084.10951168 1366.56992581 -1080.5 1369.5 C-1075.65403211 1373.4337857 -1070.91901472 1377.48447759 -1066.19140625 1381.55859375 C-1062.66682097 1384.58958284 -1059.10951168 1387.56992581 -1055.5 1390.5 C-1050.09923828 1394.88712902 -1044.825323 1399.41223412 -1039.55078125 1403.94921875 C-1032.28968997 1410.19427321 -1024.99446571 1416.3963115 -1017.5625 1422.4375 C-1012.69870975 1426.39508188 -1007.94118769 1430.46542446 -1003.19165039 1434.55834961 C-999.66701081 1437.58945289 -996.10960118 1440.56985316 -992.5 1443.5 C-987.65403211 1447.4337857 -982.91901472 1451.48447759 -978.19140625 1455.55859375 C-974.66682097 1458.58958284 -971.10951168 1461.56992581 -967.5 1464.5 C-962.09493724 1468.89062283 -956.81676248 1473.41912597 -951.5390625 1477.9609375 C-948.20834749 1480.82597089 -944.85761621 1483.6665794 -941.5 1486.5 C-937.00580536 1490.29511286 -932.52735622 1494.10791025 -928.0625 1497.9375 C-927.19371216 1498.68253784 -927.19371216 1498.68253784 -926.30737305 1499.44262695 C-923.33243959 1501.99510418 -920.3602292 1504.55069982 -917.390625 1507.109375 C-912.05879366 1511.6983591 -906.71670329 1516.25877834 -901.25 1520.6875 C-896.87492253 1524.23745321 -892.69450808 1527.95563821 -888.53125 1531.75 C-885.9115519 1534.07862053 -883.2248469 1536.29562947 -880.5 1538.5 C-875.97400672 1542.16420331 -871.62436929 1545.97758833 -867.31640625 1549.89453125 C-862.90050466 1553.90831026 -858.39648506 1557.81755043 -853.84765625 1561.6796875 C-847.26681821 1567.27441739 -840.80234102 1572.95735112 -834.48046875 1578.84375 C-831.02286368 1582.06289955 -827.51970949 1585.21244243 -823.9453125 1588.30078125 C-821.6633471 1590.29406428 -819.42771426 1592.33493027 -817.1875 1594.375 C-813.73418305 1597.50093828 -810.20351211 1600.47048891 -806.5625 1603.375 C-801.63554314 1607.35553577 -797.192554 1611.67769678 -792.80078125 1616.2265625 C-790.67831661 1618.32830573 -788.55299665 1620.28746534 -786.29711914 1622.23583984 C-771.86518328 1634.81359778 -758.39032656 1648.44813883 -744.87597656 1661.99365234 C-742.3527631 1664.52263245 -739.82498642 1667.04699698 -737.29592705 1669.57012939 C-735.31223621 1671.55018571 -733.3309585 1673.53264294 -731.35037613 1675.51580811 C-729.97425395 1676.89290208 -728.59615309 1678.26801788 -727.21798706 1679.64306641 C-722.79766395 1684.07986853 -718.50916243 1688.57079989 -714.43583679 1693.32948303 C-712.34153692 1695.7660855 -710.13483182 1698.09391155 -707.9375 1700.4375 C-700.94054337 1707.99854854 -694.483242 1715.99940349 -688 1724 C-686.93101402 1725.30991578 -685.86200447 1726.61981231 -684.79296875 1727.9296875 C-648.86826905 1772.15084739 -622.19608462 1823.15364103 -614 1880 C-613.90090332 1880.68723145 -613.80180664 1881.37446289 -613.69970703 1882.08251953 C-601.28465152 1972.50515826 -625.31163808 2067.69202022 -642.0703125 2159.98046875 C-658.12707671 2248.41486043 -673.89644757 2336.90200842 -686.71530151 2427.97841644 C-686.99285097 2429.94923624 -687.27191815 2431.91984211 -687.55102539 2433.89044189 C-691.97202976 2465.13049724 -695.84454913 2496.42481509 -699.5078125 2527.76171875 C-699.58547081 2528.42597398 -699.66312911 2529.09022921 -699.7431407 2529.77461338 C-700.46377434 2535.93949266 -701.18358801 2542.10446762 -701.90316582 2548.26947021 C-721.64576232 2717.41282288 -721.64576232 2717.41282288 -740 2793 C-740.29052246 2794.20333984 -740.58104492 2795.40667969 -740.88037109 2796.64648438 C-756.95841705 2862.18585358 -784.65750533 2922.92005313 -844.04638672 2959.53564453 C-851.15059857 2963.79256812 -858.50035962 2967.49654668 -866 2971 C-867.12664063 2971.53367187 -868.25328125 2972.06734375 -869.4140625 2972.6171875 C-889.88014399 2981.86766462 -913.61311233 2988.06163389 -936.13671875 2988.203125 C-937.2663076 2988.21378242 -937.2663076 2988.21378242 -938.41871643 2988.22465515 C-986.36729535 2988.57393821 -1029.21752347 2976.48715947 -1067 2946 C-1067.61746094 2945.5035498 -1068.23492188 2945.00709961 -1068.87109375 2944.49560547 C-1112.10295191 2909.4097079 -1125.49645 2853.70979696 -1131.04101562 2800.48120117 C-1139.96984522 2705.3252021 -1128.96463882 2609.09952873 -1102.3363266 2429.99269867 C-1101.99978425 2427.99872173 -1101.66383508 2426.00464547 -1101.32794189 2424.01055908 C-1095.76997594 2391.04123425 -1089.94172791 2358.1209297 -1083.98703527 2325.22109222 C-1083.62769805 2323.23551139 -1083.26852267 2321.24990135 -1082.90939713 2319.26428223 C-1080.52289788 2306.06964751 -1078.13309169 2292.87564906 -1075.72592831 2279.68476582 C-1070.89223845 2253.18041625 -1066.19684164 2226.65901625 -1061.83230376 2200.07346487 C-1061.51419725 2198.1365326 -1061.19512444 2196.19975911 -1060.87603188 2194.26298904 C-1055.51424401 2161.64113445 -1051.4528501 2128.96905627 -1049 2096 C-1048.92797363 2095.05914551 -1048.85594727 2094.11829102 -1048.78173828 2093.14892578 C-1048.3399279 2087.10069402 -1048.11704629 2081.06281647 -1048 2075 C-1047.9866864 2074.33158081 -1047.9733728 2073.66316162 -1047.95965576 2072.9744873 C-1046.68335499 2005.98254938 -1055.54035588 1943.74804643 -1103 1893 C-1104.18076813 1891.82652056 -1105.36727485 1890.65875114 -1106.5625 1889.5 C-1109 1887 -1109 1887 -1109 1885 C-1109.59039063 1884.74089844 -1110.18078125 1884.48179688 -1110.7890625 1884.21484375 C-1113.16697393 1882.90825284 -1114.54447428 1881.55454269 -1116.375 1879.5625 C-1120.46063186 1875.36316781 -1124.89179345 1871.84248499 -1129.51977539 1868.27514648 C-1133.54843052 1865.16221579 -1137.45725603 1861.94948447 -1141.3125 1858.625 C-1147.53118769 1853.29142614 -1154.00972526 1848.33565917 -1160.5390625 1843.390625 C-1165.08107837 1839.94964333 -1169.57310018 1836.44668362 -1174.0625 1832.9375 C-1180.24196904 1828.11619234 -1186.46806126 1823.3659502 -1192.75024414 1818.67944336 C-1198.36201514 1814.49008368 -1203.93387451 1810.24976808 -1209.5 1806 C-1216.27917622 1800.82547407 -1223.07694801 1795.67827979 -1229.90893555 1790.57373047 C-1235.40514516 1786.46105186 -1240.85915499 1782.2942725 -1246.3125 1778.125 C-1252.99541592 1773.01851721 -1259.71559353 1767.97082365 -1266.5 1763 C-1275.87117204 1756.1312624 -1285.11156191 1749.09759805 -1294.33837891 1742.03662109 C-1298.74325366 1738.66609594 -1303.15213565 1735.30083771 -1307.5625 1731.9375 C-1308.85788696 1730.94931274 -1308.85788696 1730.94931274 -1310.17944336 1729.94116211 C-1316.24092693 1725.32345599 -1322.3333565 1720.7486016 -1328.4375 1716.1875 C-1335.83015212 1710.65964813 -1343.13520467 1705.03706767 -1350.36425781 1699.29736328 C-1353.15285897 1697.08562798 -1355.95140481 1694.88656683 -1358.75 1692.6875 C-1359.3176709 1692.24116211 -1359.8853418 1691.79482422 -1360.47021484 1691.33496094 C-1365.30092027 1687.5404572 -1370.14936245 1683.76897296 -1375 1680 C-1386.09274683 1671.37671268 -1397.14926783 1662.7266276 -1408.03295898 1653.84008789 C-1412.37774462 1650.29854877 -1416.76472067 1646.8184452 -1421.1875 1643.375 C-1426.89026373 1638.92850427 -1432.42321348 1634.30858865 -1437.921875 1629.61328125 C-1440.7270732 1627.22117731 -1443.57463157 1624.88544149 -1446.4375 1622.5625 C-1451.29843701 1618.60723975 -1456.0540756 1614.54026529 -1460.79956055 1610.44824219 C-1464.40545946 1607.34573369 -1468.05194825 1604.30541477 -1471.75 1601.3125 C-1476.13227205 1597.75670908 -1480.31959762 1594.03267469 -1484.48828125 1590.23046875 C-1486.99458744 1588.00480649 -1489.56924393 1585.90478439 -1492.1875 1583.8125 C-1498.2575099 1578.90648347 -1503.88977476 1573.56996487 -1509.56640625 1568.21875 C-1512.62305381 1565.34035896 -1515.74883158 1562.56053037 -1518.9296875 1559.8203125 C-1522.89655913 1556.33245933 -1526.74766457 1552.7158809 -1530.62109375 1549.125 C-1532.81262363 1547.09410252 -1535.01236647 1545.07296279 -1537.22265625 1543.0625 C-1542.27334902 1538.4669385 -1547.23407983 1533.82119041 -1552.02015686 1528.94740295 C-1553.84974889 1527.14778921 -1555.72870886 1525.47405973 -1557.68139648 1523.81030273 C-1562.26512802 1519.82460116 -1566.55957191 1515.58454345 -1570.84765625 1511.28515625 C-1571.66318466 1510.47058456 -1572.47871307 1509.65601288 -1573.31895447 1508.8167572 C-1575.03198008 1507.10440807 -1576.74375965 1505.39081158 -1578.4543457 1503.67602539 C-1581.05503552 1501.06997985 -1583.66101956 1498.46931478 -1586.26757812 1495.86914062 C-1587.94042486 1494.19563301 -1589.61296134 1492.52181518 -1591.28515625 1490.84765625 C-1592.05513443 1490.0797023 -1592.82511261 1489.31174835 -1593.61842346 1488.52052307 C-1597.7468529 1484.37437468 -1601.71330254 1480.14668778 -1605.51878357 1475.70140076 C-1607.56662157 1473.34914956 -1609.76629008 1471.17492808 -1612 1469 C-1615.52754647 1465.5095856 -1618.87384474 1461.95355686 -1622.09765625 1458.18359375 C-1624.00680724 1455.99218635 -1625.96991316 1453.85688272 -1627.94702148 1451.72680664 C-1632.68502092 1446.61942308 -1637.19321863 1441.39914256 -1641.5625 1435.96875 C-1644.42926333 1432.47717928 -1647.39781195 1429.08479272 -1650.375 1425.6875 C-1656.03905701 1419.20161231 -1661.40484436 1412.53086948 -1666.66601562 1405.71630859 C-1667.98834372 1404.01499701 -1669.32677053 1402.32787549 -1670.671875 1400.64453125 C-1677.53405005 1392.04224692 -1684.02040632 1383.19892427 -1690.40332031 1374.23632812 C-1691.90331969 1372.13541156 -1693.41483994 1370.04334797 -1694.9296875 1367.953125 C-1713.00663996 1342.87300226 -1729.73448769 1316.05584736 -1743 1288.08105469 C-1744.1497593 1285.6883427 -1745.34019529 1283.31773139 -1746.53125 1280.9453125 C-1762.65395343 1248.51346626 -1774.07938401 1213.74297801 -1780 1178 C-1780.24339111 1176.61772217 -1780.24339111 1176.61772217 -1780.49169922 1175.20751953 C-1794.68355618 1092.23861377 -1765.26706021 1012.60670035 -1717.81591797 945.54931641 C-1717.21666504 944.70804199 -1716.61741211 943.86676758 -1716 943 C-1715.40977051 942.17032715 -1714.81954102 941.3406543 -1714.21142578 940.48583984 C-1706.40307071 929.57137498 -1698.14711816 919.10402462 -1689.52197266 908.82617188 C-1687.43954535 906.32752635 -1685.40999798 903.78733081 -1683.375 901.25 C-1679.56838023 896.58405002 -1675.54100499 892.15516257 -1671.42333984 887.76464844 C-1668.75173888 884.91530535 -1666.13733546 882.0297049 -1663.57421875 879.08203125 C-1653.69457045 867.73878131 -1643.11931483 857.02141806 -1632.5 846.375 C-1631.58081787 845.45122559 -1630.66163574 844.52745117 -1629.71459961 843.57568359 C-1625.18138641 839.05278159 -1620.60529171 834.65361682 -1615.72265625 830.50830078 C-1613.89865586 828.91126643 -1612.19700117 827.23069293 -1610.5 825.5 C-1607.51205958 822.46484607 -1604.3832925 819.65720624 -1601.16015625 816.875 C-1598.79045127 814.81811321 -1596.45572744 812.72593741 -1594.125 810.625 C-1593.28066406 809.86445312 -1592.43632813 809.10390625 -1591.56640625 808.3203125 C-1589.88302252 806.79834913 -1588.20320165 805.27243374 -1586.52734375 803.7421875 C-1581.44865557 799.12227147 -1576.25380066 794.70265385 -1570.91796875 790.3828125 C-1567.74581612 787.79243351 -1564.61985617 785.15284208 -1561.5 782.5 C-1551.35502181 773.89496382 -1540.99379032 765.62052075 -1530.4765625 757.4765625 C-1527.2065367 754.94274226 -1523.95621576 752.38610884 -1520.71728516 749.81274414 C-1512.45837528 743.26093558 -1503.97226142 737.0303332 -1495.46435547 730.80712891 C-1493.02430458 729.01782272 -1490.59109495 727.21963063 -1488.16015625 725.41796875 C-1478.60828052 718.3416046 -1468.98466991 711.3848967 -1459.24365234 704.57128906 C-1456.83247704 702.88267924 -1454.42582202 701.18774971 -1452.01953125 699.4921875 C-1450.30479556 698.28630467 -1448.58995365 697.08057285 -1446.875 695.875 C-1446.1126001 695.33746094 -1445.3502002 694.79992188 -1444.56469727 694.24609375 C-1419.60610369 676.74123342 -1393.89895789 660.07260569 -1368 644 C-1366.39449151 642.99876165 -1364.78902444 641.99745685 -1363.18359375 640.99609375 C-1357.80057586 637.64527548 -1352.4033328 634.31794514 -1347 631 C-1345.39608398 630.01507568 -1345.39608398 630.01507568 -1343.75976562 629.01025391 C-1327.96871231 619.33018403 -1312.06269898 609.88520231 -1295.9765625 600.70068359 C-1293.20006225 599.11430722 -1290.42744747 597.52139776 -1287.65625 595.92578125 C-1268.19548746 584.73482205 -1248.57759857 573.83901995 -1228.75 563.3125 C-1228.12878265 562.98263092 -1227.50756531 562.65276184 -1226.86752319 562.31289673 C-1222.25091684 559.86400822 -1217.62665423 557.42984225 -1213 555 C-1212.17172699 554.56447815 -1211.34345398 554.1289563 -1210.49008179 553.68023682 C-1174.23327604 534.63099792 -1137.73156357 515.97108194 -1100 500 C-1098.69085179 499.44286382 -1097.38176947 498.88557277 -1096.07275391 498.328125 C-1079.8813362 491.44726528 -1063.56989812 484.91451163 -1047 479 C-1046.29272766 478.74692078 -1045.58545532 478.49384155 -1044.85675049 478.23309326 C-1019.8661953 469.30442759 -994.78246904 461.31420927 -969 455 C-968.31651489 454.83240173 -967.63302979 454.66480347 -966.92883301 454.49212646 C-934.11436937 446.49526635 -900.6868228 441.37065882 -867 439 C-865.99720505 438.92901596 -865.99720505 438.92901596 -864.97415161 438.8565979 C-852.12997741 437.97352711 -839.30901742 437.79838836 -826.4375 437.8125 C-825.4108725 437.81310425 -824.384245 437.8137085 -823.32650757 437.81433105 C-805.14550584 437.84318225 -787.11663959 438.37925979 -769 440 C-768.31407776 440.0608075 -767.62815552 440.12161499 -766.92144775 440.18426514 C-669.95906284 448.89285911 -576.13010602 476.83576803 -484 507 C-484.33 506.34 -484.66 505.68 -485 505 C-485.33399417 502.54399439 -485.61847477 500.10169388 -485.8671875 497.63671875 C-485.98614128 496.49328506 -485.98614128 496.49328506 -486.10749817 495.32675171 C-486.36926082 492.780896 -486.62313733 490.23435348 -486.875 487.6875 C-487.00655991 486.36671951 -487.00655991 486.36671951 -487.14077759 485.01925659 C-490.36113074 452.42904861 -492.45406221 419.74643063 -493 387 C-493.01659668 386.13084961 -493.03319336 385.26169922 -493.05029297 384.36621094 C-493.14368904 378.90772916 -493.09420122 373.4581831 -493 368 C-492.98211426 366.75992187 -492.96422852 365.51984375 -492.94580078 364.2421875 C-491.70839944 282.73204814 -480.37407121 200.95620696 -406 65 C-405.27554687 64.09121094 -404.55109375 63.18242188 -403.8046875 62.24609375 C-397.7724495 54.84289256 -391.23208861 48.02124591 -384.5 41.25 C-383.63415283 40.37496826 -382.76830566 39.49993652 -381.8762207 38.59838867 C-366.59542756 23.38947808 -348.82669241 10.4829941 -330 0 C-328.86667236 -0.63736084 -328.86667236 -0.63736084 -327.71044922 -1.28759766 C-232.84067575 -54.19610668 -117.63897583 -44.37543874 0 0 Z " fill="#000000" transform="translate(1783,650)"/>
<path d="M0 0 C1.1204068 0.00182281 2.2408136 0.00364563 3.39517212 0.00552368 C78.43657645 0.21083075 150.8023072 25.24551097 206.67578125 76.20703125 C208.71273925 78.05227555 210.78270847 79.8433167 212.875 81.625 C216.40402407 84.70305345 219.74411864 87.94862805 223.0625 91.25 C223.54509277 91.72800049 224.02768555 92.20600098 224.52490234 92.69848633 C228.54567021 96.73620515 232.28901745 100.9903089 236 105.3125 C236.54696533 105.94744385 237.09393066 106.5823877 237.6574707 107.23657227 C246.92560617 118.07459092 255.20316663 129.37788484 263 141.3125 C263.4429541 141.98603516 263.8859082 142.65957031 264.34228516 143.35351562 C294.6494292 189.69329023 313.0536376 242.11843938 321.75 296.625 C322.04825684 298.48088745 322.04825684 298.48088745 322.35253906 300.37426758 C325.2928327 319.68412909 326.41070837 338.91692699 326.375 358.4375 C326.37478851 359.51700928 326.37457703 360.59651855 326.37435913 361.70874023 C326.2697909 415.63224549 315.53814828 469.57918578 292 518.3125 C291.65582031 519.03115234 291.31164063 519.74980469 290.95703125 520.49023438 C280.37559029 542.48422564 267.4855763 563.41240222 252 582.3125 C251.55462891 582.85938477 251.10925781 583.40626953 250.65039062 583.96972656 C243.67098268 592.47497749 236.12670999 600.38434516 228.375 608.1875 C227.51672607 609.05503906 226.65845215 609.92257812 225.77416992 610.81640625 C219.82567601 616.73600472 213.58309985 622.11231043 207 627.3125 C206.27828613 627.88822754 205.55657227 628.46395508 204.81298828 629.05712891 C190.34410892 640.5217722 175.1355192 650.44901114 158.92333984 659.26269531 C157.05182491 660.28421273 155.19147749 661.32390089 153.33203125 662.3671875 C75.0783587 705.80407291 -26.14130492 717.25498808 -112 693.3125 C-155.99722395 680.44471699 -196.62498306 658.71757612 -231 628.3125 C-232.2684375 627.19294922 -232.2684375 627.19294922 -233.5625 626.05078125 C-236.05860945 623.82268355 -238.53064359 621.57019729 -241 619.3125 C-242.06360431 618.35394717 -243.127418 617.39562664 -244.19140625 616.4375 C-250.87920528 610.38167266 -257.06611548 604.12096824 -263 597.3125 C-263.6909375 596.57128906 -264.381875 595.83007812 -265.09375 595.06640625 C-272.33709821 587.28505573 -278.67519149 578.84201007 -285 570.3125 C-285.49902832 569.6436377 -285.99805664 568.97477539 -286.51220703 568.28564453 C-335.66620169 502.00745648 -362.31973576 417.77752425 -362.1875 335.4375 C-362.18659363 334.37533768 -362.18659363 334.37533768 -362.18566895 333.29171753 C-362.0007028 252.48519637 -335.10331896 168.41699465 -277.0625 110.25 C-276.04344149 109.26898634 -275.02246309 108.28996472 -274 107.3125 C-271.47665349 104.8057818 -268.9722458 102.28396765 -266.4921875 99.734375 C-213.49817799 45.63302798 -135.65712084 17.23369537 -62.25 4.9375 C-61.52825592 4.81580444 -60.80651184 4.69410889 -60.06289673 4.56872559 C-40.0339406 1.23501004 -20.30237403 -0.0686571 0 0 Z " fill="#000000" transform="translate(2653,-0.3125)"/>
<path d="M0 0 C3.40096664 2.88905478 6.5937073 5.96880459 9.73681641 9.13427734 C11.06940805 10.46416413 12.44352593 11.75208957 13.82080078 13.03564453 C78.40789655 74.16997103 95.43409495 192.27624515 124.09454155 336.39344692 C125.74432882 345.10187096 127.40482642 353.80825749 129.06906128 362.51393127 C130.16219268 368.23323971 131.25308649 373.95285807 132.32714844 379.67578125 C138.61156093 413.06855917 146.78772333 445.97179759 154.92041016 478.95092773 C155.8809416 482.84629382 156.84126862 486.74171016 157.80126953 490.63720703 C158.03646679 491.59157843 158.27166405 492.54594982 158.51398849 493.52924156 C167.98105343 531.96885273 177.13059766 570.52364449 183.83312988 609.5559082 C184.14940162 611.3956908 184.47252591 613.23429205 184.79638672 615.07275391 C187.04796479 628.23519012 187.46812473 641.31361461 187.55517578 654.63720703 C187.56339355 655.41939606 187.57161133 656.20158508 187.58007812 657.00747681 C187.7702531 681.39195671 181.72566768 704.11892608 164.50439453 722.24658203 C163.35390625 723.39900391 163.35390625 723.39900391 162.18017578 724.57470703 C161.44412109 725.32236328 160.70806641 726.07001953 159.94970703 726.84033203 C141.86464072 744.16806725 116.52699122 754.59817952 93.47021484 763.32861328 C91.32583965 764.14078982 89.1843857 764.96073472 87.04638672 765.78955078 C48.87863312 780.57940764 9.40357831 792.0075091 -29.71868896 803.97106934 C-75.79064647 818.06165719 -121.45026806 833.11698866 -166.83154297 849.30908203 C-212.39642344 865.56428456 -258.04120772 881.17441544 -304.81982422 893.57470703 C-305.55783264 893.77128906 -306.29584106 893.96787109 -307.05621338 894.17041016 C-337.18906729 902.18853099 -367.80722488 909.01567799 -398.81982422 912.57470703 C-399.63773438 912.6762207 -400.45564453 912.77773437 -401.29833984 912.88232422 C-430.24024155 916.37075876 -462.13008047 917.12582886 -490.81982422 911.57470703 C-491.74794922 911.3977832 -492.67607422 911.22085938 -493.63232422 911.03857422 C-519.14858598 906.02026051 -544.86227068 897.4064193 -565.81982422 881.57470703 C-567.25455078 880.53830078 -567.25455078 880.53830078 -568.71826172 879.48095703 C-575.53819242 874.36123314 -575.53819242 874.36123314 -576.57373047 871.46923828 C-579.70745574 834.61066007 -569.09100198 799.95952117 -545.47607422 771.49267578 C-537.00052609 761.50415318 -528.09303468 752.72613024 -517.81982422 744.57470703 C-516.86462891 743.80255859 -515.90943359 743.03041016 -514.92529297 742.23486328 C-500.59318037 730.88324136 -485.03513812 721.32058819 -468.92871094 712.71142578 C-466.95309018 711.6465392 -464.99646222 710.55366312 -463.04248047 709.44970703 C-394.63610549 671.31694159 -314.44491943 652.46078017 -239.7109375 631.25146484 C-220.49177445 625.79459524 -201.29180368 620.28102423 -182.13232422 614.61767578 C-181.23467724 614.35250593 -180.33703026 614.08733608 -179.41218185 613.81413078 C-145.70437214 603.84801824 -112.34767997 593.44750264 -80.00073242 579.57055664 C-78.61954224 578.9789978 -78.61954224 578.9789978 -77.21044922 578.37548828 C-76.40639648 578.02655518 -75.60234375 577.67762207 -74.77392578 577.31811523 C-72.81982422 576.57470703 -72.81982422 576.57470703 -70.81982422 576.57470703 C-67.36537932 545.14477088 -69.44611693 514.82030359 -74.56982422 483.69970703 C-74.67812561 483.03251648 -74.786427 482.36532593 -74.89801025 481.67791748 C-80.50860495 447.51541883 -89.22586049 413.91535101 -97.46417236 380.32159424 C-98.97256295 374.16600094 -100.47496569 368.008947 -101.97802734 361.85205078 C-106.69644607 342.53372498 -111.42573218 323.21809604 -116.18763912 303.91044044 C-117.29365327 299.4250149 -118.3982931 294.9392505 -119.50332451 290.45358276 C-120.38123819 286.89334075 -121.2617115 283.33373892 -122.14234924 279.77416992 C-134.68507713 228.95086635 -146.77961427 176.14715712 -147.81982422 123.57470703 C-147.84028809 122.80304199 -147.86075195 122.03137695 -147.88183594 121.23632812 C-148.56757225 93.01912895 -146.03295867 63.36935854 -133.81982422 37.57470703 C-133.52237305 36.94532227 -133.22492187 36.3159375 -132.91845703 35.66748047 C-128.11534125 25.82758381 -121.56229339 18.20649044 -113.81982422 10.57470703 C-112.80275391 9.54216797 -112.80275391 9.54216797 -111.76513672 8.48876953 C-82.32186588 -19.43810968 -32.44408304 -25.41032422 0 0 Z " fill="#000000" transform="translate(2427.81982421875,912.42529296875)"/>
<path d="M0 0 C3.77422262 0.61244543 7.54733885 1.23147307 11.3203125 1.8515625 C12.37387939 2.02244385 13.42744629 2.1933252 14.51293945 2.36938477 C49.64791984 8.16442767 86.59897874 19.30323328 109 49 C135.5648472 86.32651887 144.4222468 137.06899551 148 182 C148.16435547 183.82337891 148.16435547 183.82337891 148.33203125 185.68359375 C153.79769787 258.04901976 135.06602184 324.5582631 107.54296875 390.73046875 C70.24314106 480.41360534 47.01751613 565.20286659 86.85546875 756.43359375 C88 760 88 760 88 762 C63.46165551 761.62510863 38.43303731 757.16697235 15 750 C14.16146484 749.74524902 13.32292969 749.49049805 12.45898438 749.22802734 C-5.42920547 743.66846717 -23.76395778 736.01490921 -39 725 C-39.93070313 724.33871094 -40.86140625 723.67742188 -41.8203125 722.99609375 C-65.78355225 705.50855978 -84.37765161 684.44376834 -98 658 C-98.49959229 657.05350586 -98.49959229 657.05350586 -99.00927734 656.08789062 C-124.98280424 606.4434096 -128.14287116 546.21889818 -125.25 491.375 C-125.20709839 490.5594162 -125.16419678 489.7438324 -125.11999512 488.90353394 C-120.11263564 396.20361699 -96.65792454 305.02477138 -27.72484016 85.56632996 C-26.08076411 80.61109674 -24.43825008 75.65534726 -22.796875 70.69921875 C-22.4774078 69.73460472 -22.1579406 68.76999069 -21.82879257 67.77614594 C-14.37252409 45.24174653 -7.1679834 22.62747773 0 0 Z " fill="#000000" transform="translate(3025,403)"/>
</svg>
