<?xml version="1.0" encoding="UTF-8"?>
<svg version="1.1" xmlns="http://www.w3.org/2000/svg" width="3036" height="2904">
<path d="M0 0 C1.23806927 0.82908833 2.47775743 1.65576248 3.71875 2.48046875 C12.94518329 8.64989675 21.62882145 15.30569334 30.12988281 22.43847656 C31.83124244 23.85908964 33.54858495 25.25654366 35.2734375 26.6484375 C43.40826719 33.30814151 50.86570574 40.65472762 58.3125 48.0625 C58.82474121 48.56947418 59.33698242 49.07644836 59.86474609 49.5987854 C66.71609626 56.39559622 72.98697427 63.43642134 79 71 C79.89891885 72.07408514 80.80267294 73.14417735 81.71484375 74.20703125 C98.3006022 93.64938781 111.71665283 115.65731001 124 138 C124.44472656 138.80824219 124.88945312 139.61648438 125.34765625 140.44921875 C147.22937528 180.48949864 162.22494586 224.03650273 174 268 C174.27103546 269.00936615 174.27103546 269.00936615 174.54754639 270.03912354 C196.86655577 353.40441188 206.31033519 439.92841262 217.7388916 577.97940063 C217.99501503 581.44131741 218.25358759 584.90303638 218.51452637 588.36459351 C219.76634991 604.97719541 220.98216342 621.58189581 221.77858734 638.22335243 C222.0017933 642.77602665 222.25785081 647.32701423 222.50701904 651.87832642 C222.6820877 655.3913926 222.80046239 658.90327547 222.91650391 662.41870117 C223.15346205 672.87822725 223.15346205 672.87822725 227.26220703 682.18481445 C230.0542302 684.52241886 232.8134532 686.24983224 236 688 C237.6129445 689.1972207 239.2078937 690.41917841 240.78125 691.66796875 C242.35209304 692.8439209 243.92505878 694.0170422 245.5 695.1875 C246.35311768 695.82405518 247.20623535 696.46061035 248.08520508 697.11645508 C250.72105333 699.08091031 253.36012851 701.04095566 256 703 C256.82161621 703.61101563 257.64323242 704.22203125 258.48974609 704.8515625 C267.43969841 711.50328656 276.44827262 718.0544283 285.57788086 724.45727539 C298.63072442 733.63550781 311.42053713 743.18420701 324 753 C324.54398438 753.42313477 325.08796875 753.84626953 325.6484375 754.28222656 C334.5935305 761.24352878 343.41353213 768.35277977 352.19140625 775.5234375 C353.7923548 776.83047541 355.39597976 778.13423356 357 779.4375 C366.72107502 787.35000292 376.28824172 795.40278179 385.55859375 803.83984375 C388.04319503 806.03821896 390.59675186 808.1156646 393.1875 810.1875 C398.57915973 814.5452477 403.61783645 819.22834487 408.65844727 823.98486328 C411.76147444 826.91278681 414.86974017 829.8027554 418.125 832.5625 C422.34025607 836.17952104 426.20291759 840.14940642 430.08251953 844.11938477 C432.8009114 846.88205698 435.56492202 849.51378749 438.51928711 852.02368164 C443.930955 856.73811279 448.96894782 861.82447996 454.03515625 866.90234375 C455.08297946 867.94949136 456.1309509 868.99649066 457.17906189 870.04335022 C459.36326988 872.22609326 461.54568332 874.41061025 463.72680664 876.59643555 C466.50253881 879.37786424 469.28273782 882.15477776 472.06430912 884.93036556 C474.22559203 887.08801021 476.38445714 889.24806147 478.54263115 891.40881538 C479.56601321 892.4328577 480.59011961 893.45617674 481.6150074 894.47871208 C486.74396265 899.5984718 491.76524557 904.75916259 496.48509216 910.26271057 C498.70402375 912.80737124 501.06523928 915.15934132 503.46875 917.53125 C504.19475403 918.2515741 504.19475403 918.2515741 504.9354248 918.9864502 C506.45447309 920.49349407 507.97676688 921.99718686 509.5 923.5 C521.40861015 935.24896711 521.40861015 935.24896711 526.53125 941.3125 C528.11172905 943.12836955 529.78127035 944.81513324 531.5 946.5 C534.48893201 949.44264324 537.24652298 952.52355707 539.984375 955.69921875 C542.44480715 958.50773529 544.96994278 961.2544368 547.5 964 C552.70424226 969.65853233 557.78443794 975.40464685 562.77734375 981.25 C563.80984183 982.45837948 564.84239546 983.6667115 565.875 984.875 C566.39481445 985.4836792 566.91462891 986.0923584 567.45019531 986.71948242 C570.47918656 990.25662058 573.55164023 993.74409531 576.6875 997.1875 C580.53851005 1001.42708043 584.14843955 1005.82932112 587.75 1010.28125 C589.93501569 1012.92147729 592.19171391 1015.4672972 594.5 1018 C598.36214567 1022.2430147 602.00754309 1026.62342866 605.6171875 1031.08203125 C608.20756106 1034.25417723 610.84693437 1037.38034018 613.5 1040.5 C617.55101281 1045.26970719 621.54631565 1050.07939419 625.49609375 1054.93359375 C627.41776017 1057.28696059 629.34759522 1059.63242767 631.28515625 1061.97265625 C637.24146222 1069.17026951 643.14855137 1076.39369283 648.88842773 1083.76538086 C652.34016194 1088.18947004 655.87987933 1092.53583651 659.4375 1096.875 C664.25156274 1102.76113765 668.8826832 1108.75605497 673.41210938 1114.86328125 C676.60358404 1119.16029942 679.85699161 1123.40076769 683.16137695 1127.61157227 C710.23478801 1162.11295974 732.93471211 1196.51959421 746.94360352 1238.24389648 C747.29865967 1239.29520752 747.65371582 1240.34651855 748.01953125 1241.4296875 C748.32995361 1242.36022949 748.64037598 1243.29077148 748.96020508 1244.24951172 C749.94504484 1247.06201162 749.94504484 1247.06201162 751.53675842 1249.73686218 C753.18362654 1253.40950088 753.4034775 1255.95067106 753.45166016 1259.96069336 C753.46918335 1260.96462128 753.46918335 1260.96462128 753.48706055 1261.98883057 C753.52049124 1264.1893168 753.53137176 1266.38912626 753.5390625 1268.58984375 C753.55126407 1270.13717366 753.56375072 1271.68450135 753.57650757 1273.23182678 C753.59895073 1276.47564975 753.60853317 1279.71923856 753.61083984 1282.96313477 C753.61609103 1287.07865464 753.66723253 1291.19216764 753.73035622 1295.30715084 C753.77166472 1298.50669105 753.78048536 1301.70576736 753.78095627 1304.90555 C753.78627226 1306.41996226 753.80283161 1307.93438581 753.83180618 1309.4485302 C754.00771514 1319.48611225 752.47078135 1326.83048442 747.71026611 1335.71833801 C745.19869576 1340.53754416 743.70583237 1345.56933981 742.125 1350.75 C736.45937566 1368.3685237 728.57946821 1383.84217572 718 1399 C717.53271484 1399.6707959 717.06542969 1400.3415918 716.58398438 1401.03271484 C711.45572078 1408.33322011 706.13031242 1415.28392615 700.03125 1421.8125 C698.18667313 1423.7989674 696.47130979 1425.84492731 694.75 1427.9375 C666.05322803 1460.63999987 617.67533614 1479.23740415 575.25 1482.37109375 C520.66148843 1485.88239666 467.26992363 1469.11957205 425.73046875 1433.19921875 C411.73736001 1420.81758852 400.87666071 1406.09813978 390 1391 C388.90506858 1389.48428782 387.8100192 1387.96866086 386.71484375 1386.453125 C385.10938637 1384.22994091 383.5045523 1382.00631747 381.90136719 1379.78149414 C373.21797409 1367.73836076 364.44698801 1355.76030324 355.34765625 1344.02734375 C353.35531007 1341.45817855 351.3808413 1338.87637187 349.41088867 1336.29003906 C343.59584516 1328.67280785 337.56290584 1321.23936285 331.49267578 1313.82470703 C330.17813798 1312.21776304 328.86801698 1310.60720809 327.55859375 1308.99609375 C323.1305776 1303.55414904 318.62800801 1298.18137497 314.08544922 1292.83520508 C310.43972145 1288.53813614 306.86989776 1284.18301725 303.3125 1279.8125 C300.27734415 1276.12109423 297.18462376 1272.48029955 294.08813477 1268.84033203 C291.15737861 1265.38858671 288.28289049 1261.89786441 285.4375 1258.375 C281.61447399 1253.67288245 277.57552731 1249.21189443 273.47265625 1244.75390625 C270.25605906 1241.17144018 267.24715022 1237.43992408 264.22265625 1233.6953125 C261.29033364 1230.13942041 258.21185862 1226.73160162 255.109375 1223.32421875 C253.25373343 1221.27957665 251.43243624 1219.21215851 249.625 1217.125 C245.78416014 1212.71250026 241.81322663 1208.4213747 237.84375 1204.125 C235.82168874 1201.92609239 233.86796222 1199.67972753 231.92578125 1197.41015625 C227.28591716 1192.09282903 222.31904167 1187.09652862 217.34008789 1182.09985352 C215.69402674 1180.44406531 214.05897918 1178.77788193 212.42382812 1177.11132812 C206.3711191 1170.99977855 200.32596702 1165.60222322 193 1161 C191.23152707 1165.89752119 190.13522167 1170.77398088 189.13085938 1175.86669922 C188.95427607 1176.74533536 188.77769276 1177.6239715 188.59575844 1178.52923298 C188.21131959 1180.44393522 187.82856683 1182.35897659 187.44729996 1184.27431297 C186.61635355 1188.4464263 185.77595272 1192.6166202 184.93632698 1196.78699398 C184.25752687 1200.15944785 183.58001584 1203.53215923 182.90252686 1206.90487671 C164.86702352 1296.60686231 146.11747178 1386.4153175 59 1607 C58.49726563 1607.88816406 57.99453125 1608.77632812 57.4765625 1609.69140625 C42.10873109 1636.56434388 24.21471747 1662.43270152 4.453125 1686.24267578 C2.36384079 1688.76933367 0.31028732 1691.32467907 -1.75 1693.875 C-5.33404881 1698.25331604 -9.06400252 1702.47473887 -12.875 1706.65625 C-14.82494724 1708.80692711 -16.73026129 1710.98824971 -18.625 1713.1875 C-21.37287486 1716.34692294 -24.27180809 1719.29364261 -27.2578125 1722.2265625 C-29.04715827 1724.04800415 -30.71288532 1725.93714279 -32.375 1727.875 C-38.13747784 1734.5398793 -44.41897287 1740.58860519 -51.1015625 1746.3203125 C-52.97970753 1747.98204576 -54.74305516 1749.71125525 -56.5 1751.5 C-60.16296626 1755.21213359 -64.04234601 1758.60680882 -68 1762 C-69.0433138 1762.90715539 -70.08625379 1763.81474081 -71.12890625 1764.72265625 C-79.22307018 1771.74751849 -87.49637927 1778.47833209 -96 1785 C-96.71865234 1785.55526367 -97.43730469 1786.11052734 -98.17773438 1786.68261719 C-159.31869836 1833.81966013 -232.18747663 1871.31068512 -310 1879 C-310.85827393 1879.08612549 -311.71654785 1879.17225098 -312.60083008 1879.26098633 C-321.86761851 1880.09039602 -331.10291867 1880.18615631 -340.39916992 1880.18530273 C-343.03385915 1880.18747637 -345.66811941 1880.20566593 -348.30273438 1880.22460938 C-363.98999505 1880.27719717 -379.57571383 1879.16059599 -395 1876.1875 C-396.36995117 1875.92767334 -396.36995117 1875.92767334 -397.76757812 1875.66259766 C-427.53160799 1869.8774329 -455.65315281 1860.00857892 -483 1847 C-483.96341309 1846.54512207 -484.92682617 1846.09024414 -485.91943359 1845.62158203 C-499.64890429 1839.09430023 -512.77422977 1831.67136559 -525.82568359 1823.88867188 C-529.10186756 1821.93939029 -532.38762114 1820.00712815 -535.67578125 1818.078125 C-546.43585279 1811.75403356 -557.12956113 1805.34503102 -567.6875 1798.6875 C-586.83370861 1786.6212144 -606.2817178 1774.92268311 -626.1640625 1764.10546875 C-628.68578111 1762.73348714 -631.17623875 1761.32255601 -633.6484375 1759.86328125 C-645.44826665 1752.94119302 -657.85748557 1747.37388819 -670.29248047 1741.70654297 C-673.61668995 1740.18384488 -676.92186481 1738.62270755 -680.22547913 1737.05592346 C-689.07694038 1732.86015509 -697.9939353 1728.85229308 -707 1725 C-708.10166504 1724.52844482 -708.10166504 1724.52844482 -709.22558594 1724.04736328 C-769.42061483 1698.34999544 -831.43238106 1677.60666114 -895 1662 C-895.7727124 1661.81026611 -896.5454248 1661.62053223 -897.34155273 1661.42504883 C-951.93563586 1648.08913278 -1007.53153402 1639.68206562 -1063.52227783 1635.19854736 C-1065.10262498 1635.07190937 -1066.6828415 1634.94362299 -1068.26287842 1634.81317139 C-1113.54920234 1631.08061934 -1160.5490752 1631.04585488 -1205.83319092 1634.81964111 C-1208.11772616 1635.00979918 -1210.40281543 1635.1921869 -1212.68798828 1635.37451172 C-1287.88473454 1641.47693583 -1362.39333327 1656.1453037 -1434 1680 C-1435.21891937 1680.40478577 -1435.21891937 1680.40478577 -1436.46246338 1680.81774902 C-1460.72933261 1688.89395332 -1484.50954737 1697.89006941 -1508 1708 C-1509.17240234 1708.50208984 -1510.34480469 1709.00417969 -1511.55273438 1709.52148438 C-1600.68961595 1747.86928696 -1682.33120998 1800.24067446 -1768.0625 1864.0625 C-1776.61762127 1870.50114511 -1785.28362768 1876.78176501 -1794 1883 C-1794.57814453 1883.4134668 -1795.15628906 1883.82693359 -1795.75195312 1884.25292969 C-1799.46096032 1886.89610431 -1803.21324377 1889.46999733 -1807 1892 C-1807.68078613 1892.45729492 -1808.36157227 1892.91458984 -1809.06298828 1893.38574219 C-1826.9588792 1905.31633613 -1844.90751218 1914.45981063 -1866 1919 C-1867.02399902 1919.22075195 -1868.04799805 1919.44150391 -1869.10302734 1919.66894531 C-1870.74392334 1920.02230957 -1870.74392334 1920.02230957 -1872.41796875 1920.3828125 C-1873.5579834 1920.63063477 -1874.69799805 1920.87845703 -1875.87255859 1921.13378906 C-1878.0563499 1921.60433487 -1880.24267319 1922.06339319 -1882.43212891 1922.50683594 C-1887.68943092 1923.61881785 -1892.6663657 1924.83071333 -1897.6940918 1926.72192383 C-1912.28040543 1932.10483014 -1925.75897785 1933.1191347 -1941.25073242 1932.9675293 C-1945.19483231 1932.93744407 -1949.13247539 1932.98792285 -1953.07617188 1933.04492188 C-1967.67425586 1933.10223399 -1978.86057962 1931.65421267 -1991.86160278 1925.02139282 C-1995.41253662 1923.32531021 -1999.10737825 1922.13804492 -2002.8515625 1920.9453125 C-2003.56937897 1920.71277267 -2004.28719543 1920.48023285 -2005.02676392 1920.24064636 C-2006.48057043 1919.77129448 -2007.93521 1919.30451545 -2009.39065552 1918.840271 C-2047.63021891 1906.59880563 -2081.6674917 1890.98000071 -2111 1863 C-2111.72960938 1862.31164063 -2112.45921875 1861.62328125 -2113.2109375 1860.9140625 C-2134.04498676 1840.73879741 -2149.92991611 1814.17013643 -2162 1788 C-2162.35513672 1787.23993652 -2162.71027344 1786.47987305 -2163.07617188 1785.69677734 C-2172.61175099 1765.09282022 -2179.42913184 1743.43225216 -2183 1721 C-2183.11569336 1720.31760254 -2183.23138672 1719.63520508 -2183.35058594 1718.93212891 C-2193.07273511 1659.66163789 -2173.94355564 1598.62633396 -2139.4375 1550.5625 C-2133.96794266 1543.07059217 -2128.12189925 1535.96390805 -2122 1529 C-2121.38898437 1528.28972656 -2120.77796875 1527.57945313 -2120.1484375 1526.84765625 C-2118.45116342 1524.88090975 -2116.72910791 1522.93880823 -2115 1521 C-2114.24976562 1520.14535156 -2113.49953125 1519.29070312 -2112.7265625 1518.41015625 C-2101.52265735 1505.87725935 -2089.20393502 1494.39972379 -2076 1484 C-2074.87488956 1483.08506761 -2073.75128505 1482.16828134 -2072.62890625 1481.25 C-2063.7612921 1474.02352063 -2054.60415592 1467.27339955 -2045.28955078 1460.63671875 C-2042.2971371 1458.49754821 -2039.32165728 1456.33547066 -2036.34545898 1454.17382812 C-2027.63680713 1447.85419072 -2018.84771712 1441.65519645 -2010.01953125 1435.50390625 C-2006.82012679 1433.27457645 -2003.62971606 1431.0335586 -2000.44921875 1428.77734375 C-1986.47876011 1418.88847671 -1972.23146546 1409.42199091 -1957.96861267 1399.96257019 C-1954.65015643 1397.76157835 -1951.3342773 1395.55691547 -1948.02441406 1393.34301758 C-1940.85523214 1388.54800195 -1933.6618402 1383.80287012 -1926.375 1379.1875 C-1925.44026855 1378.59477295 -1924.50553711 1378.0020459 -1923.54248047 1377.39135742 C-1920.69729197 1375.5905537 -1917.84937886 1373.79416491 -1915 1372 C-1914.16791016 1371.47567383 -1913.33582031 1370.95134766 -1912.47851562 1370.41113281 C-1875.36509152 1347.08482409 -1837.21565403 1325.54558255 -1798.37158203 1305.24462891 C-1795.89800332 1303.94647117 -1793.43101317 1302.63639275 -1790.96484375 1301.32421875 C-1778.76653036 1294.84962303 -1766.44411797 1288.70638534 -1753.91802979 1282.890625 C-1752.57384948 1282.26646338 -1751.23009454 1281.64138526 -1749.88665771 1281.015625 C-1710.65348073 1262.74891169 -1670.67251057 1246.40555722 -1629.96789551 1231.71240234 C-1628.03264899 1231.01181933 -1626.09948804 1230.30578794 -1624.16699219 1229.59765625 C-1587.99418791 1216.34979148 -1551.13450505 1205.20994777 -1514 1195 C-1513.14917847 1194.7658136 -1512.29835693 1194.5316272 -1511.42175293 1194.29034424 C-1439.63536352 1174.57720482 -1366.2946947 1160.11247065 -1292.25250244 1152.24029541 C-1290.13843781 1152.01476845 -1288.02497704 1151.78430619 -1285.91162109 1151.55224609 C-1237.37231615 1146.29624043 -1188.79627141 1145.52242009 -1140.03277677 1145.39507854 C-1127.04050088 1145.36095453 -1114.04831204 1145.30358151 -1101.05614495 1145.24111044 C-1096.52286848 1145.21983868 -1091.9896234 1145.20445308 -1087.45630884 1145.19427085 C-1085.33543074 1145.1889328 -1083.21457242 1145.18146441 -1081.09370422 1145.17311096 C-1078.52227436 1145.16316721 -1075.95082744 1145.15673207 -1073.37937927 1145.15455627 C-1064.18578396 1145.79439046 -1064.18578396 1145.79439046 -1056 1143 C-1056.92619141 1142.30777344 -1056.92619141 1142.30777344 -1057.87109375 1141.6015625 C-1104.31665242 1105.83070605 -1130.91088917 1028.5148626 -1140.59765625 972.546875 C-1140.91824334 969.72072858 -1141.04178877 967.1097713 -1141.02514648 964.27832031 C-1141.02151596 963.47501282 -1141.01788544 962.67170532 -1141.0141449 961.84405518 C-1141.00714317 960.93124786 -1141.00714317 960.93124786 -1141 960 C-1140.44624695 959.98160568 -1139.8924939 959.96321136 -1139.32196045 959.94425964 C-1046.86722247 956.84929168 -956.06210573 947.24695446 -791 907 C-790.17046814 906.75743469 -789.34093628 906.51486938 -788.48626709 906.26495361 C-710.35734303 883.34824139 -634.57520828 852.68324431 -561.92578125 815.9765625 C-559.07733462 814.53739341 -556.21910862 813.11963051 -553.35546875 811.7109375 C-541.73009763 805.97786196 -530.31541467 799.92051122 -518.97509766 793.64355469 C-515.89824974 791.94378937 -512.81472483 790.25659341 -509.73046875 788.5703125 C-486.13020043 775.61952639 -462.88375817 762.0003717 -440.24169922 747.43359375 C-437.89052779 745.9299912 -435.52691615 744.44768243 -433.16015625 742.96875 C-410.23956038 728.60035517 -387.74657897 713.43844794 -365.94921875 697.41650391 C-363.18865737 695.41039455 -360.39087721 693.45920845 -357.59301758 691.50561523 C-348.99256494 685.49825411 -340.63997448 679.21594262 -332.34082031 672.80078125 C-329.78530317 670.83483482 -327.21821156 668.88477082 -324.6484375 666.9375 C-312.54797351 657.78298323 -312.54797351 657.78298323 -300.73046875 648.26953125 C-297.17768947 645.31650584 -293.58828801 642.40969226 -290 639.5 C-288.61707332 638.3764426 -287.23425858 637.25274742 -285.8515625 636.12890625 C-283.57710942 634.2805659 -281.30116875 632.43414845 -279.0234375 630.58984375 C-273.33221748 625.96467821 -267.74537075 621.23121095 -262.19311523 616.44116211 C-258.65651946 613.39658076 -255.07577438 610.42332963 -251.4375 607.5 C-246.073458 603.1486385 -241.03883753 598.48709824 -235.9921875 593.77734375 C-233.67759738 591.61922281 -231.33104254 589.5082619 -228.9375 587.4375 C-225.07882462 584.09873035 -221.32398679 580.65020982 -217.57104492 577.19384766 C-214.32263647 574.20422549 -211.04665421 571.24905814 -207.75 568.3125 C-204.09204907 565.03436825 -200.58928165 561.65248097 -197.1796875 558.1171875 C-195.36910726 556.35852354 -193.52835906 554.73773603 -191.6081543 553.10375977 C-185.84612828 548.07287627 -180.48985487 542.63407896 -175.08984375 537.22265625 C-173.95233967 536.08582754 -172.81468733 534.94914717 -171.67689514 533.81260681 C-169.30437314 531.44155079 -166.93364759 529.06871727 -164.56420898 526.69458008 C-161.54634088 523.67101539 -158.52400424 520.65196367 -155.50029659 517.63424015 C-153.15372268 515.29130167 -150.80956265 512.9459596 -148.46609688 510.59991264 C-147.35340043 509.48655516 -146.2399775 508.37392319 -145.12577629 507.26207161 C-139.69064277 501.83589001 -134.31140839 496.4054301 -129.33082581 490.55101013 C-127.6520421 488.59447267 -125.85399813 486.79006716 -124 485 C-120.85160949 481.89366814 -117.92267579 478.67526708 -115.0390625 475.32421875 C-112.45245871 472.37588685 -109.79139806 469.50108204 -107.125 466.625 C-99.62294803 458.51803765 -92.26484054 450.3770463 -85.31640625 441.78515625 C-82.95399582 438.94468638 -80.50170972 436.21824101 -78 433.5 C-73.58220141 428.68920706 -69.42757162 423.7199219 -65.328125 418.63720703 C-63.24780748 416.07275679 -61.14329805 413.52838511 -59.04101562 410.98193359 C-44.10661088 392.90961622 -44.10661088 392.90961622 -29.6484375 374.45703125 C-27.6950318 371.89628304 -25.71648575 369.35669176 -23.7265625 366.82421875 C-16.63723483 357.79433111 -9.76310225 348.64912081 -3.09375 339.3046875 C-1.12796993 336.55333074 0.86650922 333.82977221 2.90625 331.1328125 C29.31273977 296.15523156 44.86162586 253.44076001 39.17993164 209.2331543 C33.16464673 168.58101955 11.60927845 131.5734103 -21.15625 106.59375 C-48.35689288 87.31562446 -79.01839885 75.53559104 -112.625 75.6875 C-113.94097168 75.69313965 -115.25694336 75.6987793 -116.61279297 75.70458984 C-156.83699182 76.20289036 -193.7157159 92.58982146 -222 121 C-223.07710732 122.05572679 -224.15529864 123.11034838 -225.234375 124.1640625 C-231.36684831 130.18281073 -237.25973279 136.21540235 -242.59765625 142.96484375 C-245.05497823 146.0694603 -247.57191362 149.11696103 -250.1015625 152.16259766 C-256.10241213 159.39394065 -261.93327957 166.71737506 -267.62060547 174.19824219 C-270.40852603 177.83980923 -273.24071005 181.44716355 -276.0625 185.0625 C-280.65888153 190.96050629 -285.19871012 196.89177629 -289.66796875 202.88671875 C-304.68734305 222.93770923 -319.85792937 243.18243252 -336.83984375 261.62890625 C-338.6582813 263.62491275 -340.42475004 265.65056312 -342.1875 267.6953125 C-353.26810862 280.37804347 -365.36403002 292.10826188 -379 302 C-379.85464844 302.6496875 -380.70929688 303.299375 -381.58984375 303.96875 C-411.90413058 326.37282585 -462.23335324 330.66312589 -499 330 C-490.44394418 262.61914032 -467.57643492 197.88154197 -432 140 C-431.21713623 138.71730225 -431.21713623 138.71730225 -430.41845703 137.40869141 C-416.7036986 115.01183407 -401.21243815 93.8347545 -384 74 C-383.40058594 73.30003906 -382.80117187 72.60007812 -382.18359375 71.87890625 C-369.06230829 56.67086214 -355.22756752 41.29810595 -339.38671875 28.890625 C-337.09609598 27.07612186 -334.95901388 25.16889743 -332.8125 23.1875 C-304.03454564 -2.57999459 -267.57136389 -22.97781455 -231 -35 C-229.83670166 -35.38961914 -229.83670166 -35.38961914 -228.64990234 -35.78710938 C-151.49579321 -61.34214041 -66.36286815 -46.36668814 0 0 Z " fill="#010101" transform="translate(2283,972)"/>
<path d="M0 0 C2.1130659 -0.0077944 4.22612872 -0.01646787 6.33918762 -0.02597046 C10.75267726 -0.04082279 15.16584676 -0.04036655 19.5793457 -0.02978516 C25.18609125 -0.01822318 30.79150945 -0.0520238 36.398036 -0.0984745 C40.75919529 -0.12819829 45.12004433 -0.12965893 49.481287 -0.12345505 C51.54579604 -0.12446963 53.61032524 -0.13471806 55.67473412 -0.15507889 C68.60151817 -0.26692332 79.23717493 1.15267443 91.2835598 5.91412735 C96.02110203 7.66415584 101.02343519 8.57712538 105.95703125 9.6015625 C107.08447754 9.84519531 108.21192383 10.08882812 109.37353516 10.33984375 C115.43491877 11.64103522 121.50791946 12.88071305 127.5859375 14.1015625 C194.89129878 27.63588869 255.58935659 59.81197563 308.14453125 103.6015625 C309.1509668 104.43631104 310.15740234 105.27105957 311.19433594 106.13110352 C319.86487629 113.39852432 327.97860992 121.12418821 335.95092773 129.1472168 C337.9657096 131.17278732 339.991064 133.18734634 342.01757812 135.20117188 C349.18985151 142.36616004 355.87024044 149.63013444 362.14453125 157.6015625 C363.07869086 158.7039163 364.02010234 159.80022019 364.97265625 160.88671875 C406.0664696 208.01204341 434.90145459 268.2463064 450.14453125 328.6015625 C450.40572754 329.61541016 450.66692383 330.62925781 450.93603516 331.67382812 C454.2714834 344.75191671 456.83909431 357.89530695 458.89453125 371.2265625 C459.09320801 372.49822266 459.29188477 373.76988281 459.49658203 375.08007812 C462.58458275 396.06895706 463.5254544 417.02982041 463.45703125 438.2265625 C463.45429703 439.99738693 463.45429703 439.99738693 463.45150757 441.8039856 C463.40450517 459.93604227 462.76402458 477.63895423 460.14453125 495.6015625 C459.89509766 497.43823486 459.89509766 497.43823486 459.640625 499.31201172 C454.29836084 538.29570045 443.87086937 577.8587096 427.14453125 613.6015625 C426.70141602 614.55498535 426.25830078 615.5084082 425.80175781 616.49072266 C422.33891668 623.90564399 418.77557171 631.26766415 415.14453125 638.6015625 C414.51442139 639.87797607 414.51442139 639.87797607 413.87158203 641.18017578 C396.91905875 675.23106544 373.9480139 706.06570655 348.39453125 734.12890625 C346.79971316 735.88154488 345.21761255 737.64579435 343.64453125 739.41796875 C339.39727363 744.17671014 335.14633744 748.63443401 330.26171875 752.734375 C327.65688202 755.03162953 325.26010164 757.49346502 322.83203125 759.9765625 C318.46345699 764.41677746 313.87410808 768.42739983 309 772.3046875 C306.5035461 774.31277901 304.07647977 776.38148005 301.66015625 778.48461914 C251.21547105 822.17889396 185.18601973 852.79491371 120.14453125 866.6015625 C119.1385791 866.8186084 118.13262695 867.0356543 117.09619141 867.25927734 C78.86551839 875.3461933 39.50766038 878.0890346 0.51953125 875.8515625 C-0.22915222 875.80899323 -0.97783569 875.76642395 -1.74920654 875.7225647 C-25.75648334 874.31821022 -49.3839052 870.83689883 -72.85546875 865.6015625 C-73.78858887 865.39869629 -74.72170898 865.19583008 -75.68310547 864.98681641 C-120.56447746 855.09424342 -164.94258022 837.05746913 -203.85546875 812.6015625 C-204.5407666 812.17311035 -205.22606445 811.7446582 -205.93212891 811.30322266 C-227.1473352 797.97503553 -247.06131979 783.16142476 -265.85546875 766.6015625 C-266.57581299 765.97096924 -267.29615723 765.34037598 -268.03833008 764.69067383 C-274.71004841 758.77846969 -281.04469927 752.56619999 -287.33374023 746.25366211 C-289.04754108 744.5344758 -290.76665957 742.82073667 -292.48632812 741.10742188 C-298.1534979 735.44403604 -303.7160948 729.75659417 -308.85546875 723.6015625 C-309.61472656 722.70050781 -310.37398437 721.79945313 -311.15625 720.87109375 C-356.18329293 665.87689957 -388.11395478 603.08894535 -403.85546875 533.6015625 C-404.05865723 532.71919922 -404.2618457 531.83683594 -404.47119141 530.92773438 C-425.00846212 440.47063615 -413.52478405 341.57484116 -374.85546875 257.6015625 C-374.3980127 256.59770508 -373.94055664 255.59384766 -373.46923828 254.55957031 C-356.01466118 216.438726 -332.85261925 180.84673254 -304.85546875 149.6015625 C-304.3773877 149.06708496 -303.89930664 148.53260742 -303.40673828 147.98193359 C-297.73824547 141.66985645 -291.91168297 135.54278531 -285.85546875 129.6015625 C-283.23447871 126.98923689 -280.62302998 124.36796351 -278.0234375 121.734375 C-272.48049524 116.1305517 -266.91776762 110.64954677 -260.85546875 105.6015625 C-260.13101562 104.98796875 -259.4065625 104.374375 -258.66015625 103.7421875 C-242.84741252 90.55663943 -226.33851504 78.47125751 -208.85546875 67.6015625 C-207.87900391 66.99006348 -207.87900391 66.99006348 -206.8828125 66.36621094 C-202.59035037 63.68911805 -198.24564482 61.1149512 -193.85546875 58.6015625 C-193.07574707 58.15490234 -192.29602539 57.70824219 -191.49267578 57.24804688 C-152.07975117 34.84762289 -110.9330958 20.15832611 -66.56787109 11.34423828 C-60.32195909 10.09472728 -54.08764887 8.79263089 -47.85546875 7.4765625 C-46.74131592 7.24702881 -45.62716309 7.01749512 -44.47924805 6.78100586 C-39.25086094 5.67497823 -34.33138581 4.41193491 -29.32299805 2.54589844 C-19.72805213 -0.42084644 -9.95903704 -0.01542098 0 0 Z " fill="#010101" transform="translate(1929.85546875,-0.6015625)"/>
<path d="M0 0 C2.44491183 1.14294463 4.90216554 2.25438384 7.36376953 3.36083984 C32.6820835 14.87293065 56.66691351 29.93139431 78.48486328 47.16162109 C79.27763672 47.77521484 80.07041016 48.38880859 80.88720703 49.02099609 C83.45097235 51.03211832 85.97155464 53.08777827 88.48486328 55.16162109 C89.50064453 55.99048828 90.51642578 56.81935547 91.56298828 57.67333984 C100.27128244 64.92335523 108.33591081 72.79831558 116.35986328 80.78662109 C116.89370636 81.31528778 117.42754944 81.84395447 117.97756958 82.38864136 C124.95424036 89.31193738 131.3603645 96.45877527 137.48486328 104.16162109 C139.04436513 105.97670139 140.6062014 107.78978435 142.17236328 109.59912109 C183.66372601 159.45308406 208.19993031 222.95194707 218.23486328 286.47412109 C218.43354004 287.72322266 218.6322168 288.97232422 218.83691406 290.25927734 C221.93816178 310.75355535 222.89412402 331.00365854 222.85986328 351.72412109 C222.85854904 353.6707515 222.85854904 353.6707515 222.85720825 355.65670776 C222.72948405 413.17105036 211.45446882 469.04519505 186.48486328 521.16162109 C186.09717773 521.97937012 185.70949219 522.79711914 185.31005859 523.63964844 C165.9275084 564.31760493 137.19781148 605.07698358 102.67236328 634.53662109 C100.53217249 636.37572041 98.41816949 638.22367319 96.35205078 640.14599609 C32.52204567 699.43217033 -54.08869879 730.59826934 -139.51513672 739.16162109 C-140.37316895 739.24782715 -141.23120117 739.3340332 -142.11523438 739.42285156 C-146.91292972 739.87314167 -151.69942316 740.07919594 -156.51513672 740.16162109 C-157.58812012 740.18208496 -158.66110352 740.20254883 -159.76660156 740.22363281 C-205.56602592 740.96164458 -249.82690106 735.07993617 -293.51513672 721.16162109 C-294.4171582 720.87561035 -295.31917969 720.58959961 -296.24853516 720.29492188 C-360.26525045 699.70669337 -423.17969164 657.69941158 -464.51513672 604.16162109 C-465.50847527 602.95254716 -466.50624064 601.74710268 -467.50732422 600.54443359 C-475.36006914 591.08999565 -482.62913239 581.34083008 -489.51513672 571.16162109 C-489.97629883 570.48019043 -490.43746094 569.79875977 -490.91259766 569.09667969 C-516.20676027 531.44266544 -534.04664199 492.04104933 -544.57763672 447.97412109 C-549.42316462 425.53785316 -549.42316462 425.53785316 -557.51513672 404.16162109 C-557.63978529 401.37432171 -557.70404956 398.61108298 -557.72387695 395.82250977 C-557.73366074 394.95862137 -557.74344452 394.09473297 -557.75352478 393.20466614 C-557.78355731 390.32965629 -557.8049085 387.45469421 -557.82373047 384.57958984 C-557.83358821 383.09916419 -557.83358821 383.09916419 -557.8436451 381.58883095 C-557.87630293 376.3451239 -557.90071528 371.10143743 -557.92016602 365.85766602 C-557.93783492 361.5523421 -557.97240977 357.24769111 -558.02270508 352.94262695 C-558.08363304 347.72062977 -558.11374327 342.49924642 -558.1233387 337.27691078 C-558.1317885 335.30415016 -558.15033922 333.33140115 -558.18008232 331.35884666 C-558.3593204 318.77410397 -556.92288974 307.94641434 -553.01332092 295.9574585 C-550.65193652 288.71155439 -549.38479911 281.22011476 -547.98812866 273.74136353 C-540.6210342 234.53400907 -527.72900698 198.17310235 -508.51513672 163.16162109 C-508.05623047 162.32228027 -507.59732422 161.48293945 -507.12451172 160.61816406 C-496.15828138 140.67785168 -483.65946807 121.9827025 -469.51513672 104.16162109 C-468.72623047 103.15873047 -467.93732422 102.15583984 -467.12451172 101.12255859 C-461.73177004 94.39133067 -455.92351963 88.09019507 -450.03369141 81.79785156 C-448.53558922 80.1836585 -447.05743404 78.55354413 -445.58544922 76.91552734 C-441.15719445 71.99389277 -436.72828714 67.23524998 -431.64013672 62.97802734 C-429.03411034 60.75044964 -426.570247 58.39037673 -424.07763672 56.03662109 C-416.67784164 49.16376121 -408.62694367 43.16065703 -400.51513672 37.16162109 C-399.91443359 36.71431641 -399.31373047 36.26701172 -398.69482422 35.80615234 C-320.4810312 -22.22919636 -219.89290336 -45.21602332 0 0 Z " fill="#010101" transform="translate(557.51513671875,150.83837890625)"/>
<path d="M0 0 C0.77472656 0.67546875 1.54945313 1.3509375 2.34765625 2.046875 C3.13269531 2.72234375 3.91773438 3.3978125 4.7265625 4.09375 C15.5339344 13.60007391 25.46008803 23.7216603 34.34765625 35.046875 C35.26654356 36.18885836 36.18721554 37.32940729 37.109375 38.46875 C50.71178874 55.30114574 63.70235022 72.62655981 76.51074219 90.06811523 C83.67228869 99.8201551 90.94655826 109.47542287 98.34765625 119.046875 C98.82299805 119.66401367 99.29833984 120.28115234 99.78808594 120.91699219 C105.76546269 128.66792229 111.95075066 136.19509202 118.36328125 143.58984375 C120.3545626 145.88682703 122.32230369 148.20071082 124.26953125 150.53515625 C128.78143265 155.94264383 133.32612821 161.20299482 138.40112305 166.09936523 C140.20754354 167.906692 141.86874025 169.76527938 143.5234375 171.7109375 C147.57940803 176.38009498 151.90225836 180.74866899 156.28515625 185.109375 C157.04505859 185.87314453 157.80496094 186.63691406 158.58789062 187.42382812 C162.77228376 191.60107456 167.04245443 195.61017823 171.52319336 199.4675293 C174.12914314 201.72336887 176.63805475 204.07261682 179.16015625 206.421875 C183.80457222 210.7124237 188.58524424 214.77559914 193.51171875 218.7421875 C196.05004739 220.80501656 198.54624613 222.90558897 201.03222656 225.03051758 C207.68488614 230.71640644 214.49123006 236.17040305 221.40527344 241.53417969 C223.48941372 243.15727335 225.56346541 244.79271396 227.63671875 246.4296875 C236.97343456 253.78049545 246.47686553 260.80044812 256.23876953 267.57470703 C258.36734139 269.06061677 260.48223197 270.56418989 262.59375 272.07421875 C272.32936334 279.03014508 282.2275545 285.66365923 292.34765625 292.046875 C293.14123535 292.54799805 293.93481445 293.04912109 294.75244141 293.56542969 C373.93219204 343.41187007 460.18856681 381.47570291 703.97265625 418.234375 C705.64424805 418.23346863 705.64424805 418.23346863 707.34960938 418.23254395 C766.4654831 418.14603085 824.09186746 409.89109766 881.44921875 395.828125 C882.1913562 395.64651825 882.93349365 395.4649115 883.69812012 395.27780151 C887.20722409 394.41761061 890.71372324 393.54894581 894.21582031 392.66064453 C907.59360175 389.32733875 920.43123752 387.67306796 934.22265625 387.734375 C935.5389502 387.73928955 936.85524414 387.7442041 938.21142578 387.74926758 C947.61390421 387.86262749 956.24848032 388.53396227 965.34765625 391.046875 C965.98735352 391.21316406 966.62705078 391.37945313 967.28613281 391.55078125 C996.2022522 399.14917758 1020.41468489 417.86252609 1035.66015625 443.546875 C1051.3344084 470.83090834 1056.22575036 503.97436188 1048.6015625 534.6796875 C1043.86049603 551.83461527 1035.37119638 567.89676808 1023.34765625 581.046875 C1022.60128906 581.87445312 1021.85492187 582.70203125 1021.0859375 583.5546875 C967.82014664 639.72588513 853.79608523 644.91121583 777.34765625 651.046875 C776.12143555 651.15128906 774.89521484 651.25570312 773.63183594 651.36328125 C728.7025807 655.08091536 682.26576258 654.64453353 637.34765625 651.046875 C636.54996826 650.98371094 635.75228027 650.92054688 634.93041992 650.85546875 C555.35017947 644.4809251 477.1633456 628.31410791 401.27893066 603.67132568 C398.36532176 602.72925082 395.44579365 601.80585701 392.52734375 600.87890625 C336.0916282 582.73687804 280.43402728 558.32477365 228.34765625 530.046875 C227.2994873 529.48162109 226.25131836 528.91636719 225.17138672 528.33398438 C207.98882986 519.05136986 191.16592768 509.29041878 174.55273438 499.02490234 C171.53735106 497.16394594 168.51437349 495.31613178 165.48828125 493.47265625 C155.55049206 487.4007413 145.81023857 481.1269283 136.29248047 474.41503906 C134.30851383 473.0193387 132.31531744 471.63767893 130.3203125 470.2578125 C114.39484924 459.19412345 99.0390047 447.37866655 84.05859375 435.0703125 C80.43495604 432.09965089 76.73959094 429.22809328 73.03515625 426.359375 C66.84718907 421.54786338 61.09517647 416.37924528 55.34765625 411.046875 C51.67268886 407.75913082 47.94072053 404.54128115 44.1640625 401.37109375 C37.20297175 395.50478833 30.59441433 389.47616253 24.26171875 382.93359375 C22.18269278 380.82079025 20.01394633 378.87616631 17.75952148 376.95214844 C12.9140442 372.7302096 8.38110941 368.22415906 3.84375 363.67578125 C2.96163345 362.79462143 2.07951691 361.91346161 1.17066956 361.00559998 C-1.15467184 358.6811075 -3.47757993 356.35421593 -5.79968262 354.02648926 C-7.21379199 352.61042822 -8.62983496 351.19633179 -10.04663086 349.78295898 C-12.79421095 347.04159244 -15.53826481 344.29674466 -18.28125 341.55078125 C-19.11684952 340.71720596 -19.95244904 339.88363068 -20.81336975 339.02479553 C-25.06857432 334.75270855 -29.18366556 330.41816658 -33.10455322 325.83621216 C-35.91643825 322.58550718 -38.88815262 319.48267608 -41.83984375 316.359375 C-43.15661445 314.95997825 -44.47301557 313.56023368 -45.7890625 312.16015625 C-46.43794434 311.47002441 -47.08682617 310.77989258 -47.75537109 310.06884766 C-54.25822973 303.13748662 -60.73869367 296.18467703 -66.953125 288.9921875 C-68.94640803 286.7102221 -70.98727402 284.47458926 -73.02734375 282.234375 C-76.90585102 277.93727673 -80.58100343 273.50928746 -84.21875 269.0078125 C-86.4038757 266.34918444 -88.63634125 263.7463911 -90.89672852 261.15234375 C-97.59712011 253.45129371 -103.79477239 245.43190222 -109.94628906 237.28955078 C-112.89692515 233.41082395 -115.90242261 229.57501778 -118.90234375 225.734375 C-138.55075439 200.50106217 -157.60893021 174.33228491 -172.65234375 146.046875 C-173.2246875 145.00660156 -173.79703125 143.96632813 -174.38671875 142.89453125 C-187.65167013 117.90782828 -188.81707558 86.83046855 -180.70263672 60.06420898 C-170.65974539 29.20109457 -148.25866469 5.8128726 -119.65234375 -8.953125 C-80.87234627 -28.5648389 -34.24196482 -28.72984365 0 0 Z " fill="#010101" transform="translate(1015.65234375,925.953125)"/>
<path d="M0 0 C1.36162766 0.00040787 1.36162766 0.00040787 2.75076294 0.00082397 C102.88239931 0.13742026 204.20547709 24.26624336 319 104.1875 C320.06342682 105.06555885 321.12725264 105.94313462 322.19140625 106.8203125 C330.48342174 113.74369775 338.2228591 121.19754122 345.875 128.8125 C346.36109741 129.29342102 346.84719482 129.77434204 347.34802246 130.26983643 C354.02796431 136.89358973 360.16450192 143.80628094 366 151.1875 C366.97687877 152.39142557 367.95459351 153.59467392 368.93359375 154.796875 C396.10182942 188.68611743 417.92518169 230.44767818 422 274.1875 C422.13277344 275.445625 422.26554687 276.70375 422.40234375 278 C425.16486347 308.19895075 418.40705403 339.38800517 399.04272461 363.17553711 C394.14041171 369.05206546 388.97976471 374.3833412 383 379.1875 C382.34902344 379.72503906 381.69804688 380.26257812 381.02734375 380.81640625 C376.61037136 384.25808112 376.61037136 384.25808112 373.98583984 383.95458984 C370.66219897 382.67073447 368.24087461 380.16388062 365.625 377.8125 C360.85578925 373.6194019 356.02693629 369.56797943 351 365.6875 C346.22162186 361.97722205 341.53611451 358.18132399 336.9375 354.25 C336.43283203 353.82074219 335.92816406 353.39148437 335.40820312 352.94921875 C324.8047397 343.81148937 314.74383435 334.09786987 304.86816406 324.18603516 C303.1085652 322.42101456 301.34359603 320.66148867 299.578125 318.90234375 C293.83738131 313.16497076 288.25304675 307.3806642 283 301.1875 C281.54554483 299.57981627 280.08779105 297.97510285 278.625 296.375 C274.3758121 291.6616151 270.35238793 286.79551623 266.36181641 281.86279297 C263.59264947 278.4561914 260.79326934 275.07433907 258 271.6875 C256.7850428 270.21233302 255.57019685 268.73707439 254.35546875 267.26171875 C252.40109257 264.88819683 250.44549663 262.51571443 248.48828125 260.14453125 C243.02499231 253.50423212 237.70366605 246.75920631 232.40722656 239.98583984 C229.65117952 236.46379916 226.88538855 232.94940616 224.12109375 229.43383789 C221.85017301 226.54492756 219.5820305 223.65393496 217.3203125 220.7578125 C211.90380236 213.82971814 206.40929723 206.97232293 200.84521484 200.16210938 C197.25323879 195.75731924 193.73537656 191.30187676 190.25 186.8125 C186.41440239 181.88366775 182.39919012 177.19973936 178.16796875 172.6015625 C175.91447008 170.09226128 173.79838854 167.50508374 171.6875 164.875 C143.76154787 130.42974894 111.12837594 107.48521592 67 100.1875 C65.92878906 99.99414062 64.85757812 99.80078125 63.75390625 99.6015625 C23.5156258 95.16320899 -15.62634542 106.46621001 -47.4375 131.3125 C-48.96971629 132.5906432 -50.49077184 133.88229229 -52 135.1875 C-52.81597656 135.88230469 -53.63195312 136.57710937 -54.47265625 137.29296875 C-84.16646554 163.22342045 -103.06076481 201.96793104 -105.875 241.30859375 C-107.62325675 281.57313196 -95.74640419 320.49875622 -72 353.1875 C-71.03712422 354.53600429 -70.07494154 355.88500363 -69.11328125 357.234375 C-65.77067917 361.90631014 -62.38964921 366.54962899 -59 371.1875 C-58.42411133 371.97640625 -57.84822266 372.7653125 -57.25488281 373.578125 C-39.96664297 397.23469914 -22.3142343 420.80638202 -3.27661133 443.08886719 C0.09616954 447.05902601 3.3166547 451.12716715 6.5 455.25 C10.90483509 460.93777382 15.59508677 466.2641211 20.5078125 471.515625 C23.15697241 474.35579017 25.7136501 477.26161327 28.2578125 480.1953125 C31.07826755 483.42049653 33.96034722 486.589995 36.83203125 489.76953125 C38.64047557 491.7865169 40.4198734 493.82241596 42.1875 495.875 C50.61264037 505.52596911 59.48531504 514.76908519 68.60058594 523.76660156 C71.31915272 526.46180436 73.92574274 529.18339841 76.375 532.125 C80.18928951 536.61405326 84.55410267 540.49526507 88.88256836 544.4765625 C94.53548141 549.69655426 99.98087874 555.10152714 105.36889648 560.59375 C109.73428692 565.01761816 114.29167904 569.13319985 119 573.1875 C120.67052462 574.68320227 122.33780832 576.18254266 124 577.6875 C136.38282802 588.85080708 149.04888713 599.68937937 162 610.1875 C163.2022099 611.17140235 164.40400663 612.15580967 165.60546875 613.140625 C195.47455406 637.58476159 226.7055215 660.05737117 259 681.1875 C259.83724609 681.7355127 260.67449219 682.28352539 261.53710938 682.84814453 C285.60892405 698.53367942 310.37013304 713.17868904 335.81689453 726.51806641 C339.06982085 728.22411873 342.31421465 729.94572698 345.55859375 731.66796875 C387.23236083 753.666783 430.82361404 771.7118764 475.171875 787.5703125 C476.73585022 788.13057129 476.73585022 788.13057129 478.3314209 788.70214844 C483.4525148 790.5343739 488.57765589 792.35357014 493.7109375 794.15136719 C504.91372046 798.11113884 515.53523103 802.54900878 526 808.1875 C526 808.8475 526 809.5075 526 810.1875 C442.89587771 832.44952587 359.53989125 851.74233548 244.3125 856.4375 C242.91508575 856.43901062 242.91508575 856.43901062 241.48944092 856.44055176 C221.36958396 856.42610608 201.41165904 855.26177948 181.38366699 853.40240479 C179.04223671 853.19130794 176.70002203 852.99956696 174.35644531 852.81396484 C170.14703162 852.47739229 165.95046272 852.0594055 161.75 851.625 C160.53070801 851.52993164 159.31141602 851.43486328 158.05517578 851.33691406 C150.18982883 850.39929296 150.18982883 850.39929296 147.1484375 847.30175781 C145.5202191 844.67313274 144.26489967 842.00886557 143 839.1875 C141.81289255 836.94996088 140.61423506 834.71852474 139.40625 832.4921875 C138.76722036 831.28278524 138.13021765 830.07231007 137.49511719 828.86083984 C130.22518249 815.00886177 122.65129459 801.38171727 114.640625 787.94091797 C113.02345637 785.22686621 111.41724425 782.50656813 109.8125 779.78515625 C103.84325447 769.70162733 97.61910429 759.85541949 91 750.1875 C90.12994657 748.90512548 89.26016045 747.62256956 88.390625 746.33984375 C75.67194762 727.64040108 62.54626235 709.24984134 47.1953125 692.59375 C45.96823677 691.2487702 44.74960073 689.89549527 43.56445312 688.51342773 C38.83395121 682.9998738 33.81336609 677.8146832 28.67675781 672.67895508 C27.26080053 671.26081716 25.85301711 669.83453335 24.4453125 668.40820312 C19.04823638 662.99985178 13.51092031 657.97822305 7.51733398 653.23730469 C4.83768618 651.05533175 2.32539699 648.7461168 -0.1875 646.375 C-6.4413753 640.62072102 -13.22290328 635.66087572 -20.06152344 630.62939453 C-22.91245755 628.50878787 -25.702234 626.31531061 -28.5 624.125 C-35.77373392 618.48304197 -43.36679267 613.32705294 -51 608.1875 C-52.06976074 607.46409424 -52.06976074 607.46409424 -53.16113281 606.72607422 C-70.09948253 595.28154948 -87.42021009 584.50158369 -104.89453125 573.8984375 C-120.51429252 564.41546404 -136.07804068 554.84080331 -151.5 545.0390625 C-154.55190942 543.09971762 -157.61489923 541.17982349 -160.6875 539.2734375 C-177.27357826 528.95685244 -193.28570913 517.97209125 -208.35986328 505.53515625 C-209.93644337 504.23972277 -211.52848758 502.96317954 -213.12109375 501.6875 C-217.78320309 497.94263062 -222.19806704 494.14565279 -226.34765625 489.83984375 C-228.03194761 488.15555239 -229.79590563 486.64987909 -231.625 485.125 C-241.08698812 476.95160948 -249.50514514 467.16237082 -257 457.1875 C-257.68715088 456.28451172 -257.68715088 456.28451172 -258.38818359 455.36328125 C-307.15119925 390.98925228 -332.3840685 303.13284689 -321.48120117 222.65576172 C-317.56159875 197.51922803 -310.08603414 173.07462791 -299 150.1875 C-298.66806641 149.49769043 -298.33613281 148.80788086 -297.99414062 148.09716797 C-287.51590693 126.61881563 -273.41649584 107.46690055 -257 90.1875 C-256.49307617 89.65189453 -255.98615234 89.11628906 -255.46386719 88.56445312 C-248.08380462 80.82068192 -240.35387131 73.92446096 -231.78271484 67.52587891 C-230.01244753 66.19684503 -228.26536106 64.84138349 -226.51953125 63.48046875 C-173.69150343 22.84744459 -102.49245824 5.66289518 -37 1.1875 C-35.78957031 1.10137451 -34.57914063 1.01524902 -33.33203125 0.92651367 C-22.21916245 0.1771754 -11.135918 -0.01267526 0 0 Z " fill="#010101" transform="translate(901,767.8125)"/>
<path d="M0 0 C-6.09939763 7.31927716 -12.65284863 13.98464848 -19.89208984 20.18237305 C-21.21880842 21.32638739 -22.53677666 22.48070826 -23.84179688 23.64941406 C-28.51791679 27.83164618 -33.37747723 31.57210057 -38.5 35.1875 C-44.35234198 39.36197783 -50.14934549 43.59101243 -55.875 47.9375 C-69.2020254 58.00945266 -82.99832918 67.43576986 -96.93896484 76.63378906 C-99.27406794 78.18167308 -101.60025455 79.74245401 -103.92578125 81.3046875 C-114.70974118 88.54235867 -125.57120483 95.6282122 -136.59326172 102.49804688 C-139.04653151 104.02903853 -141.49406129 105.56893369 -143.94140625 107.109375 C-155.62442243 114.43359347 -167.49258233 121.39559208 -179.4609375 128.2421875 C-183.67295773 130.65349757 -187.86552762 133.09300287 -192.0390625 135.5703125 C-205.77533495 143.71431617 -219.76731008 151.19605255 -233.99072266 158.45263672 C-237.3004318 160.15448132 -240.58207094 161.90329729 -243.85986328 163.66552734 C-281.00949879 183.57529094 -319.77963064 200.62352964 -359 216 C-359.69339478 216.27245544 -360.38678955 216.54491089 -361.10119629 216.82562256 C-442.73262896 248.86120027 -527.389058 272.98540614 -614 287 C-614.80298523 287.13021545 -615.60597046 287.26043091 -616.43328857 287.39459229 C-652.40261495 293.19632677 -688.59365575 297.21621636 -724.9375 299.75 C-725.78391052 299.80916595 -726.63032104 299.86833191 -727.50238037 299.92929077 C-733.33264962 300.32991182 -739.16474665 300.6805546 -745 301 C-745.86386322 301.0483902 -746.72772644 301.0967804 -747.61776733 301.14663696 C-766.88323368 302.1903134 -786.15009246 302.20142438 -805.4375 302.1875 C-806.68139748 302.18709969 -806.68139748 302.18709969 -807.95042419 302.18669128 C-833.68431317 302.17630728 -859.32666487 301.92518566 -885 300 C-885.8969458 299.93447937 -886.7938916 299.86895874 -887.71801758 299.80145264 C-1080.42543116 285.70665489 -1080.42543116 285.70665489 -1125.75 233.75 C-1146.44588493 209.12197141 -1152.64769671 178.39154068 -1151 147 C-1147.99801573 117.47804733 -1132.51245582 89.25358119 -1110 70 C-1078.89796654 45.6079032 -1041.73843995 43.51424742 -1003.578125 47.1796875 C-1002.90925514 47.2430234 -1002.24038528 47.30635929 -1001.55124664 47.37161446 C-983.7511084 49.07324915 -966.05663979 51.58549672 -948.3526001 54.07202148 C-915.47113935 58.6895067 -882.56470841 63.22057023 -849.4375 65.6875 C-848.27112 65.77664169 -848.27112 65.77664169 -847.08117676 65.86758423 C-832.73067714 66.95939152 -818.39258497 67.75681355 -804 68 C-802.12489746 68.03287109 -802.12489746 68.03287109 -800.21191406 68.06640625 C-716.48919765 69.29732097 -633.61534245 56.67908916 -474.82568359 7.4765625 C-473.77461426 7.04859375 -472.72354492 6.620625 -471.640625 6.1796875 C-470.73860352 5.80569824 -469.83658203 5.43170898 -468.90722656 5.04638672 C-448.55152168 -2.28016275 -426.41415734 3.15486066 -405.79592896 6.84378052 C-398.57292972 8.1360413 -391.33927708 9.36651352 -384.10610771 10.60033226 C-382.51775551 10.87143622 -380.92950439 11.14313311 -379.34135628 11.41543007 C-350.38493216 16.37939587 -321.28973394 19.74649329 -292 22 C-290.87561523 22.09498779 -289.75123047 22.18997559 -288.59277344 22.2878418 C-226.01958763 26.98803572 -163.65262172 19.83321814 -101.69240665 11.85898209 C-93.01920085 10.74357714 -84.34355251 9.6475083 -75.66796875 8.55078125 C-72.43708205 8.14225857 -69.20620595 7.73365219 -65.9753418 7.32495117 C-65.18447457 7.22491445 -64.39360735 7.12487772 -63.57877445 7.02180958 C-58.1977287 6.34080598 -52.81712835 5.65636353 -47.43676758 4.9699707 C-39.62532186 3.97351491 -31.81305623 2.98376281 -24 2 C-23.03449219 1.87782104 -22.06898437 1.75564209 -21.07421875 1.62976074 C-18.68546051 1.32905221 -16.29610084 1.0340645 -13.90625 0.7421875 C-12.70291016 0.59378418 -11.49957031 0.44538086 -10.25976562 0.29248047 C-6.82306308 -0.01587556 -3.4486525 -0.0521359 0 0 Z " fill="#010101" transform="translate(1949,1592)"/>
<path d="M0 0 C1.09634766 0.88365234 1.09634766 0.88365234 2.21484375 1.78515625 C20.80185151 17.17088675 34.26444314 41.78608831 40 65 C40.33644531 66.31677734 40.33644531 66.31677734 40.6796875 67.66015625 C47.74064745 101.2722601 35.58146334 134.65638372 17.46826172 162.6027832 C15.3638584 165.77203991 13.19475575 168.89279205 11 172 C10.48888672 172.72364746 9.97777344 173.44729492 9.45117188 174.19287109 C2.51758551 183.96538978 -4.61446167 193.56488643 -12 203 C-12.8685854 204.11581084 -13.73707262 205.2316981 -14.60546875 206.34765625 C-20.64217815 214.08517152 -26.80441388 221.71605685 -33.0078125 229.3203125 C-35.38438052 232.23586542 -37.73045146 235.17365227 -40.0625 238.125 C-43.76277783 242.76986352 -47.62991481 247.26223646 -51.50805664 251.75830078 C-54.55729682 255.2987034 -57.55544513 258.87141061 -60.5 262.5 C-68.31013629 272.10378423 -76.41095733 281.44035442 -84.77734375 290.5625 C-86.67421764 292.64272725 -88.53392943 294.74556898 -90.375 296.875 C-127.6365894 339.5455298 -127.6365894 339.5455298 -141 344 C-140.97679688 342.7625 -140.95359375 341.525 -140.9296875 340.25 C-140.36748935 296.35562843 -147.71509898 250.47929276 -178.859375 217.31640625 C-180.43125409 215.6154495 -181.92831224 213.84456375 -183.37890625 212.0390625 C-185.98748051 208.88932131 -188.9626648 206.31339261 -192.1875 203.8125 C-193.09109253 203.11084717 -193.09109253 203.11084717 -194.01293945 202.39501953 C-220.19244642 182.51546496 -250.19710652 171.95939007 -282.15014648 165.44555664 C-284 165 -284 165 -286 164 C-284.21393663 159.95091316 -281.60481219 156.48622093 -279 152.9375 C-278.51305664 152.27355225 -278.02611328 151.60960449 -277.52441406 150.92553711 C-273.04795911 144.91129674 -268.13544765 139.46248993 -263 134 C-261.80513248 132.65232971 -260.61698533 131.29865318 -259.4375 129.9375 C-253.56824711 123.19264762 -247.54630072 116.58594277 -241.5 110 C-240.55852683 108.97271758 -239.61711986 107.94537448 -238.67578125 106.91796875 C-237.05150719 105.1466801 -235.42462086 103.37777583 -233.79296875 101.61328125 C-218.54300601 84.94866519 -204.90362934 66.86225211 -191.60766602 48.62573242 C-165.52254812 12.8593125 -137.77199791 -16.37569561 -92.49609375 -24.47265625 C-60.04463186 -29.3675695 -24.93132608 -22.16613428 0 0 Z " fill="#010101" transform="translate(2245,1110)"/>
<path d="M0 0 C0.09532887 6.25263596 -0.22497761 12.27775101 -0.953125 18.484375 C-1.05325897 19.37028824 -1.15339294 20.25620148 -1.25656128 21.16896057 C-1.58197893 24.02999818 -1.91540221 26.89002252 -2.25 29.75 C-2.36293396 30.72754242 -2.47586792 31.70508484 -2.59222412 32.71224976 C-7.71557512 77.04977832 -7.71557512 77.04977832 -11.30810547 93.58081055 C-11.94614577 96.73386434 -12.42942015 99.85486761 -12.8515625 103.04296875 C-14.24753276 113.02684825 -16.01100152 122.94611827 -17.75 132.875 C-17.92707489 133.88822327 -18.10414978 134.90144653 -18.28659058 135.94537354 C-23.03985624 163.12131081 -28.08757598 190.18164467 -34.12744141 217.10424805 C-34.73769916 219.82889353 -35.34462407 222.55408652 -35.94677734 225.28051758 C-47.41711343 277.19758616 -47.41711343 277.19758616 -53.21240234 293.73291016 C-54.12452743 296.35845063 -54.99334824 298.99690681 -55.86328125 301.63671875 C-59.82456174 313.50793541 -64.36086822 324.82672028 -70 336 C-91.52400649 332.70408106 -112.58196783 323.2659446 -132.80834961 315.52807617 C-162.67777144 304.10930081 -192.7148398 293.29060393 -223.71484375 285.36328125 C-228.87854329 284.04039492 -234.00326221 282.60757887 -239.12109375 281.1171875 C-242.27324495 280.20185294 -245.43427744 279.32103536 -248.59765625 278.4453125 C-261.93407498 274.75068634 -275.19823208 270.87214242 -288.42138672 266.79101562 C-292.60806428 265.50671007 -296.8036566 264.25230305 -301 263 C-301 262.34 -301 261.68 -301 261 C-283.79080077 251.11017947 -266.28993361 241.99648177 -248.43945312 233.31933594 C-233.61288256 226.06555796 -219.34256329 217.9563962 -206.1875 207.9375 C-205.39746582 207.34517578 -204.60743164 206.75285156 -203.79345703 206.14257812 C-201.52286442 204.43628301 -199.26081241 202.71921922 -197 201 C-195.83754244 200.12589918 -194.67481063 199.25216286 -193.51171875 198.37890625 C-175.21998458 184.50634571 -158.37138843 169.40363117 -142.07919312 153.25341797 C-140.67214821 151.8592178 -139.26154904 150.46860747 -137.85083008 149.078125 C-131.79606766 143.03051496 -126.3353403 136.68470078 -121 130 C-120.1249213 128.96069623 -119.24481086 127.92556245 -118.35546875 126.8984375 C-111.29315156 118.67815478 -105.12946092 109.92561106 -99 101 C-98.566875 100.37754395 -98.13375 99.75508789 -97.6875 99.11376953 C-85.91873124 82.19156726 -75.83257697 64.24713896 -68.01171875 45.171875 C-62.0688269 30.68344682 -57.2497319 20.04437123 -42.39038086 13.39550781 C-36.47677744 10.96142146 -30.42045484 8.96835749 -24.34570312 6.97802734 C-22.10568877 6.24366908 -19.86910899 5.49950096 -17.6328125 4.75390625 C-16.19550119 4.27807548 -14.75800762 3.80279483 -13.3203125 3.328125 C-12.65879181 3.10835999 -11.99727112 2.88859497 -11.31570435 2.66217041 C-3.16269248 0 -3.16269248 0 0 0 Z " fill="#FEFEFE" transform="translate(1801,1896)"/>
</svg>
