<?xml version="1.0" encoding="UTF-8"?>
<svg version="1.1" xmlns="http://www.w3.org/2000/svg" width="3817" height="2647">
<path d="M0 0 C6.83749756 6.61994082 13.32061831 13.32050871 19.22460938 20.80322266 C21.05541159 23.08634072 22.97017298 25.21263307 24.96679688 27.35009766 C68.3611637 75.83445979 91.20269241 144.8331324 88.21679688 209.28759766 C86.25933833 238.8533778 77.20043688 267.28293379 63.21679688 293.28759766 C62.87567871 293.9350293 62.53456055 294.58246094 62.18310547 295.24951172 C54.16526154 310.41880936 44.33343788 324.23025492 33.21679688 337.28759766 C32.36415776 338.32447369 31.51264992 339.36228074 30.66210938 340.40087891 C19.64325821 353.71556788 7.46710095 366.63077399 -6.19335938 377.26025391 C-8.68159836 379.2080609 -11.06644657 381.23670548 -13.45336914 383.30541992 C-20.03209921 388.9922514 -26.89882497 394.09626482 -34.03466797 399.05810547 C-35.75472664 400.26757426 -37.45296541 401.50223961 -39.14648438 402.74853516 C-48.35687281 409.50638216 -57.96283449 415.46088282 -67.78320312 421.28759766 C-68.69924316 421.83464355 -69.6152832 422.38168945 -70.55908203 422.9453125 C-146.77739049 468.3888266 -232.36449388 496.33920465 -350.78320312 514.28759766 C-351.80236816 514.39942383 -352.8215332 514.51125 -353.87158203 514.62646484 C-391.30494647 518.57994695 -432.30500207 520.27677365 -469.16210938 511.90869141 C-470.21261475 511.6724707 -471.26312012 511.43625 -472.34545898 511.19287109 C-474.26255445 510.74358766 -476.1729425 510.26331289 -478.07055664 509.73779297 C-485.14017135 508.04926464 -491.56344455 508.40673596 -498.75170898 509.0480957 C-500.38397226 509.18652043 -500.38397226 509.18652043 -502.04921055 509.32774162 C-515.41255503 510.48024162 -528.761093 511.79572733 -542.10875773 513.11546373 C-545.7630522 513.47622559 -549.41761904 513.83420756 -553.07215881 514.19247437 C-559.9504346 514.86714591 -566.82850326 515.54390244 -573.70648056 516.22160947 C-586.08086457 517.44085014 -598.45555178 518.65700551 -610.83040148 519.87150991 C-615.16445064 520.29695906 -619.4983872 520.72353284 -623.83223426 521.15103555 C-625.8660275 521.35153054 -627.89986223 521.55159828 -629.93371582 521.7514801 C-632.41312405 521.9951771 -634.8924625 522.23958534 -637.37171936 522.4848175 C-638.45742218 522.59131119 -639.543125 522.69780487 -640.66172791 522.80752563 C-641.60820159 522.90079447 -642.55467527 522.9940633 -643.52982998 523.09015846 C-645.78320312 523.28759766 -645.78320312 523.28759766 -647.78320312 523.28759766 C-642.27586802 501.57296211 -621.32142128 487.18247259 -603.93945312 474.95336914 C-578.34297874 457.17576437 -578.34297874 457.17576437 -565.0534668 430.13989258 C-564.53695255 424.6887309 -565.27277691 419.38325721 -565.97070312 413.97509766 C-566.09767578 412.82203125 -566.22464844 411.66896484 -566.35546875 410.48095703 C-567.13315601 404.06224643 -567.76411253 399.10336174 -572.69726562 394.50244141 C-578.18178219 391.30827539 -585.25209455 393.18262304 -591.09570312 394.60009766 C-631.2320592 407.03671503 -666.99540569 440.14850288 -695.86645508 469.4074707 C-726.40785327 500.2368159 -726.40785327 500.2368159 -740.97070312 500.53759766 C-747.10755372 500.49247375 -752.96279327 499.26401656 -758.95117188 498.04150391 C-780.25320756 493.85058353 -801.03776575 498.65524568 -821.89257812 503.17822266 C-823.13523437 503.44119141 -824.37789062 503.70416016 -825.65820312 503.97509766 C-826.7075 504.20583984 -827.75679687 504.43658203 -828.83789062 504.67431641 C-842.72821156 506.83350491 -856.88889822 506.5300209 -870.90820312 506.53759766 C-872.03436035 506.5382724 -873.16051758 506.53894714 -874.32080078 506.53964233 C-894.28122406 506.52075379 -913.96527964 505.6685719 -933.78320312 503.28759766 C-934.49037476 503.20274109 -935.19754639 503.11788452 -935.92614746 503.03045654 C-1001.21315614 495.08765257 -1064.81864314 478.04990616 -1128.40492439 461.78470612 C-1171.77332646 450.57529287 -1171.77332646 450.57529287 -1215.40820312 440.47509766 C-1216.25719177 440.28956329 -1217.10618042 440.10402893 -1217.980896 439.91287231 C-1220.27975298 439.41441919 -1222.58107093 438.9310937 -1224.88476562 438.45556641 C-1226.11533691 438.20057373 -1227.3459082 437.94558105 -1228.61376953 437.68286133 C-1233.75564373 437.04161234 -1236.85037816 438.01828619 -1241.04882812 440.95556641 C-1241.84796631 441.51211914 -1242.64710449 442.06867187 -1243.47045898 442.64208984 C-1244.31616455 443.24698242 -1245.16187012 443.851875 -1246.03320312 444.47509766 C-1246.91564697 445.09932617 -1247.79809082 445.72355469 -1248.70727539 446.36669922 C-1256.03803413 451.61658298 -1262.99615821 457.24411881 -1269.89648438 463.04150391 C-1274.85972538 467.21101591 -1279.96645851 471.1671199 -1285.14990234 475.05908203 C-1286.27166421 475.90283476 -1287.39032383 476.75072289 -1288.50634766 477.60205078 C-1324.13535394 504.7609862 -1362.52421916 520.81175549 -1408.10351562 515.79150391 C-1412.70974365 515.16669919 -1417.24659031 514.29551338 -1421.78320312 513.28759766 C-1422.91749756 513.03816406 -1422.91749756 513.03816406 -1424.07470703 512.78369141 C-1443.21423855 508.43654229 -1461.50789889 501.56579476 -1478.78320312 492.28759766 C-1480.28753906 491.51802734 -1480.28753906 491.51802734 -1481.82226562 490.73291016 C-1517.26817861 472.26109635 -1539.81995486 439.5588128 -1551.78320312 402.28759766 C-1561.02909903 372.7433696 -1565.78320312 339.30790145 -1565.78320312 308.28759766 C-1656.33269294 305.45419691 -1746.85919557 303.92143921 -2305.78320312 343.28759766 C-2307.00998779 343.44508484 -2308.23677246 343.60257202 -2309.50073242 343.76483154 C-2312.91308641 344.2049585 -2316.32484633 344.64935822 -2319.73632812 345.09619141 C-2320.66427185 345.21672379 -2321.59221558 345.33725616 -2322.54827881 345.46144104 C-2341.44931728 347.96457192 -2360.26817808 350.94445652 -2379.04101562 354.26806641 C-2380.11435213 354.45742956 -2381.18768864 354.64679272 -2382.29355049 354.84189415 C-2407.76218979 359.34937307 -2433.11244347 364.43281176 -2458.46624756 369.54013062 C-2471.72506259 372.20971456 -2484.98947423 374.85122872 -2498.25585938 377.48291016 C-2498.90597866 377.61189595 -2499.55609795 377.74088174 -2500.22591782 377.8737762 C-2634.79349459 404.5624384 -2634.79349459 404.5624384 -2695.34570312 404.47509766 C-2696.52016495 404.47419128 -2696.52016495 404.47419128 -2697.71835327 404.4732666 C-2745.46794783 404.37383501 -2792.99496096 395.10347705 -2830.78320312 364.28759766 C-2831.40066406 363.78969727 -2832.018125 363.29179687 -2832.65429688 362.77880859 C-2856.62330092 343.33249717 -2871.63279626 318.78301201 -2886.35595703 292.06665039 C-2893.48807452 278.2665101 -2893.48807452 278.2665101 -2902.25454712 265.5405426 C-2908.89958678 256.73106635 -2907.82763557 246.09323026 -2907.89648438 235.56884766 C-2907.92345034 233.42581696 -2907.95081683 231.28279127 -2907.9785614 229.13977051 C-2908.02791949 224.64772943 -2908.05110562 220.15635515 -2908.05981445 215.6640625 C-2908.07267159 211.10624707 -2908.13472116 206.55357278 -2908.24438477 201.99707031 C-2909.36251763 154.72036105 -2909.36251763 154.72036105 -2893.60061646 134.65100098 C-2891.07851216 131.37120239 -2889.09679859 127.87735667 -2887.09960938 124.26416016 C-2885.84976028 122.14611458 -2884.59854846 120.0288723 -2883.34570312 117.91259766 C-2882.71728516 116.84267578 -2882.08886719 115.77275391 -2881.44140625 114.67041016 C-2875.32448293 104.3312413 -2868.79869909 94.31225729 -2861.47070312 84.78759766 C-2860.91584229 84.06620605 -2860.36098145 83.34481445 -2859.78930664 82.6015625 C-2805.53854445 12.87604355 -2705.28669745 3.10681835 -2363.37475586 -49.60571289 C-2293.99594737 -58.24285797 -2224.49866043 -65.5755653 -2154.89056396 -72.09913635 C-2146.20642773 -72.91330678 -2137.52277617 -73.72847438 -2128.84423828 -74.60058594 C-2127.82609968 -74.70246924 -2127.82609968 -74.70246924 -2126.78739262 -74.80641079 C-2123.83374491 -75.10237179 -2120.88051888 -75.40154605 -2117.92802429 -75.70881653 C-2095.79277346 -77.94242613 -2073.64751087 -79.06544148 -2051.41196327 -79.56815413 C-2048.24482421 -79.64093181 -2045.07781933 -79.71890753 -2041.9107997 -79.79668497 C-2030.05621766 -80.08759307 -2018.20121487 -80.35950529 -2006.34616834 -80.63069236 C-2000.64383432 -80.76146479 -1994.94153173 -80.89359254 -1989.23922522 -81.02555793 C-1946.3149561 -82.01857131 -1903.39005655 -82.98332958 -1860.46505618 -83.94412661 C-1850.37603698 -84.16995122 -1840.28702591 -84.39613801 -1830.19801707 -84.62242508 C-1798.62222292 -85.33063518 -1767.04641665 -86.03830145 -1735.47056484 -86.74393654 C-1733.50695451 -86.78781928 -1731.54334418 -86.83170204 -1729.57973385 -86.8755848 C-1727.61229466 -86.91955257 -1725.64485546 -86.96352027 -1723.67741627 -87.00748789 C-1719.73245392 -87.0956485 -1715.7874916 -87.18381021 -1711.8425293 -87.27197266 C-1710.37546222 -87.30475796 -1710.37546222 -87.30475796 -1708.87875742 -87.33820559 C-1677.0517032 -88.04948378 -1645.2247252 -88.76410347 -1613.39779005 -89.48068872 C-1579.54156826 -90.24295131 -1545.68528181 -91.00227487 -1511.82891899 -91.75824869 C-1508.10822118 -91.8413383 -1504.38752362 -91.92443956 -1500.66682625 -92.00754929 C-1499.75105688 -92.02800354 -1498.83528752 -92.0484578 -1497.89176756 -92.06953188 C-1483.25540091 -92.39651084 -1468.61909441 -92.7261097 -1453.98280859 -93.05668491 C-1439.27548468 -93.38879625 -1424.56809526 -93.71787562 -1409.86063682 -94.04397561 C-1401.91857369 -94.22014763 -1393.97654403 -94.39758483 -1386.03459167 -94.57868767 C-1371.0016702 -94.92081503 -1355.96897195 -95.2477539 -1340.9345017 -95.51587977 C-1334.61581718 -95.63060496 -1328.29956694 -95.77539028 -1321.98268182 -95.96463455 C-1318.61183938 -96.05994917 -1315.24091298 -96.12724803 -1311.86924905 -96.18568926 C-1310.41897312 -96.21687608 -1308.96888294 -96.26007443 -1307.5194224 -96.3178416 C-1292.39793065 -96.91228633 -1281.26451059 -90.23348659 -1269.78320312 -80.71240234 C-1268.0969537 -79.06555127 -1266.43039378 -77.39832005 -1264.78320312 -75.71240234 C-1263.99300781 -74.94541016 -1263.2028125 -74.17841797 -1262.38867188 -73.38818359 C-1257.54231501 -68.65143739 -1253.12932063 -63.81365581 -1248.96679688 -58.47021484 C-1237.89756489 -44.49011148 -1225.67077186 -31.52069464 -1213.09570312 -18.89990234 C-1212.20439697 -18.00392334 -1211.31309082 -17.10794434 -1210.39477539 -16.18481445 C-1205.35095409 -11.15319783 -1200.2071278 -6.33015596 -1194.78320312 -1.71240234 C-1193.66524621 -0.73932727 -1192.54803009 0.23459968 -1191.43164062 1.20947266 C-1183.96094267 7.67979182 -1176.32846133 13.88625357 -1168.515625 19.9375 C-1166.80868926 21.26773599 -1165.11448367 22.61253131 -1163.42382812 23.96337891 C-1121.53932582 57.38587436 -1074.97333714 85.12918174 -1027.78320312 110.28759766 C-1026.98994629 110.71314941 -1026.19668945 111.13870117 -1025.37939453 111.57714844 C-974.28812875 138.97934339 -921.09334187 162.06877336 -866.78320312 182.28759766 C-866.03077332 182.56798889 -865.27834351 182.84838013 -864.50311279 183.13726807 C-773.77739716 216.89550201 -680.09673152 242.36535115 -584.78320312 259.28759766 C-583.81223694 259.46013062 -582.84127075 259.63266357 -581.84088135 259.8104248 C-524.09756436 270.0227827 -465.57889571 277.34815184 -406.98013306 280.18045044 C-405.42918883 280.25609207 -403.87839778 280.33490649 -402.32772827 280.41598511 C-383.5545498 281.38176283 -364.79297241 281.4752508 -346.00024414 281.47290039 C-342.56562041 281.47281901 -339.13112974 281.47979987 -335.6965332 281.4934082 C-315.63487639 281.57155711 -295.7575828 281.42299842 -275.78320312 279.28759766 C-275.07449066 279.21189545 -274.3657782 279.13619324 -273.6355896 279.05819702 C-269.93851288 278.6459422 -266.26753204 278.13223224 -262.59570312 277.53759766 C-261.53657715 277.3691333 -260.47745117 277.20066895 -259.38623047 277.02709961 C-223.68939726 271.05990746 -188.44266477 258.16661386 -160.78320312 234.28759766 C-159.54183594 233.24539063 -159.54183594 233.24539063 -158.27539062 232.18212891 C-134.44608987 211.59565349 -118.44615449 180.73779006 -115.78320312 149.28759766 C-113.70898718 111.98778392 -124.52133692 78.09807335 -149.34570312 50.03759766 C-150.8186278 48.44845594 -152.29742354 46.86472716 -153.78320312 45.28759766 C-154.38261719 44.62373047 -154.98203125 43.95986328 -155.59960938 43.27587891 C-171.30691566 26.55082059 -193.42472052 14.80013614 -215.78320312 10.28759766 C-216.48461426 10.14418945 -217.18602539 10.00078125 -217.90869141 9.85302734 C-239.50536938 5.6218819 -261.79041644 4.37655835 -283.73632812 3.28759766 C-284.56612686 3.245632 -285.3959256 3.20366634 -286.25086975 3.160429 C-304.44349893 2.24455136 -322.64349567 1.61376615 -340.84921265 1.02664185 C-350.3237372 0.72035891 -359.79759285 0.39402496 -369.27148438 0.06884766 C-370.22496073 0.03615847 -371.17843708 0.00346928 -372.16080666 -0.03021049 C-514.82122962 -4.92825728 -514.82122962 -4.92825728 -578.78320312 -16.71240234 C-579.85779785 -16.90946777 -580.93239258 -17.1065332 -582.03955078 -17.30957031 C-596.95716451 -20.09719348 -611.38509338 -23.92233714 -625.78320312 -28.71240234 C-626.4931543 -28.94507812 -627.20310547 -29.17775391 -627.93457031 -29.41748047 C-637.13171116 -32.47862521 -645.88721868 -36.4808415 -654.65820312 -40.58740234 C-655.70476074 -41.06910889 -656.75131836 -41.55081543 -657.82958984 -42.04711914 C-666.69226193 -46.28961784 -673.92201679 -51.69532425 -680.78320312 -58.71240234 C-675.8027622 -60.5191948 -670.83742142 -61.59968914 -665.65429688 -62.61083984 C-663.69818417 -63.00101134 -661.74213327 -63.39149275 -659.78613281 -63.78222656 C-658.72664429 -63.99264587 -657.66715576 -64.20306519 -656.57556152 -64.41986084 C-632.35855271 -69.23850192 -608.21981669 -74.39431476 -584.08904743 -79.62543201 C-398.99973657 -119.745806 -398.99973657 -119.745806 0 0 Z " fill="#000000" transform="translate(2906.783203125,2123.71240234375)"/>
<path d="M0 0 C0.6305127 0.20818359 1.26102539 0.41636719 1.91064453 0.63085938 C19.63355947 6.53395685 36.35855498 15.39597276 51 27 C52.53914063 28.2065625 52.53914063 28.2065625 54.109375 29.4375 C67.69126726 40.38435265 80.47875787 53.08167784 91 67 C91.91351721 68.17360173 92.82762186 69.34674636 93.7421875 70.51953125 C143.66188025 135.15291575 172.32252542 216.86393658 195.3125 346.0625 C195.43473938 347.15049393 195.43473938 347.15049393 195.55944824 348.26046753 C201.44022581 401.42807047 202.16509113 460.88476819 172 507 C170 506 170 506 169.217453 504.0796814 C168.96546646 503.230159 168.71347992 502.3806366 168.45385742 501.50537109 C168.16056046 500.53047729 167.86726349 499.5555835 167.56507874 498.55114746 C167.24840744 497.46950317 166.93173615 496.38785889 166.60546875 495.2734375 C166.26627914 494.13749146 165.92708954 493.00154541 165.57762146 491.83117676 C164.63838269 488.67980036 163.70624508 485.52647749 162.77698517 482.37215424 C161.78140235 478.99915599 160.77658657 475.62890923 159.77294922 472.25830078 C157.39086138 464.25108938 155.02285147 456.23974654 152.65763092 448.22753906 C151.79233128 445.29658083 150.9265032 442.36577882 150.06066895 439.43497849 C148.33806815 433.60404714 146.61588242 427.77299321 144.89378357 421.9419136 C144.02343871 418.99498211 143.15299849 416.04807878 142.28253937 413.10118103 C141.84283725 411.612515 141.40317583 410.12383695 140.96355438 408.63514709 C125.82012467 357.35596125 110.34512552 306.18905396 94.04425049 255.26422119 C93.01297667 252.04056376 91.98450259 248.81602419 90.95654297 245.59130859 C81.99865764 217.52045802 72.94677736 189.46377695 61.125 162.4375 C60.79193848 161.66390137 60.45887695 160.89030273 60.11572266 160.09326172 C56.3954264 151.91895951 50.85746522 146.44601016 43.6875 141.1875 C42.99599854 140.67687012 42.30449707 140.16624023 41.59204102 139.64013672 C26.79529104 128.91003768 11.45391842 121.28026366 -6.125 116.25 C-6.81650146 116.05108154 -7.50800293 115.85216309 -8.22045898 115.6472168 C-41.20296285 106.70846357 -77.50303638 111.74282576 -107.07421875 128.625 C-141.89479427 149.33790185 -163.63615631 182.48932297 -173.60498047 221.35888672 C-195.08758907 308.83026772 -153.51053255 407.82293539 -126.46661377 489.49485779 C-89.72663802 600.55230938 -89.72663802 600.55230938 -87 630 C-86.90589844 630.76054688 -86.81179688 631.52109375 -86.71484375 632.3046875 C-84.91427867 657.51259864 -109.51353926 685.41743293 -123 705 C-123.68094727 705.9904834 -124.36189453 706.9809668 -125.06347656 708.00146484 C-133.71318681 720.54511574 -142.65058436 732.88169313 -151.60449219 745.20898438 C-169.37076528 769.68216057 -186.83458632 794.4332252 -203 820 C-203.51804199 820.81823242 -204.03608398 821.63646484 -204.56982422 822.47949219 C-211.63137607 833.66814276 -218.4497025 844.94885421 -224.71240234 856.60546875 C-225.6031722 858.2620237 -226.49971758 859.91548121 -227.40087891 861.56640625 C-239.52701068 883.81856659 -249.45470689 906.80696352 -257 931 C-255.95142822 930.93868896 -254.90285645 930.87737793 -253.82250977 930.81420898 C-237.67622456 929.91721183 -221.51645785 929.53221758 -205.35230637 929.12361908 C-198.6600684 928.95423762 -191.96790679 928.7818374 -185.27574348 928.60953522 C-183.54542415 928.56503351 -181.8151016 928.52065656 -180.08477592 928.47640228 C-168.49839794 928.17972296 -156.91331183 927.85405969 -145.32863235 927.49731255 C-72.52990717 925.26106983 0.40474909 924.02505898 73 931 C73.71466431 931.0681189 74.42932861 931.13623779 75.16564941 931.2064209 C142.28893612 937.66505826 218.11221616 951.43357395 263.34545898 1006.07080078 C290.13190634 1039.5867522 305.05523665 1080.31012906 300.3125 1123.375 C295.9714807 1157.76798734 281.27463896 1189.50884665 262 1218 C261.43490723 1218.83547363 260.86981445 1219.67094727 260.28759766 1220.53173828 C252.92439608 1231.34777506 245.24492717 1241.84153055 237 1252 C236.25492188 1252.92683594 235.50984375 1253.85367187 234.7421875 1254.80859375 C225.82310887 1265.82157793 216.53100525 1276.51415816 207 1287 C205.49913192 1288.66588499 203.99914151 1290.33256109 202.5 1292 C201.38044922 1293.24330078 201.38044922 1293.24330078 200.23828125 1294.51171875 C198.77560745 1296.13776274 197.31459667 1297.76530462 195.85546875 1299.39453125 C191.6473188 1304.08794534 187.40348166 1308.7457895 183.125 1313.375 C182.36485596 1314.19810669 182.36485596 1314.19810669 181.58935547 1315.0378418 C179.09945759 1317.73279474 176.60571493 1320.42402018 174.10546875 1323.109375 C168.97612667 1328.63663723 164.044458 1334.27399677 159.31640625 1340.15234375 C156.28957534 1343.87335511 153.15620406 1347.49907166 150.03100586 1351.13745117 C146.29523649 1355.53685889 142.96463653 1360.15436614 139.75390625 1364.953125 C137.73317446 1367.31139551 137.00276538 1367.56468985 134 1368 C131.80297852 1367.70556641 131.80297852 1367.70556641 129.37890625 1367.1015625 C128.45891846 1366.8744458 127.53893066 1366.6473291 126.59106445 1366.41333008 C125.59163818 1366.15318115 124.59221191 1365.89303223 123.5625 1365.625 C121.97924927 1365.21834106 121.97924927 1365.21834106 120.36401367 1364.8034668 C59.10903437 1348.74720354 2.35564302 1321.72129731 -50.25 1286.6875 C-51.2694873 1286.00942795 -51.2694873 1286.00942795 -52.30957031 1285.31765747 C-62.07156094 1278.80793518 -71.59918656 1272.02038501 -81 1265 C-81.82902832 1264.38116943 -82.65805664 1263.76233887 -83.51220703 1263.12475586 C-85.4946472 1261.63413894 -87.46890454 1260.13384072 -89.4375 1258.625 C-90.13721924 1258.08883057 -90.83693848 1257.55266113 -91.55786133 1257.00024414 C-107.08372693 1245.04454394 -122.12176586 1232.48128645 -136.5546875 1219.2265625 C-138.67272193 1217.2980008 -140.82229717 1215.42280484 -143 1213.5625 C-146.833568 1210.23955069 -150.37948112 1206.64891708 -153.94018555 1203.04052734 C-156.48191946 1200.47730905 -159.05676322 1198.01836944 -161.8125 1195.6875 C-170.19794222 1188.51482835 -178.0564693 1180.47005277 -185.171875 1172.04296875 C-187.6220868 1169.30480471 -190.25252197 1166.75847738 -192.875 1164.1875 C-197.46834841 1159.66703942 -201.58801968 1154.95608098 -205.59765625 1149.90234375 C-208.39118341 1146.52739956 -211.36200518 1143.36542218 -214.375 1140.1875 C-219.21824393 1135.05758212 -223.68823438 1129.76056778 -227.98486328 1124.16723633 C-230.96154903 1120.29603876 -234.05257876 1116.56500802 -237.25 1112.875 C-243.98580079 1105.04363922 -250.05912464 1096.71201399 -256.20263672 1088.41455078 C-257.81954754 1086.24241711 -259.45254357 1084.08440046 -261.09765625 1081.93359375 C-274.32233796 1064.61482249 -286.29815284 1046.37208091 -298 1028 C-298.51739746 1027.18805176 -299.03479492 1026.37610352 -299.56787109 1025.53955078 C-306.41864954 1014.73992649 -312.89016477 1003.75351388 -319.1875 992.625 C-329.48244906 974.44940945 -340.75197993 958.36239036 -355 943 C-355.80630859 942.11248047 -355.80630859 942.11248047 -356.62890625 941.20703125 C-379.13666103 917.45824739 -414.33319017 900.72737787 -447.03125 899.6640625 C-483.08018427 899.22575574 -514.00342766 908.425179 -541 933 C-542.24648438 934.00437876 -543.49583961 935.00522278 -544.75 936 C-549.47455725 940.08610357 -553.19902101 945.07373118 -557 950 C-557.78375 950.99515625 -558.5675 951.9903125 -559.375 953.015625 C-571.6508651 969.06163379 -580.40911411 987.35155708 -585 1007 C-585.26296875 1008.07378906 -585.5259375 1009.14757813 -585.796875 1010.25390625 C-589.22044925 1027.62623233 -587.7906647 1046.80123236 -584 1064 C-583.80664062 1064.8780127 -583.61328125 1065.75602539 -583.4140625 1066.66064453 C-575.61046274 1100.9519259 -560.21420574 1132.77387395 -542.00390625 1162.68408203 C-540.45724524 1165.24338392 -538.93179366 1167.81149695 -537.41796875 1170.39013672 C-529.87839681 1183.18136555 -521.75247744 1195.49510902 -513.375 1207.75 C-505.75199039 1218.92450478 -498.17038608 1230.09298229 -491.08496094 1241.6184082 C-488.50539888 1245.80219205 -485.84904388 1249.93154736 -483.1796875 1254.05859375 C-482 1256 -482 1256 -482 1257 C-492.79004554 1258.71912536 -503.27337623 1259.36599773 -514.1875 1259.3125 C-514.96657715 1259.31067719 -515.7456543 1259.30885437 -516.54833984 1259.30697632 C-531.5046432 1259.24861267 -546.19338918 1258.18465242 -561 1256 C-562.69914551 1255.75056641 -562.69914551 1255.75056641 -564.43261719 1255.49609375 C-613.67494855 1248.00360039 -673.66429859 1232.34329702 -708.0625 1193.5 C-709.03896484 1192.40171875 -709.03896484 1192.40171875 -710.03515625 1191.28125 C-712 1189 -712 1189 -713.62890625 1186.51171875 C-717.11320709 1182.82077074 -721.2681447 1181.31189309 -725.875 1179.3125 C-735.14932021 1175.09177038 -743.00337139 1170.26266578 -751 1164 C-751.94875 1163.35289063 -752.8975 1162.70578125 -753.875 1162.0390625 C-761.04823552 1156.88329947 -764.82043602 1150.77383493 -769.2277832 1143.30981445 C-774.07953344 1135.34214679 -780.18148913 1129.58615636 -787.22241211 1123.56958008 C-792.96446421 1118.49944508 -798.0475883 1112.82753666 -803 1107 C-804.17949219 1105.61941406 -804.17949219 1105.61941406 -805.3828125 1104.2109375 C-827.42764931 1078.1211765 -844.37291223 1048.74025784 -851 1015 C-851.33837891 1013.40478516 -851.33837891 1013.40478516 -851.68359375 1011.77734375 C-855.22846145 992.04832144 -853.74229628 971.3634553 -849 952 C-848.80164551 951.17516113 -848.60329102 950.35032227 -848.39892578 949.50048828 C-838.5041343 909.75601558 -813.69045366 876.15817779 -787 846 C-786.53142578 845.46681152 -786.06285156 844.93362305 -785.58007812 844.38427734 C-781.65500243 839.9251293 -777.76559421 835.61806836 -773.2578125 831.7421875 C-768.65560295 827.76996882 -764.43803421 823.46658441 -760.1875 819.125 C-754.53375449 813.40723024 -748.89833193 808.00880028 -742.55859375 803.05859375 C-739.64043559 800.71070161 -736.91631413 798.18618126 -734.1875 795.625 C-728.34084792 790.17407165 -722.13331043 785.28743961 -715.80761719 780.40917969 C-713.39372343 778.52735976 -711.01944091 776.59869403 -708.64282227 774.67016602 C-700.11475996 767.76194641 -691.3138584 761.25736782 -682.44824219 754.79101562 C-680.01364443 753.0099816 -677.5874781 751.21808826 -675.1640625 749.421875 C-666.95309171 743.33778707 -658.69549579 737.33567814 -650.33447266 731.45947266 C-636.59551824 721.80171148 -623.1011579 711.86685119 -609.7734375 701.6484375 C-606.12553254 698.85251501 -602.44978346 696.10168972 -598.75 693.375 C-591.61153467 688.04412889 -584.80180256 682.30892101 -577.95214844 676.61572266 C-576.24935941 675.20638576 -574.53894896 673.80789513 -572.8203125 672.41796875 C-567.5161333 668.12804478 -562.37702816 663.70932642 -557.33203125 659.1171875 C-555.24176111 657.21948831 -553.13013885 655.35266585 -551 653.5 C-547.18834482 650.1801713 -543.43448295 646.79878862 -539.6875 643.40625 C-538.27822955 642.14446134 -536.86500955 640.88630299 -535.41821289 639.66772461 C-528.72563311 633.98212813 -522.58565915 627.73630779 -516.39086914 621.52124023 C-514.4420313 619.56704376 -512.48790728 617.61824853 -510.53320312 615.66992188 C-502.24250756 607.38438468 -502.24250756 607.38438468 -494.41723633 598.66235352 C-492.07848074 595.91909997 -489.59047742 593.31637491 -487.125 590.6875 C-481.82625534 584.98515128 -476.87101964 579.07285619 -472 573 C-471.0172335 571.80726658 -470.03275069 570.61594599 -469.046875 569.42578125 C-452.04351241 548.83919471 -436.61731745 526.97416725 -423 504 C-422.60280762 503.33419922 -422.20561523 502.66839844 -421.79638672 501.98242188 C-375.10963244 423.51080634 -356.47912127 339.16641598 -340.96484375 250.37109375 C-320.02502876 130.66616742 -320.02502876 130.66616742 -284 86 C-283.21625 85.01257813 -282.4325 84.02515625 -281.625 83.0078125 C-269.80475478 68.4106602 -256.2853755 54.93973946 -241 44 C-240.36884277 43.5457666 -239.73768555 43.0915332 -239.08740234 42.62353516 C-225.35587727 32.80950356 -211.14396984 24.23744264 -195.92919922 16.93212891 C-194.12272185 16.05929537 -192.32842176 15.16138408 -190.53515625 14.26171875 C-132.02726452 -14.36700217 -61.85592861 -21.04809014 0 0 Z " fill="#000000" transform="translate(2016,680)"/>
<path d="M0 0 C0.75495758 0.00093658 1.50991516 0.00187317 2.28775024 0.00283813 C93.23172035 0.24477696 185.72162206 31.99773969 250.875 96.9375 C252.27208455 98.35293276 253.66790283 99.76961642 255.0625 101.1875 C258.11122121 104.24701315 261.1750549 107.29100335 264.2421875 110.33203125 C265.80735315 111.88795899 267.3724557 113.4439502 268.9375 115 C269.71480469 115.76892578 270.49210937 116.53785156 271.29296875 117.33007812 C275.52689156 121.54621134 279.59433607 125.83664395 283.48974609 130.36743164 C285.74171288 132.97351863 288.08990039 135.47967909 290.4375 138 C295.55270059 143.54431346 300.34587984 149.2994824 305.0625 155.1875 C306.01984452 156.35367703 306.97823402 157.51899675 307.9375 158.68359375 C329.37278907 184.84781297 340.48516845 212.062453 349.69458008 244.35864258 C350.25464325 246.32245029 350.81478391 248.28623591 351.375 250.25 C351.65427338 251.22923431 351.93354675 252.20846863 352.22128296 253.21737671 C359.82548364 279.81113957 367.99012974 307.52696874 381.03907585 332.02058887 C384.27004314 338.42216979 384.69447287 344.05229628 384.75463867 351.14770508 C384.79165642 352.89637627 384.79165642 352.89637627 384.829422 354.68037415 C384.90288169 358.52262851 384.94497708 362.36424784 384.98046875 366.20703125 C384.99538078 367.54525261 385.0105891 368.8834707 385.02608681 370.22168541 C385.09684221 376.52744916 385.1491789 382.83302364 385.17812461 389.13911802 C385.20836533 395.62467648 385.27816657 402.10681071 385.41381836 408.59106445 C386.63834505 468.37120881 386.63834505 468.37120881 370.83987427 488.81655884 C368.34813981 492.1404259 366.58350786 495.66516246 364.8359375 499.41796875 C364.27028076 500.56475098 363.70462402 501.7115332 363.12182617 502.89306641 C362.56599854 504.04210449 362.0101709 505.19114258 361.4375 506.375 C361.12632233 507.01507996 360.81514465 507.65515991 360.49453735 508.31463623 C353.00689248 523.77030294 346.33096896 539.58785871 339.68310547 555.41870117 C335.40685676 565.57744979 331.00422052 575.65280489 326.2734375 585.609375 C325.83480881 586.53775177 325.39618011 587.46612854 324.94425964 588.42263794 C318.36093543 602.10430064 309.65718463 614.45947607 300.0625 626.1875 C299.60262695 626.75033691 299.14275391 627.31317383 298.66894531 627.89306641 C291.71738975 636.33424101 284.29970145 644.18015099 276.47192383 651.81054688 C273.13383794 655.071729 269.85721289 658.39451076 266.57421875 661.7109375 C260.24672364 668.09274588 253.95513793 674.411901 247.0625 680.1875 C246.05215391 681.05977351 245.04317036 681.93362641 244.03515625 682.80859375 C225.38788186 698.96831262 206.2261323 713.4639052 185.0625 726.1875 C184.46099121 726.55020996 183.85948242 726.91291992 183.23974609 727.28662109 C99.07433576 777.52880359 -4.64572868 787.91376278 -98.9375 764.1875 C-161.43684302 747.61322425 -219.64224821 717.05775713 -267.48828125 673.41796875 C-269.07813551 671.97011105 -270.67916323 670.53439357 -272.29296875 669.11328125 C-282.46615339 660.13498942 -292.19252258 650.56863449 -300.9375 640.1875 C-301.82274476 639.1757917 -302.70961968 638.16550865 -303.59765625 637.15625 C-330.26608566 606.70248267 -352.37648785 570.97524341 -366.9375 533.1875 C-367.29408691 532.26839844 -367.65067383 531.34929688 -368.01806641 530.40234375 C-405.84038188 431.90365655 -402.96952871 318.00991435 -360.26196289 221.59423828 C-341.64832187 180.33216191 -315.58333499 144.85611399 -283.75 112.875 C-282.90614746 112.02639404 -282.06229492 111.17778809 -281.19287109 110.3034668 C-276.26919605 105.39284805 -271.25065486 100.67396607 -265.9375 96.1875 C-265.33301025 95.67630615 -264.72852051 95.1651123 -264.10571289 94.63842773 C-247.96455475 81.12202451 -230.94785727 69.07999152 -212.9375 58.1875 C-211.73432129 57.45515137 -211.73432129 57.45515137 -210.50683594 56.70800781 C-147.78206565 18.81335368 -73.04810759 -0.11931799 0 0 Z " fill="#000000" transform="translate(3432.9375,1766.8125)"/>
<path d="M0 0 C4.40945158 0.00970443 8.80992953 -0.04517346 13.21777344 -0.1640625 C43.79605399 -0.97757991 66.59624129 3.00007269 93.57168579 17.6083374 C98.69935648 20.373245 103.99714246 22.67261201 109.37182617 24.91113281 C110.95130434 25.59283875 112.52980141 26.27682359 114.10717773 26.96337891 C114.84923462 27.28441589 115.5912915 27.60545288 116.35583496 27.93621826 C141.7685423 38.95578607 166.80845855 50.4692889 190.58666992 64.74316406 C192.14775701 65.66522672 193.70895406 66.58710325 195.27026367 67.50878906 C219.07388452 81.68639133 240.75988621 98.64655598 261.02416992 117.49316406 C261.67426025 118.09475342 262.32435059 118.69634277 262.99414062 119.31616211 C267.50007211 123.55012907 271.57034578 128.04702597 275.58666992 132.74316406 C276.54682697 133.82704371 277.50895297 134.90918354 278.47338867 135.98925781 C289.60471996 148.60515883 299.00695223 162.28718459 307.58666992 176.74316406 C308.14483398 177.63261719 308.70299805 178.52207031 309.27807617 179.43847656 C329.00879144 211.57527962 339.26291864 249.72337508 344.58666992 286.74316406 C344.73620117 287.70351563 344.88573242 288.66386719 345.03979492 289.65332031 C350.52194065 325.90164597 350.11081676 365.52634454 344.58666992 401.74316406 C344.40974609 402.94247559 344.23282227 404.14178711 344.05053711 405.37744141 C331.45069993 488.99553186 290.93888244 567.3699219 222.58666992 618.74316406 C222.00481934 619.18724609 221.42296875 619.63132812 220.82348633 620.08886719 C158.77486434 667.41264472 81.15050564 690.33316923 3.58666992 690.05566406 C2.52050446 690.05384125 1.45433899 690.05201843 0.35586548 690.05014038 C-17.07513841 690.00019761 -34.14660524 689.30082443 -51.41333008 686.74316406 C-53.13108643 686.49373047 -53.13108643 686.49373047 -54.88354492 686.23925781 C-116.99944844 676.90761561 -175.41962855 652.06174482 -224.41333008 612.74316406 C-224.9850293 612.2886084 -225.55672852 611.83405273 -226.14575195 611.36572266 C-234.50308002 604.66460242 -242.13316193 597.22441999 -249.72583008 589.68066406 C-251.10484497 588.31566772 -251.10484497 588.31566772 -252.51171875 586.9230957 C-258.57028785 580.83606463 -264.06720383 574.45896452 -269.41333008 567.74316406 C-270.66123832 566.2414234 -271.91091624 564.74114924 -273.16333008 563.24316406 C-294.01731216 537.0612185 -309.88919329 507.0618753 -321.41333008 475.74316406 C-321.77410645 474.76798828 -322.13488281 473.7928125 -322.5065918 472.78808594 C-337.56544564 431.49252917 -343.70921842 387.19921733 -343.53833008 343.36816406 C-343.53500671 342.21980576 -343.53500671 342.21980576 -343.53161621 341.04824829 C-343.27052424 263.82427226 -321.61345488 186.74243254 -267.91333008 129.42675781 C-265.77703585 127.13357948 -263.70630242 124.80653145 -261.66333008 122.43066406 C-256.05654201 115.98485546 -249.89996412 110.28766595 -243.41333008 104.74316406 C-242.46586914 103.91816406 -241.5184082 103.09316406 -240.54223633 102.24316406 C-195.40800315 63.19119872 -140.33658515 39.46763197 -85.10424805 18.51416016 C-84.147668 18.14952667 -83.19108795 17.78489319 -82.20552063 17.40921021 C-80.24156177 16.6652666 -78.27398424 15.93081539 -76.30314636 15.20529175 C-71.40700136 13.38099887 -66.72542156 11.44869846 -62.09863281 9.015625 C-42.43636199 -0.8799168 -21.53818247 -0.06122431 0 0 Z " fill="#000000" transform="translate(2209.413330078125,-1.7431640625)"/>
<path d="M0 0 C6.50703756 6.30891653 12.40133272 12.96916987 17.953125 20.140625 C18.37996582 20.68041992 18.80680664 21.22021484 19.24658203 21.77636719 C28.37003585 33.33469775 36.18273454 45.66695202 44.03076172 58.11181641 C46.79296422 62.4638464 49.62376959 66.76960767 52.453125 71.078125 C58.15933849 79.80312674 63.62512505 88.66894633 69.07104492 97.55810547 C74.94354149 107.14264362 80.90446686 116.66638594 86.953125 126.140625 C87.40461914 126.84944824 87.85611328 127.55827148 88.32128906 128.28857422 C98.28753474 143.91143454 108.69534915 159.24879894 119.57958984 174.24755859 C120.56122847 175.60049601 121.54045242 176.95518674 122.51806641 178.31103516 C130.45126429 189.29991475 138.70667793 199.91928493 147.41796875 210.30126953 C149.56254627 212.87080628 151.66239424 215.47464664 153.765625 218.078125 C161.03935516 226.95955262 168.88321087 235.23304406 177.015625 243.328125 C177.86189453 244.17826172 178.70816406 245.02839844 179.58007812 245.90429688 C184.5416681 250.85823597 189.61115559 255.60056287 194.953125 260.140625 C195.75230347 260.83031372 195.75230347 260.83031372 196.56762695 261.53393555 C204.28644973 268.19280099 212.1935218 274.58031117 220.25195312 280.82177734 C221.86948106 282.07577934 223.48176417 283.33653798 225.09375 284.59765625 C234.20780915 291.68509672 243.55017234 298.44278834 252.953125 305.140625 C253.74106445 305.70297852 254.52900391 306.26533203 255.34082031 306.84472656 C276.33229139 321.79229299 298.04689821 335.58131087 319.953125 349.140625 C321.13285889 349.87442383 321.13285889 349.87442383 322.33642578 350.62304688 C341.83413975 362.74731443 361.79031351 374.16068444 381.953125 385.140625 C383.4395752 385.95152588 383.4395752 385.95152588 384.95605469 386.77880859 C451.11991278 422.78467045 520.67380897 452.88105493 941.75341797 515.79931641 C991.00572104 516.27773159 991.00572104 516.27773159 1013.890625 518.453125 C1014.57416046 518.51720551 1015.25769592 518.58128601 1015.96194458 518.64730835 C1046.81850651 521.5762702 1079.47184735 527.94235163 1100.265625 553.078125 C1118.23909323 576.95610035 1128.22358437 604.69563266 1124.64404297 634.734375 C1120.65670488 661.78512842 1106.99903094 686.30132652 1085.09716797 702.96728516 C1021.14148519 749.90577826 909.00472722 738.2833212 766.65673828 722.33203125 C709.69629075 713.49455322 653.16154285 701.18566877 597.59606934 685.86859131 C594.76439403 685.08864139 591.93152222 684.31312551 589.09863281 683.53759766 C539.47650856 669.92166482 490.32585581 654.70414812 441.953125 637.140625 C440.95494751 636.77839844 439.95677002 636.41617188 438.92834473 636.04296875 C409.65876341 625.40486661 380.63505143 614.27719304 351.953125 602.140625 C350.85871094 601.67930176 349.76429688 601.21797852 348.63671875 600.74267578 C330.85649632 593.22004873 313.3398407 585.08144341 295.81036377 576.99603271 C294.17009159 576.24055555 292.52827676 575.4884297 290.88623047 574.73681641 C278.83875023 569.2207515 267.22352969 563.06097112 255.64355469 556.62402344 C253.10449086 555.22408226 250.55253544 553.85272425 247.9921875 552.4921875 C229.79188294 542.77109226 212.30033665 531.67381751 195.69775391 519.41845703 C193.72577806 517.97410753 191.73724855 516.55450671 189.74609375 515.13671875 C174.564322 504.30673597 159.92924575 492.83573353 145.49609375 481.03125 C142.60556446 478.66745297 139.6924306 476.33444683 136.765625 474.015625 C132.38257388 470.52242151 128.10742633 466.91095576 123.84130859 463.27685547 C120.39717016 460.34685818 116.912469 457.47738407 113.390625 454.640625 C108.31992949 450.5160651 103.52120021 446.14445901 98.73046875 441.703125 C95.84350379 439.03948363 92.90389166 436.44914152 89.9375 433.875 C86.75993576 431.09775881 83.63205803 428.26584331 80.5 425.4375 C78.8894786 423.98506659 77.27534643 422.53661824 75.65625 421.09375 C64.66684972 411.28441955 53.85956613 401.25513038 43.578125 390.703125 C41.57992329 388.75249952 39.57678736 386.9452111 37.45703125 385.13671875 C31.92281209 380.33727981 26.79333445 375.13023368 21.62573242 369.94360352 C19.894178 368.206689 18.15734141 366.47518611 16.41992188 364.74414062 C11.25109306 359.57808941 6.17693023 354.40138194 1.43188477 348.83764648 C-0.92486163 346.13304946 -3.47979687 343.6435368 -6.046875 341.140625 C-9.88958131 337.34464391 -13.58111143 333.50393741 -17.08203125 329.38671875 C-19.7861837 326.2954908 -22.61041465 323.32157631 -25.421875 320.328125 C-30.10367999 315.32835821 -34.52212957 310.20083816 -38.8046875 304.8515625 C-41.28596333 301.85155305 -43.89594612 298.98950693 -46.546875 296.140625 C-51.63074687 290.66312919 -56.36670094 284.96450719 -61.046875 279.140625 C-62.04307346 277.92349815 -63.04054764 276.70741473 -64.0390625 275.4921875 C-71.38148013 266.54155831 -78.50458437 257.44537593 -85.48242188 248.20800781 C-86.97137656 246.24039416 -88.46901228 244.27971273 -89.96875 242.3203125 C-131.39783211 187.96042006 -177.7516874 119.00845223 -170.77880859 47.38720703 C-167.80652097 27.00160211 -155.88953869 9.8189196 -140.046875 -2.859375 C-121.62648793 -15.83577507 -100.16894242 -23.28703158 -78.046875 -26.859375 C-77.21671875 -27.00246094 -76.3865625 -27.14554688 -75.53125 -27.29296875 C-46.81743085 -31.24844384 -20.54247427 -19.49838409 0 0 Z " fill="#000000" transform="translate(1631.046875,1642.859375)"/>
<path d="M0 0 C3.43025392 2.90293227 6.73145784 5.91698444 10 9 C10.61746094 9.55300781 11.23492188 10.10601563 11.87109375 10.67578125 C52.10845718 48.12533659 55.77426195 131.85003719 60.625 182.9375 C60.72296371 183.94071793 60.72296371 183.94071793 60.82290649 184.96420288 C61.63958927 193.45457387 62.07517097 201.87672973 62.171875 210.40625 C62.22504698 213.05289972 62.28237091 215.69943306 62.34051514 218.34597778 C62.37419472 220.87698343 62.33771979 223.40062584 62.29931641 225.93139648 C62.18777456 233.75424543 62.18777456 233.75424543 65.29983521 240.68148804 C67.93527318 243.20952652 70.78564386 245.17595168 73.90209961 247.06298828 C78.50603707 249.94167374 80.49612457 253.29399823 83 258 C83.79937599 259.44406754 84.59886672 260.88807156 85.3984375 262.33203125 C91.19007706 272.92895191 96.89856178 283.38461658 98.984375 295.39453125 C101.44382215 309.52224081 105.48149589 319.97089076 113.15917969 332.04882812 C115.20027018 335.32106976 117.14524202 338.64323118 119.0703125 341.984375 C127.67450988 356.90054475 136.57129052 371.58619344 146 386 C146.50837402 386.77843262 147.01674805 387.55686523 147.54052734 388.35888672 C160.27967488 407.80502775 173.75889428 426.62660138 188 445 C188.52754883 445.68352539 189.05509766 446.36705078 189.59863281 447.07128906 C197.714648 457.57848589 206.19065588 467.75869174 214.99609375 477.6965332 C216.47920664 479.40135412 217.93831161 481.127127 219.3840332 482.86376953 C226.98649972 491.97282345 235.14192571 500.42069151 243.56494141 508.77075195 C245.76661905 510.95397978 247.95999532 513.14529844 250.15234375 515.33789062 C251.5750475 516.75568346 252.99820832 518.17301784 254.421875 519.58984375 C255.06477478 520.23163071 255.70767456 520.87341766 256.37005615 521.53465271 C260.75885747 525.87839089 265.31738463 529.97626829 270 534 C271.11772951 534.97333627 272.23500982 535.94718897 273.3515625 536.921875 C280.77459807 543.35158486 288.33957654 549.55025243 296.11669922 555.54638672 C298.11502428 557.08878073 300.10622122 558.64012919 302.09765625 560.19140625 C330.72460788 582.39754402 361.69204122 600.96310649 393.92626953 617.42724609 C395.99258975 618.48453242 398.05603391 619.54745672 400.11669922 620.61572266 C435.76303359 639.08507167 473.09115025 653.86833392 510.27832031 668.89984131 C541.81178123 681.64631227 573.12637075 694.71801133 604 709 C605.10601563 709.51095215 606.21203125 710.0219043 607.3515625 710.54833984 C627.41226048 719.85815427 647.0828117 730.20475031 665.92089844 741.81201172 C667.97540341 743.05534101 667.97540341 743.05534101 670.24316406 743.86376953 C672.79592432 744.98397539 674.20496721 745.84666854 676 748 C677.50444129 753.283478 677.79433622 758.53015481 678 764 C678.03144104 764.70241821 678.06288208 765.40483643 678.09527588 766.12854004 C678.3021822 771.12889724 678.33764722 776.12097879 678.3125 781.125 C678.30976578 782.26387161 678.30976578 782.26387161 678.30697632 783.42575073 C678.16170958 819.55079583 670.19656276 851.7036576 644.10546875 877.90234375 C622.829418 897.65547718 592.23756665 903.46250036 564.1875 903.3125 C563.47345001 903.31067719 562.75940002 903.30885437 562.02371216 903.30697632 C473.20835522 902.92861908 384.20317915 857.79211711 232.80419922 763.29101562 C231.07539433 762.05394928 229.33840011 760.82956512 227.59765625 759.609375 C217.65527313 752.61782162 208.02111472 745.22582709 198.38085938 737.82568359 C196.36686792 736.28132058 194.34908622 734.74225066 192.328125 733.20703125 C184.35753887 727.12995501 176.57506986 720.83729574 168.8203125 714.48828125 C167.22738135 713.18590621 165.6297048 711.88933968 164.03125 710.59375 C157.18185641 705.03365402 150.48454273 699.30733629 143.80273438 693.54833984 C142.02514087 692.02159309 140.24047985 690.50358292 138.453125 688.98828125 C131.00620148 682.66583079 123.75552067 676.17318725 116.61767578 669.50439453 C114.98095597 667.98228957 113.33411304 666.471966 111.68359375 664.96484375 C106.40787937 660.14171052 101.211384 655.273602 96.1875 650.1875 C93.26907316 647.23552803 90.35404512 644.37101281 87.1875 641.6875 C78.69043327 634.41934788 70.72769678 626.24998793 63.50390625 617.72265625 C61.90894002 615.89569493 60.22982158 614.19940713 58.5 612.5 C55.50765625 609.55399785 52.74675828 606.47016993 50.0078125 603.2890625 C48.05637213 601.06426861 46.05816352 598.88829499 44.04541016 596.71899414 C39.21498995 591.51080817 34.62998733 586.17871427 30.17578125 580.640625 C28.04605312 578.05589211 25.83101281 575.58818379 23.5625 573.125 C19.2859391 568.42597122 15.42246906 563.46764773 11.59375 558.40625 C9.43679414 555.55645377 7.22339291 552.7569159 4.9921875 549.96508789 C-1.13617214 542.27727959 -6.84527651 534.33229224 -12.44091797 526.25048828 C-14.01816617 523.97377768 -15.60475367 521.70375715 -17.19140625 519.43359375 C-32.521526 497.3854173 -45.72840075 474.38662155 -58.02978516 450.54248047 C-61.70826422 443.42714261 -65.5033602 436.38679983 -69.375 429.375 C-76.7057456 416.04712735 -83.15552348 402.91651143 -86.73608398 388.06225586 C-89.05476989 378.50958419 -92.18281683 370.23154113 -97.34326172 361.80712891 C-139.96832309 291.96118029 -157.30425093 194.34691013 -158.1875 104.0625 C-158.18689575 103.26662476 -158.1862915 102.47074951 -158.18566895 101.65075684 C-158.15584279 87.03521467 -157.61125517 72.53675746 -156 58 C-155.87641113 56.86449707 -155.75282227 55.72899414 -155.62548828 54.55908203 C-155.23072965 51.13640506 -154.78342684 47.72546445 -154.3125 44.3125 C-154.18842773 43.2905957 -154.06435547 42.26869141 -153.93652344 41.21582031 C-152.82232012 33.96985754 -150.33703626 29.96201271 -145 25 C-144.48993408 24.50959229 -143.97986816 24.01918457 -143.4543457 23.51391602 C-107.31111229 -10.03248948 -43.35407388 -34.63436353 0 0 Z " fill="#000000" transform="translate(2033,842)"/>
<path d="M0 0 C3.43025392 2.90293227 6.73145784 5.91698444 10 9 C10.61746094 9.55300781 11.23492188 10.10601563 11.87109375 10.67578125 C52.10845718 48.12533659 55.77426195 131.85003719 60.625 182.9375 C60.72296371 183.94071793 60.72296371 183.94071793 60.82290649 184.96420288 C61.63958927 193.45457387 62.07517097 201.87672973 62.171875 210.40625 C62.22504698 213.05289972 62.28237091 215.69943306 62.34051514 218.34597778 C62.37419472 220.87698343 62.33771979 223.40062584 62.29931641 225.93139648 C62.18777456 233.75424543 62.18777456 233.75424543 65.29983521 240.68148804 C67.93527318 243.20952652 70.78564386 245.17595168 73.90209961 247.06298828 C78.50603707 249.94167374 80.49612457 253.29399823 83 258 C83.79937599 259.44406754 84.59886672 260.88807156 85.3984375 262.33203125 C92.17774706 274.73880765 97.49639739 286.66498411 100.375 300.5625 C100.55530762 301.43253662 100.73561523 302.30257324 100.92138672 303.19897461 C101.07881348 304.02147705 101.23624023 304.84397949 101.3984375 305.69140625 C101.60992432 306.79270874 101.60992432 306.79270874 101.82568359 307.91625977 C102.02104306 310.25154409 101.80688784 311.80196519 101 314 C99.08842681 316.0197203 97.19887454 317.85077386 95.125 319.6875 C94.53638184 320.22004395 93.94776367 320.75258789 93.34130859 321.30126953 C88.99847621 325.19892352 84.49767475 328.87358438 79.9453125 332.5234375 C75.65522946 336.1307487 71.62040267 339.99425673 67.54956055 343.8449707 C63.13228407 348.00171378 58.5611521 351.86674795 53.8203125 355.65234375 C49.11081852 359.5725735 44.69029491 363.80119046 40.22265625 367.9921875 C37.17862987 370.84546778 34.07033123 373.61188009 30.91015625 376.3359375 C28.63795489 378.31540126 26.41540128 380.3458317 24.1875 382.375 C20.81059018 385.42858867 17.36782868 388.34429205 13.8125 391.1875 C8.47940606 395.49470882 3.52644279 400.13727162 -1.44970703 404.84423828 C-5.86719059 409.00127554 -10.43857328 412.86652867 -15.1796875 416.65234375 C-19.88918148 420.5725735 -24.30970509 424.80119046 -28.77734375 428.9921875 C-31.81601665 431.84044977 -34.91773151 434.60316502 -38.07421875 437.3203125 C-41.24092848 440.08235141 -44.32065244 442.94116715 -47.41015625 445.7890625 C-50.48116481 448.41076815 -53.68879519 450.68985711 -57 453 C-57.4125 452.20005615 -57.825 451.4001123 -58.25 450.57592773 C-59.81730347 447.53774669 -61.38557876 444.50007093 -62.95440674 441.462677 C-63.65073156 440.11398716 -64.34665532 438.76509018 -65.04217529 437.41598511 C-68.5167494 430.67670434 -71.99256621 423.94340213 -75.6628418 417.30786133 C-81.28820986 407.10340654 -84.63098175 396.62206663 -87.4375 385.375 C-89.59673057 376.78313254 -92.70116358 369.38534147 -97.34326172 361.80712891 C-139.96832309 291.96118029 -157.30425093 194.34691013 -158.1875 104.0625 C-158.18689575 103.26662476 -158.1862915 102.47074951 -158.18566895 101.65075684 C-158.15584279 87.03521467 -157.61125517 72.53675746 -156 58 C-155.87641113 56.86449707 -155.75282227 55.72899414 -155.62548828 54.55908203 C-155.23072965 51.13640506 -154.78342684 47.72546445 -154.3125 44.3125 C-154.18842773 43.2905957 -154.06435547 42.26869141 -153.93652344 41.21582031 C-152.82232012 33.96985754 -150.33703626 29.96201271 -145 25 C-144.48993408 24.50959229 -143.97986816 24.01918457 -143.4543457 23.51391602 C-107.31111229 -10.03248948 -43.35407388 -34.63436353 0 0 Z " fill="#000000" transform="translate(2033,842)"/>
<path d="M0 0 C6.59719101 0.72964325 13.42789846 7.18889787 17.765625 11.9296875 C19.36228201 14.21455873 20.67870003 16.54284568 22 19 C22.37366699 19.67385742 22.74733398 20.34771484 23.13232422 21.04199219 C30.40377472 34.1758924 36.31520257 46.79019927 39.375 61.5625 C39.55530762 62.43253662 39.73561523 63.30257324 39.92138672 64.19897461 C40.07881348 65.02147705 40.23624023 65.84397949 40.3984375 66.69140625 C40.53942871 67.42560791 40.68041992 68.15980957 40.82568359 68.91625977 C41.02104306 71.25154409 40.80688784 72.80196519 40 75 C38.08842681 77.0197203 36.19887454 78.85077386 34.125 80.6875 C33.53638184 81.22004395 32.94776367 81.75258789 32.34130859 82.30126953 C27.99847621 86.19892352 23.49767475 89.87358438 18.9453125 93.5234375 C14.65522946 97.1307487 10.62040267 100.99425673 6.54956055 104.8449707 C2.13228407 109.00171378 -2.4388479 112.86674795 -7.1796875 116.65234375 C-11.88918148 120.5725735 -16.30970509 124.80119046 -20.77734375 128.9921875 C-23.82137013 131.84546778 -26.92966877 134.61188009 -30.08984375 137.3359375 C-32.36204511 139.31540126 -34.58459872 141.3458317 -36.8125 143.375 C-40.18940982 146.42858867 -43.63217132 149.34429205 -47.1875 152.1875 C-52.52059394 156.49470882 -57.47355721 161.13727162 -62.44970703 165.84423828 C-66.86719059 170.00127554 -71.43857328 173.86652867 -76.1796875 177.65234375 C-80.88918148 181.5725735 -85.30970509 185.80119046 -89.77734375 189.9921875 C-92.81601665 192.84044977 -95.91773151 195.60316502 -99.07421875 198.3203125 C-102.24092848 201.08235141 -105.32065244 203.94116715 -108.41015625 206.7890625 C-111.48116481 209.41076815 -114.68879519 211.68985711 -118 214 C-118.4125 213.20005615 -118.825 212.4001123 -119.25 211.57592773 C-120.81730347 208.53774669 -122.38557876 205.50007093 -123.95440674 202.462677 C-124.65073156 201.11398716 -125.34665532 199.76509018 -126.04217529 198.41598511 C-129.5167494 191.67670434 -132.99256621 184.94340213 -136.6628418 178.30786133 C-143.85160555 165.26739645 -147.42073037 151.34188534 -151 137 C-151.2789209 135.88455811 -151.2789209 135.88455811 -151.56347656 134.74658203 C-151.7075293 134.17020996 -151.85158203 133.59383789 -152 133 C-144.67068936 127.70877546 -137.10696688 122.92723608 -129.375 118.25 C-119.97179283 112.52140682 -110.73088558 106.63735418 -101.76171875 100.24707031 C-99.96774826 98.97716992 -98.15797607 97.73294019 -96.34375 96.4921875 C-81.35490371 86.15679403 -69.34143831 74.10191051 -59.12988281 59.00732422 C-43.96009977 36.6702624 -24.06311394 18.07298603 -2.4519043 2.10058594 C-1.02687743 1.0723281 -1.02687743 1.0723281 0 0 Z " fill="#313131" transform="translate(2094,1081)"/>
<path d="M0 0 C9.07666184 6.96581025 10.2599633 19.47030863 11.75683594 30.1015625 C12.75471225 37.8922113 12.22635547 44.56162739 7.5234375 51.03125 C4.13072701 55.05912547 0.37660166 58.55214334 -3.6328125 61.953125 C-6.65454328 64.56597472 -9.57439438 67.28049949 -12.5 70 C-16.03813311 73.28540932 -19.58502546 76.54295184 -23.25 79.6875 C-26.95784121 82.88901836 -30.36563261 86.35025136 -33.8046875 89.8359375 C-35.68880487 91.6932347 -37.60498962 93.41979643 -39.625 95.125 C-43.79332737 98.70623901 -47.67300269 102.55941721 -51.5625 106.4375 C-52.18785645 107.05834473 -52.81321289 107.67918945 -53.45751953 108.31884766 C-57.20898452 112.08213759 -60.76096827 115.96406388 -64.23413086 119.98461914 C-67.83733168 124.09694083 -71.63501421 128.03119026 -75.39453125 132 C-79.70852152 136.57300831 -83.89252295 141.24064293 -88 146 C-102.06456681 143.53406473 -114.9336699 134.61327063 -126 126 C-126.96292969 125.32839844 -127.92585938 124.65679688 -128.91796875 123.96484375 C-134.99082856 119.51940758 -139.13317935 114.47040192 -143.25 108.25 C-143.74072998 107.51644287 -144.23145996 106.78288574 -144.73706055 106.02709961 C-147.98327607 100.85549356 -147.98327607 100.85549356 -148.05078125 97.40234375 C-146.63659274 94.16916184 -144.88547501 91.24250203 -142.9375 88.3125 C-142.52902832 87.69238037 -142.12055664 87.07226074 -141.69970703 86.43334961 C-126.5952617 63.78840411 -105.74204944 47.46152874 -83 33 C-82.24831543 32.52127441 -81.49663086 32.04254883 -80.72216797 31.54931641 C-70.09980613 24.81659141 -59.31857253 18.36773401 -48.4375 12.0625 C-47.38006592 11.44802002 -46.32263184 10.83354004 -45.2331543 10.20043945 C-13.83071469 -7.86452404 -13.83071469 -7.86452404 0 0 Z " fill="#313131" transform="translate(1391,1718)"/>
</svg>
