<?xml version="1.0" encoding="UTF-8"?>
<svg version="1.1" xmlns="http://www.w3.org/2000/svg" width="3328" height="4600">
<path d="M0 0 C3.19000004 -0.0021663 6.37964185 -0.02031451 9.56958008 -0.03930664 C28.15188496 -0.0915692 46.65453153 0.82490877 64.9230957 4.43530273 C66.04417725 4.6514624 67.16525879 4.86762207 68.3203125 5.09033203 C112.48472425 13.83591445 155.10699973 31.51674102 189.4230957 61.18530273 C190.54264648 62.13856445 190.54264648 62.13856445 191.68481445 63.11108398 C206.16623752 75.77310925 219.34795608 89.440933 230.4230957 105.18530273 C230.87620117 105.82564453 231.32930664 106.46598633 231.79614258 107.12573242 C274.05643932 167.3513095 287.63294183 240.88529799 287.6730957 313.18530273 C287.67410278 314.44519012 287.67510986 315.70507751 287.67614746 317.00314331 C287.65754936 351.55869263 285.24382971 386.08651213 279.4230957 420.18530273 C273.12344704 415.22600485 268.35017429 409.4721781 263.4230957 403.18530273 C262.90827637 402.53480957 262.39345703 401.88431641 261.86303711 401.21411133 C247.86663654 383.52734148 235.03827814 365.22250928 222.58276367 346.43139648 C216.97399309 337.97491444 211.28219392 329.59388588 205.41210938 321.31567383 C200.90790934 314.94164034 196.59776989 308.44856536 192.2980957 301.93530273 C186.43565968 293.07593572 180.34806654 284.4812083 173.86303711 276.06958008 C172.3562623 274.09784593 170.87707935 272.10777945 169.40356445 270.11108398 C160.96079187 258.68174318 151.99773937 247.88547451 142.39575195 237.40405273 C141.01419325 235.85014117 139.68697326 234.24699579 138.40356445 232.61108398 C136.6090404 230.41305748 134.84586291 228.68194568 132.6730957 226.87280273 C129.89515804 224.50697671 127.31468892 222.07610549 124.7980957 219.43530273 C92.16189799 186.48101343 44.0945404 169.13269246 -1.7512207 168.8046875 C-3.15144974 168.80421419 -4.55168137 168.80613864 -5.9519043 168.81030273 C-7.04858429 168.81161697 -7.04858429 168.81161697 -8.16741943 168.81295776 C-62.05887539 169.02376189 -111.38984102 191.50348977 -149.12084961 229.42651367 C-184.33474398 265.62720114 -202.36835981 315.07289603 -201.7878418 365.23999023 C-201.3680444 381.40478135 -197.19402108 396.77458652 -192.5769043 412.18530273 C-192.35164063 412.94633301 -192.12637695 413.70736328 -191.89428711 414.49145508 C-182.78395955 444.8115512 -168.09675007 473.7011 -152.5769043 501.18530273 C-151.68648438 502.76263184 -151.68648438 502.76263184 -150.77807617 504.37182617 C-143.17811361 517.78469024 -135.34383452 531.00121967 -126.99780273 543.96264648 C-125.59208992 546.16154846 -124.20978718 548.37338067 -122.8347168 550.59155273 C-113.8375337 565.07390202 -104.20765989 579.12095686 -94.5769043 593.18530273 C-93.51953186 594.73342466 -92.46222755 596.28159311 -91.4050293 597.82983398 C-80.54939809 613.69935264 -69.47832936 629.41374666 -58.18139648 644.97192383 C-56.5718611 647.19225976 -54.96797643 649.41656316 -53.3659668 651.64233398 C-42.26921542 667.05766645 -31.01888116 682.34015671 -19.46826172 697.41894531 C-14.70390776 703.6572263 -10.08068379 709.98236182 -5.5168457 716.36816406 C-1.2521319 722.3105072 3.16014736 728.13113742 7.6105957 733.93530273 C12.41542517 740.20360083 17.15227439 746.49830293 21.70605469 752.95117188 C26.89259608 760.29402457 32.26470096 767.50112652 37.60864258 774.72973633 C40.55104245 778.71179471 43.4868705 782.69869042 46.4230957 786.68530273 C49.93196786 791.44913 53.44207375 796.21202075 56.95825195 800.97045898 C60.4542037 805.70311998 63.94229577 810.44148683 67.4230957 815.18530273 C67.96289062 815.92071289 68.50268555 816.65612305 69.05883789 817.41381836 C78.13680812 829.80842087 86.87146452 842.42229354 95.4230957 855.18530273 C96.05006348 856.12035645 96.67703125 857.05541016 97.32299805 858.01879883 C124.7182857 899.03753621 142.66872144 932.31821248 139.60498047 982.28955078 C139.56179031 983.00037666 139.51860014 983.71120253 139.47410119 984.44356859 C138.50147183 1000.26714937 137.09101734 1016.03980033 135.54660535 1031.81656241 C135.31983884 1034.13714711 135.09517348 1036.4579279 134.870924 1038.7787571 C131.57797784 1072.80110952 127.7395048 1106.75733221 123.81227183 1140.71131712 C122.10948232 1155.44277382 120.43427016 1170.17741057 118.75736046 1184.91183162 C118.48295697 1187.32260448 118.20836884 1189.73335625 117.9337616 1192.14410591 C115.10437901 1216.99084559 112.33470233 1241.84264396 109.78242111 1266.71963882 C109.5555871 1268.92496965 109.32637864 1271.13004072 109.09646606 1273.33505249 C108.20452792 1281.91502895 107.37617757 1290.4994517 106.61143112 1299.09180832 C106.41475042 1301.27806702 106.211207 1303.46362233 106.0071106 1305.64920044 C103.30535244 1334.91431525 102.98850951 1364.05301757 103.1005249 1393.42767334 C103.1139205 1398.17645206 103.10868961 1402.92513632 103.10365582 1407.6739254 C103.08530303 1430.69550196 103.28904184 1453.68202013 104.3605957 1476.68139648 C104.42307023 1478.02304336 104.42307023 1478.02304336 104.48680687 1479.3917942 C107.66611684 1545.81204319 126.33353406 1584.42646026 173.1730957 1630.93530273 C176.0960986 1633.83777638 179.01842206 1636.74091417 181.93682861 1639.64801025 C183.74088775 1641.44463144 185.54718899 1643.23900517 187.35614014 1645.03070068 C191.70832141 1649.36545326 195.91292316 1653.7548973 199.89117432 1658.43682861 C201.4966315 1660.26923357 203.18364638 1661.98028911 204.9230957 1663.68530273 C208.01666213 1666.72362691 210.84415077 1669.93295594 213.6730957 1673.21655273 C215.36107856 1675.11553345 217.11079304 1676.90536262 218.9230957 1678.68530273 C221.89366976 1681.60997388 224.63038689 1684.67149834 227.34887695 1687.82983398 C229.43752327 1690.20168659 231.57857675 1692.51435749 233.73535156 1694.82397461 C238.78063615 1700.22789136 243.58096776 1705.73752605 248.2121582 1711.50561523 C250.53244521 1714.31783588 252.95380704 1717.00327536 255.4230957 1719.68530273 C259.47971657 1724.09820618 263.30983263 1728.64031036 267.07543945 1733.30249023 C269.6512501 1736.46546571 272.28022591 1739.57841065 274.9230957 1742.68530273 C279.8289258 1748.46046666 284.6414447 1754.30678555 289.4230957 1760.18530273 C290.92252663 1762.01910153 292.42253028 1763.85243217 293.9230957 1765.68530273 C302.9230957 1776.68530274 302.9230957 1776.68530274 305.1887207 1779.45483398 C306.63606622 1781.22353069 308.08394871 1782.99178816 309.5324707 1784.75952148 C314.0089068 1790.22436774 318.47001397 1795.70142693 322.9230957 1801.18530273 C324.58669474 1803.23310367 326.25043167 1805.2807924 327.91430664 1807.32836914 C329.2326936 1808.95096642 330.55059215 1810.5739605 331.8684082 1812.19702148 C336.29630984 1817.63270719 340.79510881 1823.00222813 345.33325195 1828.34570312 C350.53393708 1834.47781348 355.61464189 1840.70653852 360.6652832 1846.96264648 C365.02610556 1852.34200002 369.51589275 1857.54487596 374.1809082 1862.66186523 C376.46825474 1865.23612632 378.63857841 1867.87819763 380.7980957 1870.56030273 C384.9622238 1875.70722331 389.3739336 1880.5680498 393.87231445 1885.41967773 C395.90711453 1887.6258622 397.89955809 1889.85162535 399.8605957 1892.12280273 C403.4468062 1896.25941484 407.16835277 1900.26658296 410.89306641 1904.27807617 C413.82423025 1907.43841446 416.7051123 1910.63247322 419.5480957 1913.87280273 C424.74043913 1919.68555484 430.31128952 1925.12499895 435.86499023 1930.59033203 C436.98043213 1931.69308472 436.98043213 1931.69308472 438.1184082 1932.81811523 C438.77856934 1933.4666748 439.43873047 1934.11523438 440.11889648 1934.78344727 C442.06436689 1936.81137033 443.9049427 1938.87766015 445.7409668 1941.00317383 C449.21376426 1944.99873182 452.87473786 1948.74986554 456.6418457 1952.46655273 C457.63420227 1953.45322937 457.63420227 1953.45322937 458.64660645 1954.45983887 C460.73632305 1956.53747547 462.82926885 1958.611809 464.9230957 1960.68530273 C467.6865127 1963.42188424 470.44643292 1966.16192537 473.2043457 1968.90405273 C473.82434448 1969.51575317 474.44434326 1970.12745361 475.08312988 1970.75769043 C478.82691559 1974.48077968 482.36877933 1978.32473598 485.81069946 1982.32888794 C488.55313824 1985.48636486 491.43134773 1988.51606833 494.2980957 1991.56030273 C502.19779499 1999.99584041 509.91253463 2008.48711733 517.1809082 2017.47827148 C519.31793353 2020.05833864 521.53045316 2022.53244758 523.7980957 2024.99780273 C528.31642033 2029.96247832 532.42871506 2035.1861767 536.5402832 2040.48608398 C538.94522486 2043.58529476 541.39374877 2046.64640579 543.85839844 2049.69824219 C585.99456075 2101.92845671 633.30543878 2168.61092032 632.9230957 2238.56030273 C632.92066864 2239.47568817 632.91824158 2240.39107361 632.91574097 2241.334198 C632.4601794 2331.9986876 611.83405525 2424.59294607 570.4230957 2652.18530273 C570.21196388 2653.28950562 570.00083206 2654.3937085 569.78330231 2655.53137207 C554.64254996 2734.6956938 538.77778534 2813.71728259 522.93504143 2892.74339676 C522.04575404 2897.17935015 521.15671438 2901.61535316 520.26775259 2906.05137181 C519.38336941 2910.46444673 518.49884166 2914.87749265 517.61425781 2919.29052734 C517.35315072 2920.59317803 517.35315072 2920.59317803 517.08676875 2921.92214489 C515.00699931 2932.29711682 512.92366007 2942.67136141 510.83547384 2953.04464257 C501.64669294 2998.69201382 492.69026724 3044.3769265 484.03243637 3090.12802124 C483.08756061 3095.12066329 482.14082034 3100.11295099 481.19400024 3105.10522461 C471.68167074 3155.27076033 462.32360818 3205.46395321 453.1105957 3255.68530273 C452.97008333 3256.45118666 452.82957095 3257.21707059 452.68480062 3258.00616312 C447.01464114 3288.9148377 441.37198551 3319.82836047 435.82055092 3350.75860596 C435.21731448 3354.11919109 434.6134034 3357.47965435 434.00932312 3360.84008789 C432.39219762 3369.83925596 430.77710924 3378.83870596 429.18300343 3387.8419838 C419.70348028 3441.31909616 408.1553423 3495.8784912 382.4519043 3544.23364258 C381.32092133 3546.37912855 380.22476519 3548.54059082 379.13012695 3550.70483398 C367.75859555 3573.01484835 354.01196743 3593.41700053 336.80200195 3611.65405273 C334.76489336 3613.82161656 332.83445327 3616.03294053 330.9230957 3618.31030273 C322.91970002 3627.48955276 313.24227726 3635.04969395 303.4230957 3642.18530273 C302.87234375 3642.58716797 302.3215918 3642.9890332 301.75415039 3643.40307617 C257.35935044 3675.37866917 202.22664443 3685.74562433 148.66137695 3677.11889648 C125.01744495 3673.03538415 101.98900866 3665.70605261 80.4230957 3655.18530273 C79.62403809 3654.80067871 78.82498047 3654.41605469 78.00170898 3654.01977539 C51.14990235 3640.96703129 27.55120496 3623.45543658 6.11010742 3602.80932617 C5.03775295 3601.77701041 3.96166029 3600.74855317 2.88061523 3599.7253418 C-4.21996624 3593.00399863 -10.33633144 3585.81121142 -16.19750977 3578.01782227 C-17.57447813 3576.18852589 -18.96783208 3574.37255609 -20.36206055 3572.55639648 C-27.21364549 3563.53115553 -33.11795275 3554.11024538 -38.5769043 3544.18530273 C-38.92849609 3543.55076172 -39.28008789 3542.9162207 -39.64233398 3542.26245117 C-52.60461083 3518.55823008 -61.64345977 3491.52373131 -61.7800293 3464.35327148 C-61.78708893 3463.41712006 -61.79414856 3462.48096863 -61.80142212 3461.51644897 C-61.93648565 3438.21859021 -61.24251135 3415.32732652 -58.5769043 3392.18530273 C-58.47980164 3391.32646484 -58.38269897 3390.46762695 -58.28265381 3389.58276367 C-48.99984147 3307.50083467 -33.52219583 3226.1934389 -17.5769043 3145.18530273 C-17.40709045 3144.32215958 -17.23727661 3143.45901642 -17.06231689 3142.56971741 C-0.47587477 3058.28148322 16.94238998 2974.15967976 36.36981392 2880.27573013 C38.2430212 2871.22501898 40.11497715 2862.17404928 41.9855957 2853.12280273 C42.18281597 2852.16856163 42.38003624 2851.21432053 42.58323288 2850.23116302 C51.89202013 2805.17953341 60.91832296 2760.07197788 69.8792305 2714.9500227 C70.95546933 2709.53266211 72.03540109 2704.11605998 73.12036133 2698.70043945 C91.17228534 2608.59085249 107.96474499 2517.89575053 126.4230957 2369.18530273 C126.51161804 2368.29345276 126.60014038 2367.40160278 126.69134521 2366.48272705 C127.57965959 2357.47037004 128.38681051 2348.4581472 128.98872375 2339.42181396 C129.22959889 2335.81259071 129.50277999 2332.21015695 129.83032227 2328.60766602 C130.17772027 2324.78148562 130.46319555 2320.9551529 130.70663452 2317.1210022 C130.80761027 2315.68750688 130.92934152 2314.25529066 131.07388306 2312.82553101 C131.5133319 2308.38768862 131.67646427 2304.48680234 130.4230957 2300.18530273 C126.87552895 2296.60230942 122.86051712 2294.50583111 118.4230957 2292.18530273 C116.04396749 2290.44420456 113.90315505 2288.56110562 111.6730957 2286.62280273 C111.17422852 2286.19290039 110.67536133 2285.76299805 110.16137695 2285.32006836 C108.57497581 2283.94962768 106.99911636 2282.56766279 105.4230957 2281.18530273 C104.48494019 2280.37198486 104.48494019 2280.37198486 103.52783203 2279.54223633 C92.02561796 2269.54967911 81.08667041 2258.93901766 70.2980957 2248.18530273 C69.51716553 2247.40896484 68.73623535 2246.63262695 67.93164062 2245.83276367 C63.78140066 2241.67134672 59.81694653 2237.41578415 55.98217773 2232.96264648 C53.90175277 2230.59097506 51.68281461 2228.38555536 49.4230957 2226.18530273 C45.84426054 2222.70064744 42.54314481 2219.06155799 39.2746582 2215.29077148 C36.24230819 2211.84259288 33.08058582 2208.51857066 29.9230957 2205.18530273 C25.51817167 2200.53515613 21.19865583 2195.83489336 16.99926758 2190.99780273 C15.00207916 2188.70115979 12.96583089 2186.44145802 10.9230957 2184.18530273 C6.09082294 2178.82513463 1.32490714 2173.415207 -3.36206055 2167.92749023 C-4.39197908 2166.72173597 -5.42192782 2165.51600751 -6.4519043 2164.31030273 C-7.23138428 2163.39752563 -7.23138428 2163.39752563 -8.02661133 2162.46630859 C-11.05582963 2158.92906416 -14.12839013 2155.44137696 -17.2644043 2151.99780273 C-20.29403298 2148.66303159 -23.18298522 2145.25242635 -26.0144043 2141.74780273 C-29.09027018 2137.94442771 -32.26443596 2134.28447622 -35.5769043 2130.68530273 C-39.69069338 2126.21545153 -43.54777726 2121.5948538 -47.36206055 2116.86889648 C-49.53323256 2114.23821716 -51.77931787 2111.70587849 -54.0769043 2109.18530273 C-57.89861292 2104.9880124 -61.49164619 2100.64820043 -65.0612793 2096.23608398 C-68.00615482 2092.6647365 -71.03410516 2089.17318633 -74.0769043 2085.68530273 C-78.57451455 2080.52690614 -82.96686316 2075.30372645 -87.27612305 2069.98608398 C-90.45725634 2066.1136348 -93.72443984 2062.31801491 -96.99291992 2058.51928711 C-101.76396597 2052.97423106 -106.49038835 2047.39246595 -111.20922852 2041.80297852 C-112.60149847 2040.15621295 -113.99695902 2038.51220206 -115.39331055 2036.86889648 C-119.64430489 2031.86295622 -123.87254721 2026.84489893 -128.0144043 2021.74780273 C-131.97198617 2016.88401248 -136.04232876 2012.12649042 -140.13525391 2007.37695312 C-143.16635719 2003.85231355 -146.14675746 2000.29490391 -149.0769043 1996.68530273 C-153.46403332 1991.28454101 -157.98913841 1986.01062573 -162.52612305 1980.73608398 C-168.75212797 1973.4971415 -174.93776669 1966.22664364 -180.9519043 1958.81030273 C-185.59834137 1953.10371603 -190.42080456 1947.55868953 -195.25268555 1942.00952148 C-198.37982654 1938.41762108 -201.48188064 1934.8048806 -204.5769043 1931.18530273 C-213.64058536 1920.60152314 -222.70812094 1910.04467336 -232.16674805 1899.81030273 C-234.15101297 1897.64915845 -236.0958049 1895.46690565 -238.0144043 1893.24780273 C-245.71458359 1884.38983992 -253.77875774 1875.91932762 -262.1237793 1867.66967773 C-264.80736286 1864.9519084 -267.2915575 1862.11704035 -269.76831055 1859.21264648 C-271.94648922 1856.7710164 -274.24938437 1854.48482242 -276.5769043 1852.18530273 C-280.0794074 1848.71961273 -283.39778694 1845.18839482 -286.6003418 1841.44702148 C-289.20075492 1838.47144995 -291.88833506 1835.58112873 -294.5769043 1832.68530273 C-298.36666115 1828.59911763 -302.10231898 1824.48205483 -305.74487305 1820.26342773 C-307.63693164 1818.11721202 -309.57434935 1816.01649659 -311.51953125 1813.91845703 C-315.47453534 1809.65066585 -319.3113016 1805.35436383 -322.9519043 1800.81030273 C-327.00292153 1795.7719408 -331.34913987 1791.08225514 -335.77734375 1786.37939453 C-339.81944623 1782.06321116 -343.57278538 1777.58035775 -347.26831055 1772.96264648 C-349.92971388 1769.76085669 -352.73172454 1766.72315732 -355.5769043 1763.68530273 C-359.98115936 1758.97728219 -364.13677822 1754.14547307 -368.1784668 1749.11889648 C-371.01802162 1745.64576021 -373.94411415 1742.25630301 -376.8894043 1738.87280273 C-377.44289551 1738.23689209 -377.99638672 1737.60098145 -378.56665039 1736.94580078 C-379.68787859 1735.65777158 -380.80913509 1734.36976701 -381.93041992 1733.08178711 C-386.00592954 1728.38745752 -390.03874276 1723.65631533 -394.07983398 1718.93237305 C-395.60977188 1717.1469465 -397.1436123 1715.36494128 -398.6784668 1713.58374023 C-403.89784635 1707.52231285 -409.06194854 1701.42765773 -414.1081543 1695.22045898 C-417.21019789 1691.40671235 -420.32888487 1687.60688171 -423.4519043 1683.81030273 C-424.35525513 1682.71177979 -424.35525513 1682.71177979 -425.27685547 1681.59106445 C-428.90094516 1677.19293055 -432.56395693 1672.83175061 -436.2644043 1668.49780273 C-440.40993657 1663.6344848 -444.39200833 1658.66233088 -448.31640625 1653.61938477 C-451.7987165 1649.15098243 -455.36194655 1644.75499377 -458.9519043 1640.37280273 C-464.00565493 1634.1937503 -468.88492193 1627.90055906 -473.70361328 1621.53710938 C-477.373965 1616.70810499 -481.15694663 1611.99064576 -485.0144043 1607.31030273 C-492.2273034 1598.53061806 -498.91737985 1589.38803947 -505.5769043 1580.18530273 C-506.47141645 1578.95742424 -507.36594615 1577.72955852 -508.26049805 1576.50170898 C-535.69105587 1538.66384955 -549.3248736 1500.53619041 -561.49111938 1455.7333374 C-565.72171047 1440.18266006 -570.0665015 1424.71403807 -575.2019043 1409.43530273 C-575.435849 1408.73411316 -575.6697937 1408.03292358 -575.91082764 1407.31048584 C-578.58673829 1399.16634824 -578.58673829 1399.16634824 -582.01215297 1391.32417399 C-586.54989898 1381.93036808 -587.43219384 1373.74570939 -587.33207703 1363.41954041 C-587.33828775 1361.76836777 -587.34711453 1360.1172033 -587.35830241 1358.46605688 C-587.38124964 1353.96593155 -587.36718472 1349.4665933 -587.34659326 1344.96648514 C-587.33088258 1340.0984844 -587.34991463 1335.23059731 -587.36439514 1330.36260986 C-587.38716843 1320.83894329 -587.37777521 1311.31557109 -587.35689428 1301.79191052 C-587.34057447 1294.04450059 -587.3364195 1286.2971707 -587.34086037 1278.54974556 C-587.34149104 1277.44478574 -587.34212172 1276.33982593 -587.3427715 1275.20138248 C-587.34411765 1272.95620729 -587.34549723 1270.71103212 -587.34690986 1268.46585698 C-587.35883534 1247.43172708 -587.33481297 1226.39775793 -587.29789177 1205.36366463 C-587.26703064 1187.35111002 -587.26461429 1169.33874068 -587.28369141 1151.32617188 C-587.30585504 1130.37541224 -587.31189848 1109.42475633 -587.29136878 1088.47399145 C-587.28920603 1086.2351844 -587.28705693 1083.99637734 -587.28492165 1081.75757027 C-587.28385528 1080.65624683 -587.28278892 1079.5549234 -587.28169024 1078.42022653 C-587.2752461 1070.69389351 -587.27995907 1062.96761422 -587.28894615 1055.24128532 C-587.29953473 1045.80795841 -587.29181355 1036.37484787 -587.26149037 1026.94156062 C-587.24646635 1022.13684425 -587.23906021 1017.3324679 -587.25368118 1012.52774239 C-587.35234179 976.71444915 -587.35234179 976.71444915 -582.14944994 960.0805434 C-581.36294547 957.47705621 -580.82676205 954.84836182 -580.32196045 952.17756653 C-580.1700399 951.3753171 -580.01811935 950.57306767 -579.86159515 949.74650764 C-579.71834053 948.96165426 -579.57508591 948.17680088 -579.42749023 947.36816406 C-579.1743594 946.01711736 -579.1743594 946.01711736 -578.91611481 944.63877678 C-578.37571237 941.74511203 -577.84316477 938.85007525 -577.3112793 935.95483398 C-576.92328965 933.8637145 -576.53508025 931.77263578 -576.14666748 929.68159485 C-572.48826377 909.92580414 -568.98658849 890.1421294 -565.49991989 870.35544872 C-551.62999279 791.66502081 -536.61167995 713.23860409 -376.34887695 238.24194336 C-374.77492712 235.52689075 -373.21741987 232.80305181 -371.66555786 230.07533264 C-357.09040827 204.49132145 -340.85483874 180.29363899 -322.5769043 157.18530273 C-322.1320166 156.62117676 -321.68712891 156.05705078 -321.22875977 155.47583008 C-318.73488346 152.32950403 -316.1707148 149.24946973 -313.5769043 146.18530273 C-312.94461914 145.41984131 -312.94461914 145.41984131 -312.29956055 144.63891602 C-305.06274536 135.88247215 -297.29271371 127.71260766 -289.2644043 119.68530273 C-288.33345947 118.75355225 -287.40251465 117.82180176 -286.44335938 116.86181641 C-281.31118932 111.77095708 -276.0902223 106.86032494 -270.5769043 102.18530273 C-269.6384668 101.37706055 -268.7000293 100.56881836 -267.7331543 99.73608398 C-201.77037809 44.15274462 -118.2634741 9.80531635 -32.5769043 1.18530273 C-31.33880005 1.04282104 -31.33880005 1.04282104 -30.07568359 0.89746094 C-20.08045257 -0.12449988 -10.03601566 -0.00075921 0 0 Z " fill="#010101" transform="translate(586.576904296875,916.814697265625)"/>
<path d="M0 0 C1.03499634 -0.00710495 2.06999268 -0.0142099 3.13635254 -0.02153015 C25.50548646 -0.14003644 47.66647247 -0.23682501 69.82421875 3.203125 C70.53030273 3.31247375 71.23638672 3.42182251 71.96386719 3.53448486 C148.08910178 15.44244639 221.06279136 45.39112718 283.82421875 90.203125 C284.54947754 90.7172998 285.27473633 91.23147461 286.02197266 91.76123047 C296.17877168 98.96907186 306.12620051 106.38887241 315.82421875 114.203125 C317.21833984 115.32267578 317.21833984 115.32267578 318.640625 116.46484375 C328.87142406 124.75968374 338.85692452 133.35163024 348.609375 142.203125 C350.59834377 143.99916029 352.60985069 145.76265803 354.63671875 147.515625 C367.00892273 158.30418687 378.85534851 169.72982294 390.828125 180.95703125 C399.21171602 188.82135253 399.21171602 188.82135253 407.81640625 196.44140625 C409.94085863 198.30546855 412.0147838 200.21998186 414.08691406 202.1418457 C419.24774716 206.92464046 424.51498281 211.49319766 430 215.90625 C432.486486 217.92845438 434.92707674 219.99474379 437.35620117 222.08520508 C445.57872718 229.14586611 454.15442088 235.70402614 462.82421875 242.203125 C463.97398193 243.0684082 463.97398193 243.0684082 465.14697266 243.95117188 C482.45475103 256.95265719 500.42192358 268.81370692 518.82421875 280.203125 C520.01072021 280.93764893 520.01072021 280.93764893 521.22119141 281.68701172 C534.80705805 290.05709775 548.73682907 297.71442482 562.82421875 305.203125 C563.66871582 305.65429688 564.51321289 306.10546875 565.38330078 306.5703125 C605.54833403 328.02199929 647.03837267 346.62198598 689.82421875 362.203125 C690.47694763 362.44140015 691.12967651 362.67967529 691.80218506 362.9251709 C738.87632185 380.09183195 786.94976957 394.13598169 835.82421875 405.203125 C836.73705627 405.41048279 837.6498938 405.61784058 838.59039307 405.83148193 C898.44518058 419.39478882 958.89842038 429.4413648 1019.42824936 439.44493484 C1052.32543537 444.88244622 1085.18109647 450.37326538 1117.82421875 457.203125 C1118.5814624 457.36045105 1119.33870605 457.5177771 1120.11889648 457.67987061 C1175.77493311 469.26091905 1233.19319458 485.50608061 1279.82421875 519.203125 C1280.42121582 519.63189941 1281.01821289 520.06067383 1281.63330078 520.50244141 C1292.19545765 528.16037862 1301.62553134 536.97471646 1310.82421875 546.203125 C1311.59121094 546.9353125 1312.35820312 547.6675 1313.1484375 548.421875 C1346.92195913 581.02309258 1365.4020436 627.64729652 1372.82421875 673.203125 C1372.93749512 673.88616699 1373.05077148 674.56920898 1373.16748047 675.27294922 C1387.63944082 765.46549831 1352.40938687 858.45396283 1290.82421875 975.203125 C1289.98552246 976.61779053 1289.98552246 976.61779053 1289.12988281 978.06103516 C1265.68450554 1017.55410936 1238.8352852 1054.95624223 1209.81640625 1090.5234375 C1207.43983823 1093.43899042 1205.09376729 1096.37677727 1202.76171875 1099.328125 C1195.21706054 1108.77880213 1187.22203499 1117.8511611 1179.05078125 1126.76171875 C1177.13288668 1128.86467333 1175.2504583 1130.98981656 1173.38671875 1133.140625 C1168.63887689 1138.59185084 1163.73747474 1143.90144036 1158.82421875 1149.203125 C1158.25058594 1149.8233252 1157.67695313 1150.44352539 1157.0859375 1151.08251953 C1148.98769233 1159.82021393 1140.7355491 1168.39109098 1132.32421875 1176.828125 C1131.49994385 1177.65699219 1130.67566895 1178.48585938 1129.82641602 1179.33984375 C1125.54206897 1183.61333336 1121.19069114 1187.73676318 1116.58203125 1191.65966797 C1114.74787534 1193.27015875 1113.03273568 1194.96060647 1111.32421875 1196.703125 C1108.33549538 1199.73907425 1105.20715396 1202.54821159 1101.98046875 1205.328125 C1099.62458917 1207.37671594 1097.31914415 1209.47515502 1095.01171875 1211.578125 C1090.71894363 1215.45273024 1086.29385443 1219.1229623 1081.80078125 1222.76171875 C1078.4763751 1225.48842983 1075.2082384 1228.27392522 1071.94921875 1231.078125 C1062.59697192 1239.12210593 1053.20429775 1247.1030607 1043.63671875 1254.890625 C1039.94327965 1257.9274527 1036.30123389 1261.02273455 1032.65795898 1264.11938477 C1029.26467766 1266.9985782 1025.84154089 1269.83516737 1022.38671875 1272.640625 C1017.52213251 1276.59885456 1012.76359697 1280.66961561 1008.01367188 1284.76367188 C1004.51205524 1287.77544487 1000.97644282 1290.73364191 997.38671875 1293.640625 C991.04144994 1298.79499292 984.89912427 1304.17675265 978.73388672 1309.54345703 C975.6889996 1312.18972942 972.63446236 1314.82463277 969.57421875 1317.453125 C968.99454346 1317.95102539 968.41486816 1318.44892578 967.81762695 1318.96191406 C964.32193032 1321.95297997 960.78052117 1324.87698136 957.19921875 1327.765625 C952.14117753 1331.87016213 947.36209543 1336.22842359 942.5859375 1340.65234375 C938.07302735 1344.82056204 933.44063413 1348.83841543 928.75 1352.8046875 C920.46374976 1359.82833872 912.47805692 1367.11413973 904.57324219 1374.56298828 C902.01077309 1376.96592902 899.41867499 1379.33472728 896.82421875 1381.703125 C895.33737897 1383.06536098 893.85124515 1384.42836368 892.36523438 1385.79150391 C891.32355683 1386.74571486 890.28055119 1387.6984777 889.23632812 1388.64990234 C880.98486952 1396.17948067 872.96558757 1403.93704987 865.04187012 1411.80923462 C863.99736834 1412.84635115 862.95127816 1413.88187094 861.90344238 1414.9156189 C853.54814345 1423.16880648 845.91701734 1431.74021512 839.18399048 1441.38859558 C838.55454844 1442.28994327 837.92510639 1443.19129095 837.27659035 1444.1199522 C836.79730772 1444.80739923 836.31802509 1445.49484625 835.82421875 1446.203125 C915.51953091 1446.94060188 995.20996935 1447.29155941 1074.90873456 1447.2327351 C1079.1140524 1447.22970934 1083.31937044 1447.22703399 1087.52468851 1447.22435921 C1122.94568747 1447.20174056 1158.36668113 1447.16928433 1193.78765869 1447.12408447 C1195.42859128 1447.1219928 1195.42859128 1447.1219928 1197.10267402 1447.11985886 C1198.19701782 1447.11846294 1199.29136162 1447.11706701 1200.41886735 1447.11562878 C1202.62934255 1447.1128103 1204.83981776 1447.10999328 1207.05029297 1447.10717773 C1208.14272221 1447.1057842 1209.23515145 1447.10439067 1210.3606846 1447.10295492 C1228.69768044 1447.07977707 1247.03467321 1447.06457013 1265.37168145 1447.05561835 C1275.52363988 1447.05037804 1285.67556449 1447.0413776 1295.82750702 1447.02223015 C1492.15551749 1446.65881847 1492.15551749 1446.65881847 1550.82421875 1503.203125 C1552.01917969 1504.33621094 1552.01917969 1504.33621094 1553.23828125 1505.4921875 C1557.69720323 1509.80899245 1561.61132515 1514.47299193 1565.4921875 1519.3125 C1567.78416603 1522.15347841 1570.14234993 1524.92658151 1572.51171875 1527.703125 C1579.35240808 1535.89924503 1585.55728158 1544.56588987 1591.82421875 1553.203125 C1592.95689453 1554.75661011 1594.08970398 1556.30999777 1595.22265625 1557.86328125 C1602.2554729 1567.52977791 1609.13893952 1577.29266252 1615.82421875 1587.203125 C1616.5002351 1588.01389559 1617.17625145 1588.82466618 1617.87275314 1589.66000557 C1620.77312771 1594.05559808 1620.36531972 1598.65069864 1620.30523682 1603.7572937 C1620.31036337 1605.35144362 1620.31036337 1605.35144362 1620.31559348 1606.97779858 C1620.3221817 1610.53869615 1620.30017967 1614.09883985 1620.27832031 1617.65966797 C1620.27719204 1620.21224449 1620.27782529 1622.76482231 1620.28009033 1625.31739807 C1620.28100119 1630.81277938 1620.26965652 1636.30791796 1620.24713898 1641.80324936 C1620.21460402 1649.74847846 1620.20421045 1657.69361574 1620.19918701 1665.63890423 C1620.19043669 1678.53015494 1620.16382829 1691.4213043 1620.12597656 1704.3125 C1620.08924964 1716.8336537 1620.06094123 1729.35477986 1620.04394531 1741.87597656 C1620.04236897 1743.03405983 1620.04236897 1743.03405983 1620.04076079 1744.21553873 C1620.03554056 1748.0887892 1620.03048575 1751.96203987 1620.02551317 1755.83529067 C1619.98405933 1787.95797577 1619.91361811 1820.0805363 1619.82421875 1852.203125 C1577.68343603 1852.28010367 1535.54264802 1852.3539101 1493.40185547 1852.42529297 C1492.57720216 1852.42669014 1491.75254886 1852.4280873 1490.90290606 1852.42952681 C1402.5269438 1852.57917136 1314.15097977 1852.70828882 1225.77493286 1852.79592896 C1223.81148812 1852.79788126 1221.84804339 1852.79983358 1219.88459865 1852.80178592 C1178.66984845 1852.842705 1137.45509599 1852.88073886 1096.24034009 1852.91544049 C1075.5362841 1852.93287579 1054.83222861 1852.95086541 1034.12817355 1852.96937918 C1031.00507786 1852.97216867 1027.88198216 1852.97494232 1024.75888647 1852.97771532 C976.67721294 1853.02054655 928.59558904 1853.0752537 880.51397705 1853.16442871 C879.48046544 1853.16634529 878.44695382 1853.16826188 877.38212367 1853.17023654 C860.71924221 1853.20120909 844.05636267 1853.23317987 827.39348336 1853.26528317 C779.38935101 1853.35775442 731.38525691 1853.44282363 683.38104439 1853.47908211 C681.89975449 1853.48020634 681.89975449 1853.48020634 680.38853954 1853.48135329 C658.70799802 1853.49767539 637.02745603 1853.5102027 615.34691026 1853.51913876 C606.62289648 1853.52280138 597.89888297 1853.52701007 589.17486954 1853.5314064 C587.74267708 1853.53210837 587.74267708 1853.53210837 586.28155143 1853.53282452 C555.53676525 1853.54816519 524.792263 1853.60792733 494.04759136 1853.69107592 C463.06767286 1853.77465683 432.08802966 1853.81449412 401.1079956 1853.79386083 C396.82299099 1853.79101786 392.53798625 1853.78867445 388.25298119 1853.78663254 C386.99305089 1853.78600505 386.99305089 1853.78600505 385.70766745 1853.78536488 C372.42865007 1853.78004396 359.15021671 1853.82174532 345.87135832 1853.88326307 C332.80091808 1853.9428424 319.73123173 1853.95217448 306.66071953 1853.90877039 C299.67357206 1853.88693398 292.68819331 1853.88659401 285.70126198 1853.95148955 C279.33494573 1854.0084481 272.9720767 1854.00002861 266.60580905 1853.94108466 C264.32629094 1853.93114612 262.04651395 1853.94431237 259.76732701 1853.98441843 C242.86406364 1854.26282259 232.65158017 1849.84396427 219.11068217 1839.8270519 C213.93278377 1836.14952598 208.18608047 1833.46223407 202.51171875 1830.640625 C201.29026622 1830.02060137 200.06949905 1829.39922602 198.84936523 1828.77661133 C195.18021487 1826.90700062 191.50312348 1825.05345135 187.82421875 1823.203125 C162.23923038 1810.32865049 141.5579104 1797.70199723 125.82421875 1773.203125 C125.42138672 1772.58018555 125.01855469 1771.95724609 124.60351562 1771.31542969 C116.70070203 1758.92266574 110.62184592 1745.68502384 104.82421875 1732.203125 C104.5096875 1731.47270996 104.19515625 1730.74229492 103.87109375 1729.98974609 C84.31329087 1683.64374976 83.14082295 1631.08900891 101.44921875 1584.265625 C107.87085343 1568.48128176 115.83081831 1553.02503837 125.82421875 1539.203125 C126.62398226 1538.05839839 127.42206569 1536.91249674 128.21875 1535.765625 C133.43523509 1528.29950546 138.93603502 1521.15752145 144.82421875 1514.203125 C145.26459473 1513.67783203 145.7049707 1513.15253906 146.15869141 1512.61132812 C159.83664639 1496.30244824 174.29867363 1479.93153654 190.58203125 1466.1640625 C193.16968732 1463.90099046 195.66270864 1461.55011228 198.16259766 1459.19091797 C203.95255099 1453.72748192 209.79357416 1448.45050508 216.015625 1443.4765625 C219.34287192 1440.78329726 222.58397196 1437.99989141 225.82421875 1435.203125 C230.84053362 1430.88028177 235.91606069 1426.64532562 241.05859375 1422.47265625 C243.56521034 1420.41567286 246.0389179 1418.32710392 248.50463867 1416.22167969 C254.00843997 1411.52224845 259.60471469 1406.97943881 265.31616211 1402.53515625 C270.74343195 1398.29865782 276.05562523 1393.92960939 281.35961914 1389.5402832 C285.55416877 1386.06982936 289.76576777 1382.622807 294.0012207 1379.20239258 C299.72527406 1374.57796914 305.41261037 1369.91589284 311.01171875 1365.140625 C311.50889404 1364.71894043 312.00606934 1364.29725586 312.51831055 1363.86279297 C322.81693183 1355.01576506 332.57983399 1345.59445123 342.13996315 1335.96254539 C343.90074259 1334.18867751 345.66491202 1332.41823829 347.42985535 1330.64851379 C351.1683599 1326.89874982 354.90284262 1323.14499706 358.63671875 1319.390625 C362.9890476 1315.01452821 367.34310016 1310.64017335 371.70139122 1306.27001381 C373.42491804 1304.54008843 375.14536706 1302.80714398 376.86567688 1301.07402039 C382.34497635 1295.56924068 387.89624399 1290.22846744 393.82421875 1285.203125 C395.36903135 1283.7898895 396.911172 1282.37372091 398.44921875 1280.953125 C403.56026496 1276.33669617 408.9359774 1272.12041757 414.37109375 1267.8984375 C418.36293811 1264.79538501 422.27395578 1261.59809976 426.17578125 1258.3828125 C427.97648712 1256.90081563 429.78406446 1255.42713706 431.59765625 1253.9609375 C436.95038261 1249.62777807 442.15902428 1245.18601731 447.2421875 1240.5390625 C448.61096942 1239.30073937 449.98481783 1238.0671471 451.39350891 1236.87442017 C457.37600532 1231.78111156 462.89596703 1226.24793439 468.42611694 1220.6763916 C470.17396797 1218.9156 471.92507847 1217.15810636 473.67700195 1215.40136719 C477.39558226 1211.67144375 481.11020079 1207.93759063 484.82421875 1204.203125 C489.13323304 1199.87038727 493.44392252 1195.53934347 497.75888062 1191.21252441 C499.47131045 1189.49368456 501.18066387 1187.77182688 502.88989258 1186.04980469 C507.87616336 1181.04039084 512.88046165 1176.10636589 518.27629089 1171.53182983 C520.35536259 1169.74720363 522.24436384 1167.80770268 524.13671875 1165.828125 C528.18649969 1161.72277245 532.50626646 1158.12140156 537.00390625 1154.51953125 C539.86806908 1152.16710942 542.59907656 1149.7147589 545.32421875 1147.203125 C549.73712219 1143.14650413 554.27922637 1139.31638807 558.94140625 1135.55078125 C562.10438172 1132.9749706 565.21732667 1130.3459948 568.32421875 1127.703125 C574.09938268 1122.7972949 579.94570156 1117.98477601 585.82421875 1113.203125 C587.65801754 1111.70369408 589.49134818 1110.20369042 591.32421875 1108.703125 C594.04803564 1106.4731446 596.77302676 1104.24476513 599.50390625 1102.0234375 C604.50944562 1097.94646195 609.46905954 1093.82271848 614.38671875 1089.640625 C618.93716189 1085.77082074 623.55254226 1082.00352987 628.234375 1078.29296875 C631.85427632 1075.37193224 635.39219699 1072.35796818 638.93310547 1069.34204102 C642.40076238 1066.3928503 645.90712345 1063.50057641 649.44921875 1060.640625 C654.15065055 1056.81815653 658.61193668 1052.78125392 663.06640625 1048.67578125 C665.79212975 1046.23189602 668.59208513 1043.92871947 671.44921875 1041.640625 C675.83530201 1038.10305856 679.80155669 1034.33036486 683.734375 1030.30078125 C685.58152975 1028.44672125 687.46420044 1026.71889878 689.44921875 1025.015625 C699.10832304 1016.69276043 708.29378001 1007.8236195 717.32421875 998.828125 C717.97003906 998.18689697 718.61585938 997.54566895 719.28125 996.88500977 C723.08280499 993.07115678 726.69274648 989.13953147 730.21240234 985.06445312 C732.3916925 982.54780542 734.63743463 980.09472198 736.88671875 977.640625 C738.53296371 975.82849886 740.178828 974.01602679 741.82421875 972.203125 C742.47519531 971.49285156 743.12617188 970.78257812 743.796875 970.05078125 C747.04915091 966.66225583 747.04915091 966.66225583 747.82421875 962.203125 C746.013044 960.36212541 746.013044 960.36212541 743.57421875 958.578125 C742.64738281 957.8665625 741.72054687 957.155 740.765625 956.421875 C739.30962891 955.32359375 739.30962891 955.32359375 737.82421875 954.203125 C736.96699219 953.5328125 736.10976562 952.8625 735.2265625 952.171875 C705.55648171 929.28962564 672.18507648 911.004897 638.97265625 893.87109375 C635.31535498 891.98390501 631.68369234 890.05814123 628.06982422 888.08935547 C568.61268174 855.77460642 503.74475205 830.7712656 440.15783691 808.03851318 C437.76908234 807.18338728 435.38198057 806.32376825 432.99511719 805.46337891 C376.32714405 785.06617698 318.22649513 767.23850289 258.76171875 757.140625 C257.49408691 756.92414307 256.22645508 756.70766113 254.92041016 756.48461914 C253.76331543 756.29762451 252.6062207 756.11062988 251.4140625 755.91796875 C250.40206787 755.75417725 249.39007324 755.59038574 248.34741211 755.42163086 C245.69958274 755.02417186 245.69958274 755.02417186 242.82421875 756.203125 C241.57788985 757.92277613 241.57788985 757.92277613 240.53442383 760.10742188 C240.10523148 760.94298111 239.67603912 761.77854034 239.23384094 762.63941956 C238.77511093 763.55762985 238.31638092 764.47584015 237.84375 765.421875 C237.35831223 766.3748497 236.87287445 767.3278244 236.37272644 768.30967712 C234.78401378 771.43584958 233.21007962 774.56920181 231.63671875 777.703125 C230.54806189 779.85451928 229.45886661 782.00564119 228.36914062 784.15649414 C221.13892708 798.45884737 214.04218776 812.82420034 207.12141418 827.27877808 C204.33658769 833.09478054 201.51301668 838.88885978 198.63671875 844.66015625 C198.31566162 845.30641464 197.99460449 845.95267303 197.66381836 846.61851501 C180.5740145 880.76970228 157.16122667 911.4440781 119.97509766 924.38305664 C116.62453345 925.46255327 113.24183143 926.36296867 109.82421875 927.203125 C109.1787207 927.36683594 108.53322266 927.53054688 107.86816406 927.69921875 C81.07168998 934.11658315 48.25332115 931.95802246 21.82421875 925.203125 C23.69496298 911.65863219 25.73764773 898.16434647 28.13671875 884.703125 C28.30372284 883.76509033 28.47072693 882.82705566 28.64279175 881.8605957 C36.77027384 836.46178528 46.55742023 791.36155422 56.11370373 746.2478075 C76.10206463 651.88491929 96.10626444 557.31941969 107.82421875 430.203125 C107.88061523 429.38102539 107.93701172 428.55892578 107.99511719 427.71191406 C110.07089083 397.04205142 109.70609978 365.79886974 106.82421875 335.203125 C106.7277002 334.13578125 106.63118164 333.0684375 106.53173828 331.96875 C101.92849252 282.86746189 87.2930237 230.26078855 48.26171875 197.328125 C20.00981175 175.23368491 -13.70856801 166.98420256 -49.11328125 166.953125 C-49.81009003 166.95245026 -50.5068988 166.95177551 -51.224823 166.95108032 C-91.68345037 167.01264192 -135.30745242 174.48857635 -167.17578125 201.203125 C-168.04460937 201.92113281 -168.9134375 202.63914062 -169.80859375 203.37890625 C-186.37957077 217.6441357 -197.59953191 237.46153665 -208.67578125 256.0546875 C-236.03695693 301.93605998 -236.03695693 301.93605998 -256.14648438 307.02539062 C-256.83677734 307.18716797 -257.52707031 307.34894531 -258.23828125 307.515625 C-258.93244141 307.69673828 -259.62660156 307.87785156 -260.34179688 308.06445312 C-264.30774574 309.03240076 -267.28003187 309.47498885 -271.17578125 308.203125 C-272.50610352 306.49169922 -272.50610352 306.49169922 -273.4921875 304.2578125 C-274.04712891 303.02357544 -274.04712891 303.02357544 -274.61328125 301.7644043 C-274.98453125 300.87793213 -275.35578125 299.99145996 -275.73828125 299.078125 C-276.32416016 297.72618042 -276.32416016 297.72618042 -276.921875 296.34692383 C-293.37625269 257.37475788 -279.49484541 216.84620809 -264.7109375 179.44287109 C-251.52461172 147.21216691 -233.91456629 117.76428142 -210.17578125 92.203125 C-209.04676243 90.8940804 -207.92164903 89.58165565 -206.80078125 88.265625 C-199.00351692 79.35446576 -190.49664984 71.49219662 -181.17578125 64.203125 C-180.16773438 63.40132812 -179.1596875 62.59953125 -178.12109375 61.7734375 C-165.2484356 51.61677313 -151.627588 42.93241393 -137.17578125 35.203125 C-136.25539063 34.70498291 -136.25539063 34.70498291 -135.31640625 34.19677734 C-94.54733329 12.29864547 -46.29352126 0.21168752 0 0 Z " fill="#010101" transform="translate(1708.17578125,2747.796875)"/>
<path d="M0 0 C1.58704866 -0.02948006 3.174056 -0.06125922 4.76101685 -0.09513855 C9.05233176 -0.17763833 13.34311204 -0.22085209 17.63508224 -0.25139737 C20.33932343 -0.27135169 23.04342493 -0.29797225 25.74758911 -0.32642937 C34.27297297 -0.41383581 42.79801962 -0.47635056 51.32380962 -0.50405079 C60.08271798 -0.53278227 68.83731651 -0.61263333 77.59472656 -0.78027344 C158.61242497 -2.29912412 158.61242497 -2.29912412 191.10899353 17.70129395 C197.24482788 21.41519138 203.90760794 23.88736861 210.57421875 26.48266602 C212.87913557 27.4242384 215.18275454 28.36900184 217.484375 29.31860352 C220.70549806 30.6348432 223.92760177 31.94852742 227.15185547 33.25708008 C286.82516823 57.55418431 349.02577102 89.44328446 394.26953125 136.24047852 C396.0450907 138.01603797 397.90140077 139.61873446 399.82421875 141.23266602 C404.87952355 145.58419309 409.25372974 150.55712633 413.69189453 155.51879883 C414.86523335 156.82019349 416.0600752 158.10212838 417.2578125 159.38110352 C424.44385227 167.10774445 430.72518392 175.52259521 437.01171875 183.98266602 C437.47255859 184.60222168 437.93339844 185.22177734 438.40820312 185.86010742 C477.53422573 238.77381289 499.23378131 302.02899823 506.26171875 367.10766602 C506.34480286 367.87427551 506.42788696 368.64088501 506.51348877 369.4307251 C508.42395238 387.3124532 509.22034247 405.0628142 509.19921875 423.04516602 C509.19831238 424.48223404 509.19831238 424.48223404 509.1973877 425.94833374 C509.13488166 462.73122733 505.82293519 498.98844147 498.01171875 534.98266602 C497.80885254 535.92996582 497.60598633 536.87726562 497.39697266 537.85327148 C487.6941942 582.18134972 469.96255062 626.43845432 446.01171875 664.98266602 C445.56763672 665.69777344 445.12355469 666.41288086 444.66601562 667.1496582 C434.17213907 683.91721204 422.73367797 699.83747647 410.01171875 714.98266602 C409.47450195 715.62429688 408.93728516 716.26592773 408.38378906 716.92700195 C403.31588664 722.96372298 398.25380512 728.95827912 392.56640625 734.42797852 C390.87627833 736.11810643 389.36070744 737.90211251 387.82421875 739.73266602 C383.49020404 744.7520149 378.5536824 749.08916059 373.63085938 753.51196289 C372.01587027 754.97889509 370.42496153 756.46792222 368.83984375 757.96704102 C361.24564107 765.13546579 353.34210403 771.68919032 345.01171875 777.98266602 C344.29741699 778.52681152 343.58311523 779.07095703 342.84716797 779.6315918 C326.38816722 792.13732623 309.19140462 803.15656172 291.01171875 812.98266602 C290.19316406 813.43077637 289.37460938 813.87888672 288.53125 814.34057617 C210.81322838 856.743965 117.96603364 874.12435108 30.01171875 863.98266602 C28.88652832 863.85375977 27.76133789 863.72485352 26.60205078 863.59204102 C-22.00769513 857.82376462 -68.69298975 844.86975985 -112.98828125 823.98266602 C-113.87241699 823.57081055 -114.75655273 823.15895508 -115.66748047 822.73461914 C-137.90279408 812.31276421 -159.072815 799.31393238 -178.98828125 784.98266602 C-179.54966797 784.58031738 -180.11105469 784.17796875 -180.68945312 783.76342773 C-192.78459774 775.03937055 -204.44752934 765.55843177 -215.36328125 755.39672852 C-217.46778629 753.46133549 -219.60047464 751.58677788 -221.765625 749.72094727 C-226.21267852 745.84242393 -230.39091103 741.72762377 -234.55078125 737.54516602 C-235.26685547 736.83295898 -235.98292969 736.12075195 -236.72070312 735.38696289 C-240.80117308 731.29906714 -244.70153947 727.1115833 -248.47143555 722.73583984 C-250.29999044 720.6223918 -252.20600945 718.58756841 -254.11328125 716.54516602 C-260.548924 709.40051178 -266.25266093 701.69078418 -271.98828125 693.98266602 C-272.53564941 693.24951172 -273.08301758 692.51635742 -273.64697266 691.76098633 C-320.55023385 628.69332438 -350.05912689 552.536281 -355.98828125 473.98266602 C-356.07368164 472.99105469 -356.15908203 471.99944336 -356.24707031 470.9777832 C-357.35591496 456.34023896 -357.23412949 441.65369206 -357.23828125 426.98266602 C-357.23894403 425.91048639 -357.23894403 425.91048639 -357.23962021 424.81664658 C-357.2464496 403.74318223 -357.11534092 382.87408594 -353.98828125 361.98266602 C-353.81135742 360.76901367 -353.63443359 359.55536133 -353.45214844 358.30493164 C-341.31157882 277.24199182 -306.60328982 207.90550104 -248.94720459 149.7673645 C-247.95070058 148.76216552 -246.95557011 147.75560257 -245.9619751 146.74752808 C-239.31919574 140.01946198 -232.37820644 133.88117672 -224.98828125 127.98266602 C-223.89843895 127.05930451 -222.81380911 126.1296933 -221.73828125 125.18969727 C-189.07067225 96.74474795 -150.36007151 73.50332295 -112.1875 53.29516602 C-106.38848536 50.2186135 -100.68280228 46.9975044 -94.98828125 43.73266602 C-83.9602658 37.43136205 -72.74202253 31.50982304 -61.50561523 25.59204102 C-51.51757904 20.33088485 -41.57562527 14.99371491 -31.6796875 9.56079102 C-30.9556221 9.17250846 -30.2315567 8.7842259 -29.48554993 8.38417721 C-26.98405873 7.02132638 -26.98405873 7.02132638 -24.68597412 5.45294285 C-16.66850552 0.40109791 -9.18921182 0.04775037 0 0 Z " fill="#010101" transform="translate(790.98828125,-0.982666015625)"/>
<path d="M0 0 C0.66306152 0.18191895 1.32612305 0.36383789 2.00927734 0.55126953 C22.95742303 6.45133875 41.04353477 17.62746401 58 31 C59.41732422 32.10794922 59.41732422 32.10794922 60.86328125 33.23828125 C68.41895382 39.38277762 75.3486912 46.1383904 82.25 53 C83.17280762 53.91354248 84.09561523 54.82708496 85.04638672 55.76831055 C91.12458934 61.87434477 96.61977791 68.27775711 102 75 C102.9235418 76.08968952 103.85316302 77.17430585 104.79296875 78.25 C112.11247337 86.65608687 118.69960366 95.53173599 125.23144531 104.55810547 C126.95727175 106.94100387 128.69234054 109.31689901 130.4296875 111.69140625 C137.20199331 120.97193685 143.7228479 130.37857726 150 140 C150.48404297 140.73911621 150.96808594 141.47823242 151.46679688 142.23974609 C166.53880927 165.26115216 181.18088877 188.55425007 195.68359375 211.9375 C204.16523894 225.5929375 212.87215782 239.0858328 221.70849609 252.51416016 C224.151511 256.22817183 226.58593909 259.94777841 229.01953125 263.66796875 C229.86880446 264.96590866 230.71808826 266.26384164 231.56738281 267.56176758 C232.79463132 269.43731829 234.02186246 271.31288027 235.24890137 273.18856812 C243.17277408 285.29834181 251.21289238 297.32579163 259.31921387 309.31401062 C275.79475587 333.67962549 292.06448864 358.14039231 307.8125 382.984375 C310.64135837 387.44370901 313.49956404 391.88309361 316.375 396.3125 C320.83898357 403.19146631 325.26858633 410.09199843 329.6875 417 C330.36232422 418.05469482 331.03714844 419.10938965 331.73242188 420.19604492 C335.23544955 425.67262678 338.73491334 431.15145833 342.23046875 436.6328125 C352.44940406 452.64774038 362.89783991 468.46061401 373.65625 484.1171875 C375.84042418 487.2984296 378.00646538 490.49073954 380.15625 493.6953125 C394.72231277 515.34316797 410.67107505 536.21138233 428.484375 555.30078125 C430.88402948 557.8755658 433.22732209 560.49180113 435.5625 563.125 C441.8887587 570.1629628 448.51110549 576.90683749 455.71484375 583.05078125 C457.47300771 584.55048008 459.2115625 586.07319016 460.94140625 587.60546875 C474.17839001 599.27483712 488.38570031 609.47250349 503.1875 619.0625 C504.5628894 619.96210449 504.5628894 619.96210449 505.96606445 620.87988281 C526.35211677 633.88148171 548.35274052 644.32704672 569.97528076 655.08544922 C572.75944995 656.47211968 575.54136491 657.86327919 578.32328415 659.25445652 C593.72790588 666.95646325 609.1747104 674.55372677 624.73959351 681.92810059 C627.72904768 683.34571913 630.71258212 684.77532067 633.6953125 686.20703125 C634.59958984 686.64080078 635.50386719 687.07457031 636.43554688 687.52148438 C637.32306641 687.94751953 638.21058594 688.37355469 639.125 688.8125 C640.13884766 689.29912109 641.15269531 689.78574219 642.19726562 690.28710938 C650.92153119 694.47708756 659.63735151 698.68448196 668.35186768 702.89468384 C676.72889277 706.94167671 685.11113515 710.97759172 693.5 715 C705.50612292 720.75749039 717.49780133 726.54471077 729.48703003 732.33726501 C733.67540967 734.36070074 737.8647998 736.38203191 742.0546875 738.40234375 C748.0813626 741.30853205 754.10643598 744.21802073 760.13037109 747.12988281 C762.77610384 748.40876189 765.42232412 749.68662542 768.06884766 750.96386719 C785.85261031 759.54862505 803.56951627 768.25406641 821.21792603 777.11395264 C830.14907208 781.59652283 839.08621499 786.04969348 848.125 790.3125 C859.58453444 795.72480714 870.91303414 801.39919667 882.25 807.0625 C883.18394592 807.52822418 884.11789185 807.99394836 885.08013916 808.4737854 C895.39808111 813.62141274 905.66906664 818.84149993 915.85874939 824.23881531 C921.70917018 827.33368726 927.58989348 830.3648103 933.48828125 833.3671875 C934.36854477 833.8152626 935.24880829 834.26333771 936.15574646 834.72499084 C937.95430808 835.64011772 939.75294875 836.55508924 941.55166626 837.46990967 C955.37236595 844.50377456 969.15330793 851.56989347 982.71484375 859.09375 C986.82735403 861.37179353 990.97156561 863.58640746 995.12890625 865.78125 C1008.10394313 872.63526352 1020.95986744 879.59622813 1033.59423828 887.06860352 C1039.58429037 890.60863851 1045.62708754 894.00860457 1051.75 897.3125 C1072.02694727 908.36488999 1091.40703872 920.78225979 1110.625 933.5625 C1111.46729156 934.12107697 1112.30958313 934.67965393 1113.17739868 935.25515747 C1129.50097828 946.09865113 1129.50097828 946.09865113 1137.00073242 952.34545898 C1139.17452573 954.14443288 1141.41830023 955.8235779 1143.6875 957.5 C1148.0494545 960.88665834 1151.58839417 964.67073881 1155 969 C1155.45648926 969.56879883 1155.91297852 970.13759766 1156.38330078 970.72363281 C1160.12169205 975.51170849 1162.95628311 980.36765104 1165.5 985.875 C1165.88236816 986.69581055 1166.26473633 987.51662109 1166.65869141 988.36230469 C1183.48616349 1025.32757124 1184.67213739 1066.85749564 1171 1105 C1164.11456479 1123.33438386 1154.116816 1139.51277039 1141 1154 C1139.85917969 1155.33804688 1139.85917969 1155.33804688 1138.6953125 1156.703125 C1117.38697851 1181.42382564 1086.06945305 1196.77097409 1053.78735352 1199.80151367 C995.26369081 1203.96896027 937.95833668 1183.82840075 885 1161 C884.03416992 1160.5884668 883.06833984 1160.17693359 882.07324219 1159.75292969 C863.40972251 1151.79303411 845.19073607 1142.9733508 827 1134 C826.27031006 1133.64063354 825.54062012 1133.28126709 824.78881836 1132.91101074 C807.58587418 1124.43793292 790.50818451 1115.82412956 773.74169922 1106.50976562 C769.64543004 1104.25408187 765.5204061 1102.05290497 761.3972168 1099.84692383 C751.15748125 1094.36758953 740.99144397 1088.77987696 730.89697266 1083.03759766 C719.44830847 1076.53164955 707.91008388 1070.1885845 696.36816406 1063.85009766 C694.28356846 1062.70505087 692.19948112 1061.55907756 690.11621094 1060.41162109 C659.3460709 1043.46484481 628.32176637 1026.98023049 596.40917969 1012.27832031 C586.19553354 1007.5722227 576.03244364 1002.76354598 565.875 997.9375 C553.05527205 991.84989143 540.20778615 985.83245993 527.3125 979.90625 C517.15021193 975.23466921 507.01876871 970.49669165 496.8891449 965.75480652 C493.6320516 964.23023825 490.37405766 962.70766704 487.11376953 961.18994141 C461.23785325 949.14315475 435.59662379 936.62805559 410 924 C409.14766785 923.57984619 408.29533569 923.15969238 407.41717529 922.72680664 C390.33168234 914.30260706 373.31237304 905.80872671 356.68554688 896.50097656 C353.79098585 894.88318009 350.88805707 893.28105062 347.984375 891.6796875 C310.48804699 870.93622815 271.36260953 848.5757418 240 819 C238.62969313 817.80708746 237.25479375 816.61942658 235.875 815.4375 C228.0659497 808.59871246 221.48361482 801.09333988 215 793 C213.60524316 791.31161014 212.20939495 789.62412131 210.8125 787.9375 C195.67861948 769.4259887 181.06166918 750.36386012 167.29101562 730.81787109 C165.29607307 728.00880486 163.26683648 725.22483727 161.24169922 722.4375 C156.18070563 715.46778042 151.19631856 708.45600772 146.34228516 701.34057617 C143.80963399 697.62884013 141.25753737 693.9328731 138.671875 690.2578125 C127.14131647 673.84864291 116.04613508 657.15720182 104.95193481 640.45129395 C101.27423627 634.91391758 97.58802418 629.38232138 93.89453125 623.85546875 C84.6678922 610.04678643 75.4718138 596.22330911 66.46679688 582.26855469 C64.946779 579.91768816 63.41973951 577.57152133 61.890625 575.2265625 C53.8735307 562.93057145 45.95055389 550.57563563 38.04833984 538.20556641 C34.70186621 532.96847478 31.35073342 527.73436677 28 522.5 C26.66664356 520.41668145 25.33331025 518.33334811 24 516.25 C23.01 514.703125 23.01 514.703125 22 513.125 C15.99999999 503.74999999 15.99999999 503.74999999 13.9987793 500.62304688 C12.66957043 498.54618846 11.34030638 496.46936537 10.01098633 494.39257812 C6.61408814 489.08547128 3.21824233 483.77769576 -0.17578125 478.46875 C-7.32080134 467.29443185 -14.4818994 456.13137986 -21.70117188 445.00488281 C-23.0590442 442.90885884 -24.41278134 440.81021028 -25.765625 438.7109375 C-35.04803805 424.31266748 -44.54360252 410.1145818 -54.47216797 396.15283203 C-55.97771101 394.03140689 -57.47646886 391.90537537 -58.97265625 389.77734375 C-64.63914921 381.71945251 -70.36435382 373.70762157 -76.14428711 365.73071289 C-80.3110166 359.97310682 -84.41948973 354.17661912 -88.50244141 348.359375 C-90.92582454 344.91334462 -93.36676066 341.48439008 -95.8671875 338.09375 C-142.57407699 274.65189449 -201.22444525 190.67380768 -189.17578125 107.7565918 C-185.95660488 89.42156508 -178.44946597 71.035899 -166 57 C-165.28972656 56.18273438 -164.57945312 55.36546875 -163.84765625 54.5234375 C-161.60064322 51.98066378 -159.30830293 49.48711513 -157 47 C-156.4328125 46.35546875 -155.865625 45.7109375 -155.28125 45.046875 C-143.72481378 32.54491218 -128.01893517 23.66824778 -113 16 C-112.30052246 15.64067383 -111.60104492 15.28134766 -110.88037109 14.91113281 C-76.99174351 -2.29081382 -37.23628257 -10.54118537 0 0 Z " fill="#010101" transform="translate(617,1134)"/>
<path d="M0 0 C0.81287476 0.00182281 1.62574951 0.00364563 2.46325684 0.00552368 C15.13755541 0.05330835 27.52499125 0.52121007 39.9375 3.3125 C40.66163086 3.47347168 41.38576172 3.63444336 42.13183594 3.80029297 C69.8925787 10.29443526 91.52297173 25.55989004 106.97265625 49.4609375 C114.78165046 62.37060423 119.48269386 76.1850634 122.75 90.875 C123.04233521 92.18295532 123.04233521 92.18295532 123.34057617 93.51733398 C126.87035846 110.55642849 127.34394563 127.59666476 127.3125 144.9375 C127.31168427 146.64008972 127.31168427 146.64008972 127.31085205 148.3770752 C127.24997835 176.23190501 124.39251529 203.37965351 120.27734375 230.89453125 C120.15108423 231.74024752 120.02482471 232.58596378 119.89473915 233.45730782 C116.9678507 252.93410289 113.35428311 272.26758316 109.63311768 291.60571289 C108.2930234 298.57967617 106.96814239 305.55655943 105.63994849 312.53279686 C105.3003314 314.31643996 104.96061249 316.10006367 104.62075651 317.88366127 C97.52636062 355.12778885 90.79618199 392.4291508 84.43510532 429.80530667 C83.51302329 435.21874564 82.58718572 440.63154259 81.6618042 446.04441833 C80.07516482 455.32780468 78.4905301 464.61153116 76.90734863 473.89550781 C74.38659732 488.67700982 71.86124813 503.45772449 69.33496094 518.23828125 C69.12172479 519.48589288 68.90848865 520.73350452 68.6887908 522.01892257 C67.82402621 527.07850455 66.95925082 532.13808468 66.09442687 537.19765651 C64.78886014 544.8358269 63.48359064 552.474048 62.17855334 560.11230886 C54.21250981 606.73607436 46.21074295 653.35365059 38.19267654 699.96849442 C37.18241717 705.8419175 36.17234344 711.7153725 35.162323 717.58883667 C34.99493891 718.5622074 34.82755483 719.53557813 34.6550985 720.53844494 C34.31678336 722.50582271 33.97846932 724.47320067 33.64015639 726.44057882 C32.79446112 731.35851472 31.94875241 736.27644831 31.1030426 741.19438171 C30.85185029 742.65511103 30.85185029 742.65511103 30.59558338 744.14535004 C29.58279825 750.03484759 28.56995295 755.92433478 27.55706948 761.81381541 C19.87361299 806.49016231 12.20168238 851.16848749 4.53063107 895.84696579 C3.65066521 900.97211728 2.77067539 906.09726466 1.89068604 911.22241211 C-0.74984099 926.60113554 -3.39035968 941.97986041 -6.0307765 957.35860276 C-11.07771507 986.75379521 -16.12534208 1016.14886937 -21.17342567 1045.5438652 C-22.33537298 1052.30989088 -23.49730154 1059.07591977 -24.65922546 1065.84194946 C-24.8494587 1066.94970061 -25.03969194 1068.05745176 -25.23568982 1069.19877112 C-25.99894833 1073.64331794 -26.76220663 1078.08786479 -27.52546394 1082.53241181 C-29.36543393 1093.24679151 -31.20541178 1103.96116985 -33.04549372 1114.67553031 C-33.74181693 1118.73005785 -34.43812969 1122.78458719 -35.13444352 1126.83911633 C-35.64527973 1129.81360098 -36.15613474 1132.78808239 -36.66699028 1135.76256371 C-38.30496788 1145.30003979 -39.94246469 1154.83759802 -41.57891846 1164.37533569 C-42.20582295 1168.02887448 -42.8327606 1171.68240758 -43.4597168 1175.3359375 C-43.61212523 1176.22413154 -43.76453366 1177.11232558 -43.92156053 1178.02743459 C-45.95625884 1189.88392801 -47.99777332 1201.73922624 -50.04486382 1213.59358597 C-55.45385697 1244.92175075 -60.81523356 1276.2509983 -65.59897995 1307.68210602 C-66.01634557 1310.41971483 -66.43650195 1313.15688461 -66.85720825 1315.89398193 C-70.26674981 1338.09687425 -73.52409196 1360.31782324 -76.59375 1382.5703125 C-76.73804506 1383.61616264 -76.88234013 1384.66201279 -77.03100777 1385.73955536 C-78.42488983 1395.85595381 -79.80669256 1405.97387949 -81.16023731 1416.09575748 C-83.73201279 1435.31366805 -86.46876454 1454.48192076 -89.72265625 1473.59765625 C-89.8650215 1474.43969227 -90.00738674 1475.28172829 -90.15406609 1476.14928055 C-99.32210965 1530.0919905 -118.15148076 1575.87482141 -162.0625 1610.3125 C-163.08472656 1611.14007812 -164.10695313 1611.96765625 -165.16015625 1612.8203125 C-175.09602716 1620.82511073 -185.52351334 1628.1269292 -196.0625 1635.3125 C-196.9629303 1635.99180573 -197.8633606 1636.67111145 -198.79107666 1637.3710022 C-202.44749268 1639.54098234 -204.48945502 1639.85145361 -208.70019531 1639.94116211 C-210.00305481 1639.97636459 -211.30591431 1640.01156708 -212.64825439 1640.0478363 C-214.06235571 1640.06392703 -215.47648281 1640.07787248 -216.890625 1640.08984375 C-218.36350668 1640.11036198 -219.8363867 1640.13099912 -221.30926514 1640.15174866 C-224.39928378 1640.18918867 -227.48887994 1640.20861664 -230.57910156 1640.21850586 C-233.71486048 1640.2315163 -236.84674868 1640.27977188 -239.98144531 1640.36206055 C-272.48047768 1641.19924568 -272.48047768 1641.19924568 -286.34875488 1629.70248413 C-288.86801146 1627.65916589 -291.59928259 1626.00561722 -294.359375 1624.30859375 C-296.17952687 1623.12614872 -297.99728455 1621.94000922 -299.8125 1620.75 C-301.26789185 1619.79649658 -301.26789185 1619.79649658 -302.75268555 1618.82373047 C-313.3289399 1611.86216763 -323.68325299 1604.9310876 -332.9609375 1596.2578125 C-335.17090146 1594.15734405 -335.17090146 1594.15734405 -338.1875 1591.875 C-359.38265709 1572.98366434 -366.89497254 1544.00186395 -368.86621094 1516.734375 C-369.18032095 1511.25854669 -369.24673972 1505.79629153 -369.25 1500.3125 C-369.26224609 1499.25933594 -369.27449219 1498.20617188 -369.28710938 1497.12109375 C-369.31730914 1480.06829442 -366.94174587 1463.19671296 -364.02270508 1446.43164062 C-363.71665736 1444.63936591 -363.4112933 1442.84697435 -363.10654259 1441.05447865 C-362.28058548 1436.20790669 -361.44516554 1431.36301001 -360.6079843 1426.5183661 C-359.70843451 1421.30253646 -358.81794852 1416.08515857 -357.92634583 1410.8679657 C-356.39000611 1401.88534594 -354.84810586 1392.90369559 -353.30230713 1383.92269897 C-351.04824989 1370.82658334 -348.80306512 1357.72895808 -346.55998468 1344.63095844 C-343.00036828 1323.8462949 -339.43466494 1303.06268146 -335.86474609 1282.27978516 C-331.76258054 1258.39780923 -327.66950122 1234.51428944 -323.58263564 1210.62969089 C-322.33586517 1203.34339141 -321.08887024 1196.05713034 -319.84188449 1188.77086771 C-319.53356876 1186.96934538 -319.22525768 1185.16782225 -318.9169513 1183.36629832 C-315.63167477 1164.16974785 -312.34209865 1144.97393489 -309.05214882 1125.77818489 C-303.00118588 1090.47275875 -296.95568682 1055.1664004 -290.9140625 1019.859375 C-290.51932259 1017.55255245 -290.12458216 1015.24573 -289.72984123 1012.93890762 C-289.5338508 1011.79356029 -289.33786037 1010.64821295 -289.13593084 1009.46815813 C-288.93952321 1008.32037279 -288.74311559 1007.17258746 -288.54075623 1005.99002075 C-288.34389967 1004.83961103 -288.14704311 1003.68920131 -287.9442212 1002.50393069 C-287.34522063 999.00343411 -286.74621884 995.50293774 -286.1472168 992.00244141 C-285.94868351 990.84223299 -285.75015022 989.68202458 -285.54560077 988.48665833 C-271.83504345 908.36388302 -258.11737353 828.2423251 -244.375 748.125 C-244.19729317 747.08895614 -244.01958633 746.05291228 -243.83649445 744.98547316 C-235.11900406 694.16247857 -226.3837805 643.34256623 -217.62109375 592.52734375 C-217.42498701 591.39007977 -217.22888028 590.25281579 -217.02683091 589.08108926 C-213.05006085 566.01921749 -209.07174947 542.95761244 -205.08953094 519.89668083 C-201.07329525 496.63864063 -197.06283084 473.37961458 -193.06148911 450.11900711 C-192.38417982 446.18178497 -191.70652175 442.24462308 -191.02859879 438.30750656 C-189.12353849 427.24279157 -187.22146636 416.17757359 -185.32647121 405.11112988 C-184.52121568 400.40869774 -183.71483639 395.70646774 -182.90486908 391.00484467 C-176.03685115 351.12388818 -170.44674726 311.12937288 -165.578125 270.95703125 C-165.41934561 269.64702337 -165.41934561 269.64702337 -165.25735855 268.31055069 C-165.04290108 266.54082648 -164.82847256 264.77109877 -164.6140728 263.00136757 C-164.07639769 258.56336934 -163.53832896 254.12541896 -163 249.6875 C-162.89441521 248.81643112 -162.78883041 247.94536224 -162.68004608 247.04789734 C-143.18647656 86.37897548 -143.18647656 86.37897548 -94.0625 35.3125 C-93.57313965 34.80251465 -93.0837793 34.2925293 -92.57958984 33.76708984 C-76.56775966 17.40847213 -54.53781475 6.32740089 -32.0625 2.3125 C-31.08418213 2.13662354 -30.10586426 1.96074707 -29.09790039 1.77954102 C-19.36589979 0.20367023 -9.82929428 -0.04576372 0 0 Z " fill="#010101" transform="translate(1648.0625,2960.6875)"/>
<path d="M0 0 C80.93800042 -0.73333845 158.63028147 11.28083074 232 47 C232.99418945 47.48339844 233.98837891 47.96679688 235.01269531 48.46484375 C250.09518972 55.87801782 264.13525233 64.51952422 278 74 C278.81823242 74.5578418 279.63646484 75.11568359 280.47949219 75.69042969 C289.32593082 81.75058843 297.7918051 88.09186082 306 95 C306.83015625 95.65742187 307.6603125 96.31484375 308.515625 96.9921875 C324.86367286 109.96294404 340.56343725 125.02377923 354 141 C354.78246094 141.89332031 355.56492187 142.78664063 356.37109375 143.70703125 C378.37694571 168.96801759 396.59993238 197.89230152 411.06884766 228.06835938 C412.01331185 230.02761493 412.97999717 231.97476518 413.94921875 233.921875 C419.85585364 245.94308391 424.48944549 258.39929395 429 271 C429.28617188 271.78987305 429.57234375 272.57974609 429.8671875 273.39355469 C440.21387653 302.1414716 446.6600588 332.6604392 450 363 C450.10441406 363.92635254 450.20882812 364.85270508 450.31640625 365.80712891 C460.8858104 464.05910579 435.02764153 567.09829707 374.5 653.4375 C373.00011864 655.29176264 371.50012942 657.14593804 370 659 C368.67676399 660.82559958 367.36409612 662.65890932 366.0625 664.5 C361.39783618 670.96820793 356.2265733 676.98460942 351 683 C350.4548877 683.6290625 349.90977539 684.258125 349.34814453 684.90625 C303.35404733 737.7641804 244.76763987 776.96842003 179 801 C178.09233887 801.33451172 177.18467773 801.66902344 176.24951172 802.01367188 C141.97287321 814.48674551 105.37104856 822.29170402 69 825 C67.85104248 825.08612549 66.70208496 825.17225098 65.51831055 825.26098633 C55.56764023 825.94793554 45.66053841 826.20081316 35.6875 826.1875 C34.9113031 826.18722809 34.1351062 826.18695618 33.33538818 826.18667603 C-22.82488444 826.09705933 -77.62451119 814.68797967 -129 792 C-129.84401367 791.62762207 -130.68802734 791.25524414 -131.55761719 790.87158203 C-150.00534553 782.63929251 -167.43560956 772.54388197 -184 761 C-184.85053955 760.41750488 -184.85053955 760.41750488 -185.71826172 759.82324219 C-195.96777015 752.80351053 -205.51129941 745.00841817 -215 737 C-215.63502441 736.46552246 -216.27004883 735.93104492 -216.92431641 735.38037109 C-224.56212093 728.93906836 -232.01028394 722.3249508 -239.33081055 715.52563477 C-240.57141309 714.3917273 -241.82499318 713.2719853 -243.08520508 712.15991211 C-250.09325945 705.95736475 -256.72932825 699.42379219 -263.33276367 692.79760742 C-265.19142108 690.93356756 -267.05539614 689.07496488 -268.91992188 687.21679688 C-274.82490877 681.31535463 -280.63464442 675.40430894 -286 669 C-286.79664063 668.08476562 -287.59328125 667.16953125 -288.4140625 666.2265625 C-335.84784403 610.4122542 -362.02236648 539.91391068 -372 468 C-372.16516113 466.81470703 -372.33032227 465.62941406 -372.50048828 464.40820312 C-380.11611308 406.66491356 -380.52999533 332.85076299 -344 284 C-310.956207 295.92663442 -279.24784406 311.9277732 -248.54296875 328.9453125 C-242.68817247 332.18859384 -236.77976794 335.32968156 -230.87158203 338.47415161 C-220.64722245 343.91869208 -210.50477502 349.48833397 -200.44165039 355.22631836 C-193.67602123 359.07647026 -186.85506985 362.81169839 -180 366.5 C-172.19506793 370.69936545 -164.44921688 374.98491363 -156.75 379.375 C-147.15909223 384.83714602 -137.46490388 390.09277378 -127.71972656 395.27294922 C-122.47067474 398.06441167 -117.23075604 400.86785377 -112.01977539 403.72973633 C-98.97505358 410.89314142 -85.82528558 417.81192025 -72.5625 424.5625 C-71.57976105 425.06368347 -70.59702209 425.56486694 -69.58450317 426.08123779 C-56.37707636 432.81432018 -43.15855045 439.49751236 -29.70898438 445.73681641 C-26.6674699 447.15505684 -23.63863037 448.59873673 -20.609375 450.04296875 C44.91001619 481.10658171 115.94111739 507.77792891 189 511 C189.7744043 511.03464355 190.54880859 511.06928711 191.34667969 511.10498047 C238.86437679 512.89831128 284.15329511 498.37362413 319.9375 466.9375 C325.17025523 462.02495815 329.66776778 456.71341427 334 451 C334.80179688 449.95199219 335.60359375 448.90398438 336.4296875 447.82421875 C369.97668813 403.01177707 380.66531084 341.66940177 373 287 C367.07152845 249.68201872 354.29748147 212.17093507 328.0078125 184.18359375 C326 182 326 182 324.04296875 179.48046875 C320.32344382 174.96441076 315.60442806 171.57066858 311 168 C310.45972168 167.57944336 309.91944336 167.15888672 309.36279297 166.72558594 C265.38891573 132.78936315 211.92998564 112.03062423 161.0625 90.8125 C37.03233063 39.06716622 37.03233063 39.06716622 0 1 C0 0.67 0 0.34 0 0 Z " fill="#010101" transform="translate(1459,1866)"/>
<path d="M0 0 C40.18264716 3.36953484 79.49093194 9.65560823 118 22 C118.90685547 22.28987793 119.81371094 22.57975586 120.74804688 22.87841797 C166.11369549 37.58533623 208.65226539 61.7898412 243 95 C243.73976074 95.7125293 244.47952148 96.42505859 245.24169922 97.15917969 C254.78983202 106.3998073 263.8660306 115.65893811 271.76269531 126.35693359 C273.02091701 128.02777654 274.32371796 129.65101921 275.6484375 131.26953125 C294.9293919 154.89104241 309.49252622 182.30929857 322 210 C322.35223633 210.77907715 322.70447266 211.5581543 323.06738281 212.36083984 C352.81343289 278.93464325 366.4819645 351.24682646 381.19921875 422.2265625 C381.37612621 423.07940008 381.55303368 423.93223766 381.73530197 424.81091881 C383.47157138 433.18155506 385.20612142 441.55250488 386.92342091 449.92705631 C390.97881054 469.69533312 395.25704265 489.38336239 400 509 C400.20847565 509.86229218 400.41695129 510.72458435 400.63174438 511.61300659 C409.42315214 547.72779344 420.42774902 584.10917332 438 617 C438.38269043 617.7213916 438.76538086 618.4427832 439.15966797 619.18603516 C468.17846664 673.58604831 509.49139398 705.73663935 568.125 723.75 C569.58474437 724.190929 571.044781 724.63089175 572.50512695 725.06982422 C593.4334095 731.39269756 612.44733007 740.4845497 631 752 C629.70554486 755.88336543 628.16045043 756.48677741 624.75 758.6875 C623.65945313 759.39261719 622.56890625 760.09773438 621.4453125 760.82421875 C620.2977767 761.55090503 619.14934602 762.27618021 618 763 C616.94554688 763.66644531 615.89109375 764.33289062 614.8046875 765.01953125 C611.55432743 767.04401842 608.28253725 769.02815784 605 771 C603.95714844 771.63679688 602.91429688 772.27359375 601.83984375 772.9296875 C565.03051715 794.77837003 522.19997941 806.52774545 479.4375 806.3125 C478.65763733 806.31034485 477.87777466 806.3081897 477.07427979 806.30596924 C394.65011979 805.94303356 323.86026527 762.66978729 267 706.125 C265.95875977 705.09088989 265.95875977 705.09088989 264.89648438 704.03588867 C260.39510832 699.51983422 256.15028991 694.83902337 252 690 C251.154375 689.03578125 250.30875 688.0715625 249.4375 687.078125 C203.16668816 633.39211895 175.81566951 570.23914463 157.9375 502.3125 C157.75374817 501.61632568 157.56999634 500.92015137 157.38067627 500.20288086 C149.84376598 471.51427018 143.15605354 442.61090467 136.68408203 413.66687012 C117.05427451 297.99344115 117.05427451 297.99344115 61.375 199.9375 C55.66645553 194.73839946 51.16412124 190.15941463 48 183 C47.71141113 182.35450195 47.42282227 181.70900391 47.12548828 181.04394531 C24.7875056 130.31175399 15.16823718 72.34156208 3.125 18.5625 C2.95756287 17.81965759 2.79012573 17.07681519 2.61761475 16.3114624 C2.15943353 14.27249549 1.70732946 12.23229845 1.2578125 10.19140625 C1.0117627 9.07967041 0.76571289 7.96793457 0.51220703 6.82250977 C0 4 0 4 0 0 Z " fill="#010101" transform="translate(1931,2122)"/>
</svg>
