<?xml version="1.0" encoding="UTF-8"?>
<svg version="1.1" xmlns="http://www.w3.org/2000/svg" width="4968" height="2460">
<path d="M0 0 C0.85533325 0.32528687 1.7106665 0.65057373 2.59191895 0.98571777 C31.93636672 12.16020495 61.09408379 23.73462248 90 36 C90.77631775 36.32917419 91.5526355 36.65834839 92.35247803 36.99749756 C129.6388428 52.82267788 166.49913798 69.60315805 203.04498291 87.06677246 C204.87192569 87.93886372 206.70031374 88.80792547 208.52880859 89.67675781 C226.00307975 97.98171745 243.31602225 106.60719326 260.625 115.25 C261.7394751 115.80589813 262.8539502 116.36179626 264.00219727 116.93453979 C277.04072139 123.4419089 290.02337719 130.03483851 302.88897705 136.87817383 C305.56781254 138.30174327 308.25147423 139.71606016 310.93516541 141.13044739 C329.41036299 150.87327429 347.7509872 160.84045936 366 171 C367.08893555 171.60440918 368.17787109 172.20881836 369.29980469 172.83154297 C382.59886517 180.21431435 395.79799411 187.74898728 408.91796875 195.4453125 C414.09733138 198.48076892 419.30100363 201.4719585 424.51049805 204.45532227 C446.68257329 217.16637633 468.42178601 230.56057023 490.06005859 244.15722656 C493.04198248 246.02631488 496.02979587 247.8856232 499.01953125 249.7421875 C519.52297919 262.4820169 539.66002831 275.74657779 559.75 289.125 C560.96962936 289.93670151 560.96962936 289.93670151 562.21389771 290.76480103 C571.23129799 296.76892533 580.2218578 302.81011274 589.1640625 308.92578125 C589.92362244 309.44524323 590.68318237 309.9647052 591.46575928 310.49990845 C598.6620687 315.43393355 605.78783762 320.46584929 612.90283203 325.51611328 C615.02296803 327.01625142 617.14916761 328.50738779 619.27734375 329.99609375 C626.92002206 335.34884078 634.46918575 340.79697266 641.90820312 346.4296875 C646.90183873 350.20309222 651.97016494 353.86130398 657.0625 357.5 C663.35200816 362.00561635 669.45822247 366.67612783 675.46166992 371.55517578 C679.85031193 375.11302924 684.33228273 378.51678461 688.875 381.875 C696.87041777 387.80098093 704.51719393 394.1144087 712.1640625 400.47998047 C714.54584502 402.45191903 716.95561778 404.38694738 719.375 406.3125 C728.81733468 413.83139613 738.05103273 421.56833058 747.19287109 429.44726562 C748.98424144 430.98645982 750.78195887 432.51787119 752.58203125 434.046875 C759.29342936 439.75446696 765.87225684 445.5724139 772.33984375 451.5546875 C774.51221246 453.55160793 776.70539163 455.50828734 778.9375 457.4375 C787.14498679 464.56775415 795.1443021 471.95731001 802.70703125 479.76953125 C804.66380181 481.67296565 806.66039637 483.45303973 808.7265625 485.234375 C813.19667137 489.1172536 817.38840896 493.24074422 821.5625 497.4375 C822.27857422 498.14970703 822.99464844 498.86191406 823.73242188 499.59570312 C827.78834278 503.65900514 831.64640943 507.82801659 835.39428711 512.17602539 C837.65356532 514.7424033 840.05338427 517.1109517 842.5 519.5 C846.8863025 523.83430569 851.01340822 528.29744888 855 533 C855.85851563 533.99257813 856.71703125 534.98515625 857.6015625 536.0078125 C889.09703278 572.43656417 916.2542649 610.95494537 938 654 C938.62503418 655.23387451 938.62503418 655.23387451 939.26269531 656.49267578 C985.96513022 749.49261119 980.8633324 850.05846103 948.77124023 950.06933594 C938.91958573 978.98290991 926.7672657 1007.6964763 908 1032 C907.57340088 1032.55526367 907.14680176 1033.11052734 906.70727539 1033.68261719 C889.18462935 1055.67688744 847.37584601 1065.72127211 822 1075 C821.13336731 1075.31731079 820.26673462 1075.63462158 819.37384033 1075.96154785 C789.20448298 1087.00032605 758.90770148 1097.62681177 728.45025635 1107.8425293 C725.40188767 1108.86517721 722.35391806 1109.88900558 719.30609608 1110.91328144 C685.90001417 1122.13882917 652.44610673 1133.18441106 618.85832214 1143.85598755 C610.30539085 1146.57681647 601.76261926 1149.32865431 593.22265625 1152.08984375 C592.54173227 1152.31000027 591.8608083 1152.53015678 591.15925026 1152.75698471 C585.57209368 1154.56369939 579.98538514 1156.37179792 574.39876175 1158.18016052 C569.54991229 1159.74968441 564.70089589 1161.31869066 559.8515625 1162.88671875 C559.17452963 1163.10563908 558.49749676 1163.3245594 557.79994774 1163.55011368 C547.60720177 1166.84489055 537.40432304 1170.10694323 527.19483948 1173.34950256 C484.65278654 1186.86346169 442.73351555 1201.45467348 401.08073425 1217.51281738 C357.40495694 1234.33178821 321.01389628 1237.65074975 274.39851761 1234.0637207 C266.67131246 1233.47008086 258.94171739 1232.90873124 251.21191406 1232.35009766 C250.41564362 1232.29246451 249.61937317 1232.23483136 248.79897332 1232.17545176 C231.38867495 1230.91991584 213.96819229 1229.89150018 196.5390625 1228.9375 C195.44553475 1228.87752036 195.44553475 1228.87752036 194.32991552 1228.816329 C185.38839688 1228.32630126 176.44641112 1227.84520879 167.50419819 1227.36803627 C158.84803103 1226.9058186 150.19232604 1226.43513651 141.53662109 1225.96435547 C139.14453117 1225.83429551 136.75244052 1225.70424891 134.36034954 1225.57420838 C132.77260689 1225.48789414 131.1848648 1225.40156971 129.59712327 1225.31523502 C124.12108015 1225.01754833 118.64497805 1224.72096334 113.16885376 1224.42477417 C95.29855096 1223.45768337 77.42959957 1222.47021363 59.5625 1221.4453125 C58.54472851 1221.38698997 57.52695702 1221.32866745 56.47834396 1221.26857758 C48.17297445 1220.79235559 39.86770855 1220.31436717 31.56280518 1219.83007812 C-5.87326227 1217.6475643 -43.30336586 1215.87418381 -80.79260254 1214.93554688 C-84.91195112 1214.83140309 -89.03116222 1214.72205731 -93.15039062 1214.61328125 C-101.10014139 1214.40405427 -109.05001407 1214.20009248 -117 1214 C-108.34377621 1238.10438306 -108.34377621 1238.10438306 -98.375 1261.6875 C-97.69473245 1263.198327 -97.0146439 1264.7092346 -96.3347168 1266.22021484 C-88.90704906 1282.64938141 -81.01231715 1298.84974269 -73 1315 C-72.57340088 1315.8607312 -72.14680176 1316.7214624 -71.70727539 1317.60827637 C-68.50077825 1324.07639416 -65.28471968 1330.53970148 -62.0625 1337 C-61.63160065 1337.86465881 -61.20070129 1338.72931763 -60.75674438 1339.62017822 C-55.42418248 1350.31031777 -49.96860573 1360.92579764 -44.38208008 1371.48535156 C-40.80362915 1378.25337547 -37.30957116 1385.064688 -33.8125 1391.875 C-32.83208948 1393.78285264 -31.85138698 1395.69055449 -30.87037659 1397.59809875 C-30.16494001 1398.969838 -29.4598223 1400.34174125 -28.75498962 1401.71379089 C-26.40735659 1406.27944607 -24.04583626 1410.83765982 -21.67602539 1415.3918457 C-15.00154586 1428.23108856 -8.40646485 1441.10465404 -1.95703125 1454.05859375 C-1.62251513 1454.73026329 -1.287999 1455.40193283 -0.94334602 1456.09395599 C2.12505699 1462.25668236 5.18814074 1468.42204478 8.24682617 1474.58959961 C15.22075452 1488.647566 22.2280954 1502.65748046 29.8217926 1516.39483643 C34.79332081 1525.38952398 39.4696272 1534.52623885 44.125 1543.6875 C45.7717561 1546.92143205 47.42038382 1550.15440424 49.0703125 1553.38671875 C49.67801987 1554.57770676 49.67801987 1554.57770676 50.29800415 1555.79275513 C53.59947287 1562.24873269 56.96871082 1568.66760759 60.35491943 1575.07945251 C64.41675164 1582.77482884 68.40153918 1590.50872668 72.375 1598.25 C76.85061145 1606.96330424 81.33899221 1615.66810118 85.90551758 1624.33422852 C90.6479809 1633.34089047 95.17288978 1642.41935165 99.51416016 1651.62597656 C102.24980881 1657.4051907 105.05725052 1663.14152929 107.94140625 1668.84765625 C108.28902008 1669.53542145 108.63663391 1670.22318665 108.99478149 1670.93179321 C109.3480954 1671.630737 109.7014093 1672.32968079 110.06542969 1673.04980469 C118.47894594 1689.69633831 126.4430838 1706.49341008 134.01513672 1723.53857422 C135.38944575 1726.63216647 136.7720731 1729.72186532 138.16064453 1732.80908203 C172.51698609 1809.22993075 210.49945698 1895.31406911 182.7644043 2009.3918457 C170.91698682 2040.49175381 154.09035157 2068.06054485 131 2092 C130.07477539 2092.96607178 130.07477539 2092.96607178 129.13085938 2093.95166016 C120.31519513 2103.11669893 111.29872605 2111.52949971 101 2119 C100.1946582 2119.5885376 100.1946582 2119.5885376 99.37304688 2120.18896484 C90.90770594 2126.33225145 82.09268433 2131.84603461 73 2137 C72.23187988 2137.43602539 71.46375977 2137.87205078 70.67236328 2138.32128906 C31.69184627 2160.18518678 -11.84359484 2170.22271875 -56.3125 2170.25 C-57.29898529 2170.25067474 -58.28547058 2170.25134949 -59.30184937 2170.25204468 C-73.43193604 2170.23667293 -87.11721888 2169.83915615 -101 2167 C-102.36995117 2166.74259033 -102.36995117 2166.74259033 -103.76757812 2166.47998047 C-124.48129156 2162.58309995 -144.03927896 2156.19782639 -163 2147 C-163.76521973 2146.63036133 -164.53043945 2146.26072266 -165.31884766 2145.87988281 C-183.11430253 2137.1720178 -199.28783192 2126.2607218 -214 2113 C-214.5057959 2112.54915039 -215.0115918 2112.09830078 -215.53271484 2111.63378906 C-226.54199109 2101.80669358 -236.81982474 2091.58161184 -246 2080 C-246.90925487 2078.90181772 -247.82082321 2077.80554788 -248.734375 2076.7109375 C-257.31171923 2066.35024202 -264.755607 2055.3232266 -272 2044 C-272.41846191 2043.34596191 -272.83692383 2042.69192383 -273.26806641 2042.01806641 C-290.42950709 2014.90343645 -304.41116173 1985.34882703 -317.8137207 1956.22729492 C-330.74059461 1928.14035238 -344.19979686 1900.29851999 -357.77032471 1872.51794434 C-359.09874817 1869.79779834 -360.42614653 1867.07715361 -361.75341797 1864.35644531 C-376.34233676 1834.39854729 -376.34233676 1834.39854729 -391.2253418 1804.58618164 C-394.07234254 1798.94263334 -396.83220926 1793.2660205 -399.54302979 1787.55603027 C-404.47764831 1777.16648923 -409.53455054 1766.84496319 -414.6875 1756.5625 C-415.02381691 1755.8913063 -415.36013382 1755.22011261 -415.70664215 1754.52857971 C-418.13489495 1749.68427938 -420.56703326 1744.84193416 -423 1740 C-425.77344236 1734.48047313 -428.54527392 1728.96014651 -431.3125 1723.4375 C-431.6514328 1722.76115509 -431.9903656 1722.08481018 -432.33956909 1721.38796997 C-436.39116067 1713.29655024 -440.38075228 1705.18056496 -444.25 1697 C-449.16712639 1686.61434692 -454.29152623 1676.33602854 -459.4375 1666.0625 C-459.86259857 1665.21374298 -460.28769714 1664.36498596 -460.72567749 1663.49050903 C-463.81428351 1657.32558308 -466.90675467 1651.16259918 -470 1645 C-473.5233849 1637.98044398 -477.04522573 1630.96012021 -480.5625 1623.9375 C-480.98569519 1623.09263031 -481.40889038 1622.24776062 -481.84490967 1621.37728882 C-487.10922343 1610.86097117 -492.3008291 1600.31863216 -497.33422852 1589.68945312 C-501.61943825 1580.64865399 -506.10450319 1571.71106803 -510.603302 1562.77508545 C-517.28666144 1549.49598464 -523.94433303 1536.21251545 -530.29296875 1522.76953125 C-533.59407366 1515.79461603 -537.03321574 1508.89389936 -540.5 1502 C-544.87950495 1493.28613308 -549.16834715 1484.53852369 -553.34814453 1475.72729492 C-557.25104094 1467.51963199 -561.24209604 1459.35665376 -565.23974609 1451.19482422 C-576.26698217 1428.67940981 -587.08870173 1406.0991268 -597.14846802 1383.13095093 C-597.96301666 1381.27190706 -598.78206152 1379.41483517 -599.60131836 1377.55786133 C-608.99153557 1355.89611526 -615.89623739 1334.01767445 -607 1311 C-600.06991741 1294.23838457 -588.97732181 1279.08035943 -579.125 1263.9375 C-574.2235153 1256.40347499 -569.55438804 1248.7481354 -565 1241 C-564.39913574 1239.9785791 -563.79827148 1238.9571582 -563.17919922 1237.90478516 C-559.1851652 1231.11078992 -555.2007174 1224.31124544 -551.22299194 1217.50769043 C-548.92675953 1213.58102685 -546.62380517 1209.6583987 -544.31640625 1205.73828125 C-537.57824911 1194.27006466 -531.03142106 1182.71166821 -524.60498047 1171.06591797 C-519.95151544 1162.65402402 -515.14389468 1154.34391127 -510.26953125 1146.05859375 C-505.89737072 1138.60135815 -501.6760561 1131.06856352 -497.5 1123.5 C-492.22351405 1113.93704918 -486.80761118 1104.4720795 -481.26953125 1095.05859375 C-476.89737072 1087.60135815 -472.6760561 1080.06856352 -468.5 1072.5 C-463.22351405 1062.93704918 -457.80761118 1053.4720795 -452.26953125 1044.05859375 C-447.89737072 1036.60135815 -443.6760561 1029.06856352 -439.5 1021.5 C-434.22351405 1011.93704918 -428.80761118 1002.4720795 -423.26953125 993.05859375 C-418.89737072 985.60135815 -414.6760561 978.06856352 -410.5 970.5 C-405.22351405 960.93704918 -399.80761118 951.4720795 -394.26953125 942.05859375 C-389.89737072 934.60135815 -385.6760561 927.06856352 -381.5 919.5 C-376.22351405 909.93704918 -370.80761118 900.4720795 -365.26953125 891.05859375 C-360.89737072 883.60135815 -356.6760561 876.06856352 -352.5 868.5 C-347.22351405 858.93704918 -341.80761118 849.4720795 -336.26953125 840.05859375 C-331.89737072 832.60135815 -327.6760561 825.06856352 -323.5 817.5 C-318.22351405 807.93704918 -312.80761118 798.4720795 -307.26953125 789.05859375 C-302.89736999 781.60135691 -298.67609923 774.0685407 -294.5 766.5 C-289.19634138 756.88895768 -283.75581962 747.37331139 -278.19482422 737.90917969 C-273.48623407 729.87851314 -268.92340201 721.77261104 -264.39257812 713.640625 C-259.95823989 705.68939782 -255.46250529 697.77480953 -250.9375 689.875 C-246.10095486 681.43012891 -241.28011451 672.97698439 -236.5 664.5 C-231.35662713 655.3802717 -226.16942262 646.28612035 -220.96923828 637.19873047 C-216.45668894 629.31195184 -211.96384705 621.41447941 -207.5 613.5 C-201.06841498 602.09923444 -194.57452231 590.73444059 -188.07246399 579.37379456 C-185.71731221 575.25751125 -183.36888923 571.13744158 -181.0234375 567.015625 C-174.21206966 555.05128649 -167.34452259 543.12300372 -160.375 531.25 C-160.0188562 530.64280121 -159.6627124 530.03560242 -159.29577637 529.41000366 C-155.64934669 523.19348132 -151.99273088 516.98334761 -148.30859375 510.7890625 C-139.6303461 496.14459455 -131.63774897 481.21233589 -124 466 C-123.55785156 465.12504883 -123.11570312 464.25009766 -122.66015625 463.34863281 C-109.20276699 436.55209015 -99.66759098 407.81017952 -96 378 C-95.86980469 377.0409375 -95.73960937 376.081875 -95.60546875 375.09375 C-89.95242656 326.2514655 -107.43341813 275.522061 -137 237 C-140.83936354 232.1872279 -144.89057767 227.58218773 -149 223 C-150.25115069 221.52180652 -151.50134682 220.04280377 -152.75 218.5625 C-156.19520356 214.65573807 -160.02214266 211.35047715 -164 208 C-164.91265625 207.18789063 -165.8253125 206.37578125 -166.765625 205.5390625 C-203.3341603 173.22624649 -251.01681888 156.45076457 -299.5625 156.6875 C-300.34447754 156.68932281 -301.12645508 156.69114563 -301.93212891 156.69302368 C-335.28453357 156.82322699 -366.59956542 164.06361887 -396 180 C-397.04542969 180.56460937 -398.09085938 181.12921875 -399.16796875 181.7109375 C-411.61185472 188.71370556 -422.81682784 197.32476557 -433.53320312 206.71679688 C-434.87290664 207.88881447 -436.22490646 209.04673825 -437.578125 210.203125 C-449.44862889 220.54195097 -459.55088418 232.45935289 -469 245 C-469.54269531 245.71285156 -470.08539062 246.42570312 -470.64453125 247.16015625 C-479.42729987 258.71851766 -487.49781687 270.57344167 -495 283 C-495.64171143 284.05598389 -495.64171143 284.05598389 -496.29638672 285.13330078 C-503.83946997 297.61951093 -510.58595499 310.5370734 -517.36987305 323.44482422 C-521.47062027 331.24468888 -525.6267921 339.0009461 -529.9375 346.6875 C-533.98615659 353.955688 -537.63191003 361.36180182 -541.17578125 368.88720703 C-552.58917805 393.0342658 -564.4327223 417.0931588 -577.53808594 440.37060547 C-579.17507669 443.31489244 -580.76416925 446.28259716 -582.3515625 449.25390625 C-589.13609933 461.85771153 -596.36761418 473.97485506 -604.3125 485.875 C-604.72266357 486.49117187 -605.13282715 487.10734375 -605.55541992 487.7421875 C-613.3245843 499.37175779 -621.56106103 510.65467285 -631 521 C-648.84400016 513.18811053 -663.33439491 499.35275714 -677.4375 486.25 C-678.0876709 485.64841064 -678.7378418 485.04682129 -679.40771484 484.42700195 C-683.30769005 480.76194691 -686.89604654 476.93575527 -690.38110352 472.875 C-692.59862011 470.30668037 -694.92688643 467.84776199 -697.25 465.375 C-702.64368237 459.53965363 -707.56377221 453.41029435 -712.38818359 447.10058594 C-714.20144607 444.73746713 -716.03244223 442.38858703 -717.86328125 440.0390625 C-725.61213388 430.04581006 -732.96433844 419.95718198 -739.62402344 409.20605469 C-741.08421444 406.86498196 -742.57543499 404.54562264 -744.0703125 402.2265625 C-773.62028025 355.99668129 -792.19370865 304.02107201 -792.25 248.8125 C-792.25100708 248.11846069 -792.25201416 247.42442139 -792.25305176 246.70935059 C-792.17896984 170.45291323 -756.21165185 101.76287696 -704 48 C-703.32469238 47.30277832 -702.64938477 46.60555664 -701.95361328 45.88720703 C-694.00909185 37.71831691 -685.98078546 30.0337317 -677 23 C-675.78632937 22.00070607 -674.57559583 20.99783856 -673.3671875 19.9921875 C-663.91577019 12.14752288 -654.17308357 4.88186063 -644 -2 C-643.31856934 -2.46116211 -642.63713867 -2.92232422 -641.93505859 -3.39746094 C-565.64144881 -54.64785245 -474.49768062 -81.01831622 0 0 Z " fill="#010101" transform="translate(1799,277)"/>
<path d="M0 0 C0.52867676 0.36029297 1.05735352 0.72058594 1.60205078 1.09179688 C10.53237786 7.20643837 18.90440004 13.82069914 27 21 C27.82612793 21.73138184 27.82612793 21.73138184 28.66894531 22.47753906 C73.25658637 62.20013281 99.80652515 117.29133984 108 176 C108.176521 177.24620117 108.35304199 178.49240234 108.53491211 179.77636719 C109.07064489 184.1342312 109.1781768 188.44888453 109.203125 192.8359375 C109.21364647 194.07846786 109.21364647 194.07846786 109.22438049 195.34609985 C109.24185678 198.02245549 109.24823826 200.6985893 109.25 203.375 C109.25101212 204.75075195 109.25101212 204.75075195 109.25204468 206.15429688 C109.18451561 264.03490915 89.84599308 318.59063846 71.2265625 372.70703125 C60.34465853 404.33622461 49.60777207 436.01063082 39.04101562 467.74658203 C37.34261432 472.84747574 35.64149264 477.94745742 33.93965912 483.04720688 C26.26706691 506.04309927 18.6742413 529.06304945 11.18755341 552.12012672 C7.70045219 562.85864621 4.18780746 573.58852152 0.65625 584.3125 C0.27562943 585.46841896 0.27562943 585.46841896 -0.11268044 586.64768982 C-1.38764291 590.51923727 -2.66311183 594.39061762 -3.93887329 598.26190186 C-6.6532793 606.49925812 -9.36384479 614.73787883 -12.07421875 622.9765625 C-12.33859426 623.78016834 -12.60296978 624.58377419 -12.87535667 625.41173172 C-20.78161002 649.44586935 -28.62614515 673.49930385 -36.37109375 697.5859375 C-37.99693685 702.64077278 -39.62322463 707.69546469 -41.25 712.75 C-41.45569988 713.38922268 -41.66139977 714.02844536 -41.87333298 714.68703842 C-50.71860516 742.17022525 -59.73939359 769.5948083 -68.77954102 797.0144043 C-69.87779245 800.34553195 -70.97601465 803.67666924 -72.07421875 807.0078125 C-72.33993998 807.8137491 -72.6056612 808.61968571 -72.87943459 809.45004463 C-77.00976186 821.97859316 -81.11607129 834.51467151 -85.1875 847.0625 C-91.16257042 865.4733953 -97.20408677 883.86227989 -103.25 902.25 C-105.25142813 908.33719815 -107.25279296 914.42441709 -109.25390625 920.51171875 C-109.4998415 921.259837 -109.74577675 922.00795525 -109.99916458 922.77874374 C-114.74057791 937.20275054 -119.46773442 951.63139403 -124.1875 966.0625 C-124.54563782 967.15753845 -124.90377563 968.2525769 -125.27276611 969.38079834 C-125.80991241 971.02317474 -125.80991241 971.02317474 -126.35791016 972.69873047 C-130.23297336 984.54666986 -134.11117909 996.39356829 -137.99609375 1008.23828125 C-138.20690142 1008.88101675 -138.41770908 1009.52375225 -138.63490486 1010.18596458 C-139.70365372 1013.44443498 -140.77245638 1016.70288773 -141.84127808 1019.96133423 C-148.93047978 1041.57389341 -156.00693803 1063.19055636 -163.06298828 1084.81396484 C-168.03348951 1100.0454304 -173.0149358 1115.27329495 -178 1130.5 C-184.00058888 1148.82900759 -189.99353328 1167.16048607 -195.97747803 1185.49493408 C-201.35081601 1201.95796267 -206.7361152 1218.41705452 -212.125 1234.875 C-217.15042341 1250.22314437 -222.16903194 1265.5734322 -227.16427612 1280.931427 C-227.99893571 1283.49672894 -228.83441042 1286.06176393 -229.67016602 1288.62670898 C-230.23715827 1290.36701942 -230.80413399 1292.10733523 -231.37109375 1293.84765625 C-231.65608231 1294.72242111 -231.94107086 1295.59718597 -232.23469543 1296.49845886 C-233.87467633 1301.53511732 -235.51010962 1306.57321987 -237.14111328 1311.61279297 C-254.19360636 1364.29664921 -271.59118234 1416.84614091 -297.06591797 1466.18945312 C-297.68888294 1467.39695659 -298.30770204 1468.60660794 -298.92236328 1469.81835938 C-307.06494237 1485.85429878 -316.60555047 1501.07345058 -328 1515 C-328.4419873 1515.54350098 -328.88397461 1516.08700195 -329.33935547 1516.64697266 C-351.78754826 1544.14740337 -379.43861694 1561.84999531 -412.765625 1573.6875 C-413.97993195 1574.11978409 -415.19423889 1574.55206818 -416.44534302 1574.99745178 C-428.8783616 1579.39296207 -441.44907903 1583.33717498 -454.0425415 1587.24584961 C-475.56455043 1593.92950507 -497.06688879 1600.61290345 -518 1609 C-519.09103027 1609.43683105 -520.18206055 1609.87366211 -521.30615234 1610.32373047 C-538.20714191 1617.1602237 -554.69571212 1624.84785606 -571 1633 C-521.96394325 1633.39761158 -473.10661613 1631.7193854 -424.1398468 1629.33791351 C-400.18916257 1628.1733991 -376.25435464 1627.32552486 -352.27655029 1627.02929688 C-350.11283129 1627.00145202 -347.94926101 1626.96841954 -345.78564453 1626.93359375 C-270.75621377 1625.8172228 -195.31422491 1637.9148302 -127 1670 C-125.48986328 1670.70358643 -125.48986328 1670.70358643 -123.94921875 1671.42138672 C-116.58991691 1674.86170153 -109.2800358 1678.39516 -102 1682 C-101.07944824 1682.45487793 -100.15889648 1682.90975586 -99.21044922 1683.37841797 C-77.21567841 1694.33377515 -57.18202165 1707.67086562 -38 1723 C-37.36723145 1723.50144531 -36.73446289 1724.00289062 -36.08251953 1724.51953125 C-27.77646215 1731.15876653 -20.22642584 1738.57719562 -12.6875 1746.0625 C-11.76783447 1746.97273926 -10.84816895 1747.88297852 -9.90063477 1748.82080078 C-3.84355057 1754.90689767 1.67626495 1761.26662636 7 1768 C7.90493782 1769.11849776 8.80988377 1770.23698892 9.71484375 1771.35546875 C16.12860614 1779.5276616 21.7214302 1788.0558138 27 1797 C27.62672607 1798.06178467 27.62672607 1798.06178467 28.26611328 1799.14501953 C66.2116313 1864.07142146 72.43345053 1941.27734958 54.24902344 2013.51660156 C37.55421029 2076.95036372 4.46516643 2136.00060962 -40.2265625 2183.98046875 C-42.27763071 2186.18751173 -44.25176537 2188.44885031 -46.21484375 2190.734375 C-50.56883957 2195.72974425 -55.243077 2200.38920719 -59.9375 2205.0625 C-60.79279297 2205.92166016 -61.64808594 2206.78082031 -62.52929688 2207.66601562 C-67.52489018 2212.65398788 -72.63813575 2217.41086464 -78 2222 C-79.15673089 2223.02142188 -80.31171996 2224.04482016 -81.46484375 2225.0703125 C-89.9957075 2232.59811946 -98.8178203 2239.61995242 -107.92529297 2246.43554688 C-109.88360477 2247.91223104 -111.82131221 2249.41176451 -113.75390625 2250.921875 C-150.58127044 2279.49391277 -192.87514769 2300.75711138 -236 2318 C-237.56862793 2318.63180176 -237.56862793 2318.63180176 -239.16894531 2319.27636719 C-294.85641099 2341.53300503 -354.43995111 2352.20745522 -413.4375 2361.3125 C-414.44939455 2361.46910599 -414.44939455 2361.46910599 -415.48173141 2361.62887573 C-425.31236419 2363.1491945 -435.15083946 2364.60465402 -445 2366 C-446.20074158 2366.17151581 -447.40148315 2366.34303162 -448.63861084 2366.51974487 C-476.7174991 2370.46475792 -504.99082856 2372.45077843 -533.24285889 2374.71777344 C-558.29925706 2376.73033554 -583.33630694 2378.77114958 -608.3125 2381.6328125 C-609.19986595 2381.73431044 -610.0872319 2381.83580837 -611.00148773 2381.940382 C-650.13327084 2385.57669975 -650.13327084 2385.57669975 -687.47384739 2396.52652073 C-692.64110889 2398.46032199 -697.55758534 2398.42026456 -703.0219574 2398.38768005 C-704.11119021 2398.39306559 -705.20042302 2398.39845113 -706.32266289 2398.40399987 C-709.96188792 2398.41827355 -713.6007489 2398.41117677 -717.23999023 2398.40405273 C-719.85395093 2398.40975683 -722.46790913 2398.41672125 -725.0818634 2398.42485046 C-731.4405912 2398.44202113 -737.7992201 2398.44288149 -744.15796506 2398.43763756 C-749.3326005 2398.43358868 -754.50720683 2398.43504796 -759.6818409 2398.44038582 C-760.4196455 2398.44113424 -761.1574501 2398.44188266 -761.91761242 2398.44265376 C-763.41677873 2398.44418534 -764.91594502 2398.44572369 -766.41511131 2398.44726873 C-780.46781002 2398.46098941 -794.52045303 2398.45556083 -808.57315046 2398.44408352 C-821.39726792 2398.43416827 -834.22124074 2398.44706292 -847.04533588 2398.47101771 C-860.23858101 2398.49547452 -873.43175897 2398.50499944 -886.62502629 2398.49836498 C-894.02159486 2398.49488518 -901.41805249 2398.49702146 -908.81460381 2398.51461601 C-915.11649537 2398.52942128 -921.41819803 2398.52986673 -927.72008621 2398.5125451 C-930.92838095 2398.50409727 -934.13627429 2398.50394311 -937.34456253 2398.51719666 C-951.24162912 2398.57018732 -963.6253921 2397.76873795 -977 2394 C-980.3737833 2393.3068356 -983.75902384 2392.76197835 -987.16455078 2392.25048828 C-988.07511608 2392.10912823 -988.98568138 2391.96776817 -989.92383957 2391.82212448 C-992.97131733 2391.35375965 -996.02051397 2390.89830791 -999.0703125 2390.4453125 C-1000.71944326 2390.19764822 -1000.71944326 2390.19764822 -1002.4018898 2389.94498062 C-1039.8201817 2384.35081492 -1077.40504939 2379.90502611 -1114.94740295 2375.23892212 C-1128.5238051 2373.55127421 -1142.09976247 2371.86014284 -1155.67434227 2370.1578933 C-1160.2066024 2369.5898377 -1164.73911088 2369.02398954 -1169.27239609 2368.46416855 C-1201.89085878 2364.43533272 -1234.45363772 2360.02167733 -1266.6796875 2353.49609375 C-1268.71008044 2353.09141035 -1270.7405919 2352.68732122 -1272.77120972 2352.2837677 C-1278.05830384 2351.23012589 -1283.34293314 2350.1646617 -1288.62675476 2349.09474182 C-1291.93096677 2348.42617582 -1295.23573829 2347.76043773 -1298.54064941 2347.09533691 C-1332.48811887 2340.25873921 -1366.34979715 2333.19280183 -1400 2325 C-1401.89386444 2324.53977448 -1401.89386444 2324.53977448 -1403.82598877 2324.07025146 C-1485.03078191 2304.31944985 -1566.67301775 2284.40368848 -1718 2184 C-1718.87906006 2183.1965918 -1718.87906006 2183.1965918 -1719.77587891 2182.37695312 C-1733.44447912 2169.86612309 -1733.44447912 2169.86612309 -1738.34765625 2163.96484375 C-1740.40099886 2161.52316212 -1742.57699119 2159.21073022 -1744.75 2156.875 C-1760.19905793 2139.8880268 -1773.48448703 2120.82772151 -1785 2101 C-1785.42909668 2100.26281738 -1785.85819336 2099.52563477 -1786.30029297 2098.76611328 C-1815.71456592 2047.87864145 -1830.51584538 1990.47482867 -1834 1932 C-1834.04236786 1931.30599091 -1834.08473572 1930.61198181 -1834.12838745 1929.89694214 C-1835.06088707 1914.20440057 -1835.20127749 1898.5295498 -1835.1875 1882.8125 C-1835.18659363 1880.89455627 -1835.18659363 1880.89455627 -1835.18566895 1878.93786621 C-1835.1600075 1858.88251167 -1834.80244656 1838.98354424 -1833 1819 C-1832.93447937 1818.26360291 -1832.86895874 1817.52720581 -1832.80145264 1816.76849365 C-1825.42112009 1734.46404639 -1807.63003662 1651.99326278 -1743 1540 C-1742.6090918 1539.47905762 -1742.21818359 1538.95811523 -1741.81542969 1538.42138672 C-1716.68585061 1505.02882831 -1684.44283486 1478.17276963 -1644.34399414 1465.29110718 C-1640.64444439 1464.10233654 -1636.95314218 1462.88879568 -1633.26101685 1461.67720032 C-1631.33976238 1461.04699173 -1629.41810834 1460.41800003 -1627.49606323 1459.79020691 C-1617.96762159 1456.67545234 -1608.48159906 1453.44152819 -1599 1450.1875 C-1595.6043469 1449.02421308 -1592.20841115 1447.86175211 -1588.8125 1446.69921875 C-1587.94965897 1446.40369614 -1587.08681793 1446.10817352 -1586.1978302 1445.80369568 C-1575.13819519 1442.01726595 -1564.06856706 1438.26021832 -1553 1434.5 C-1537.82925912 1429.34521403 -1522.66156144 1424.18172361 -1507.5 1419 C-1492.33843787 1413.81827616 -1477.17062245 1408.65513575 -1462 1403.5 C-1446.76702498 1398.32360874 -1431.53667873 1393.13970753 -1416.3125 1387.9375 C-1401.83637362 1382.99104972 -1387.35707544 1378.05400693 -1372.875 1373.125 C-1371.40756851 1372.62554367 -1371.40756851 1372.62554367 -1369.91049194 1372.11599731 C-1361.94052594 1369.40340492 -1353.97038874 1366.69131564 -1346.00024414 1363.97924805 C-1339.04174973 1361.61139949 -1332.08332636 1359.24334235 -1325.125 1356.875 C-1324.14550385 1356.54162628 -1323.16600769 1356.20825256 -1322.15682983 1355.86477661 C-1309.49440965 1351.55481293 -1296.83437513 1347.23793733 -1284.17703247 1342.91308594 C-1247.82354521 1330.49237425 -1211.46862466 1318.07938987 -1175 1306 C-1175.61065604 1310.41976867 -1176.70750573 1314.31901448 -1178.265625 1318.49609375 C-1178.49497238 1319.11329788 -1178.72431976 1319.73050201 -1178.96061707 1320.3664093 C-1179.71687398 1322.39276194 -1180.48250531 1324.41537888 -1181.25 1326.4375 C-1181.51499298 1327.13951538 -1181.77998596 1327.84153076 -1182.05300903 1328.56481934 C-1203.20055416 1384.50506438 -1229.8128477 1438.76316218 -1258.68554688 1491.10229492 C-1262.90546853 1498.76428915 -1266.94475523 1506.5147505 -1270.93457031 1514.29882812 C-1274.41547586 1521.05737466 -1278.03402661 1527.7301672 -1281.69140625 1534.39453125 C-1287.80762329 1545.55813906 -1293.66396268 1556.84358075 -1299.4375 1568.1875 C-1300.18493973 1569.65393448 -1300.18493973 1569.65393448 -1300.94747925 1571.1499939 C-1348.10335721 1662.45418173 -1348.10335721 1662.45418173 -1366.23828125 1762.41796875 C-1366.24798447 1763.18961868 -1366.25768768 1763.96126862 -1366.26768494 1764.75630188 C-1366.29245131 1767.23342168 -1366.30519006 1769.71026903 -1366.3125 1772.1875 C-1366.31511841 1773.03393066 -1366.31773682 1773.88036133 -1366.32043457 1774.75244141 C-1366.32489389 1788.21448233 -1365.38447456 1800.91776177 -1362 1814 C-1361.54947266 1815.87945313 -1361.54947266 1815.87945313 -1361.08984375 1817.796875 C-1354.76678781 1841.9941973 -1343.07318556 1863.90168386 -1327.4375 1883.3125 C-1326.90737305 1883.97064697 -1326.37724609 1884.62879395 -1325.83105469 1885.30688477 C-1322.59454386 1889.25082148 -1319.18035891 1892.89941312 -1315.5378418 1896.47045898 C-1313.81008738 1898.18888753 -1312.23720892 1899.99529915 -1310.6875 1901.875 C-1299.6727827 1914.57489577 -1285.50175103 1924.66992441 -1271 1933 C-1270.43087891 1933.32709961 -1269.86175781 1933.65419922 -1269.27539062 1933.99121094 C-1225.55337627 1958.86083619 -1173.82505532 1970.52780005 -1125.125 1981.5 C-1124.19852661 1981.70953308 -1123.27205322 1981.91906616 -1122.31750488 1982.13494873 C-1092.30905484 1988.89519638 -1062.10618221 1994.80328617 -1031.9375 2000.796875 C-1029.87539639 2001.20678543 -1027.81329313 2001.61669755 -1025.75119019 2002.02661133 C-1013.29349054 2004.50223697 -1013.29349054 2004.50223697 -1000.83398438 2006.96875 C-947.46938196 2017.51728338 -894.37947681 2029.31437251 -841.2770077 2041.10006702 C-828.54364709 2043.92602866 -815.80930935 2046.74758629 -803.07501745 2049.56934786 C-800.86562651 2050.05893966 -798.65624859 2050.5485902 -796.44687271 2051.03824997 C-774.48437426 2055.90553753 -752.51807336 2060.75538217 -730.54903984 2065.59308362 C-727.49798845 2066.26498422 -724.44697511 2066.93705751 -721.39596367 2067.6091395 C-702.66984111 2071.73431369 -702.66984111 2071.73431369 -683.94250488 2075.85397339 C-581.11208071 2098.45907728 -581.11208071 2098.45907728 -543.834198 2107.96191406 C-539.99481726 2108.94000862 -536.15316856 2109.9087629 -532.31079102 2110.875 C-530.952343 2111.21672071 -529.59389879 2111.5584566 -528.23545837 2111.90020752 C-527.55967176 2112.07021523 -526.88388515 2112.24022293 -526.18762016 2112.41538239 C-523.48942392 2113.09459714 -520.79159235 2113.77525351 -518.09377003 2114.45595169 C-447.57511603 2132.27349013 -447.57511603 2132.27349013 -376 2145 C-374.77740479 2145.1767627 -373.55480957 2145.35352539 -372.29516602 2145.53564453 C-363.52273723 2146.76484402 -354.77765585 2147.57877716 -345.9375 2148.125 C-344.93295273 2148.18753967 -344.93295273 2148.18753967 -343.90811157 2148.25134277 C-309.85981902 2150.34042372 -275.57280313 2148.94255049 -243 2138 C-242.33838867 2137.78118164 -241.67677734 2137.56236328 -240.99511719 2137.33691406 C-224.46517932 2131.78395103 -209.8239692 2123.57025789 -196 2113 C-195.11957031 2112.33226563 -194.23914062 2111.66453125 -193.33203125 2110.9765625 C-186.54714723 2105.69104077 -180.2565623 2099.89108857 -174 2094 C-173.28972656 2093.34386719 -172.57945313 2092.68773438 -171.84765625 2092.01171875 C-138.72071441 2060.37515057 -115.0059879 2008.50365476 -113.83886719 1962.75317383 C-113.81932341 1961.23785435 -113.80557002 1959.72245181 -113.796875 1958.20703125 C-113.78981537 1957.38715729 -113.78275574 1956.56728333 -113.77548218 1955.7225647 C-113.47883253 1930.70047147 -113.47883253 1930.70047147 -117 1906 C-117.20399414 1905.08589355 -117.40798828 1904.17178711 -117.61816406 1903.22998047 C-128.33592213 1856.56015038 -151.61496811 1811.34583747 -192.93603516 1785.27050781 C-218.6006496 1769.47222847 -246.5215564 1758.56362041 -275 1749 C-276.59787354 1748.45738525 -276.59787354 1748.45738525 -278.22802734 1747.90380859 C-300.88248218 1740.24609936 -323.84093072 1733.93697522 -347 1728 C-347.82095154 1727.78901672 -348.64190308 1727.57803345 -349.48773193 1727.36065674 C-418.74714246 1709.59396915 -489.23156292 1696.97875117 -559.55735397 1684.28011727 C-561.80779045 1683.87373428 -564.0581954 1683.46717717 -566.30859375 1683.06058311 C-580.5589405 1680.48612684 -594.80977807 1677.91453313 -609.06491607 1675.3667239 C-639.85022735 1669.86393035 -670.59173515 1664.19891204 -701.2578125 1658.0625 C-701.93351721 1657.92754883 -702.60922191 1657.79259766 -703.30540252 1657.65355706 C-726.98776762 1652.92322843 -750.56064307 1647.81985253 -774 1642 C-775.05628601 1641.73923676 -775.05628601 1641.73923676 -776.13391113 1641.47320557 C-835.62508814 1626.76553839 -835.62508814 1626.76553839 -859 1612 C-857.75356381 1605.80539546 -856.11173166 1599.89085095 -854 1593.9375 C-853.69658691 1593.08027344 -853.39317383 1592.22304687 -853.08056641 1591.33984375 C-845.64503662 1570.69095107 -836.38398671 1550.81902465 -827 1531 C-826.47583496 1529.88850586 -825.95166992 1528.77701172 -825.41162109 1527.63183594 C-823.88454506 1524.39752053 -822.3502413 1521.16675673 -820.8125 1517.9375 C-820.37437988 1517.01267822 -819.93625977 1516.08785645 -819.48486328 1515.13500977 C-816.15106454 1508.18261236 -812.5847852 1501.36494483 -808.97950745 1494.55101013 C-804.60034749 1486.26796872 -800.32988345 1477.93096372 -796.07022095 1469.58599854 C-793.78802885 1465.11572753 -791.50149874 1460.64767687 -789.21484375 1456.1796875 C-788.53986092 1454.86071976 -788.53986092 1454.86071976 -787.85124207 1453.5151062 C-780.31742174 1438.80022372 -772.71259837 1424.12203029 -765 1409.5 C-747.02308212 1375.39797454 -729.42420922 1341.15788416 -713.83666992 1305.88824463 C-713.02918373 1304.06586352 -712.21491225 1302.24649357 -711.40039062 1300.42724609 C-693.15487541 1259.6176479 -675.7934442 1215.54813743 -675.75 1170.3125 C-675.74848938 1169.2209259 -675.74848938 1169.2209259 -675.74694824 1168.1072998 C-675.76694762 1146.65972959 -678.30702328 1127.19456951 -687.73046875 1107.6796875 C-696.97940872 1088.15730959 -682.8297273 1058.16972362 -677 1039 C-676.76430298 1038.22221191 -676.52860596 1037.44442383 -676.2857666 1036.64306641 C-666.59899183 1004.68529351 -656.16559445 972.97430552 -645.70883179 941.26271057 C-642.07009559 930.22568259 -638.46453597 919.17811148 -634.875 908.125 C-629.44308227 891.40798772 -623.97562292 874.70274456 -618.5 858 C-612.68470996 840.26062088 -606.88151769 822.51746659 -601.10888672 804.76416016 C-596.09199496 789.33640786 -591.04896218 773.91728414 -586 758.5 C-580.65259441 742.17122262 -575.31391284 725.83970872 -570 709.5 C-564.72663434 693.28566149 -559.43055585 677.07883332 -554.125 660.875 C-548.36849692 643.29378545 -542.61605726 625.71126501 -536.875 608.125 C-536.5487262 607.12555359 -536.22245239 606.12610718 -535.8862915 605.09637451 C-534.2466715 600.07372698 -532.60719055 595.05103407 -530.96777344 590.02832031 C-527.97998334 580.87480103 -524.99094198 571.72169031 -522.00201416 562.56854248 C-520.33462668 557.46237779 -518.66731722 552.35618763 -517 547.25 C-516.33333371 545.20833321 -515.66666704 543.16666654 -515 541.125 C-514.67 540.114375 -514.34 539.10375 -514 538.0625 C-510.99999986 528.87499958 -510.99999986 528.87499958 -509.99996948 525.81240845 C-509.33340304 523.77104745 -508.6668381 521.72968596 -508.00027466 519.68832397 C-506.33208687 514.5794766 -504.66387289 509.47063778 -502.99560547 504.36181641 C-500.01374238 495.23021831 -497.0320463 486.0985659 -494.05136108 476.96658325 C-492.40937301 471.93601232 -490.76722717 466.90549289 -489.125 461.875 C-488.79888733 460.87603699 -488.47277466 459.87707397 -488.13677979 458.84783936 C-482.34087099 441.09485908 -476.53143024 423.34632227 -470.72027588 405.59832764 C-465.52012006 389.71511396 -460.33424887 373.82734772 -455.16546631 357.93389893 C-450.12929695 342.44970516 -445.06721378 326.97405937 -440 311.5 C-434.78270452 295.56541835 -429.56694683 279.63036187 -424.375 263.6875 C-424.11111481 262.87749542 -423.84722961 262.06749084 -423.5753479 261.23294067 C-419.93154173 250.04562961 -416.30422474 238.85302319 -412.68493652 227.65776062 C-410.82466914 221.90363584 -408.96267651 216.15006957 -407.10049057 210.39656544 C-405.77703007 206.30697408 -404.45461371 202.21705132 -403.13470459 198.12631226 C-364.60643409 78.72667389 -364.60643409 78.72667389 -323 35 C-322.46068848 34.43200684 -321.92137695 33.86401367 -321.36572266 33.27880859 C-313.67491905 25.23690792 -305.70416646 17.96909841 -296.77539062 11.32666016 C-294.98657115 9.9899653 -293.21935568 8.62807558 -291.453125 7.26171875 C-212.70653577 -52.92621485 -103.75151038 -56.41194407 0 0 Z " fill="#010101" transform="translate(3888,62)"/>
<path d="M0 0 C48.70672079 -0.13704591 97.41345533 -0.26439785 146.12031555 -0.33874512 C146.84202145 -0.33984957 147.56372735 -0.34095403 148.30730312 -0.34209196 C163.99463803 -0.36603924 179.68197499 -0.38820012 195.36931501 -0.40852264 C203.06318637 -0.4185007 210.75705718 -0.42887322 218.45092773 -0.43945312 C219.59933254 -0.44102223 219.59933254 -0.44102223 220.77093744 -0.44262304 C245.55416055 -0.47666997 270.33723704 -0.53672745 295.12037145 -0.61037777 C320.60361817 -0.68597052 346.08678386 -0.73511406 371.57014081 -0.75131992 C375.17543621 -0.75362492 378.78073133 -0.75623 382.38602638 -0.75901794 C383.09554985 -0.75955733 383.80507331 -0.76009671 384.53609749 -0.76065244 C395.92438365 -0.77007972 407.31241813 -0.80711205 418.70060195 -0.85465627 C430.16972689 -0.90194244 441.63850672 -0.91905291 453.10774376 -0.90801102 C459.31402553 -0.90290287 465.5195731 -0.91055848 471.72572327 -0.9536438 C477.42096057 -0.99289104 483.11497768 -0.99433972 488.81027398 -0.96719116 C490.8577652 -0.96384142 492.90533605 -0.97372269 494.95267316 -0.99906546 C509.00796753 -1.16276394 519.95020874 1.43207897 532.81862936 7.07999474 C537.89592822 9.22137392 543.21240982 10.66099022 548.5 12.1875 C549.71719727 12.54714844 550.93439453 12.90679687 552.18847656 13.27734375 C560.11679853 15.61523927 568.06672001 17.87784983 576.015625 20.14453125 C616.5885245 31.72019363 653.90241813 44.82961434 690 67 C691.48012851 67.89379286 692.9605717 68.7870649 694.44140625 69.6796875 C713.65419767 81.36783295 731.55462794 94.91283706 748.48730469 109.68261719 C749.79094595 110.81793808 751.10182876 111.94493405 752.4140625 113.0703125 C756.15187523 116.28858369 759.67469529 119.63659387 763.12573242 123.15966797 C764.93390934 124.93510598 766.80279512 126.57556184 768.734375 128.21484375 C773.00528202 131.93127869 776.89587528 135.92006897 780.75 140.0625 C781.44391846 140.80564453 782.13783691 141.54878906 782.8527832 142.31445312 C793.99895108 154.31940095 804.2195018 166.86188774 814 180 C814.82250244 181.09900635 814.82250244 181.09900635 815.66162109 182.22021484 C823.78280683 193.10808941 831.13356251 204.28409552 838 216 C838.47260254 216.79712402 838.94520508 217.59424805 839.43212891 218.41552734 C887.54157546 299.71165723 910.45502528 395.48931376 901 512 C900.88785156 512.99499512 900.77570312 513.98999023 900.66015625 515.01513672 C895.95754668 555.60417271 884.25923648 595.59423981 868 633 C867.40251953 634.38227783 867.40251953 634.38227783 866.79296875 635.79248047 C850.85197548 672.43778763 828.90085868 707.4271292 802.40625 737.38330078 C801.07345644 738.9155506 799.78521048 740.48621905 798.5 742.05859375 C791.43953993 750.69579158 783.63110762 758.55721308 775.75 766.4375 C774.89870514 767.29015442 774.89870514 767.29015442 774.0302124 768.16003418 C767.86651963 774.32261449 761.65118651 780.3594792 755 786 C753.80811598 787.04484816 752.61800199 788.09171897 751.4296875 789.140625 C743.16625154 796.38551767 734.7503685 803.35148993 726 810 C725.30986816 810.52674316 724.61973633 811.05348633 723.90869141 811.59619141 C698.19994567 831.13575043 670.78493229 847.45007873 642 862 C641.2663623 862.3722168 640.53272461 862.74443359 639.77685547 863.12792969 C616.89925328 874.62448862 592.57314447 882.97910158 568 890 C567.00145996 890.28713867 566.00291992 890.57427734 564.97412109 890.87011719 C539.81065298 897.97156912 513.10370959 902.43012656 487 904 C486.10716309 904.05494629 485.21432617 904.10989258 484.29443359 904.16650391 C477.86544076 904.54467996 471.43713338 904.80946384 465 905 C464.28440918 905.02336426 463.56881836 905.04672852 462.83154297 905.07080078 C394.01893368 907.04731551 324.51031519 889.98006636 262 862 C261.2064209 861.64873047 260.4128418 861.29746094 259.59521484 860.93554688 C210.63224653 839.15498259 167.76230934 806.67609516 129.9251709 769.10040283 C128.82520954 768.00849701 127.72377337 766.91807446 126.62072754 765.82928467 C119.59944981 758.88915146 113.13718416 751.75109556 107 744 C106.12436317 742.94950322 105.2440565 741.90284614 104.35546875 740.86328125 C71.42796003 702.12154577 45.18947026 655.75769327 28 608 C27.49243164 606.59282715 27.49243164 606.59282715 26.97460938 605.15722656 C22.697637 593.14817507 19.16393575 581.03092482 16 568.6875 C12.85803136 556.46701375 9.30082318 544.20754476 2.96072401 533.19477469 C0.01376829 527.95104846 -0.56806389 523.73831152 -0.49219131 517.78526306 C-0.49911438 516.43675753 -0.49911438 516.43675753 -0.50617731 515.06100947 C-0.51675904 512.05070791 -0.49882593 509.04126339 -0.48101807 506.03100586 C-0.48276259 503.85032959 -0.48626531 501.66965414 -0.49137473 499.48898315 C-0.50032183 493.49832115 -0.48431442 487.50794502 -0.46426249 481.51731944 C-0.44699823 475.05659542 -0.45283347 468.59588769 -0.45587158 462.13514709 C-0.45866067 450.94203024 -0.44555286 439.74900075 -0.42292023 428.5559082 C-0.39924608 416.81762246 -0.38385523 405.0793739 -0.37950897 393.34106445 C-0.37923401 392.61100962 -0.37895906 391.88095478 -0.37867576 391.12877707 C-0.37732242 387.42114511 -0.37611689 383.71351311 -0.37496826 380.00588107 C-0.36656828 353.7498264 -0.33962351 327.49382029 -0.30175781 301.23779297 C-0.26501599 275.7316107 -0.23668354 250.22544172 -0.21972656 224.71923828 C-0.21920046 223.93292303 -0.21867435 223.14660777 -0.21813231 222.33646478 C-0.21285819 214.43991007 -0.20775494 206.54335527 -0.20277687 198.64680037 C-0.19263222 182.56083821 -0.18134721 166.47487692 -0.16937256 150.38891602 C-0.1688234 149.64932167 -0.16827424 148.90972733 -0.16770844 148.14772104 C-0.13091041 98.76512673 -0.06744692 49.38256092 0 0 Z " fill="#010101" transform="translate(0,0)"/>
<path d="M0 0 C4.26953617 3.79514326 8.43581458 7.65620822 12.421875 11.75 C12.90527344 12.18828125 13.38867188 12.6265625 13.88671875 13.078125 C35.77068126 33.46882889 48.50562143 64.04987632 54.421875 92.75 C54.65519531 93.87921875 54.88851563 95.0084375 55.12890625 96.171875 C59.80244232 121.59053163 58.68826692 147.18465626 47.859375 170.75 C47.58475433 171.354953 47.31013367 171.95990601 47.02719116 172.58319092 C36.37624721 196.04320972 24.61617718 219.05842477 12.421875 241.75 C11.32144535 243.80329473 10.22119944 245.85668794 9.12109375 247.91015625 C7.25434728 251.39397938 5.38712404 254.87754182 3.51757812 258.35986328 C-1.22406246 267.19637437 -5.91999136 276.05649696 -10.60317993 284.92410278 C-17.3556143 297.70871894 -24.18362939 310.4458291 -31.140625 323.12060547 C-33.19803584 326.88390622 -35.2329946 330.65921181 -37.26953125 334.43383789 C-43.6540892 346.26353916 -50.15492987 358.02539511 -56.6953125 369.76953125 C-60.6531621 376.87826112 -64.58726926 383.99993894 -68.515625 391.125 C-69.18448608 392.33781082 -69.85335002 393.55062006 -70.5222168 394.76342773 C-73.56114739 400.27442575 -76.59834189 405.78637777 -79.63397217 411.29919434 C-86.83141827 424.36891097 -94.05460526 437.4229415 -101.35766602 450.43408203 C-105.64169 458.06836231 -109.89555785 465.7189994 -114.140625 473.375 C-119.27180057 482.62599664 -124.4492891 491.84905921 -129.66650391 501.05175781 C-133.82083481 508.38858712 -137.9258736 515.75200101 -142.015625 523.125 C-151.6005017 540.40266105 -161.21294083 557.66254742 -171.04199219 574.80273438 C-175.51217196 582.60856052 -179.90617904 590.45614362 -184.29467773 598.30810547 C-189.82472245 608.20029325 -195.39919053 618.06696038 -200.98242188 627.92919922 C-202.5632831 630.72376327 -204.14146643 633.51982159 -205.71875 636.31640625 C-211.95409306 647.36847955 -218.23094463 658.3960403 -224.53665161 669.40808105 C-229.34567411 677.80944955 -234.10839862 686.23556124 -238.828125 694.6875 C-245.00598556 705.75030105 -251.27477219 716.75834182 -257.578125 727.75 C-260.2049042 732.33231657 -262.8300603 736.9155565 -265.453125 741.5 C-265.79259155 742.09313995 -266.13205811 742.68627991 -266.48181152 743.2973938 C-271.27214522 751.6708164 -276.0072452 760.07312905 -280.703125 768.5 C-285.79893766 777.64219063 -291.02623791 786.69858162 -296.32421875 795.72485352 C-301.14718197 803.9620593 -305.8248785 812.27531529 -310.47314453 820.61206055 C-315.56278468 829.73853277 -320.73559462 838.81509253 -325.93408203 847.87988281 C-327.74449798 851.04044859 -329.55035692 854.20358945 -331.35546875 857.3671875 C-337.90393158 868.84310981 -344.46807235 880.30938999 -351.078125 891.75 C-358.28028424 904.216004 -365.42642186 916.71361261 -372.56201172 929.21777344 C-375.56545676 934.4804792 -378.57242465 939.74117186 -381.57913208 945.00201416 C-383.24560782 947.91792672 -384.91185482 950.83396998 -386.578125 953.75 C-387.24479057 954.91666729 -387.91145724 956.08333396 -388.578125 957.25 C-388.908125 957.8275 -389.238125 958.405 -389.578125 959 C-408.57812503 992.25000006 -408.57812503 992.25000006 -409.57809448 993.99993896 C-410.24487164 995.16680407 -410.91164003 996.33367419 -411.57839966 997.50054932 C-413.24330406 1000.41422091 -414.90835986 1003.32780578 -416.57373047 1006.24121094 C-419.59492642 1011.52684891 -422.61495299 1016.81313903 -425.62942505 1022.10261536 C-427.31991575 1025.06883394 -429.01128435 1028.0345512 -430.703125 1031 C-431.03568298 1031.5829483 -431.36824097 1032.16589661 -431.71087646 1032.76651001 C-436.32600547 1040.85245969 -440.99434312 1048.90572771 -445.703125 1056.9375 C-450.4234091 1064.99014185 -455.03747165 1073.09476422 -459.578125 1081.25 C-464.67581483 1090.40570057 -469.88897054 1099.48444664 -475.18969727 1108.52392578 C-479.68363837 1116.19486563 -484.11284579 1123.90150302 -488.515625 1131.625 C-493.67866977 1140.68089546 -498.86178168 1149.7246472 -504.078125 1158.75 C-509.27052939 1167.73540831 -514.43493608 1176.73636877 -519.578125 1185.75 C-525.33397044 1195.83733474 -531.12276737 1205.90514953 -536.93359375 1215.9609375 C-541.50517123 1223.87733791 -546.04759433 1231.8100753 -550.578125 1239.75 C-556.33397044 1249.83733474 -562.12276737 1259.90514953 -567.93359375 1269.9609375 C-572.50517123 1277.87733791 -577.04759433 1285.8100753 -581.578125 1293.75 C-586.72131449 1302.76363223 -591.88593658 1311.76446624 -597.078125 1320.75 C-607.69386057 1339.12661953 -618.2263 1357.55025134 -628.64941406 1376.03686523 C-632.54937668 1382.94788116 -636.48740332 1389.83666699 -640.43365479 1396.72131348 C-640.93829254 1397.60176331 -640.93829254 1397.60176331 -641.453125 1398.5 C-641.78938904 1399.08664429 -642.12565308 1399.67328857 -642.47210693 1400.27770996 C-648.09499959 1410.0936211 -653.59767079 1419.97240425 -659.06713867 1429.87475586 C-663.75843102 1438.34086464 -668.61153563 1446.70239153 -673.52001953 1455.04394531 C-677.33274573 1461.54769043 -681.00031622 1468.11442317 -684.578125 1474.75 C-689.28033539 1483.47003579 -694.20469501 1492.03873799 -699.2265625 1500.578125 C-703.43666331 1507.7519152 -707.53460017 1514.98115485 -711.578125 1522.25 C-716.13071358 1530.43196931 -720.77072343 1538.55306784 -725.515625 1546.625 C-731.19957644 1556.30081338 -736.68603108 1566.07556568 -742.11523438 1575.89624023 C-747.83592805 1586.23937914 -753.69006105 1596.50151916 -759.578125 1606.75 C-781.75728965 1645.37723315 -803.37879869 1684.3334061 -823.890625 1723.875 C-839.21979424 1753.372229 -855.62624585 1783.10395518 -875.578125 1809.75 C-875.97563965 1810.28496094 -876.3731543 1810.81992188 -876.78271484 1811.37109375 C-907.57817018 1852.71259838 -942.92888315 1880.35345236 -994.578125 1888.75 C-1025.67706707 1892.89461212 -1057.48383279 1887.57104978 -1085.578125 1873.75 C-1086.20912109 1873.44336426 -1086.84011719 1873.13672852 -1087.49023438 1872.82080078 C-1101.57790666 1865.89543895 -1113.83869941 1857.08052509 -1125.10595703 1846.17089844 C-1126.5919685 1844.73663861 -1128.09772583 1843.32542224 -1129.60546875 1841.9140625 C-1157.70601967 1815.19935401 -1174.06893225 1775.66543361 -1175.68798828 1737.13549805 C-1176.44755294 1702.53062595 -1163.69553986 1676.60894293 -1148.44995117 1646.23291016 C-1146.77249617 1642.88869852 -1145.10362411 1639.54030349 -1143.43554688 1636.19140625 C-1137.75150326 1624.81662933 -1131.91522871 1613.55268542 -1125.77922058 1602.41494751 C-1121.74648873 1595.09298808 -1117.88439649 1587.69602304 -1114.09439087 1580.24612427 C-1107.631498 1567.55187005 -1100.97079493 1554.98663475 -1094.09228516 1542.51220703 C-1091.22177864 1537.27568483 -1088.40357258 1532.01092653 -1085.578125 1526.75 C-1080.76628257 1517.79860615 -1075.92602614 1508.86356642 -1071.05126953 1499.94628906 C-1067.89406461 1494.16909721 -1064.75390813 1488.38297023 -1061.6237793 1482.59106445 C-1056.14338569 1472.45117501 -1050.60870636 1462.34519982 -1044.99023438 1452.28125 C-1042.13875355 1447.16988189 -1039.29622035 1442.05353561 -1036.453125 1436.9375 C-1035.81777832 1435.79434326 -1035.18243164 1434.65118652 -1034.52783203 1433.47338867 C-1029.86175293 1425.07449011 -1025.21612202 1416.66443221 -1020.578125 1408.25 C-1013.56189158 1395.52124312 -1006.51080685 1382.81211293 -999.44580078 1370.11035156 C-997.54880013 1366.69723823 -995.6548467 1363.28245022 -993.76171875 1359.8671875 C-987.3848688 1348.36682625 -980.97473392 1336.88735627 -974.48950195 1325.44775391 C-969.69040355 1316.97239262 -964.96047608 1308.45933721 -960.23657227 1299.94189453 C-954.86460776 1290.25786757 -949.46052726 1280.59217413 -944.04296875 1270.93359375 C-941.71565357 1266.7838168 -939.39592985 1262.62992846 -937.08203125 1258.47265625 C-931.32927865 1248.14800454 -925.50894036 1237.87464069 -919.515625 1227.6875 C-914.25390655 1218.73920856 -909.23721642 1209.68325626 -904.32958984 1200.53662109 C-900.39001101 1193.20692154 -896.31850354 1185.96483688 -892.16748047 1178.75317383 C-888.25231089 1171.94744289 -884.40517128 1165.10563653 -880.578125 1158.25 C-875.80498176 1149.70368279 -870.98497485 1141.18672818 -866.11279297 1132.6965332 C-862.25966193 1125.97103344 -858.47650993 1119.20799491 -854.703125 1112.4375 C-850.10651247 1104.19481876 -845.42217562 1096.01171755 -840.640625 1087.875 C-834.95681341 1078.19910151 -829.47022138 1068.42443877 -824.04101562 1058.60375977 C-818.84916485 1049.21678034 -813.55372969 1039.89367831 -808.21044922 1030.59228516 C-805.03591654 1025.06462894 -801.86843932 1019.53293826 -798.703125 1014 C-798.36356781 1013.40667877 -798.02401062 1012.81335754 -797.67416382 1012.20205688 C-792.88391589 1003.82882001 -788.1489057 995.42669312 -783.453125 987 C-778.35731234 977.85780937 -773.13001209 968.80141838 -767.83203125 959.77514648 C-763.00906803 951.5379407 -758.3313715 943.22468471 -753.68310547 934.88793945 C-748.59187891 925.75862258 -743.41770025 916.67905085 -738.21777344 907.61132812 C-735.42237574 902.73311773 -732.63441625 897.85065746 -729.84564209 892.96865845 C-728.13697 889.97763672 -726.42783526 886.98687939 -724.71875 883.99609375 C-724.02669052 882.78499474 -723.33463323 881.57389448 -722.64257812 880.36279297 C-654.57812498 761.24999996 -654.57812498 761.24999996 -653.57815552 759.50006104 C-652.91137836 758.33319593 -652.24460997 757.16632581 -651.57785034 755.99945068 C-649.91294594 753.08577909 -648.24789014 750.17219422 -646.58251953 747.25878906 C-643.56132358 741.97315109 -640.54129701 736.68686097 -637.52682495 731.39738464 C-635.83633425 728.43116606 -634.14496565 725.4654488 -632.453125 722.5 C-632.12056702 721.9170517 -631.78800903 721.33410339 -631.44537354 720.73348999 C-626.83024453 712.64754031 -622.16190688 704.59427229 -617.453125 696.5625 C-612.7328409 688.50985815 -608.11877835 680.40523578 -603.578125 672.25 C-598.47963624 663.09286452 -593.26504684 654.01307238 -587.96435547 644.97167969 C-583.49533668 637.34201024 -579.08463615 629.68015345 -574.703125 622 C-574.37009369 621.41634674 -574.03706238 620.83269348 -573.69393921 620.23135376 C-572.00013453 617.26240496 -570.30716738 614.29297977 -568.61474609 611.32324219 C-565.25160449 605.42198311 -561.88434433 599.5230765 -558.515625 593.625 C-558.18419495 593.04463989 -557.85276489 592.46427979 -557.5112915 591.86633301 C-552.1088341 582.40800527 -546.67216959 572.96971616 -541.22241211 563.53857422 C-536.65085582 555.62237125 -532.10856561 547.68976686 -527.578125 539.75 C-521.82227956 529.66266526 -516.03348263 519.59485047 -510.22265625 509.5390625 C-505.65107877 501.62266209 -501.10865567 493.6899247 -496.578125 485.75 C-490.82227956 475.66266526 -485.03348263 465.59485047 -479.22265625 455.5390625 C-474.65107877 447.62266209 -470.10865567 439.6899247 -465.578125 431.75 C-459.82227956 421.66266526 -454.03348263 411.59485047 -448.22265625 401.5390625 C-443.65107877 393.62266209 -439.10865567 385.6899247 -434.578125 377.75 C-428.82227956 367.66266526 -423.03348263 357.59485047 -417.22265625 347.5390625 C-412.65107877 339.62266209 -408.10865567 331.6899247 -403.578125 323.75 C-398.43493566 314.73636803 -393.27037008 305.73550083 -388.078125 296.75 C-380.87588696 284.28404192 -373.72982789 271.78638694 -366.59423828 259.28222656 C-363.9230783 254.60175836 -361.24906955 249.92291901 -358.57495117 245.24414062 C-357.24523564 242.91757514 -355.91599665 240.59073842 -354.5871582 238.26367188 C-351.55520383 232.95474489 -348.52075799 227.64730623 -345.47547913 222.3460083 C-337.54867776 208.5467901 -329.70885857 194.70963543 -322.16455078 180.69628906 C-320.71985135 178.01321231 -319.27072988 175.3325612 -317.82067871 172.65237427 C-311.43845393 160.84824493 -305.14314194 149.01761708 -299.20996094 136.97949219 C-294.76860001 128.01975251 -289.93287012 119.28151154 -285.1015625 110.52783203 C-283.59801176 107.78626146 -282.11594268 105.03419574 -280.640625 102.27734375 C-251.23121664 47.4464095 -212.7343686 -9.36435679 -150.52734375 -29.125 C-143.30235596 -31.24301512 -135.96810441 -32.82996474 -128.578125 -34.25 C-127.41410156 -34.47816406 -126.25007813 -34.70632813 -125.05078125 -34.94140625 C-80.70537658 -42.20531561 -33.85683379 -29.54778222 0 0 Z " fill="#010101" transform="translate(1602.578125,514.25)"/>
<path d="M0 0 C1.21816406 0.17692383 2.43632812 0.35384766 3.69140625 0.53613281 C50.8792086 7.48469272 96.03747152 21.26021011 139 42 C140.49007568 42.71325439 140.49007568 42.71325439 142.01025391 43.44091797 C161.79031944 52.94818249 180.75820755 63.7953225 199 76 C199.62003906 76.41427246 200.24007812 76.82854492 200.87890625 77.25537109 C211.1762808 84.16720227 221.15882567 91.45518279 231 99 C231.93271729 99.7120459 231.93271729 99.7120459 232.88427734 100.43847656 C240.05315225 105.92557627 246.92337036 111.58186942 253.54296875 117.7265625 C255.72099653 119.74184416 257.93609286 121.69272436 260.1875 123.625 C266.20113493 128.86545329 271.72961405 134.52699879 276.91796875 140.58203125 C278.52802548 142.45187199 280.15563298 144.29815219 281.80078125 146.13671875 C329.39761422 199.65337058 358.30563051 261.45118662 376.42724609 330.13964844 C382.84128001 355.41041331 382.84128001 355.41041331 392.26439571 379.66035175 C395.9162645 387.46512854 396.71448917 394.00206384 396.63110352 402.55200195 C396.64183647 404.49823204 396.64183647 404.49823204 396.65278625 406.48377991 C396.67112197 410.00435529 396.65848056 413.5241624 396.63869596 417.04470468 C396.62217613 420.74629709 396.63113991 424.44784592 396.63621521 428.14945984 C396.6407186 434.35700611 396.62496908 440.5642493 396.59692383 446.77172852 C396.56480889 453.9349575 396.56492057 461.09764237 396.5821386 468.26091033 C396.59802674 475.17758677 396.59126007 482.09406485 396.57420158 489.01073265 C396.56735306 491.94401561 396.56834051 494.8771385 396.57574654 497.81041908 C396.58486324 501.90557501 396.56082424 505.99989622 396.53344727 510.0949707 C396.54323608 511.90843994 396.54323608 511.90843994 396.55322266 513.75854492 C396.47634093 520.52428918 395.83586445 524.42666697 392 530 C391.13827813 532.02912512 390.32814828 534.08097287 389.57226562 536.15185547 C389.14296753 537.32225372 388.71366943 538.49265198 388.2713623 539.69851685 C387.81588892 540.96291677 387.36086413 542.22747837 386.90625 543.4921875 C386.42233545 544.82521936 385.9383247 546.15821629 385.45422363 547.49118042 C379.75658081 563.24716083 374.47708642 579.14653553 369.19775391 595.04638672 C353.74293179 641.55520774 335.92397448 686.02824438 304 724 C303.51047852 724.58426758 303.02095703 725.16853516 302.51660156 725.77050781 C299.05524346 729.88594627 295.54470262 733.95621922 292 738 C291.19433594 738.91910156 290.38867188 739.83820312 289.55859375 740.78515625 C284.56990129 746.39851977 279.35283362 751.73507788 274 757 C270.79423234 760.19413148 267.60561947 763.40497714 264.41796875 766.6171875 C262.67454827 768.3698604 260.93105665 770.12246256 259.1875 771.875 C258.32318359 772.74769531 257.45886719 773.62039063 256.56835938 774.51953125 C252.08901576 779.01577805 247.55840581 783.37036806 242.74047852 787.50244141 C240.39301091 789.52227116 238.13970946 791.63821304 235.875 793.75 C230.02781253 799.08626818 223.85035554 803.92544742 217.58691406 808.75976562 C215.45981939 810.42217192 213.39048143 812.15179588 211.3125 813.875 C181.3688143 837.82019492 146.53291301 855.95985244 111 870 C109.67186279 870.53415527 109.67186279 870.53415527 108.31689453 871.07910156 C72.96363468 885.18268817 34.80515274 893.32918034 -3 897 C-4.04945801 897.10296387 -5.09891602 897.20592773 -6.18017578 897.31201172 C-87.22328441 904.91994406 -170.97764656 890.93034823 -245 857 C-246.05751465 856.5153125 -247.1150293 856.030625 -248.20458984 855.53125 C-292.7541687 834.93586908 -332.80326645 808.07824573 -369 775 C-370.01289099 774.0805861 -371.02591816 773.16132221 -372.0390625 772.2421875 C-379.39407719 765.55487666 -386.51337058 758.82094626 -393 751.27734375 C-394.91012016 749.10234365 -396.87349566 746.98521292 -398.85229492 744.87280273 C-405.34975268 737.91002485 -411.23108542 730.5714536 -417 723 C-417.49145508 722.3601416 -417.98291016 721.7202832 -418.48925781 721.06103516 C-429.95416712 706.1197884 -440.07945079 690.59404138 -449.61425781 674.35595703 C-450.83425728 672.28178599 -452.06816259 670.21667462 -453.3046875 668.15234375 C-490.32664145 605.3873149 -506.37051926 530.26747065 -508 458 C-508.02191406 457.19143555 -508.04382812 456.38287109 -508.06640625 455.54980469 C-509.80752476 384.19296426 -494.70398129 309.38895599 -461.10742188 246.10888672 C-459.7996729 243.61851289 -458.53312486 241.10874908 -457.265625 238.59765625 C-450.83210617 225.93381577 -443.87209425 213.82172673 -436 202 C-435.46197754 201.19014648 -434.92395508 200.38029297 -434.36962891 199.54589844 C-427.60383909 189.40814231 -420.61194457 179.52133808 -413 170 C-412.27554688 169.09378906 -411.55109375 168.18757813 -410.8046875 167.25390625 C-408.55995567 164.48218541 -406.28738296 161.73662347 -404 159 C-403.57025879 158.4838916 -403.14051758 157.9677832 -402.69775391 157.43603516 C-389.98087273 142.20942269 -376.37553157 127.95178063 -361.72460938 114.57617188 C-360.23031346 113.21049033 -358.74694582 111.83286954 -357.265625 110.453125 C-351.04529779 104.72066659 -344.45220096 99.52083682 -337.75830078 94.35986328 C-336.09088342 93.0702889 -334.43289227 91.76960158 -332.77734375 90.46484375 C-324.4417246 83.92548273 -315.79916091 77.89675423 -307 72 C-306.35111816 71.56075195 -305.70223633 71.12150391 -305.03369141 70.66894531 C-250.99282158 34.19102017 -188.33807498 10.74209579 -124 1 C-122.11812988 0.70367676 -122.11812988 0.70367676 -120.19824219 0.40136719 C-81.06739446 -5.54761215 -39.14241232 -5.95895971 0 0 Z " fill="#010101" transform="translate(4572,1479)"/>
<path d="M0 0 C0.70141113 0.1954541 1.40282227 0.3909082 2.12548828 0.59228516 C20.08186595 5.70353984 38.04638556 13.75750155 53 25 C54.55654297 26.13501953 54.55654297 26.13501953 56.14453125 27.29296875 C90.51820235 52.71340232 113.70614777 88.88180705 120.2265625 131.41845703 C128.407589 195.28028411 94.77700036 254.58581616 67.15844727 309.68969727 C65.19393393 313.6097806 63.23776002 317.53398192 61.2830658 321.45896912 C59.51472197 325.00926688 57.7442121 328.55848269 55.97363281 332.10766602 C55.07740196 333.90515725 54.18188938 335.7030068 53.28710938 337.5012207 C48.1962581 347.73044035 43.02861109 357.9079014 37.67958069 368.00465393 C33.17642142 376.52117385 28.85976772 385.12820963 24.5625 393.75 C24.14969788 394.57649048 23.73689575 395.40298096 23.31158447 396.2545166 C18.15747519 406.57563471 13.07751207 416.92526977 8.14306641 427.35351562 C4.01679622 436.04006676 -0.26607104 444.64674196 -4.5625 453.25 C-4.90863342 453.9447644 -5.25476685 454.63952881 -5.61138916 455.35534668 C-9.4964459 463.14857586 -13.45713062 470.89394984 -17.5390625 478.5859375 C-24.12382054 491.01985811 -30.41356393 503.60363085 -36.7121582 516.18408203 C-38.10330252 518.96200693 -39.49821427 521.7379853 -40.89672852 524.51220703 C-52.86036009 548.24876977 -64.5112076 572.16973581 -74.0625 597 C-74.49498047 598.09570312 -74.92746094 599.19140625 -75.37304688 600.3203125 C-80.63755989 612.34519369 -80.63755989 612.34519369 -83 625 C-73.2180827 629.06369682 -63.40917828 632.65593961 -53.25 635.6875 C-52.55282867 635.89687195 -51.85565735 636.1062439 -51.13735962 636.32196045 C-31.58702204 642.17130783 -11.82207193 647.16568514 8 652 C9.73485657 652.42315491 9.73485657 652.42315491 11.50476074 652.8548584 C103.16869511 675.15879685 195.69940962 693.83210717 296.06640625 714.359375 C297.39285881 714.63059978 298.71931106 714.90182602 300.04576302 715.17305374 C315.97622027 718.43042989 315.97622027 718.43042989 331.90704727 721.68599701 C364.52139282 728.34890677 397.11815907 735.07154668 429.64782715 742.137146 C444.64110446 745.39369283 459.6451725 748.56469779 474.6953125 751.546875 C475.4339472 751.69341774 476.1725819 751.83996048 476.93359947 751.99094391 C483.35582545 753.26442304 489.77837628 754.53617169 496.20681763 755.7779541 C518.81927133 760.14736958 541.37543025 764.99539577 563.1875 772.5 C564.30785645 772.8818042 565.42821289 773.2636084 566.58251953 773.65698242 C593.83580564 783.08383533 617.1343622 797.08019469 638 817 C638.8765625 817.82371094 639.753125 818.64742187 640.65625 819.49609375 C660.37490004 838.51485343 675.0955475 865.25104095 681 892 C681.29648438 893.26972656 681.59296875 894.53945312 681.8984375 895.84765625 C686.31798649 917.15372977 686.3029666 942.87686432 681 964 C680.83371094 964.71784668 680.66742187 965.43569336 680.49609375 966.17529297 C677.71355329 978.09126484 673.36353244 989.02217942 668 1000 C667.4328125 1001.16402344 666.865625 1002.32804687 666.28125 1003.52734375 C659.89646985 1015.95055985 651.65585895 1026.93706436 642 1037 C641.20464844 1037.85851563 640.40929688 1038.71703125 639.58984375 1039.6015625 C613.14267063 1067.28533044 576.04314722 1084.68680631 537.64477539 1086.12573242 C533.65869648 1086.20782084 529.67428413 1086.24663365 525.6875 1086.25 C524.60344879 1086.25101212 524.60344879 1086.25101212 523.49749756 1086.25204468 C499.58412012 1086.21694259 476.393817 1082.76120857 453 1078 C451.64312628 1077.72740363 450.28619096 1077.45511372 448.92919922 1077.18310547 C426.25381228 1072.62394193 403.67979042 1067.60913069 381.10926819 1062.56210899 C302.63104861 1045.01416504 223.91371885 1028.58135904 145.19987202 1012.12968063 C-26.40566743 976.26280434 -26.40566743 976.26280434 -343.6875 902.3125 C-344.37829651 902.12789215 -345.06909302 901.9432843 -345.78082275 901.75308228 C-360.09854892 897.90937239 -374.45292279 893.59591308 -387.9375 887.375 C-388.84862549 886.95677979 -389.75975098 886.53855957 -390.69848633 886.10766602 C-404.59905563 879.54347483 -417.51269694 871.22332797 -429 861 C-429.85851563 860.24976563 -430.71703125 859.49953125 -431.6015625 858.7265625 C-434.09893004 856.5159018 -436.55732057 854.27083264 -439 852 C-439.67675781 851.37738281 -440.35351562 850.75476562 -441.05078125 850.11328125 C-468.47520163 823.89795355 -482.70660075 785.40510618 -484 748 C-484.71748496 670.20413084 -433.72687653 593.92686075 -398.75 527.125 C-392.87336639 515.88539827 -387.37914689 504.48481378 -382 493 C-381.49452637 491.92314941 -380.98905273 490.84629883 -380.46826172 489.73681641 C-371.01888479 469.59297498 -361.68765545 449.39387234 -352.33763123 429.20379639 C-349.04343087 422.09147664 -345.74129201 414.98286949 -342.4375 407.875 C-337.68412002 397.64659471 -332.95611972 387.40663697 -328.23330688 377.16409302 C-320.75749792 360.95153518 -313.24095083 344.75889722 -305.67675781 328.58740234 C-303.97727318 324.95137626 -302.28095777 321.31388971 -300.5859375 317.67578125 C-297.0628418 310.1145904 -293.53345788 302.55635373 -290 295 C-289.68675781 294.32990906 -289.37351562 293.65981812 -289.05078125 292.96942139 C-279.76400446 273.10636407 -270.31877351 253.3274302 -260.72462463 233.61109924 C-257.85516123 227.71040421 -255.01495281 221.79594042 -252.1875 215.875 C-251.7534082 214.96693604 -251.31931641 214.05887207 -250.87207031 213.12329102 C-248.64948419 208.4696989 -246.43722926 203.81140243 -244.234375 199.1484375 C-243.76620361 198.16117676 -243.29803223 197.17391602 -242.81567383 196.15673828 C-241.95012966 194.33119907 -241.08753818 192.50425392 -240.22924805 190.67529297 C-237.39955156 184.71561939 -234.37319014 178.87527723 -231.28515625 173.046875 C-226.02261235 163.11307041 -220.99436842 153.0706757 -216 143 C-209.85234584 130.60383172 -203.58938529 118.28382996 -197.09637451 106.0645752 C-196.11835963 104.22288219 -195.14503681 102.37869926 -194.17236328 100.53417969 C-180.39158632 74.43073169 -164.68082166 47.47759614 -141 29 C-140.49307617 28.60248535 -139.98615234 28.2049707 -139.46386719 27.79541016 C-99.94243696 -2.92728986 -48.53945295 -14.00110372 0 0 Z " fill="#010101" transform="translate(3048,1081)"/>
<path d="M0 0 C126.72 0 253.44 0 384 0 C368.22025418 15.77974582 336.35287302 21.2789305 315.5 28 C291.15466925 35.84713781 267.290594 44.36616361 244 55 C242.64285889 55.61875 242.64285889 55.61875 241.25830078 56.25 C209.19492245 70.96799328 178.48389783 89.71305437 152.4765625 113.734375 C150.45656178 115.58232519 148.40728519 117.37174467 146.33203125 119.15625 C141.37386156 123.48510464 136.71329437 128.09524339 132.0625 132.75 C131.1765918 133.63598877 130.29068359 134.52197754 129.37792969 135.43481445 C124.19872875 140.65952261 119.29774598 145.90531433 114.78515625 151.71875 C113.01381415 153.9823469 111.13697263 156.0765559 109.1875 158.1875 C57.52914206 216.18986681 31.15906244 290.23240471 8.15380859 362.86279297 C7.82438263 363.90142487 7.49495667 364.94005676 7.1555481 366.01016235 C6.53808456 367.95862789 5.92231734 369.90763212 5.30856323 371.85726929 C4.00614453 375.96903545 2.69348615 380.02785483 1 384 C0.67 384 0.34 384 0 384 C0 257.28 0 130.56 0 0 Z " fill="#FDFDFD" transform="translate(0,0)"/>
</svg>
