<?xml version="1.0" encoding="UTF-8"?>
<svg version="1.1" xmlns="http://www.w3.org/2000/svg" width="6313" height="2630">
<path d="M0 0 C2.58126513 0.00564743 5.16252367 0.00846361 7.74379349 0.0110817 C33.35568867 0.04882542 58.81214493 0.47100856 84.29039383 3.31805801 C85.10504105 3.40762772 85.91968826 3.49719742 86.75902176 3.58948135 C181.18406594 14.03649786 273.48431257 40.05318037 394.29039383 109.31805801 C395.42928055 110.08013565 395.42928055 110.08013565 396.59117508 110.8576088 C410.68073884 120.3075333 424.31747553 130.37902945 437.29039383 141.31805801 C437.82342117 141.76616837 438.35644852 142.21427872 438.9056282 142.67596817 C450.78461141 152.68235225 462.15722067 163.10998164 473.16539383 174.06805801 C473.86704666 174.76503799 474.56869949 175.46201797 475.29161453 176.18011856 C479.82795039 180.7304771 484.10639443 185.44365462 488.29039383 190.31805801 C489.23998617 191.4009042 490.19045818 192.48297983 491.14195633 193.56415176 C498.94268254 202.50590465 506.25026789 211.7672464 513.29039383 221.31805801 C513.85516434 222.08360001 514.41993484 222.849142 515.00181961 223.63788223 C524.75940752 236.97022292 533.26273477 250.88563402 541.29039383 265.31805801 C542.0428035 266.66601456 542.0428035 266.66601456 542.81041336 268.04120255 C559.89617534 298.91043637 571.72726128 332.89472918 579.29039383 367.31805801 C579.56955643 368.53404678 579.56955643 368.53404678 579.85435867 369.77460098 C589.63778552 412.83402968 591.41276219 460.79331818 584.29039383 504.31805801 C583.99713897 506.2737443 583.70417266 508.22947387 583.41148758 510.18524551 C581.235251 524.10363207 578.0089427 537.73687769 574.29039383 551.31805801 C573.91406815 552.69284317 573.91406815 552.69284317 573.53013992 554.09540176 C561.40666504 597.56838951 542.00485767 639.26788565 520.60045242 678.88934708 C519.15075866 681.57692694 517.71481069 684.27164791 516.27867508 686.96649551 C510.18518205 698.35483793 503.87351115 709.58791324 497.32188797 720.71893692 C493.78755979 726.72783956 490.33524305 732.77110952 486.97789383 738.88055801 C483.37190145 745.43204638 479.61470429 751.86809681 475.73961258 758.26337051 C472.88885967 762.96963612 470.08845183 767.70532568 467.29039383 772.44305801 C466.74922928 773.35925919 466.20806473 774.27546036 465.65050125 775.2194252 C460.27867585 784.32358781 454.93534963 793.44444434 449.59581375 802.56756973 C446.34901988 808.1132602 443.09669022 813.65528596 439.80992508 819.17743301 C433.53255076 829.72459116 427.41889241 840.34667054 421.45201492 851.07294083 C418.24785399 856.83240896 415.00568549 862.56538412 411.70274734 868.26874161 C406.2464389 877.70008953 401.12451135 887.2692019 396.14342117 896.95965958 C393.12097504 902.83158324 390.0304242 908.65173547 386.82188797 914.42401505 C340.04577122 998.61636079 307.44739195 1093.98673594 290.72789383 1260.81805801 C290.68455381 1262.62405433 290.64093554 1264.430044 290.59703445 1266.23602676 C290.4916257 1270.59663409 290.38993814 1274.95731304 290.29039383 1279.31805801 C301.51230426 1280.2482938 312.7360766 1281.15479345 323.96068192 1282.0518837 C326.25863594 1282.23558017 328.55656752 1282.41955747 330.85448074 1282.60376358 C377.02785535 1286.30231813 423.19184019 1289.49788672 469.47789383 1291.44305801 C470.39877792 1291.4817601 471.31966202 1291.52046219 472.26845169 1291.56033707 C477.89101496 1291.79317474 483.51409459 1292.00490282 489.13795853 1292.20376968 C491.29400397 1292.28193491 493.44990737 1292.36409273 495.60567093 1292.44968033 C523.97170078 1293.56938227 552.34378866 1293.52035779 580.72789383 1293.50555801 C582.00541016 1293.50514385 583.28292648 1293.50472969 584.59915543 1293.50430298 C624.44740912 1293.48814123 664.22646773 1293.27843517 704.03747177 1291.4227562 C706.40262846 1291.31284223 708.76786008 1291.20465422 711.13310623 1291.0966835 C751.76959278 1289.23495413 792.37791802 1286.93796948 832.97008133 1284.28290176 C833.6459939 1284.23873343 834.32190648 1284.19456511 835.01830125 1284.14905834 C849.07971508 1283.22998528 863.14035022 1282.30037196 877.19919014 1281.34265137 C919.35828732 1278.47394085 961.53933472 1275.91586832 1003.81309891 1276.05731583 C1007.68654119 1276.06829511 1011.55954087 1276.05714108 1015.43297195 1276.04462051 C1037.94512073 1276.03161574 1060.46266058 1277.06209364 1082.79039383 1280.06805801 C1084.06189285 1280.23797256 1085.33339188 1280.40788712 1086.64342117 1280.58295059 C1117.54167108 1284.89526658 1147.70509027 1292.6990052 1176.29039383 1305.31805801 C1177.54094559 1305.86816544 1177.54094559 1305.86816544 1178.81676102 1306.42938614 C1223.71449888 1326.43282608 1261.81907129 1357.59983226 1296.27672195 1392.17401505 C1298.18117888 1394.08388796 1300.09100202 1395.9882795 1302.00133133 1397.89227676 C1307.97914151 1403.8668366 1313.82182508 1409.86800141 1319.29039383 1416.31805801 C1320.91007199 1418.09376022 1322.53451101 1419.86514109 1324.16539383 1421.63055801 C1329.08777623 1427.02954023 1333.7068811 1432.63125727 1338.29039383 1438.31805801 C1339.74790153 1440.08957096 1341.20624305 1441.86039819 1342.66539383 1443.63055801 C1350.95209039 1453.76670761 1358.94658867 1464.12773472 1366.87535477 1474.5451088 C1367.39259109 1475.2242836 1367.90982742 1475.9034584 1368.44273758 1476.60321426 C1368.89640701 1477.20013077 1369.35007645 1477.79704727 1369.81749344 1478.41205215 C1371.31430721 1480.42018761 1371.31430721 1480.42018761 1373.34860134 1482.45536137 C1375.76987947 1486.02494196 1375.86413623 1488.86125738 1375.83197403 1493.02721024 C1375.84662572 1494.18072203 1375.84662572 1494.18072203 1375.8615734 1495.35753709 C1375.88920468 1497.93078736 1375.88830184 1500.50321624 1375.88731766 1503.07660294 C1375.90092569 1504.92317291 1375.91615895 1506.76973152 1375.93289566 1508.61627579 C1375.97251014 1513.63099319 1375.98599544 1518.64545205 1375.99235368 1523.66031051 C1375.99742001 1526.79538897 1376.00793096 1529.93040087 1376.0203495 1533.0654583 C1376.06335176 1544.008826 1376.08456601 1554.95200104 1376.08653641 1565.89545059 C1376.08896895 1576.08581146 1376.13993107 1586.27515285 1376.21342832 1596.46522635 C1376.27434574 1605.22129117 1376.30045169 1613.97702083 1376.29987162 1622.73329622 C1376.30015451 1627.9597798 1376.31450895 1633.18528703 1376.36422539 1638.41155434 C1376.40987835 1643.33114005 1376.41206848 1648.24889097 1376.38153648 1653.16857529 C1376.37764089 1654.96886551 1376.38897387 1656.76926657 1376.41707611 1658.56934166 C1376.64034596 1673.83282787 1376.64034596 1673.83282787 1370.98819351 1680.14418411 C1369.4344603 1681.54908677 1367.86863138 1682.94074011 1366.29039383 1684.31805801 C1364.84292242 1686.02152164 1363.42252112 1687.74866133 1362.04039383 1689.50555801 C1358.38193249 1694.0274674 1354.61346667 1698.435847 1350.79039383 1702.81805801 C1347.05624215 1707.10012093 1343.36580279 1711.40137636 1339.79039383 1715.81805801 C1335.19777213 1721.48536999 1330.41707269 1726.9787916 1325.62633133 1732.47821426 C1322.9351822 1735.56889192 1320.26855241 1738.67944613 1317.61070633 1741.7987709 C1312.67997701 1747.58455384 1307.66228885 1753.26501567 1302.52476883 1758.86883926 C1300.564765 1761.017305 1298.63694892 1763.18689608 1296.72789383 1765.38055801 C1290.97770428 1771.9831286 1285.18781913 1778.50248656 1278.93883133 1784.63837051 C1277.30264473 1786.30557487 1275.79831721 1788.03457503 1274.29039383 1789.81805801 C1266.10720962 1799.30016035 1256.96745693 1808.36545426 1247.29039383 1816.31805801 C1246.74866531 1816.77358047 1246.2069368 1817.22910294 1245.64879227 1817.69842911 C1236.27154253 1825.58150169 1226.716907 1832.8764762 1216.29039383 1839.31805801 C1215.67792801 1839.69913712 1215.06546219 1840.08021622 1214.4344368 1840.47284317 C1196.45881423 1851.5083614 1176.7844798 1858.60131364 1156.29039383 1863.31805801 C1155.47328934 1863.5070668 1154.65618484 1863.69607559 1153.81431961 1863.89081192 C1141.01095233 1866.74316201 1128.00527044 1868.13279594 1114.97789383 1869.50555801 C1113.79430786 1869.63284286 1113.79430786 1869.63284286 1112.58681107 1869.76269913 C1085.44166585 1872.64265412 1058.22724366 1872.45871426 1030.96713698 1872.41946459 C1025.68559838 1872.41300762 1020.40405857 1872.41251449 1015.12251663 1872.41128922 C1005.9702547 1872.40841537 996.81800097 1872.401993 987.66574287 1872.39322281 C974.29424836 1872.38051389 960.92275677 1872.37455421 947.5512572 1872.37028944 C925.66522815 1872.36322811 903.77920278 1872.35245058 881.89317703 1872.33856583 C880.58614181 1872.33773801 879.2791066 1872.3369102 877.93246425 1872.33605731 C866.08907155 1872.32852096 854.24567901 1872.32073691 842.40228653 1872.31285477 C805.51751221 1872.28832081 768.63273969 1872.26701942 731.74795833 1872.25662726 C727.99450334 1872.25555495 724.24104838 1872.25438928 720.48759341 1872.25322199 C661.15365495 1872.23565115 601.82649873 1872.30294469 542.49516296 1872.88098145 C472.6413382 1873.56040094 402.78555243 1873.46982138 332.92909312 1873.4475188 C318.45308843 1873.44299228 303.97709175 1873.44387855 289.50108719 1873.44842911 C272.32513374 1873.45382651 255.14918496 1873.45586733 237.97323078 1873.45281684 C236.13337926 1873.45249853 234.29352774 1873.45218415 232.45367622 1873.45187378 C231.55023972 1873.4517195 230.64680321 1873.45156523 229.71598985 1873.45140628 C223.50433023 1873.45056101 217.29267377 1873.45197835 211.08101463 1873.45435333 C147.63805651 1873.47644892 147.63805651 1873.47644892 118.23546219 1872.86053848 C117.26742633 1872.84032583 116.29939047 1872.82011319 115.30202019 1872.79928803 C43.98128221 1871.25387239 -26.03600949 1861.45824389 -91.70960617 1832.31805801 C-92.49077805 1831.97565079 -93.27194992 1831.63324356 -94.07679367 1831.28046036 C-126.16921917 1817.1274192 -157.54328294 1796.31637309 -181.98304367 1771.04462051 C-183.67302576 1769.35463843 -185.42828001 1767.83698088 -187.27210617 1766.31805801 C-190.47637638 1763.62733901 -193.156701 1760.66355839 -195.85804367 1757.47430801 C-197.08098686 1756.05012101 -198.33627932 1754.65301712 -199.62366867 1753.28680801 C-216.85917163 1734.95391349 -230.51062115 1713.21676585 -242.70960617 1691.31805801 C-243.1541716 1690.52754044 -243.59873703 1689.73702286 -244.05677414 1688.9225502 C-283.65303662 1618.00516668 -297.64449409 1533.73687891 -292.70960617 1207.31805801 C-292.58563461 1206.21540604 -292.46166306 1205.11275406 -292.33393478 1203.97668839 C-283.17431983 1122.8480488 -269.97903337 1042.37376159 -256.14043045 961.93570328 C-255.81345768 960.03504287 -255.48668829 958.13434746 -255.16012955 956.23361588 C-248.25533295 916.0467558 -248.25533295 916.0467558 -244.70960617 899.31805801 C-280.93427166 909.07311885 -316.61915549 920.02307342 -351.70960617 933.31805801 C-352.9069841 933.77003555 -354.10436203 934.22201309 -355.33802414 934.68768692 C-405.24660914 953.62902187 -454.11339743 976.68205315 -500.39319992 1003.28680801 C-505.69762197 1006.33177736 -511.07359247 1009.23323401 -516.45960617 1012.13055801 C-527.62412962 1018.16722487 -538.5113752 1024.65029413 -549.40417099 1031.16037369 C-553.55276546 1033.63665787 -557.71624045 1036.08636667 -561.88929367 1038.52118301 C-562.78486481 1039.04374428 -562.78486481 1039.04374428 -563.69852829 1039.57686234 C-564.90847761 1040.28271532 -566.11844876 1040.98853089 -567.32844162 1041.69430923 C-577.66055619 1047.72342767 -587.93267581 1053.84159982 -598.14710617 1060.06805801 C-608.95644051 1066.65697111 -619.81052832 1073.16165267 -630.72913742 1079.56805801 C-633.45047965 1081.16591033 -636.16972902 1082.76727409 -638.88834763 1084.36975479 C-661.31904247 1097.58860125 -683.8973094 1110.49676032 -706.85316086 1122.78778458 C-708.68873528 1123.77115043 -710.52284869 1124.757251 -712.35511398 1125.74676895 C-790.53023968 1167.93319259 -876.58180296 1195.40541792 -976.20960617 1205.63055801 C-977.06769882 1205.7119603 -977.92579147 1205.79336258 -978.80988693 1205.8772316 C-1001.06248364 1207.95391551 -1023.30722348 1208.4981473 -1045.64710617 1208.44305801 C-1046.73236588 1208.44183945 -1047.81762558 1208.44062088 -1048.93577194 1208.43936539 C-1092.29654616 1208.38229336 -1092.29654616 1208.38229336 -1100.70960617 1206.31805801 C-1096.3667411 1200.23804691 -1091.57749926 1194.63927012 -1086.66199875 1189.02313614 C-1083.4314748 1185.32587408 -1080.27811577 1181.58977704 -1077.20960617 1177.75555801 C-1072.63527615 1172.10094341 -1067.68322235 1166.83336394 -1062.70960617 1161.53290176 C-1059.89942143 1158.53496761 -1057.1846898 1155.46655384 -1054.49866867 1152.35712051 C-1050.78692768 1148.1267083 -1046.94784264 1144.00931584 -1043.1358757 1139.86932755 C-1040.88389276 1137.41997807 -1038.64167966 1134.96169661 -1036.39710617 1132.50555801 C-1031.62289676 1127.29020165 -1026.80118834 1122.1199874 -1021.97205734 1116.95550919 C-1018.20302983 1112.92325127 -1014.4489608 1108.87783935 -1010.70960617 1104.81805801 C-1006.39476719 1100.13397325 -1002.05822208 1095.47079786 -997.70960617 1090.81805801 C-985.42677237 1077.73334841 -985.42677237 1077.73334841 -973.48304367 1064.34149551 C-971.25822525 1061.8030463 -968.98457298 1059.31164025 -966.70960617 1056.81805801 C-956.44947021 1045.55505163 -946.61639723 1033.93512054 -937.01038742 1022.11102676 C-934.96276766 1019.6253763 -932.87734306 1017.17720817 -930.77625656 1014.73675919 C-924.57471517 1007.5142524 -918.85923244 999.98878754 -913.20814133 992.33124161 C-911.77218611 990.40213005 -910.31465238 988.49213339 -908.84632492 986.58758926 C-895.63809226 969.39510141 -883.8670473 951.16629757 -872.95569992 932.44305801 C-871.86116221 930.57651094 -870.74518714 928.72615726 -869.61585617 926.88055801 C-854.8360845 902.16684145 -844.08882447 874.37101188 -837.70960617 846.31805801 C-837.48216721 845.31790665 -837.48216721 845.31790665 -837.25013351 844.2975502 C-833.84638067 828.99403293 -832.29276289 814.07485857 -832.33460617 798.44305801 C-832.33548233 797.63679977 -832.33635849 796.83054153 -832.3372612 795.99985123 C-832.49104256 752.83624404 -847.22057556 709.28900801 -872.70960617 674.31805801 C-873.50852878 673.17625884 -874.30527324 672.03293356 -875.10023117 670.88837051 C-880.3166055 663.41839335 -885.82031964 656.27549945 -891.70960617 649.31805801 C-892.14466476 648.79808243 -892.57972336 648.27810684 -893.02796555 647.74237442 C-900.70996383 638.56244065 -908.71051708 629.69107726 -917.03113937 621.0841713 C-918.12487026 619.93332777 -919.19066919 618.75507062 -920.22205734 617.54803848 C-922.75850106 614.69225985 -924.40024547 613.39039434 -928.15101242 612.51337051 C-929.52379848 612.45811006 -930.89821906 612.43762824 -932.27210617 612.44305801 C-933.06165695 612.42460831 -933.85120773 612.4061586 -934.6646843 612.38714981 C-937.67996499 612.33126029 -940.69381819 612.32714823 -943.70960617 612.31805801 C-945.06623363 612.30186713 -946.42284209 612.28402883 -947.77943039 612.26483536 C-1010.22478492 611.3966693 -1074.75197977 618.59825546 -1126.70960617 656.31805801 C-1127.29886887 656.73909805 -1127.88813156 657.16013809 -1128.4952507 657.59393692 C-1142.1207005 667.3861198 -1155.53565961 679.37204727 -1166.02210617 692.50555801 C-1169.11145135 696.350308 -1172.25545701 700.13113226 -1175.45960617 703.88055801 C-1181.37452963 710.96566726 -1186.68887326 718.45837819 -1192.03626633 725.97577286 C-1193.66927824 728.26160832 -1195.31692135 730.53595025 -1196.97132492 732.80633926 C-1202.50197363 740.40004081 -1207.93035166 748.0471223 -1213.20960617 755.81805801 C-1219.53032163 765.11798237 -1226.05663758 774.25333669 -1232.70960617 783.31805801 C-1233.20815109 783.99964981 -1233.70669601 784.68124161 -1234.22034836 785.3834877 C-1241.50146239 795.3140249 -1249.13632178 804.90553939 -1257.05286789 814.3366127 C-1258.5568735 816.135391 -1260.04361711 817.94678748 -1261.52601242 819.76337051 C-1273.00183723 833.66582852 -1285.97301411 846.65282805 -1299.70960617 858.31805801 C-1300.28162766 858.81281631 -1300.85364914 859.30757462 -1301.44300461 859.81732559 C-1313.42476469 870.12198258 -1326.42128391 878.79823793 -1339.70960617 887.31805801 C-1340.76679855 887.99844131 -1340.76679855 887.99844131 -1341.84534836 888.69256973 C-1380.45405205 913.31805801 -1380.45405205 913.31805801 -1390.70960617 913.31805801 C-1391.36461779 855.23788592 -1391.36461779 855.23788592 -1387.70960617 827.31805801 C-1387.54142453 825.98849508 -1387.37345958 824.65890473 -1387.20569992 823.32928848 C-1383.19988824 792.04983535 -1376.30842099 761.35413169 -1366.70960617 731.31805801 C-1366.23853439 729.81275528 -1366.23853439 729.81275528 -1365.75794601 728.27704239 C-1348.29519877 672.60605738 -1320.50587715 621.31048627 -1287.70960617 573.31805801 C-1287.13581223 572.47742813 -1286.56201828 571.63679825 -1285.97083664 570.77069473 C-1276.25796241 556.60871686 -1265.72769156 543.05560949 -1254.78382492 529.82587051 C-1253.33890487 528.07890503 -1251.90479417 526.32296647 -1250.47913742 524.56024551 C-1246.07280505 519.11489846 -1241.54194377 513.83022822 -1236.82679367 508.65008926 C-1234.92909448 506.55981912 -1233.06227202 504.44819686 -1231.20960617 502.31805801 C-1219.18027269 488.53900331 -1206.68432697 475.20943114 -1193.77210617 462.25555801 C-1192.60155685 461.07812027 -1192.60155685 461.07812027 -1191.40736008 459.8768959 C-1187.2080981 455.68883794 -1182.91637325 451.68196244 -1178.42225266 447.81244278 C-1176.42229857 446.06736524 -1174.55290005 444.22718382 -1172.70960617 442.31805801 C-1169.55980587 439.1254449 -1166.29741128 436.14644522 -1162.89710617 433.22430801 C-1160.35449218 431.00860153 -1157.87850419 428.7270721 -1155.39710617 426.44305801 C-1150.95709833 422.3928451 -1146.39026336 418.5627168 -1141.71351242 414.79071426 C-1138.21293139 411.90922168 -1134.80703292 408.93061239 -1131.39710617 405.94305801 C-1124.96722241 400.33161158 -1118.36777761 395.00046262 -1111.61097336 389.7897377 C-1109.56608126 388.20696811 -1107.53176297 386.61126277 -1105.49866867 385.01337051 C-1094.72679446 376.56172023 -1083.77928124 368.37482214 -1072.70960617 360.31805801 C-1071.96211105 359.77294571 -1071.21461594 359.2278334 -1070.44446945 358.66620255 C-1065.21769862 354.85794689 -1059.9721592 351.07670618 -1054.70960617 347.31805801 C-1053.93036789 346.76150528 -1053.15112961 346.20495255 -1052.34827805 345.63153458 C-1039.03903603 336.15505153 -1025.45131246 327.15318757 -1011.70960617 318.31805801 C-1010.81548019 317.74088028 -1009.92135422 317.16370255 -1009.00013351 316.56903458 C-985.00491013 301.09023914 -960.54284855 286.40993762 -935.70960617 272.31805801 C-934.50981125 271.63719131 -934.50981125 271.63719131 -933.28577805 270.94256973 C-922.38976566 264.78176273 -911.35132081 258.88417487 -900.30701828 252.99481583 C-893.87182506 249.56138719 -887.46176418 246.08778969 -881.08167648 242.55267715 C-872.13915228 237.60728886 -863.0973215 233.0054192 -853.84778976 228.66156387 C-847.86824664 225.84862545 -841.94926449 222.94030021 -836.05933762 219.94411087 C-819.24848133 211.39436843 -802.17155399 203.61710902 -784.89818954 196.05017471 C-778.79486786 193.37061927 -772.74925698 190.57544064 -766.70960617 187.75555801 C-741.82760421 176.22567354 -716.21573509 166.12603199 -690.69910812 156.10016251 C-688.66618056 155.30098672 -686.63418154 154.49947874 -684.6021843 153.69794083 C-633.95242758 133.75332193 -582.59910191 115.75190777 -530.70960617 99.31805801 C-529.69886032 98.9976857 -528.68811447 98.67731339 -527.64673996 98.34723282 C-472.26431243 80.82823146 -416.14762086 65.99172477 -359.70960617 52.31805801 C-358.6671373 52.06495865 -357.62466843 51.81185928 -356.55060959 51.55109024 C-266.80808196 29.78806168 -175.56348518 13.58922832 -83.70960617 4.00555801 C-82.9954454 3.93001694 -82.28128464 3.85447586 -81.54548264 3.77664566 C-76.27191133 3.22554749 -70.99378382 2.75503783 -65.70960617 2.31805801 C-64.69048141 2.23192245 -63.67135666 2.1457869 -62.62134933 2.05704117 C-41.73256322 0.33907606 -20.9476147 -0.04657763 0 0 Z " fill="#000000" transform="translate(4937.709606170654,683.681941986084)"/>
<path d="M0 0 C7.55040196 6.37165855 14.49876205 13.14070593 20.9296875 20.6484375 C23.12712919 23.14439957 25.38962332 25.5682288 27.66577148 27.9921875 C32.94825297 33.61798124 37.99716269 39.32826712 42.82421875 45.35546875 C45.130317 48.15839248 47.54151531 50.83003275 50 53.5 C54.01605847 57.86769492 57.79385454 62.36849236 61.51953125 66.984375 C64.44968808 70.5467074 67.46775239 74.02459453 70.5 77.5 C75.790178 83.57032101 80.93852696 89.73701841 86 96 C87.39451705 97.70940799 88.79039228 99.41770873 90.1875 101.125 C90.92613281 102.02863281 91.66476562 102.93226562 92.42578125 103.86328125 C94.37421232 106.24175388 96.33228932 108.61208449 98.29296875 110.98046875 C104.22335658 118.14932128 110.10034855 125.34529095 115.8137207 132.68847656 C119.48035706 137.38294806 123.26067159 141.97714704 127.0625 146.5625 C132.03034636 152.55970182 136.86162148 158.63193411 141.578125 164.828125 C144.1690068 168.22134439 146.79633694 171.58339917 149.4375 174.9375 C150.12755127 175.81426392 150.12755127 175.81426392 150.83154297 176.70874023 C152.22056867 178.47285635 153.6102447 180.23645863 155 182 C162.76984461 191.86479537 170.4937703 201.76446364 178.19726562 211.68115234 C179.97860853 213.97248427 181.76233623 216.26193773 183.546875 218.55078125 C190.83320259 227.89899097 198.06965269 237.2832069 205.25341797 246.71044922 C207.12563845 249.1646963 209.00209182 251.61567076 210.87890625 254.06640625 C218.05385258 263.44575586 225.15152931 272.87332558 232.13256836 282.39794922 C235.36961278 286.80834685 238.64803322 291.17629041 242 295.5 C247.86605061 303.07218951 253.51586301 310.80101064 259.18115234 318.52392578 C260.9670348 320.95512309 262.75788712 323.38256376 264.55078125 325.80859375 C270.78367027 334.24427781 276.97228131 342.70889041 283.09912109 351.22192383 C287.0901286 356.76000728 291.12996332 362.26052074 295.1875 367.75 C300.87140823 375.44492245 306.4756711 383.18988922 312 391 C312.45020508 391.63550781 312.90041016 392.27101563 313.36425781 392.92578125 C319.8733141 402.11608691 326.34307933 411.33366437 332.79248047 420.56591797 C335.51122333 424.45548994 338.23579213 428.34012066 340.9921875 432.203125 C347.53914082 441.38655411 353.8383058 450.71414874 360.06445312 460.11816406 C364.06986466 466.15316332 368.15595751 472.11267491 372.375 478 C376.60422217 483.91019344 380.55162009 489.93917939 384.35742188 496.12963867 C387.10297301 500.59115926 389.94598646 504.96945991 392.875 509.3125 C398.77435585 518.08883044 404.40668968 527.0262744 410 536 C410.62745117 537.00562988 411.25490234 538.01125977 411.90136719 539.04736328 C420.91741086 553.52373463 429.72661597 568.08535962 438 583 C438.54817383 583.98806641 439.09634766 584.97613281 439.66113281 585.99414062 C458 619.17677609 458 619.17677609 458 625 C457.08750488 624.91959473 456.17500977 624.83918945 455.23486328 624.75634766 C451.65249543 624.44310831 448.06978637 624.13437433 444.48681641 623.828125 C442.97300239 623.69793136 441.45931662 623.56623252 439.94580078 623.43261719 C433.96737508 622.90570509 427.98556257 622.43823634 422 622 C420.81931946 621.91314941 419.63863892 621.82629883 418.42218018 621.73681641 C396.678098 620.18477138 375.01721179 619.68023073 353.22070312 619.73925781 C348.95903807 619.75070648 344.69762142 619.74382468 340.43596458 619.73237991 C320.53500703 619.68703514 300.82953802 620.12053361 281 622 C280.19069031 622.07561157 279.38138062 622.15122314 278.54754639 622.22912598 C274.06264819 622.65959144 269.59410166 623.17546688 265.125 623.75 C264.47731659 623.83236908 263.82963318 623.91473816 263.162323 623.99960327 C226.45505963 628.71777612 189.73329583 637.2763415 157 655 C155.94554688 655.56332031 154.89109375 656.12664063 153.8046875 656.70703125 C126.73183742 671.79855473 105.99274041 695.17822448 97 725 C96.70480469 725.94746094 96.40960937 726.89492187 96.10546875 727.87109375 C82.29951524 776.90603207 101.45014467 835.50050932 124.91650391 878.67626953 C148.79543865 921.20952628 187.55978135 948.98418523 233 965 C233.75603516 965.27295898 234.51207031 965.54591797 235.29101562 965.82714844 C262.2583848 975.54068435 290.54025771 980.56261914 318.86328125 984.3984375 C319.65143219 984.50549452 320.43958313 984.61255154 321.25161743 984.72285271 C340.61811492 987.33515577 360.0486255 989.21327243 379.5 991.0625 C391.1907745 992.17605194 402.87820932 993.31252401 414.55780029 994.53845215 C417.36069595 994.83237019 420.16362393 995.11198017 422.96905518 995.38195801 C443.36019247 997.37842453 461.80929631 1002.79484034 481.097229 1009.35369873 C484.87671654 1010.63351287 488.66518145 1011.88610909 492.453125 1013.140625 C498.40288673 1015.11494342 504.35071592 1017.09494133 510.29589844 1019.08300781 C511.01600979 1019.32365589 511.73612114 1019.56430397 512.47805405 1019.81224442 C516.12077548 1021.03101544 519.76087747 1022.25694545 523.39709473 1023.49499512 C526.93904664 1024.70092103 530.4858799 1025.8913138 534.03648758 1027.07149887 C535.34700486 1027.51040831 536.65560081 1027.95510741 537.96195602 1028.40625381 C545.07476712 1030.86023828 551.20984969 1032.49549489 558.76870728 1031.99938965 C562.25005429 1032.00034194 564.13026188 1033.45273268 566.75 1035.625 C567.64847656 1036.34945312 568.54695313 1037.07390625 569.47265625 1037.8203125 C570.72369141 1038.89925781 570.72369141 1038.89925781 572 1040 C572.74121094 1040.61617187 573.48242188 1041.23234375 574.24609375 1041.8671875 C575.85303826 1043.2187022 577.43064284 1044.60501586 579 1046 C577.63779824 1052.67546634 575.8130259 1059.00983606 573.5625 1065.4375 C573.04405518 1066.91935791 573.04405518 1066.91935791 572.51513672 1068.43115234 C558.20778575 1108.54070275 538.68283277 1146.71659017 512 1180 C511.29568848 1180.88220215 511.29568848 1180.88220215 510.57714844 1181.78222656 C498.45628383 1196.81417803 484.54022676 1211.49343866 469 1223 C468.38576172 1223.46889648 467.77152344 1223.93779297 467.13867188 1224.42089844 C409.85148994 1268.10576845 336.15502185 1283.9938458 265.21875 1284.203125 C263.73276744 1284.2101934 262.24678519 1284.21732604 260.76080322 1284.22451782 C256.00719728 1284.2441294 251.25364257 1284.24921324 246.5 1284.25 C245.68505569 1284.25029457 244.87011139 1284.25058914 244.0304718 1284.25089264 C217.26347441 1284.25245317 190.68576299 1283.66015624 164.01025391 1281.2689209 C160.86546394 1280.98798123 157.71992727 1280.71673725 154.57421875 1280.44628906 C99.89391671 1275.69443366 45.4315509 1268.5879464 -9.01688004 1261.73900986 C-58.91263463 1255.45695213 -58.91263463 1255.45695213 -109 1251 C-109.78048706 1250.94497314 -110.56097412 1250.88994629 -111.3651123 1250.83325195 C-122.2361215 1250.07729279 -133.11117128 1249.43437041 -144 1249 C-145.02961853 1248.95763214 -146.05923706 1248.91526428 -147.12005615 1248.87161255 C-174.28116844 1247.79424016 -201.44627835 1247.79874187 -228.625 1247.8125 C-229.80800438 1247.81276688 -230.99100876 1247.81303375 -232.20986176 1247.81330872 C-269.18162726 1247.82376089 -306.07508839 1248.13352398 -343.01348877 1249.81964111 C-346.49360482 1249.97708952 -349.97387233 1250.12926568 -353.45434284 1250.27856255 C-434.04788269 1253.73602901 -514.52348012 1259.41730585 -595.00522232 1264.80751419 C-596.88982477 1264.93373217 -596.88982477 1264.93373217 -598.8125 1265.0625 C-600.69528971 1265.18859713 -600.69528971 1265.18859713 -602.61611557 1265.31724167 C-791.25829621 1277.94839436 -791.25829621 1277.94839436 -875.875 1279.5625 C-876.95940369 1279.58334656 -878.04380737 1279.60419312 -879.16107178 1279.62567139 C-900.11023083 1280.02053621 -921.04794486 1280.20681787 -942 1280 C-943.37460388 1279.9870993 -943.37460388 1279.9870993 -944.77697754 1279.97393799 C-1032.59426168 1279.11136996 -1124.97203559 1274.81976133 -1291.4453125 1190.97607422 C-1319.15171142 1162.37112155 -1334.86367099 1122.6794269 -1335.23828125 1082.83203125 C-1335.24816574 1081.96789612 -1335.25805023 1081.10376099 -1335.26823425 1080.21343994 C-1335.4533051 1059.78097911 -1334.91780124 1040.12131617 -1331 1020 C-1330.87367188 1019.33581055 -1330.74734375 1018.67162109 -1330.6171875 1017.98730469 C-1324.20775877 984.32209447 -1314.0237201 951.68615929 -1301 920 C-1300.56864746 918.94490234 -1300.13729492 917.88980469 -1299.69287109 916.80273438 C-1281.06733825 871.45952409 -1259.58542909 826.12188346 -1230.21240234 786.63623047 C-1228.90549057 784.87245223 -1227.61765532 783.09575434 -1226.33203125 781.31640625 C-1216.19150013 767.31341477 -1205.48462104 753.92515049 -1194 741 C-1193.13761719 740.02417969 -1192.27523437 739.04835938 -1191.38671875 738.04296875 C-1184.83992504 730.79785037 -1177.98211179 723.85467985 -1171.10241699 716.92718506 C-1170.00965496 715.82637092 -1168.91837649 714.72408168 -1167.82873535 713.62017822 C-1161.61681601 707.33562588 -1155.33225247 701.41266725 -1148.39624023 695.92260742 C-1146.05786817 694.04643014 -1143.8355331 692.08676728 -1141.625 690.0625 C-1136.01225796 685.0337999 -1130.03640613 680.50099206 -1124 676 C-1123.32259766 675.49275391 -1122.64519531 674.98550781 -1121.94726562 674.46289062 C-1111.65292722 666.78654927 -1101.11804277 659.77382036 -1090.06835938 653.23486328 C-1088.19212136 652.11470135 -1086.33530648 650.96993134 -1084.484375 649.80859375 C-1017.1946563 607.85511007 -938.45217622 587.86326257 -860 582 C-858.76241943 581.90356201 -857.52483887 581.80712402 -856.24975586 581.70776367 C-842.65722023 580.76870384 -829.05718236 580.80052841 -815.4375 580.8125 C-814.16966675 580.81310425 -812.9018335 580.8137085 -811.59558105 580.81433105 C-792.31264195 580.83926877 -773.20444154 581.15828213 -754 583 C-753.24182983 583.07259033 -752.48365967 583.14518066 -751.70251465 583.2199707 C-717.86816868 586.48294954 -717.86816868 586.48294954 -707 589 C-713.41817034 610.57666311 -723.35442233 628.88346371 -738 646 C-739.02287109 647.20849609 -739.02287109 647.20849609 -740.06640625 648.44140625 C-744.37496845 653.42449874 -748.88956571 657.84722801 -754 662 C-754.91136719 662.74894531 -755.82273437 663.49789062 -756.76171875 664.26953125 C-768.98235465 674.0061734 -782.35218224 681.73582614 -796.125 689.0625 C-796.9504834 689.50835449 -797.7759668 689.95420898 -798.62646484 690.41357422 C-820.64690968 701.89166469 -844.57135883 709.81899273 -867.8125 718.4375 C-893.47998344 727.94058973 -893.47998344 727.94058973 -918.9453125 737.96875 C-919.98440262 738.39034897 -921.02349274 738.81194794 -922.09407043 739.24632263 C-956.88580982 753.554198 -988.74691745 771.92552146 -1016 798 C-1016.55155762 798.51900879 -1017.10311523 799.03801758 -1017.67138672 799.57275391 C-1048.6647062 828.83499377 -1068.19604325 867.11538002 -1070 910 C-1070.49782095 953.46359807 -1053.47566257 994.68854225 -1029 1030 C-1028.49355957 1030.73557129 -1027.98711914 1031.47114258 -1027.46533203 1032.22900391 C-1019.94686802 1043.0843793 -1011.83576173 1053.19581454 -1003 1063 C-1002.3395166 1063.7422583 -1001.6790332 1064.4845166 -1000.99853516 1065.24926758 C-982.47995791 1087.65754811 -982.47995791 1087.65754811 -958.28808594 1102.27490234 C-955.43337752 1103.17956346 -952.63351272 1104.2118889 -949.8203125 1105.23828125 C-881.29781785 1129.72598997 -808.79076917 1115.36021082 -744 1086 C-742.91960449 1085.51515137 -741.83920898 1085.03030273 -740.72607422 1084.53076172 C-724.7553978 1077.34429346 -709.23104373 1069.64027941 -694 1061 C-692.20188267 1059.98947699 -690.40370526 1058.97906089 -688.60546875 1057.96875 C-662.15412968 1043.0422423 -636.89681878 1026.37576935 -612 1009 C-611.32356445 1008.52933105 -610.64712891 1008.05866211 -609.95019531 1007.57373047 C-600.14730234 1000.74406707 -590.51660061 993.71721159 -580.99267578 986.50439453 C-578.97846329 984.9837406 -576.95731326 983.47281774 -574.93359375 981.96484375 C-566.76290381 975.87385878 -558.69256527 969.67416471 -550.70458984 963.34570312 C-549.01273935 962.01005719 -547.31430158 960.68331703 -545.61328125 959.359375 C-536.91701795 952.58317899 -528.39826155 945.60515043 -519.90673828 938.57470703 C-517.36440925 936.47508831 -514.80755092 934.39353488 -512.25 932.3125 C-506.10017044 927.28673295 -500.0514227 922.14335458 -494 917 C-487.89111965 911.80780978 -481.78489359 906.61876419 -475.5625 901.5625 C-469.55264169 896.66751395 -463.68248717 891.61682642 -457.81152344 886.55712891 C-456.00637604 885.00548064 -454.19561441 883.46066415 -452.3828125 881.91796875 C-446.95189379 877.29184977 -441.56621685 872.64084489 -436.3125 867.8125 C-432.83863691 864.62263156 -429.30089975 861.57951106 -425.625 858.625 C-420.82779065 854.75716454 -416.32795793 850.64890505 -411.83422852 846.43969727 C-408.50880245 843.34249154 -405.11298325 840.40392933 -401.5625 837.5625 C-396.54077775 833.53488871 -391.87417239 829.20654144 -387.19165039 824.79711914 C-383.72921156 821.55436739 -380.20704024 818.46563219 -376.5 815.5 C-370.80368295 810.93958074 -365.52680934 805.98265337 -360.20703125 800.99609375 C-356.05986814 797.10969832 -351.79087621 793.38391053 -347.46972656 789.69287109 C-345.68779854 788.17065933 -343.90631399 786.64793026 -342.125 785.125 C-341.51615967 784.60502441 -340.90731934 784.08504883 -340.2800293 783.54931641 C-336.74299739 780.52055224 -333.25573515 777.44820537 -329.8125 774.3125 C-326.4991692 771.30185521 -323.11058071 768.43434822 -319.625 765.625 C-315.61173716 762.38047483 -311.77584616 759.01252817 -308 755.5 C-303.47008675 751.28976858 -298.79707836 747.32362154 -293.98046875 743.4453125 C-290.42709058 740.52995898 -286.96284737 737.52178951 -283.5 734.5 C-277.42969417 729.20973724 -271.26210764 724.06257873 -265 719 C-263.27002243 717.5843237 -261.54087763 716.1676292 -259.8125 714.75 C-258.45125 713.63818359 -258.45125 713.63818359 -257.0625 712.50390625 C-254.80911343 710.66153279 -252.55974728 708.81466973 -250.3125 706.96484375 C-241.7066146 699.901774 -232.94309305 693.1076919 -223.99560547 686.48388672 C-222.0009368 685.00069659 -220.01657343 683.50474307 -218.03515625 682.00390625 C-203.1113889 670.70686962 -187.89193871 659.89869341 -172 650 C-171.17935059 649.48824219 -170.35870117 648.97648437 -169.51318359 648.44921875 C-125.1419556 621 -125.1419556 621 -113 621 C-113.43570312 620.16082031 -113.87140625 619.32164062 -114.3203125 618.45703125 C-125.01877162 597.14473358 -129.2427649 573.68726044 -130 550 C-130.061875 548.14181641 -130.061875 548.14181641 -130.125 546.24609375 C-131.26660052 474.39661134 -109.71535204 402.02311418 -89 334 C-88.43183212 332.13047814 -87.86366836 330.26095503 -87.29560852 328.39140034 C-81.30269838 308.67096016 -75.26768107 288.96345294 -69.22537231 269.25810337 C-65.27125704 256.362674 -61.32052228 243.46621097 -57.37484169 230.5681982 C-56.21764208 226.78573549 -55.05970994 223.00350109 -53.89971924 219.22189331 C-45.26212248 191.06207938 -36.70970641 162.86798169 -29 134.4375 C-28.75431274 133.53309174 -28.50862549 132.62868347 -28.25549316 131.6968689 C-16.47047967 88.21651503 -7.02499673 44.50025504 0 0 Z " fill="#000000" transform="translate(2148,1346)"/>
<path d="M0 0 C1.34360596 0.00040787 1.34360596 0.00040787 2.71435547 0.00082397 C101.79749474 0.138244 199.27934669 29.7220902 285.5 86.1875 C286.09345215 86.58050293 286.6869043 86.97350586 287.29833984 87.37841797 C303.34615719 98.04483091 318.78384946 109.74911479 333.5 122.1875 C334.00450684 122.60854004 334.50901367 123.02958008 335.02880859 123.46337891 C348.68896915 134.8692264 361.51825547 147.13543156 374.125 159.6875 C374.85879883 160.41662598 375.59259766 161.14575195 376.34863281 161.89697266 C380.38368436 165.94406085 384.24133917 170.08986627 387.97216797 174.41894531 C389.8513291 176.59418393 391.79973955 178.70099755 393.75 180.8125 C398.7918172 186.40696159 403.39119697 192.29647767 407.99023438 198.25390625 C409.50829137 200.19811896 411.05465633 202.11626815 412.609375 204.03125 C433.26912208 229.68633891 451.41926699 258.4122935 465.53125 288.16455078 C466.60237861 290.4012876 467.7064957 292.62015456 468.8125 294.83984375 C489.31230939 336.37424016 501.49963649 380.93829024 510.5 426.1875 C510.81130859 427.7348584 510.81130859 427.7348584 511.12890625 429.31347656 C516.50753607 456.46051205 519.59615967 484.85819934 519.703125 512.51953125 C519.71357849 514.35436066 519.71357849 514.35436066 519.72424316 516.22625732 C519.74153031 520.15087369 519.74796276 524.07534714 519.75 528 C519.75088371 529.00335955 519.75088371 529.00335955 519.75178528 530.02698898 C519.76476264 550.90916568 519.26988037 571.46217317 516.5 592.1875 C516.35546387 593.33653809 516.21092773 594.48557617 516.06201172 595.66943359 C504.510749 686.5061075 468.27306684 772.69962725 412.5 845.1875 C412.04415527 845.78369141 411.58831055 846.37988281 411.11865234 846.99414062 C396.89424495 865.56418382 381.13763935 882.7671883 364.5 899.1875 C361.90594606 901.76937529 359.32828759 904.36364052 356.7734375 906.984375 C351.17626087 912.70567674 345.47547153 918.00530607 339.1953125 922.98828125 C336.45545052 925.22384979 333.89017756 927.58006092 331.3125 930 C325.07876753 935.7282947 318.35245379 940.70921134 311.52441406 945.70263672 C309.59891185 947.11495033 307.68462026 948.54104915 305.7734375 949.97265625 C285.67041495 964.97330693 264.37056442 977.9494733 242.5 990.1875 C241.74541504 990.61289063 240.99083008 991.03828125 240.21337891 991.4765625 C171.56625902 1029.91522977 89.69069955 1048.83620548 -153.00634766 1036.20117188 C-160.5487742 1033.9997268 -168.03353114 1031.63300286 -175.5 1029.1875 C-176.37382324 1028.90438965 -177.24764648 1028.6212793 -178.14794922 1028.32958984 C-218.61018856 1015.11565908 -257.4904365 995.35175743 -292.5 971.1875 C-293.18594238 970.71554199 -293.87188477 970.24358398 -294.57861328 969.75732422 C-303.96697771 963.27676567 -313.09587266 956.54620254 -321.98779297 949.39990234 C-323.35131516 948.30670712 -324.72395161 947.22490347 -326.09765625 946.14453125 C-342.11972343 933.5092425 -357.04633826 919.69992565 -371.5 905.3125 C-372.19391846 904.62325439 -372.88783691 903.93400879 -373.6027832 903.22387695 C-377.5341854 899.28013424 -381.28170561 895.22998487 -384.91894531 891.01367188 C-387.02016433 888.58669252 -389.19679593 886.23288758 -391.375 883.875 C-396.29513443 878.47249945 -400.94257746 872.89763746 -405.5 867.1875 C-406.1199585 866.41696289 -406.1199585 866.41696289 -406.75244141 865.63085938 C-427.91751169 839.29988815 -446.55135669 810.96312281 -462.5 781.1875 C-463.20141113 779.88522461 -463.20141113 779.88522461 -463.91699219 778.55664062 C-493.12154432 724.15185202 -513.44377829 665.14606406 -523.5 604.1875 C-523.67724609 603.13433594 -523.85449219 602.08117188 -524.03710938 600.99609375 C-531.49663988 555.80803531 -533.42812124 508.75253399 -528.5 463.1875 C-528.37109375 461.97884277 -528.2421875 460.77018555 -528.109375 459.52490234 C-518.72247651 374.40181244 -488.78303222 290.58353646 -436.5 222.1875 C-435.6378754 221.04828713 -434.77589561 219.90896465 -433.9140625 218.76953125 C-426.51847529 209.03603896 -418.86148427 199.56850358 -410.625 190.53125 C-408.67505276 188.38057289 -406.76973871 186.19925029 -404.875 184 C-402.15799479 180.87607005 -399.29701522 177.95761727 -396.34008789 175.06201172 C-394.56907108 173.25786324 -392.93471798 171.39308135 -391.30078125 169.46484375 C-387.51230969 165.10955356 -383.4185112 161.17073705 -379.1875 157.25 C-378.43839355 156.55124756 -377.68928711 155.85249512 -376.91748047 155.13256836 C-374.7830718 153.14567074 -372.64297873 151.16514663 -370.5 149.1875 C-369.71858643 148.46433594 -369.71858643 148.46433594 -368.92138672 147.7265625 C-362.65901367 141.94660084 -356.13708123 136.52975014 -349.5 131.1875 C-348.36686303 130.26211592 -347.23406551 129.33631607 -346.1015625 128.41015625 C-332.7882685 117.5768955 -318.89973573 107.52786912 -304.5 98.1875 C-303.46359375 97.506875 -302.4271875 96.82625 -301.359375 96.125 C-282.9775404 84.11216689 -263.93981271 73.38693188 -244.5 63.1875 C-243.59620605 62.70958008 -242.69241211 62.23166016 -241.76123047 61.73925781 C-204.33034719 42.04177841 -164.31090397 27.12412358 -123.5 16.1875 C-121.91759521 15.75896729 -121.91759521 15.75896729 -120.30322266 15.32177734 C-91.96400434 7.75461765 -62.69758522 3.60438661 -33.5 1.1875 C-32.43040039 1.09251221 -31.36080078 0.99752441 -30.25878906 0.8996582 C-20.17110845 0.07514202 -10.11439456 -0.01159156 0 0 Z " fill="#000000" transform="translate(2958.5,668.8125)"/>
<path d="M0 0 C1.06849182 0.00027191 2.13698364 0.00054382 3.237854 0.00082397 C21.69141666 0.02229719 39.98763967 0.58039793 58.375 2.1875 C59.50276855 2.28401855 60.63053711 2.38053711 61.79248047 2.47998047 C114.81814045 7.21705351 168.08130706 19.45003568 216.375 42.1875 C217.38030762 42.65124023 218.38561523 43.11498047 219.42138672 43.59277344 C256.72905944 60.8063922 290.61588224 82.95166446 321.375 110.1875 C322.30828125 111.00863281 323.2415625 111.82976562 324.203125 112.67578125 C330.90802936 118.69708503 337.30418331 125.01603383 343.6875 131.375 C344.96004639 132.64053711 344.96004639 132.64053711 346.25830078 133.93164062 C351.16989768 138.85580904 355.88137615 143.87955454 360.375 149.1875 C360.91181396 149.81760986 361.44862793 150.44771973 362.00170898 151.09692383 C385.69524813 179.09191569 406.63448286 209.94983634 422.39013672 243.13232422 C423.4683138 245.38222374 424.57875141 247.61461663 425.69140625 249.84765625 C448.79023319 296.64427022 462.1834765 347.26642846 469.5625 398.75 C469.79501465 400.34171021 469.79501465 400.34171021 470.03222656 401.96557617 C473.03323639 423.98115428 473.75304609 446.05591309 473.6875 468.25 C473.68476578 470.18465118 473.68476578 470.18465118 473.68197632 472.15838623 C473.63484983 492.01997481 473.02138301 511.48809575 470.375 531.1875 C470.12556641 533.14888916 470.12556641 533.14888916 469.87109375 535.14990234 C458.36903688 624.91451766 423.33624723 710.35492139 338.39929199 808.33843994 C337.40011139 809.34566232 336.40241559 810.35436031 335.40637207 811.36468506 C328.74499472 818.11134921 321.79502423 824.28317457 314.375 830.1875 C313.34744805 831.05088597 312.3240349 831.91927736 311.30859375 832.796875 C238.53263531 895.20880806 143.35034654 923.54946385 49.375 931.1875 C47.69434448 931.33324463 47.69434448 931.33324463 45.97973633 931.48193359 C31.49513444 932.57715157 16.95520209 932.43475958 2.4375 932.4375 C1.36505791 932.43794186 1.36505791 932.43794186 0.27095032 932.43839264 C-21.1594128 932.43981812 -42.36910478 932.27079069 -63.625 929.1875 C-64.69382416 929.03477631 -64.69382416 929.03477631 -65.78424072 928.87896729 C-150.79295707 916.67475695 -228.43860524 880.45952245 -288.9609375 818.81640625 C-290.70620773 817.04731248 -290.70620773 817.04731248 -293.1875 815.1875 C-296.0945422 812.80223461 -298.37698071 810.10543641 -300.8125 807.25 C-302.47181749 805.36181113 -304.19041186 803.61756635 -306 801.875 C-308.83073821 799.09447444 -311.3278718 796.15597403 -313.8125 793.0625 C-317.23520055 788.80158707 -320.81591338 784.78364356 -324.5625 780.8125 C-329.91935296 775.10320026 -334.68959838 769.09571174 -339.37744141 762.83349609 C-341.05924145 760.61457322 -342.79161063 758.43791774 -344.52539062 756.25952148 C-351.81559834 747.09269192 -358.73797197 737.659248 -365.625 728.1875 C-366.08261719 727.5584375 -366.54023438 726.929375 -367.01171875 726.28125 C-371.96501414 719.45332281 -376.78039688 712.53479622 -381.5390625 705.5703125 C-382.10114914 704.74806183 -382.66323578 703.92581116 -383.24235535 703.0786438 C-389.83562067 693.42569245 -396.39582149 683.75047182 -402.9375 674.0625 C-403.57218201 673.12284393 -404.20686401 672.18318787 -404.86077881 671.21505737 C-412.74150629 659.53900262 -420.52481244 647.82235224 -428.04272461 635.90917969 C-435.38251725 624.31887128 -443.15642258 613.01894877 -450.90771484 601.70166016 C-454.87437922 595.89433719 -454.87437922 595.89433719 -454.90740871 592.06637764 C-454.9194079 591.22340665 -454.93140708 590.38043566 -454.94376987 589.51192009 C-454.94681175 588.58559175 -454.94985362 587.6592634 -454.95298767 586.7048645 C-454.96386888 585.72073133 -454.97475008 584.73659817 -454.98596102 583.72264278 C-455.01982258 580.40902038 -455.03916391 577.09547591 -455.05834961 573.78173828 C-455.07905948 571.41145231 -455.10046382 569.04117233 -455.12251282 566.67089844 C-455.19055724 558.86662051 -455.2360243 551.06226676 -455.27734375 543.2578125 C-455.28465002 541.91519716 -455.29196637 540.57258187 -455.2992928 539.22996664 C-455.36702838 526.6827671 -455.42498916 514.13554004 -455.46282101 501.58821297 C-455.47173888 498.68104127 -455.48078625 495.77387002 -455.48999023 492.86669922 C-455.49340878 491.78294175 -455.49340878 491.78294175 -455.49689639 490.67729019 C-455.5351389 479.01262652 -455.62510205 467.34895549 -455.73625737 455.68478264 C-455.84965854 443.6849919 -455.91302163 431.68570887 -455.9294911 419.68538845 C-455.94000629 412.95743767 -455.97344239 406.23138871 -456.06062126 399.50394058 C-456.14179256 393.1584579 -456.15985664 386.81574402 -456.13198662 380.46983337 C-456.13236598 378.15645286 -456.15452997 375.84294263 -456.20158768 373.53004074 C-456.51764196 357.10655023 -453.04569017 346.84768945 -443.33330452 333.58695769 C-440.44319229 329.52755146 -437.8929682 325.26021865 -435.3125 321 C-434.71622803 320.03690918 -434.11995605 319.07381836 -433.50561523 318.08154297 C-420.02138955 296.28200686 -406.66134451 274.41046993 -393.3828125 252.48535156 C-388.47354682 244.37995007 -383.55443968 236.28065029 -378.625 228.1875 C-378.16641602 227.43178711 -377.70783203 226.67607422 -377.23535156 225.89746094 C-364.74081812 205.34522837 -351.21283772 185.26363658 -336.90917969 165.93017578 C-335.08165414 163.45016108 -333.29430949 160.94160662 -331.5 158.4375 C-313.02574709 133.13664423 -291.67552763 108.35016038 -267.625 88.1875 C-266.28695312 87.01574219 -266.28695312 87.01574219 -264.921875 85.8203125 C-241.69552762 65.58535073 -215.44684277 49.31136858 -187.625 36.1875 C-186.55161377 35.67799805 -186.55161377 35.67799805 -185.45654297 35.15820312 C-127.63777225 8.10642366 -63.24772589 -0.06093704 0 0 Z " fill="#000000" transform="translate(454.625,1307.8125)"/>
<path d="M0 0 C27.35888725 22.84052557 43.25459417 56.59963484 46.8190918 91.89916992 C51.86535854 150.49987885 11.42535407 214.6820021 -21.68408203 260.15576172 C-23.83560715 263.17109024 -25.84874022 266.27478144 -27.875 269.375 C-33.89074124 278.51087316 -40.43411958 287.25516893 -47 296 C-47.82636963 297.10311523 -47.82636963 297.10311523 -48.66943359 298.22851562 C-55.82393526 307.75637528 -63.23676605 317.03577711 -70.8515625 326.19921875 C-73.33443617 329.18731982 -75.7760753 332.20373084 -78.1875 335.25 C-85.10982857 343.94728462 -92.36220423 352.34333704 -99.84375 360.5625 C-102.02161569 363.02443513 -104.07554695 365.55553647 -106.125 368.125 C-111.72590521 375.0363423 -117.86169259 381.42980295 -123.98535156 387.87646484 C-126.6471713 390.6821493 -129.29618965 393.49974477 -131.94482422 396.31787109 C-133.9510182 398.45187945 -135.95978407 400.58344507 -137.96875 402.71484375 C-140.64311563 405.55409411 -143.30912683 408.40084402 -145.96875 411.25390625 C-152.8742947 418.65045905 -159.85737623 425.95646017 -167 433.125 C-167.6818335 433.81142578 -168.36366699 434.49785156 -169.06616211 435.20507812 C-172.25706259 438.38622289 -175.48832441 441.46174223 -178.90625 444.3984375 C-183.68386783 448.52169899 -188.07550328 453.00448408 -192.5 457.5 C-197.5470901 462.62810278 -202.60983215 467.63603741 -208.0703125 472.32421875 C-211.38599531 475.20362751 -214.5591863 478.23379219 -217.75 481.25 C-219.15455877 482.57072647 -220.55950992 483.89103577 -221.96484375 485.2109375 C-222.6491748 485.85385742 -223.33350586 486.49677734 -224.03857422 487.15917969 C-231.26422657 493.94053627 -238.56075995 500.53670923 -246.28515625 506.75390625 C-249.10673495 509.0883059 -251.80590712 511.51990598 -254.5 514 C-258.96851335 518.11255781 -263.58731127 521.96888182 -268.3125 525.78125 C-270.9669962 527.97275268 -273.52000885 530.24247683 -276.0625 532.5625 C-280.06807313 536.20795062 -284.19704912 539.62766937 -288.44921875 542.98046875 C-291.07610638 545.06025574 -293.66463558 547.18137237 -296.25 549.3125 C-300.95738789 553.17361591 -305.72608775 556.94811559 -310.52197266 560.69799805 C-314.27443271 563.63486096 -318.00212343 566.60011124 -321.71435547 569.58764648 C-327.57095681 574.30001789 -333.47764348 578.91500171 -339.515625 583.39453125 C-343.24233299 586.16703076 -346.9242214 588.99751809 -350.61157227 591.82202148 C-359.03459417 598.27007209 -367.5110057 604.59995436 -376.18212891 610.70898438 C-378.22886915 612.16253828 -380.26173451 613.63423202 -382.29296875 615.109375 C-383.05262939 615.66085205 -383.81229004 616.2123291 -384.5949707 616.78051758 C-386.03332901 617.82582626 -387.47079079 618.87237073 -388.90698242 619.9206543 C-402.53728971 629.81024735 -416.58075603 639.13795547 -430.53491211 648.56079102 C-432.38211965 649.80887789 -434.22847887 651.05822125 -436.07397461 652.30883789 C-447.87093406 660.30289211 -459.75981791 668.10708214 -471.84918213 675.6519928 C-474.89598098 677.56154862 -477.92777945 679.49437515 -480.9598999 681.42712402 C-523.5614454 708.57819697 -567.65476446 733.29004226 -612.42919922 756.65576172 C-615.26967419 758.14100913 -618.1053173 759.63530191 -620.94140625 761.12890625 C-650.13516209 776.44726071 -679.86988307 790.62454196 -710 804 C-710.69683899 804.31005981 -711.39367798 804.62011963 -712.1116333 804.9395752 C-752.59243876 822.94164667 -793.78291283 839.36120378 -835.55029297 854.13330078 C-837.9823936 854.99377091 -840.41309668 855.85810757 -842.84375 856.72265625 C-887.85459706 872.68886879 -933.7021317 886.30345532 -980 898 C-981.3434549 898.34133972 -981.3434549 898.34133972 -982.71405029 898.6895752 C-1078.13160223 922.91396884 -1176.02067345 937.75639149 -1274.32720947 942.85897827 C-1276.06031912 942.95042057 -1277.79321489 943.04605028 -1279.52581787 943.14663696 C-1300.16961046 944.33726986 -1320.84878966 944.18735096 -1341.51904297 944.18530273 C-1345.72416544 944.18522209 -1349.92917752 944.19207806 -1354.13427734 944.20581055 C-1446.24532574 944.50168603 -1545.92595123 940.71251701 -1704 856 C-1706.51270265 853.45146559 -1708.76684704 850.79281291 -1711 848 C-1711.67933594 847.23042969 -1712.35867187 846.46085937 -1713.05859375 845.66796875 C-1719.88504186 837.77673671 -1725.00278948 829.1263501 -1730 820 C-1730.51691406 819.07703125 -1731.03382813 818.1540625 -1731.56640625 817.203125 C-1743.61266342 793.48823628 -1743.29557128 764.63171424 -1735.375 739.8125 C-1723.95338224 706.54586283 -1696.53103237 681.80205094 -1666 666 C-1665.02305176 665.48808105 -1665.02305176 665.48808105 -1664.02636719 664.96582031 C-1644.1976892 654.70283443 -1622.90515334 648.85997564 -1601 645 C-1600.28602051 644.87399414 -1599.57204102 644.74798828 -1598.83642578 644.61816406 C-1582.85800944 641.88826479 -1566.75103009 641.83081843 -1550.59375 641.796875 C-1548.52488171 641.78973463 -1546.45601372 641.78251019 -1544.387146 641.77520752 C-1459.66027904 641.52061612 -1459.66027904 641.52061612 -1419.21844482 644.81906891 C-1416.78649238 645.01741317 -1414.3544298 645.21437544 -1411.92236328 645.41131592 C-1391.37882987 647.07790855 -1370.84000179 648.80050037 -1350.30224609 650.53665161 C-1287.92921987 655.80873568 -1225.47201068 660.94378323 -1163 654 C-1161.85957245 653.87625 -1161.85957245 653.87625 -1160.69610596 653.75 C-1068.05201277 643.664442 -977.39908988 615.22502783 -710.73486328 497.56445312 C-708.09942002 496.0568723 -705.45579466 494.56494353 -702.80859375 493.078125 C-675.03620547 477.4366312 -648.11153638 460.27475761 -622 442 C-621.33371582 441.53561523 -620.66743164 441.07123047 -619.98095703 440.59277344 C-597.2328889 424.72651889 -575.18839304 408.00487032 -553.73974609 390.42382812 C-552.18051673 389.14773696 -550.615989 387.87812619 -549.05078125 386.609375 C-542.20887812 381.05594706 -535.51062318 375.345237 -528.84130859 369.58691406 C-526.99839371 367.99861563 -525.15004026 366.4168421 -523.30078125 364.8359375 C-515.49831977 358.14548761 -507.91516578 351.26172785 -500.43359375 344.21484375 C-497.58119448 341.53166124 -494.68089931 338.91002688 -491.75 336.3125 C-488.16790502 333.11717607 -484.74769855 329.78870225 -481.375 326.375 C-477.65203436 322.61008545 -473.84947994 319.05016508 -469.83203125 315.60546875 C-465.64351454 311.93493491 -461.7993933 307.98032589 -458.22265625 303.71484375 C-451.56874916 296.07432588 -444.15678773 289.10492348 -436.9609375 281.98144531 C-427.34727596 272.56063634 -427.34727596 272.56063634 -418.34570312 262.56445312 C-416.81351612 260.78320234 -415.17742539 259.14438225 -413.5 257.5 C-411.04551512 255.08934521 -408.7455794 252.60647609 -406.5 250 C-404.2544206 247.39352391 -401.95448488 244.91065479 -399.5 242.5 C-396.5084637 239.5547928 -393.74900771 236.47054257 -391.0078125 233.29296875 C-388.58927388 230.53094118 -386.11108624 227.82602288 -383.625 225.125 C-378.71184234 219.7838465 -373.84620545 214.40204264 -369 209 C-367.50028872 207.33307353 -366.00028679 205.66640851 -364.5 204 C-363.7575 203.175 -363.015 202.35 -362.25 201.5 C-337.5 174 -337.5 174 -335.2421875 171.4921875 C-333.76707382 169.85260121 -332.29308348 168.21200345 -330.8203125 166.5703125 C-322.4587607 157.25655552 -313.98291857 148.04834163 -305.48339844 138.8605957 C-303.03887333 136.21657396 -300.60182919 133.56654315 -298.18359375 130.8984375 C-292.84686233 125.01783536 -287.38780524 119.31080388 -281.703125 113.765625 C-279.66889695 111.68436278 -277.77698842 109.60043764 -275.8894043 107.39379883 C-271.80615552 102.71104839 -267.46384533 98.31979154 -263.06640625 93.93359375 C-262.22963852 93.09586929 -261.39287079 92.25814484 -260.53074646 91.39503479 C-258.77131896 89.63493065 -257.01064347 87.87607323 -255.2487793 86.1184082 C-252.57030589 83.44529028 -249.89721127 80.76687749 -247.22460938 78.08789062 C-245.50552885 76.36947097 -243.78613811 74.65136158 -242.06640625 72.93359375 C-241.27657852 72.14174179 -240.48675079 71.34988983 -239.67298889 70.53404236 C-235.50621805 66.38460802 -231.2666598 62.38540072 -226.80052185 58.55897522 C-223.61393934 55.79988448 -220.56697972 52.8904773 -217.5 50 C-212.41372753 45.23321544 -207.29875408 40.5306778 -202 36 C-200.96706354 35.10200445 -199.9345526 34.20351932 -198.90234375 33.3046875 C-190.80101621 26.27338981 -182.54824846 19.48190237 -174 13 C-173.14970215 12.35417969 -173.14970215 12.35417969 -172.28222656 11.6953125 C-163.31076659 4.9398492 -153.95711839 -0.81090472 -144 -6 C-143.39607422 -6.31565918 -142.79214844 -6.63131836 -142.16992188 -6.95654297 C-97.97504843 -29.67251387 -40.13103244 -32.84014611 0 0 Z " fill="#000000" transform="translate(4025,1360)"/>
<path d="M0 0 C3.84927857 3.49685011 7.43577086 7.21416076 11 11 C13.20902664 13.22368021 15.4223312 15.44085972 17.67456055 17.62084961 C35.51894509 35.06527801 48.13374401 58.32602344 58 81 C58.32693848 81.74781738 58.65387695 82.49563477 58.99072266 83.26611328 C95.40519449 167.97967569 79.74852157 264.35316624 65 352 C64.83240173 352.9982782 64.66480347 353.9965564 64.49212646 355.02508545 C51.43378365 432.54223866 33.51121096 509.1247165 -2.09960938 657.84179688 C-23.20989105 745.22779345 -44.28092137 832.64128883 -70.53515625 975.8125 C-70.65202286 976.57275482 -70.76888947 977.33300964 -70.88929749 978.11630249 C-71.42576114 981.6258335 -71.95025683 985.13655064 -72.4543457 988.65087891 C-72.6318335 989.85147949 -72.80932129 991.05208008 -72.9921875 992.2890625 C-73.21430908 993.84681396 -73.21430908 993.84681396 -73.44091797 995.43603516 C-74 998 -74 998 -76 1001 C-76.7213916 1000.6690332 -77.4427832 1000.33806641 -78.18603516 999.99707031 C-128.57138608 976.95697121 -186.24352045 951.12549932 -242.55859375 950.796875 C-243.3466188 950.79117493 -244.13464386 950.78547485 -244.94654846 950.77960205 C-246.60619802 950.77022336 -248.26586559 950.76364676 -249.92553711 950.75976562 C-252.40058098 950.75014353 -254.87476239 950.71908644 -257.34960938 950.6875 C-278.26536969 950.54811631 -298.24167601 954.50680564 -317 964 C-317.88945313 964.43957031 -318.77890625 964.87914062 -319.6953125 965.33203125 C-327.05549867 969.13793948 -333.50380967 973.8794735 -340 979 C-340.91265625 979.69609375 -340.91265625 979.69609375 -341.84375 980.40625 C-346.13148401 983.78170018 -349.53906707 987.81499473 -353 992 C-353.82628906 992.97710938 -354.65257812 993.95421875 -355.50390625 994.9609375 C-391.21875892 1038.06662811 -402.41528348 1098.57362498 -410.87890625 1152.48828125 C-411.06892904 1153.69285917 -411.06892904 1153.69285917 -411.26279068 1154.921772 C-414.24890985 1173.93464123 -416.67164464 1193.01236012 -419.03232574 1212.11122894 C-419.62145733 1216.86275255 -420.21920303 1221.61319343 -420.81591797 1226.36376953 C-422.8820353 1242.83382056 -424.92285579 1259.30680413 -426.91866493 1275.78552437 C-435.35432219 1345.39610671 -445.03698584 1415.16090346 -467 1482 C-470 1482 -470 1482 -471.43530273 1480.67749023 C-471.92973877 1480.06075439 -472.4241748 1479.44401855 -472.93359375 1478.80859375 C-473.77422363 1477.7736377 -473.77422363 1477.7736377 -474.63183594 1476.71777344 C-475.52563965 1475.58903809 -475.52563965 1475.58903809 -476.4375 1474.4375 C-477.05786133 1473.66825195 -477.67822266 1472.89900391 -478.31738281 1472.10644531 C-480.21961663 1469.74394666 -482.10978704 1467.37211999 -484 1465 C-485.07837167 1463.66190917 -486.15773362 1462.32461555 -487.23828125 1460.98828125 C-537.1467536 1399.1446525 -584.28743147 1330.23685027 -599.25 1250.8125 C-599.40122314 1250.01948486 -599.55244629 1249.22646973 -599.70825195 1248.40942383 C-602.55559266 1232.25948743 -603.38509873 1215.99459209 -603.3125 1199.625 C-603.31001251 1198.71525421 -603.30752502 1197.80550842 -603.30496216 1196.86819458 C-603.23606246 1180.42800961 -602.37963842 1164.28903059 -600 1148 C-599.83951172 1146.89963409 -599.83951172 1146.89963409 -599.67578125 1145.77703857 C-591.69534671 1091.72348095 -577.06306337 1039.04257496 -563.0360508 986.31876183 C-543.79103711 913.98087732 -525.63522405 841.44377917 -484.08330369 630.72064787 C-451.57454201 461.96920856 -451.57454201 461.96920856 -313.54223633 22.53613281 C-311.81398484 20.81472101 -310.23878516 19.00661273 -308.6875 17.125 C-285.24129196 -9.90832191 -248.62545378 -29.25567853 -215 -40 C-214.32291992 -40.22139648 -213.64583984 -40.44279297 -212.94824219 -40.67089844 C-201.16068358 -44.49525642 -189.22137783 -47.00031276 -177 -49 C-176.29955566 -49.12004395 -175.59911133 -49.24008789 -174.87744141 -49.36376953 C-113.13394366 -59.56566241 -47.32869553 -40.35369808 0 0 Z " fill="#000000" transform="translate(2198,51)"/>
<path d="M0 0 C1.26513428 0.15758789 2.53026855 0.31517578 3.83374023 0.47753906 C5.00880127 0.63834961 6.1838623 0.79916016 7.39453125 0.96484375 C8.4410083 1.10398193 9.48748535 1.24312012 10.56567383 1.38647461 C13.50135791 2.14342677 14.43210058 2.62745271 16.1875 5.0625 C18.31882969 9.48408677 19.99838591 14.1038812 21.75 18.6875 C22.01317017 19.37143829 22.27634033 20.05537659 22.54748535 20.76004028 C49.58304273 91.31990771 60.66697514 167.21193167 60.50555801 242.49343872 C60.49992433 245.16082825 60.49709933 247.82821144 60.49447632 250.49560547 C60.45737235 276.45027324 60.06696614 302.242723 57.1875 328.0625 C57.0979303 328.88254517 57.0083606 329.70259033 56.91607666 330.54748535 C55.62432827 342.33633885 54.1412129 354.09328579 52.49810791 365.83813477 C52.20636579 367.92739588 51.91971169 370.01729127 51.63427734 372.10742188 C37.72678299 472.42630081 6.62764107 570.5488578 -75.12890625 752.0078125 C-77.15218825 755.79696538 -79.12910235 759.60779791 -81.08984375 763.4296875 C-88.18332031 777.25185591 -95.51584455 790.88695166 -103.25976562 804.35546875 C-104.77191884 806.99175095 -106.27090276 809.63505282 -107.765625 812.28125 C-119.22974338 832.54180826 -131.24510822 852.46770062 -143.8125 872.0625 C-144.23885742 872.73023438 -144.66521484 873.39796875 -145.10449219 874.0859375 C-166.74445712 907.9600976 -189.50626999 941.12069392 -213.96484375 973.0234375 C-216.84077189 976.77810176 -219.67701398 980.55913603 -222.4909668 984.36035156 C-228.81288083 992.89200128 -235.50844463 1001.07602846 -242.30126953 1009.23535156 C-244.23217263 1011.56990387 -246.12014029 1013.93672638 -248 1016.3125 C-251.46819817 1020.67739043 -255.0599952 1024.92860253 -258.67431641 1029.17236328 C-261.62336388 1032.63961072 -264.51530367 1036.14572063 -267.375 1039.6875 C-271.25062933 1044.45057218 -275.32484289 1048.99614249 -279.48046875 1053.515625 C-281.43655252 1055.65191749 -283.35437697 1057.81030657 -285.25 1060 C-288.63481724 1063.89453089 -292.12104563 1067.69339625 -295.6159668 1071.48876953 C-298.6261947 1074.7597909 -301.6034475 1078.05742749 -304.5625 1081.375 C-307.61855924 1084.78451805 -310.76556794 1088.04951402 -314.03526306 1091.25282288 C-315.77645255 1093.02579457 -317.39263675 1094.85847811 -319.00610352 1096.74780273 C-322.85710511 1101.17358068 -326.93699113 1105.33137892 -331.08984375 1109.47265625 C-331.86002335 1110.24379257 -332.63020294 1111.01492889 -333.42372131 1111.80943298 C-335.04191373 1113.42830153 -336.66135212 1115.04592551 -338.28198242 1116.66235352 C-340.74317232 1119.11818718 -343.19897809 1121.57931365 -345.65429688 1124.04101562 C-347.23665867 1125.62271653 -348.81933067 1127.20410717 -350.40234375 1128.78515625 C-351.12655014 1129.51138687 -351.85075653 1130.23761749 -352.59690857 1130.9858551 C-356.65029673 1135.02092637 -360.79759749 1138.88375387 -365.13844299 1142.60862732 C-367.12855631 1144.33698625 -368.98205167 1146.16667852 -370.8125 1148.0625 C-373.98752757 1151.28076725 -377.27728889 1154.28656253 -380.703125 1157.234375 C-382.97903112 1159.20682697 -385.20838207 1161.22485365 -387.4375 1163.25 C-393.21472616 1168.46100492 -399.12036092 1173.51579412 -405.04541016 1178.55712891 C-406.73524808 1179.99668965 -408.42075961 1181.4411623 -410.10546875 1182.88671875 C-417.21576545 1188.96968452 -424.4818188 1194.81865766 -431.87451172 1200.55419922 C-433.94452906 1202.1652558 -436.0058542 1203.78701395 -438.06640625 1205.41015625 C-448.45547025 1213.57437626 -459.03314375 1221.42217475 -469.8125 1229.0625 C-471.03138916 1229.9292334 -471.03138916 1229.9292334 -472.27490234 1230.81347656 C-483.60375568 1238.85812673 -495.05787414 1246.65277773 -506.8125 1254.0625 C-507.85921875 1254.7225 -508.9059375 1255.3825 -509.984375 1256.0625 C-513.24446022 1258.08949599 -516.52402939 1260.08209513 -519.8125 1262.0625 C-520.5653125 1262.51818359 -521.318125 1262.97386719 -522.09375 1263.44335938 C-605.35189967 1313.72347632 -701.10317175 1349.88362074 -818.8125 1336.0625 C-819.64217285 1335.90442871 -820.4718457 1335.74635742 -821.32666016 1335.58349609 C-849.45500105 1330.07196884 -890.82422455 1320.05077545 -911.8125 1299.0625 C-911.9487903 1297.01938288 -912.01452161 1294.9715502 -912.05387878 1292.92427063 C-912.06743339 1292.2758422 -912.080988 1291.62741376 -912.09495336 1290.95933598 C-912.13900624 1288.77023893 -912.1754938 1286.58108621 -912.21166992 1284.3918457 C-912.24083618 1282.82822323 -912.27019348 1281.26460432 -912.29972839 1279.70098877 C-912.56011048 1265.37861695 -912.7085292 1251.05452969 -912.82725048 1236.73035908 C-912.90889033 1227.10216742 -913.02426805 1217.47684649 -913.2253418 1207.8503418 C-913.40075598 1199.45128499 -913.51192554 1191.05423455 -913.54676324 1182.65337437 C-913.56727869 1178.20945274 -913.61841847 1173.77093834 -913.74620628 1169.32869911 C-914.5496766 1140.2054966 -914.5496766 1140.2054966 -907.96890259 1132.87753296 C-904.32993754 1129.68842284 -900.46936765 1127.31814277 -896.12604713 1125.20989037 C-893.09639041 1123.70734958 -890.33634029 1121.88677234 -887.52286053 1120.01822376 C-885.61378079 1118.76407082 -883.67230062 1117.58054052 -881.7109375 1116.41015625 C-879.14531309 1114.87626208 -876.61203767 1113.3061856 -874.1015625 1111.68359375 C-863.23569208 1104.682556 -851.92627519 1098.57745606 -840.51953125 1092.5078125 C-838.25568667 1091.29912203 -836.00006675 1090.07780723 -833.75 1088.84375 C-825.89961264 1084.5680926 -817.90452864 1080.66127931 -809.82788086 1076.83154297 C-800.29033839 1072.30786165 -790.80066984 1067.68863444 -781.3125 1063.0625 C-771.24414319 1058.1558248 -761.17349974 1053.25589958 -751.0625 1048.4375 C-748.34598693 1047.1400759 -745.62972411 1045.84212956 -742.91357422 1044.54394531 C-740.6422663 1043.45889599 -738.37038928 1042.37507549 -736.09814453 1041.29199219 C-716.71374961 1032.04418883 -697.64439865 1022.39305341 -678.8125 1012.0625 C-677.1342211 1011.14954375 -675.45584521 1010.23676575 -673.77734375 1009.32421875 C-657.97560059 1000.68696838 -642.49886067 991.48546758 -627.63671875 981.31005859 C-625.7628541 980.02854784 -623.88188397 978.75798035 -622 977.48828125 C-606.30195834 966.85115342 -591.13606797 955.57692828 -576.53173828 943.48193359 C-574.11944282 941.49029971 -571.68254633 939.52931581 -569.25 937.5625 C-559.3065953 929.40801369 -549.6487301 920.93144069 -540.24145508 912.1652832 C-537.4147291 909.53201802 -534.55974538 906.94964205 -531.625 904.4375 C-527.61853768 900.97929042 -523.94847764 897.21222624 -520.23046875 893.44921875 C-518.24982417 891.49417216 -516.24961836 889.66779076 -514.125 887.875 C-505.25764674 880.27441149 -496.88029061 871.73612417 -489.34765625 862.81640625 C-487.58638512 860.80416518 -485.71770161 858.93878014 -483.8125 857.0625 C-480.61988688 853.9126997 -477.64088721 850.65030511 -474.71875 847.25 C-472.50304352 844.70738601 -470.22151408 842.23139802 -467.9375 839.75 C-463.84369791 835.26101943 -459.95780333 830.65006524 -456.14453125 825.921875 C-454.10801394 823.4248387 -452.02992023 820.97096052 -449.9284668 818.52856445 C-443.50461949 811.04613141 -437.50435615 803.27479332 -431.57324219 795.3984375 C-429.7344711 792.95898079 -427.88703731 790.52624009 -426.0390625 788.09375 C-418.34202653 777.93432724 -410.87458933 767.67312524 -403.8125 757.0625 C-403.19149414 756.13228027 -402.57048828 755.20206055 -401.93066406 754.24365234 C-364.98765197 698.75866589 -334.54450585 639.775338 -311.59179688 577.1875 C-310.81218824 575.06164989 -310.02914374 572.9370845 -309.24609375 570.8125 C-301.79030035 550.52319076 -295.24712083 530.05565501 -289.42321777 509.24102783 C-288.80973917 507.05265169 -288.1910357 504.86580773 -287.57128906 502.67919922 C-268.72443624 436.02124912 -257.11733791 367.7543119 -247.19140625 299.27734375 C-246.9502433 297.6147798 -246.9502433 297.6147798 -246.70420837 295.91862869 C-245.07325421 284.66950033 -243.44981121 273.41937203 -241.85091019 262.16563988 C-238.69816576 239.9971758 -235.3897026 217.87505531 -231.53515625 195.81640625 C-231.36911833 194.86578749 -231.20308041 193.91516872 -231.03201103 192.93574333 C-222.05859227 141.78057682 -211.65005064 83.02474986 -175.8125 43.0625 C-175.17054688 42.29035156 -174.52859375 41.51820312 -173.8671875 40.72265625 C-168.78264711 34.70149 -163.03213621 29.8760326 -156.8125 25.0625 C-156.01714844 24.40507813 -155.22179688 23.74765625 -154.40234375 23.0703125 C-140.09431356 11.77807948 -122.30982619 5.44828268 -104.8125 1.0625 C-103.554375 0.74667969 -102.29625 0.43085937 -101 0.10546875 C-67.92090054 -7.25753256 -33.26972548 -4.30662784 0 0 Z " fill="#000000" transform="translate(2049.8125,1057.9375)"/>
</svg>
